<svg viewBox="0 0 330 200" xmlns="http://www.w3.org/2000/svg"><g><g><g><g><g><line x1="41.171875" y1="178" x2="36.171875" y2="178" style="visibility: inherit;" fill="rgb(0, 0, 0)" stroke="rgb(204, 204, 204)" stroke-width="1px"></line><line x1="41.171875" y1="161.81818181818184" x2="36.171875" y2="161.81818181818184" style="visibility: inherit;" fill="rgb(0, 0, 0)" stroke="rgb(204, 204, 204)" stroke-width="1px"></line><line x1="41.171875" y1="145.63636363636365" x2="36.171875" y2="145.63636363636365" style="visibility: inherit;" fill="rgb(0, 0, 0)" stroke="rgb(204, 204, 204)" stroke-width="1px"></line><line x1="41.171875" y1="129.45454545454547" x2="36.171875" y2="129.45454545454547" style="visibility: inherit;" fill="rgb(0, 0, 0)" stroke="rgb(204, 204, 204)" stroke-width="1px"></line><line x1="41.171875" y1="113.27272727272727" x2="36.171875" y2="113.27272727272727" style="visibility: inherit;" fill="rgb(0, 0, 0)" stroke="rgb(204, 204, 204)" stroke-width="1px"></line><line x1="41.171875" y1="97.09090909090908" x2="36.171875" y2="97.09090909090908" style="visibility: inherit;" fill="rgb(0, 0, 0)" stroke="rgb(204, 204, 204)" stroke-width="1px"></line><line x1="41.171875" y1="80.90909090909089" x2="36.171875" y2="80.90909090909089" style="visibility: inherit;" fill="rgb(0, 0, 0)" stroke="rgb(204, 204, 204)" stroke-width="1px"></line><line x1="41.171875" y1="64.72727272727275" x2="36.171875" y2="64.72727272727275" style="visibility: inherit;" fill="rgb(0, 0, 0)" stroke="rgb(204, 204, 204)" stroke-width="1px"></line><line x1="41.171875" y1="48.54545454545454" x2="36.171875" y2="48.54545454545454" style="visibility: inherit;" fill="rgb(0, 0, 0)" stroke="rgb(204, 204, 204)" stroke-width="1px"></line><line x1="41.171875" y1="32.363636363636395" x2="36.171875" y2="32.363636363636395" style="visibility: inherit;" fill="rgb(0, 0, 0)" stroke="rgb(204, 204, 204)" stroke-width="1px"></line><line x1="41.171875" y1="16.181818181818187" x2="36.171875" y2="16.181818181818187" style="visibility: inherit;" fill="rgb(0, 0, 0)" stroke="rgb(204, 204, 204)" stroke-width="1px"></line><line x1="41.171875" y1="0" x2="36.171875" y2="0" style="visibility: inherit;" fill="rgb(0, 0, 0)" stroke="rgb(204, 204, 204)" stroke-width="1px"></line></g><g transform="translate(31.171875, 0)"><text x="0" y="178" dx="0em" dy="0.3em" style="text-anchor: end; visibility: hidden; font-family: Roboto, sans-serif; font-size: 12px; font-weight: 200;" fill="rgb(50, 49, 63)" stroke="none" stroke-width="1px">0.5</text><text x="0" y="161.81818181818184" dx="0em" dy="0.3em" style="text-anchor: end; visibility: inherit; font-family: Roboto, sans-serif; font-size: 12px; font-weight: 200;" fill="rgb(50, 49, 63)" stroke="none" stroke-width="1px">0.6</text><text x="0" y="145.63636363636365" dx="0em" dy="0.3em" style="text-anchor: end; visibility: hidden; font-family: Roboto, sans-serif; font-size: 12px; font-weight: 200;" fill="rgb(50, 49, 63)" stroke="none" stroke-width="1px">0.7</text><text x="0" y="129.45454545454547" dx="0em" dy="0.3em" style="text-anchor: end; visibility: inherit; font-family: Roboto, sans-serif; font-size: 12px; font-weight: 200;" fill="rgb(50, 49, 63)" stroke="none" stroke-width="1px">0.8</text><text x="0" y="113.27272727272727" dx="0em" dy="0.3em" style="text-anchor: end; visibility: hidden; font-family: Roboto, sans-serif; font-size: 12px; font-weight: 200;" fill="rgb(50, 49, 63)" stroke="none" stroke-width="1px">0.9</text><text x="0" y="97.09090909090908" dx="0em" dy="0.3em" style="text-anchor: end; visibility: inherit; font-family: Roboto, sans-serif; font-size: 12px; font-weight: 200;" fill="rgb(50, 49, 63)" stroke="none" stroke-width="1px">1</text><text x="0" y="80.90909090909089" dx="0em" dy="0.3em" style="text-anchor: end; visibility: hidden; font-family: Roboto, sans-serif; font-size: 12px; font-weight: 200;" fill="rgb(50, 49, 63)" stroke="none" stroke-width="1px">1.1</text><text x="0" y="64.72727272727275" dx="0em" dy="0.3em" style="text-anchor: end; visibility: inherit; font-family: Roboto, sans-serif; font-size: 12px; font-weight: 200;" fill="rgb(50, 49, 63)" stroke="none" stroke-width="1px">1.2</text><text x="0" y="48.54545454545454" dx="0em" dy="0.3em" style="text-anchor: end; visibility: hidden; font-family: Roboto, sans-serif; font-size: 12px; font-weight: 200;" fill="rgb(50, 49, 63)" stroke="none" stroke-width="1px">1.3</text><text x="0" y="32.363636363636395" dx="0em" dy="0.3em" style="text-anchor: end; visibility: inherit; font-family: Roboto, sans-serif; font-size: 12px; font-weight: 200;" fill="rgb(50, 49, 63)" stroke="none" stroke-width="1px">1.4</text><text x="0" y="16.181818181818187" dx="0em" dy="0.3em" style="text-anchor: end; visibility: hidden; font-family: Roboto, sans-serif; font-size: 12px; font-weight: 200;" fill="rgb(50, 49, 63)" stroke="none" stroke-width="1px">1.5</text><text x="0" y="0" dx="0em" dy="0.3em" style="text-anchor: end; visibility: hidden; font-family: Roboto, sans-serif; font-size: 12px; font-weight: 200;" fill="rgb(50, 49, 63)" stroke="none" stroke-width="1px">1.6</text></g><line x1="41.171875" y1="0" x2="41.171875" y2="178" fill="rgb(0, 0, 0)" stroke="rgb(204, 204, 204)" stroke-width="1px"></line></g></g><g transform="translate(41, 0)" clip-path="url(#clip_0)"><clipPath id="clip_0"><rect width="288" height="178"></rect></clipPath><g><g><g><line x1="0" y1="0" x2="0" y2="178" fill="rgb(0, 0, 0)" stroke="rgb(60, 60, 60)" stroke-width="1px" opacity="0.25"></line><line x1="20.630580357142858" y1="0" x2="20.630580357142858" y2="178" fill="rgb(0, 0, 0)" stroke="rgb(60, 60, 60)" stroke-width="1px" opacity="0.25"></line><line x1="41.261160714285715" y1="0" x2="41.261160714285715" y2="178" fill="rgb(0, 0, 0)" stroke="rgb(60, 60, 60)" stroke-width="1px" opacity="0.25"></line><line x1="61.89174107142857" y1="0" x2="61.89174107142857" y2="178" fill="rgb(0, 0, 0)" stroke="rgb(60, 60, 60)" stroke-width="1px" opacity="0.25"></line><line x1="82.52232142857143" y1="0" x2="82.52232142857143" y2="178" fill="rgb(0, 0, 0)" stroke="rgb(60, 60, 60)" stroke-width="1px" opacity="0.25"></line><line x1="103.15290178571429" y1="0" x2="103.15290178571429" y2="178" fill="rgb(0, 0, 0)" stroke="rgb(60, 60, 60)" stroke-width="1px" opacity="0.25"></line><line x1="123.78348214285714" y1="0" x2="123.78348214285714" y2="178" fill="rgb(0, 0, 0)" stroke="rgb(60, 60, 60)" stroke-width="1px" opacity="0.25"></line><line x1="144.4140625" y1="0" x2="144.4140625" y2="178" fill="rgb(0, 0, 0)" stroke="rgb(60, 60, 60)" stroke-width="1px" opacity="0.25"></line><line x1="165.04464285714286" y1="0" x2="165.04464285714286" y2="178" fill="rgb(0, 0, 0)" stroke="rgb(60, 60, 60)" stroke-width="1px" opacity="0.25"></line><line x1="185.67522321428572" y1="0" x2="185.67522321428572" y2="178" fill="rgb(0, 0, 0)" stroke="rgb(60, 60, 60)" stroke-width="1px" opacity="0.25"></line><line x1="206.30580357142858" y1="0" x2="206.30580357142858" y2="178" fill="rgb(0, 0, 0)" stroke="rgb(60, 60, 60)" stroke-width="1px" opacity="0.25"></line><line x1="226.93638392857142" y1="0" x2="226.93638392857142" y2="178" fill="rgb(0, 0, 0)" stroke="rgb(60, 60, 60)" stroke-width="1px" opacity="0.25"></line><line x1="247.56696428571428" y1="0" x2="247.56696428571428" y2="178" fill="rgb(0, 0, 0)" stroke="rgb(60, 60, 60)" stroke-width="1px" opacity="0.25"></line><line x1="268.19754464285717" y1="0" x2="268.19754464285717" y2="178" fill="rgb(0, 0, 0)" stroke="rgb(60, 60, 60)" stroke-width="1px" opacity="0.25"></line><line x1="288.828125" y1="0" x2="288.828125" y2="178" fill="rgb(0, 0, 0)" stroke="rgb(60, 60, 60)" stroke-width="1px" opacity="0.25"></line></g><g><line x1="0" y1="178" x2="288.828125" y2="178" fill="rgb(0, 0, 0)" stroke="rgb(60, 60, 60)" stroke-width="1px" opacity="0.25"></line><line x1="0" y1="161.81818181818184" x2="288.828125" y2="161.81818181818184" fill="rgb(0, 0, 0)" stroke="rgb(60, 60, 60)" stroke-width="1px" opacity="0.25"></line><line x1="0" y1="145.63636363636365" x2="288.828125" y2="145.63636363636365" fill="rgb(0, 0, 0)" stroke="rgb(60, 60, 60)" stroke-width="1px" opacity="0.25"></line><line x1="0" y1="129.45454545454547" x2="288.828125" y2="129.45454545454547" fill="rgb(0, 0, 0)" stroke="rgb(60, 60, 60)" stroke-width="1px" opacity="0.25"></line><line x1="0" y1="113.27272727272727" x2="288.828125" y2="113.27272727272727" fill="rgb(0, 0, 0)" stroke="rgb(60, 60, 60)" stroke-width="1px" opacity="0.25"></line><line x1="0" y1="97.09090909090908" x2="288.828125" y2="97.09090909090908" fill="rgb(0, 0, 0)" stroke="rgb(60, 60, 60)" stroke-width="1px" opacity="0.25"></line><line x1="0" y1="80.90909090909089" x2="288.828125" y2="80.90909090909089" fill="rgb(0, 0, 0)" stroke="rgb(60, 60, 60)" stroke-width="1px" opacity="0.25"></line><line x1="0" y1="64.72727272727275" x2="288.828125" y2="64.72727272727275" fill="rgb(0, 0, 0)" stroke="rgb(60, 60, 60)" stroke-width="1px" opacity="0.25"></line><line x1="0" y1="48.54545454545454" x2="288.828125" y2="48.54545454545454" fill="rgb(0, 0, 0)" stroke="rgb(60, 60, 60)" stroke-width="1px" opacity="0.25"></line><line x1="0" y1="32.363636363636395" x2="288.828125" y2="32.363636363636395" fill="rgb(0, 0, 0)" stroke="rgb(60, 60, 60)" stroke-width="1px" opacity="0.25"></line><line x1="0" y1="16.181818181818187" x2="288.828125" y2="16.181818181818187" fill="rgb(0, 0, 0)" stroke="rgb(60, 60, 60)" stroke-width="1px" opacity="0.25"></line><line x1="0" y1="0" x2="288.828125" y2="0" fill="rgb(0, 0, 0)" stroke="rgb(60, 60, 60)" stroke-width="1px" opacity="0.25"></line></g></g></g><g><g><line x1="0" y1="258.90909090909093" x2="288.828125" y2="258.90909090909093" fill="rgb(0, 0, 0)" stroke="rgb(153, 153, 153)" stroke-width="1.5px"></line></g></g><g><g><line x1="20.630580357142858" y1="0" x2="20.630580357142858" y2="178" fill="rgb(0, 0, 0)" stroke="rgb(153, 153, 153)" stroke-width="1.5px"></line></g></g><g><g><g><g><g><path stroke="rgb(255, 112, 67)" stroke-width="2px" d="M24.34408482142857,-18.438272959224314L24.756696428571427,17.952188670838172L24.963002232142856,24.604544397279927L25.169308035714288,27.088482276395375L25.2724609375,38.75869982831621L25.47876674107143,28.744144288237393L25.685072544642857,32.94736848599775L26.097684151785714,30.017823957392118L26.20083705357143,1.1004032590557726L26.303989955357142,-13.990786154013254L26.40714285714286,4.952451561134722L26.510295758928574,16.389047767157564L27.129213169642856,39.91654990137879L27.335518973214285,49.60415214026829L27.438671875,44.00598649900783L27.541824776785717,19.42194332400374L27.644977678571426,17.012103756503596L27.95443638392857,0.11172363700648424L28.057589285714286,-17.47380419260677L28.779659598214288,-20.75579569660855L29.295424107142857,9.947642170632026L29.604882812499998,0.9261326825353497L29.708035714285714,-4.8579863307543665L31.461635044642858,-15.758021145323209L31.564787946428574,12.19205748532823L32.28685825892857,30.791667246994784L32.59631696428571,23.158551020674693L32.802622767857144,21.85453280016505L33.524693080357146,39.28105006843151L33.62784598214286,35.32218908356375L33.937304687499996,30.983867773750703L34.040457589285715,43.73165460919279L34.76252790178572,35.99882161016371L34.96883370535714,27.038820061344943L35.175139508928574,46.00943570411024L35.278292410714286,57.22230569232659L35.3814453125,61.53892634393918L36.103515625,17.732236976335493L36.61928013392857,17.06209232937142L36.8255859375,36.97980193001458L36.928738839285714,24.292027092365753L37.03189174107143,16.688644648693817L37.34135044642857,20.250958100890344L37.650809151785715,37.53579904682694L37.85711495535714,51.72272787447518L37.96026785714285,40.130159420052564L38.269726562500004,33.39890199927142L38.888643973214286,47.571529459034664L38.991796875000006,54.16360613117594L39.19810267857142,47.80852486464636L39.507561383928575,58.22447480911879L39.7138671875,56.24594356564149L39.81702008928571,32.63339946347047L40.023325892857144,49.64143178595915L40.22963169642857,49.673910786385946L40.33278459821429,59.89064612531831L41.05485491071429,57.654591525677056L41.880078125,66.42785285255664L41.98323102678571,72.64712359133355L42.08638392857143,64.18111063884223L42.49899553571428,71.11704793210018L43.53052455357143,69.16204087570964L43.633677455357144,71.67164195179518L43.83998325892857,69.48140215147374L44.25259486607143,80.13574288972791L44.56205357142857,73.40980232063986L44.66520647321428,71.85088752364278L44.768359375,64.62939265489946L45.07781808035715,72.48477323831432L46.109347098214286,79.09058925010639L46.31565290178572,93.87935111385946L46.9345703125,83.91770819972105L47.24402901785714,75.68669759883208L47.34718191964286,78.36017822796158L47.45033482142857,60.53284705948537L47.55348772321429,73.87581785483185L47.75979352678572,85.59289021469966L48.17240513392857,83.08262930510044L48.58501674107143,91.04676064587377L48.79132254464286,98.68269743491528L49.30708705357143,75.08966644984079L49.92600446428571,61.59684536467765L50.64807477678571,41.891150022484204L50.751227678571425,53.857008333331386L51.266992187499994,53.219404328334676L51.370145089285714,52.69577632780246L51.67960379464286,61.36762160972525L51.78275669642858,75.47037692507476L51.88590959821428,72.53344834936969L52.29852120535715,77.36061788907185L52.40167410714286,55.81302626697359L52.607979910714285,73.4402426879241L52.91743861607143,79.98947457837501L53.330050223214286,67.4834286906729L53.433203125,75.3787291934409L53.53635602678572,50.578014119069685L53.63950892857143,44.58854490082968L53.845814732142856,52.123852589551234L54.1552734375,59.64145814977231L54.25842633928571,77.64977384893653L54.36157924107143,61.3908013724057L54.67103794642857,63.19659314616404L54.980496651785714,64.39254568636564L55.5994140625,58.25757918835856L55.805719866071435,51.21902664731468L56.11517857142857,57.80459707137444L56.218331473214285,69.9467332302015L56.42463727678572,75.07934094409127L56.52779017857142,75.43034876603416L57.043554687500006,62.5569302436459L57.14670758928572,53.91471817148939L57.559319196428575,59.49316978811424L57.765625,59.555484877906714L58.075083705357144,66.7211233602712L58.4876953125,68.36313830990272L58.90030691964286,70.75587823768393L59.10661272321429,77.77266427309908L59.51922433035714,82.73152091326908L59.62237723214286,82.09209261831836L59.72553013392857,65.53993543466063L59.9318359375,79.96200927673766L60.447600446428574,73.05631694271828L60.55075334821428,74.16286894398458L60.96336495535714,85.53136571314813L61.06651785714286,83.81274046504265L61.169670758928575,65.93147182141728L62.201199776785714,72.61631034310561L62.71696428571428,58.020867932631155L63.439034598214285,70.99426318497709L63.5421875,78.84331612923133L64.05795200892857,95.27751588416221L64.16110491071429,100.83787684630988L64.36741071428571,95.39480088348174L64.57371651785714,89.61883335338115L64.986328125,92.65949649772153L65.91470424107142,90.61415454841317L66.12101004464286,100.2833678636027L66.22416294642858,94.65217809592481L66.53362165178571,55.53346654494393L67.1525390625,75.49339494917483L67.97776227678571,77.3813446283073L68.08091517857143,82.05201215265575L68.18406808035714,74.52073650246439L68.39037388392858,72.13275454019491L68.4935267857143,75.21683456102546L68.80298549107142,86.9423990951857L68.90613839285714,90.09805579497433L69.42190290178571,85.27216098885873L69.52505580357143,88.8324469631328L70.65973772321428,89.45370273459798L70.96919642857144,99.54721229475048L71.07234933035714,102.38670296084577L71.27865513392857,102.7899348978176L71.4849609375,94.56790734358114L71.79441964285715,94.26371340930586L72.9291015625,91.48085854637698L73.34171316964286,104.1068576661396L73.44486607142856,98.46287761473724L73.651171875,98.67062989678425L73.96063058035713,96.56427351662832L74.16693638392857,89.11554882760613L74.68270089285714,105.52215129689384L74.78585379464286,94.59009086441783L75.40477120535714,92.90304984876765L75.61107700892858,95.89322784842238L75.71422991071428,90.39930424056979L75.9205357142857,92.35223074533062L76.02368861607144,93.86373390368583L76.12684151785714,99.07099144986088L76.33314732142857,101.42072362392544L76.53945312500001,90.84948950549874L77.05521763392858,90.45721415007662L77.15837053571428,84.27269555686284L77.2615234375,92.47779897404916L77.46782924107144,96.69179073197475L77.88044084821428,105.15360605470221L78.08674665178572,106.52603734692154L78.29305245535714,114.77952963263468L78.7056640625,110.64017409609528L78.80881696428571,86.16585619438479L78.91196986607142,66.63003483202064L79.32458147321428,73.18035636091558L79.73719308035714,84.86608227989218L79.84034598214285,83.20870044118305L80.14980468750001,73.17612705292893L80.35611049107142,82.91340655971037L80.45926339285714,78.64748515203493L80.56241629464286,90.72737310402172L80.66556919642858,88.83709930658252L80.76872209821428,97.4072404168297L80.871875,107.37081788499108L81.07818080357143,86.18204665168226L81.18133370535715,65.81622601846405L81.69709821428572,78.05906072870981L81.80025111607142,72.63756108488658L82.10970982142858,72.62494162335518L82.21286272321429,48.72080216828245L82.52232142857143,69.58511492461284L82.72862723214286,72.04543303432983L83.14123883928572,72.49043762294386L83.34754464285714,83.95747551467595L83.55385044642858,89.00046969143496L83.76015625,82.69252613651071L84.06961495535715,107.25696051236741L84.48222656249999,114.48891281934449L84.58537946428572,96.46238140104606L84.79168526785715,88.8032933377257L85.10114397321429,86.83304796724613L85.51375558035716,60.2898803966696L86.02952008928573,63.15939278489897L86.75159040178572,65.71585021991733L86.85474330357142,76.23045352392371L87.06104910714286,79.51000116750474L87.16420200892857,79.15409031745175L87.26735491071429,72.90138221198873L87.3705078125,82.29879635711157L87.57681361607143,76.28148572636525L87.88627232142856,86.23560362453985L88.29888392857143,95.2817835479178L88.40203683035713,98.69456134038178L88.8146484375,104.803647156069L89.12410714285714,92.08743367577696L89.53671875,85.25754027249388L89.84617745535714,95.60041352375082L89.94933035714286,103.27320965794054L90.05248325892858,92.35688610041174L90.1556361607143,94.33658373724568L90.2587890625,96.2230481711749L90.46509486607142,97.272279768017L90.56824776785714,98.68434235817179L90.67140066964286,103.76445447912316L90.87770647321429,105.00212590402664L90.980859375,91.08364432376588L91.08401227678571,100.08752049887266L91.18716517857143,107.15397580792957L91.39347098214286,106.64244917286253L91.59977678571428,107.34042688487934L91.7029296875,93.58885325034566L92.425,77.53562812341409L92.73445870535714,91.41581424781663L92.94076450892857,91.19133217107102L93.1470703125,91.18710661188001L93.45652901785714,86.00645612522015L93.66283482142858,95.59991100229162L93.869140625,109.09065647492122L94.28175223214285,113.8544602780247L94.69436383928571,125.26294432269309L95.00382254464284,119.44467744830223L95.10697544642858,114.03066652993326L95.21012834821428,108.0113958390082L95.31328125,118.24791952147687L95.41643415178571,112.54204036860068L95.93219866071428,114.7141457767662L96.55111607142858,115.38166089537548L96.757421875,114.22039432553316L96.86057477678571,107.1890776306426L96.96372767857142,104.66702542332298L97.27318638392858,99.06043805312154L97.58264508928572,96.0447591683764L97.68579799107142,102.63726574050561L97.99525669642857,104.98775692015286L98.09840959821429,108.89525298396208L98.20156250000001,98.80658749955028L98.40786830357142,79.08753306128132L98.61417410714286,92.22548277108943L99.23309151785715,62.43516547691811L99.54255022321429,84.06423441243815L99.645703125,97.36344453443132L99.95516183035714,110.1653430441507L100.05831473214286,114.0099099363759L100.16146763392858,112.20933175707201L100.36777343749999,95.21424762491084L100.47092633928571,95.27747784144266L101.08984375,92.01818317009777L101.50245535714285,93.64359845907661L101.60560825892858,98.28957787649355L101.8119140625,100.42500913059808L102.01821986607142,105.53640487577539L102.22452566964286,107.09442993870985L102.32767857142856,101.88324636848826L102.43083147321428,104.98072199656347L102.53398437499999,102.9932601077836L102.63713727678572,113.40692376146691L102.94659598214285,112.92753832857703L103.15290178571429,112.22021724014382L103.35920758928572,106.2186177153576L103.66866629464286,103.51588443502013L103.87497209821429,96.90893516942936L103.97812499999999,80.85961367761864L104.08127790178573,91.8077545593183L104.49388950892856,94.1337027372556L104.7001953125,113.5295412737565L104.80334821428572,97.10599363382731L105.00965401785713,90.77500188236715L105.31911272321429,105.11352135633236L105.73172433035714,119.6433750308876L106.0411830357143,122.9490697052835L106.35064174107143,110.6149610797619L106.45379464285713,106.95318177245211L106.66010044642857,104.40440698966312L106.86640625,112.01903544856971L107.07271205357144,117.14599463339962L107.5884765625,116.50564103503636L107.89793526785714,115.17053625419776L108.00108816964286,109.46771393460874L108.10424107142858,102.23684817263825L108.4136997767857,107.92961894317258L109.23892299107143,110.46914228487105L109.34207589285714,108.36708385704269L109.65153459821428,114.74227620284202L110.06414620535713,117.89148508219547L110.27045200892857,114.24341795541748L110.37360491071428,117.89690562089842L110.78621651785714,121.57469705018464L110.99252232142857,109.14985553785003L111.09567522321429,112.4890768809764L111.40513392857143,104.76061895934092L111.61143973214287,114.52265959540324L111.81774553571428,115.47945940990473L112.12720424107144,117.04799697696703L112.33351004464285,104.96996163069926L112.43666294642857,112.71037250114404L112.64296875000001,113.46723248464528L112.74612165178571,107.17474854042817L113.05558035714284,112.53908897993651L113.3650390625,108.19825315103455L113.46819196428571,108.27390155569032L114.19026227678572,103.33941343000177L114.29341517857144,115.4801469392544L114.39656808035714,116.41566678619725L114.49972098214285,99.22287169591934L114.70602678571429,109.32490052443192L114.8091796875,119.39028355765122L115.01548549107142,122.66697490115902L115.11863839285715,108.71652793607893L115.22179129464286,108.89838282679409L115.53125,114.5198180136701L115.63440290178572,112.61703256928827L115.73755580357142,105.3879355505396L115.84070870535714,119.47002398679568L116.04701450892857,118.02802617810481L116.66593191964286,124.8706904769407L116.76908482142858,120.01729258691792L117.07854352678571,109.08316458829464L117.80061383928572,95.35667580542261L118.11007254464286,108.97828807394626L118.83214285714286,109.42150575549505L118.93529575892858,106.6427049641946L119.03844866071428,114.14319140724989L119.24475446428572,99.43252791336405L119.34790736607142,101.58983273673248L119.45106026785714,99.65731500985952L119.76051897321429,100.3576063597365L119.863671875,105.61272697842013L120.06997767857142,112.06341023941194L120.27628348214286,111.53866077807433L120.37943638392856,115.12834279689775L120.79204799107143,114.77120443392313L120.89520089285715,113.18117304189296L121.3078125,115.29812417841836L121.41096540178572,107.47727991157537L121.51411830357142,102.31795748968094L121.61727120535716,120.40716522492653L121.92672991071429,117.82638692917311L122.02988281249999,100.91781157617174L122.13303571428573,114.90207494064266L122.44249441964286,120.82791249340505L122.54564732142856,116.30156462639194L123.37087053571429,114.30216420224895L123.78348214285714,122.20873959814826L123.98978794642856,120.15891642977354L124.19609375,122.68846468476008L124.29924665178572,124.40366772728784L124.60870535714287,116.13307745841085L124.71185825892857,115.31111664092343L124.9181640625,108.94827023618535L125.02131696428572,110.71193209680875L125.12446986607144,94.31151768149171L125.22762276785714,108.27447595292523L125.53708147321429,118.09248653056197L126.3623046875,92.19617205805218L126.56861049107142,99.00487310746206L126.77491629464286,111.5731076271143L126.98122209821429,115.37154686331138L127.084375,117.50797072468738L127.18752790178571,115.68351150946395L127.39383370535714,128.26044733273028L127.60013950892856,101.28454227686873L127.70329241071428,113.15698671657957L127.8064453125,98.40987678197855L128.11590401785713,107.98630796026436L128.32220982142857,94.53932483394783L129.04428013392857,108.37814308589058L129.14743303571427,114.595407801996L129.45689174107144,118.62995427627096L129.66319754464286,116.65783371251607L130.28211495535714,125.86269000169342L130.38526785714285,117.89347258533334L130.5915736607143,118.71052258262756L130.7978794642857,113.21335053202615L131.21049107142858,130.4958250768229L131.62310267857143,118.79342035986993L131.82940848214284,109.5019032055238L132.03571428571428,106.01519122792963L132.34517299107142,108.68917042440206L132.44832589285716,103.65137602561515L132.55147879464286,113.5364947722239L133.27354910714286,121.55562930358924L133.3767020089286,119.4935803714602L133.99561941964285,125.15151658564966L134.2019252232143,115.92592665282801L134.40823102678573,119.50028373328506L134.51138392857143,128.1525266825092L134.61453683035714,123.26760512291442L135.54291294642857,120.10185535966785L135.74921874999998,123.99932809873806L136.05867745535716,125.80413208346383L136.4712890625,126.7224842403959L136.67759486607142,132.66308176648042L136.78074776785715,131.786015175389L137.193359375,128.87680675163455L137.2965122767857,106.32876658077696L137.50281808035714,111.69320317398L137.60597098214285,124.03417269056243L137.70912388392858,118.33655592978934L138.01858258928573,123.14785406859917L138.12173549107143,120.16838126648243L139.15326450892857,121.03742528934724L139.35957031249998,116.29479471703765L139.46272321428572,128.3146576526297L139.77218191964286,118.11067245260077L139.87533482142857,129.95868196942976L139.9784877232143,117.84221896878388L140.28794642857142,128.95316846526026L140.39109933035715,117.15560021883789L140.49425223214286,109.1173162914146L142.04154575892858,117.05594452199675L142.35100446428572,115.81793847070539L142.55731026785713,121.28496096256127L142.66046316964287,130.64303611351698L142.86676897321428,132.689593658106L142.969921875,121.14458694229458L143.27938058035713,124.53937243757966L143.5888392857143,115.31596134831774L143.6919921875,120.38392568178226L143.7951450892857,118.69180765044675L143.89829799107142,125.33678381075204L144.10460379464286,122.37271627768989L144.3109095982143,121.7491432768845L144.5172154017857,86.70308641612625L144.72352120535714,96.6969670188541L144.82667410714285,105.82621399843292L145.0329799107143,107.44042284874459L145.23928571428573,118.97351295052427L145.44559151785714,117.64247632312942L145.54874441964284,119.82151361550517L145.65189732142858,127.78359482868255L145.75505022321428,130.19292532531844L145.858203125,118.60546905474918L146.88973214285713,102.6523203510846L147.30234375,117.29043428814877L147.71495535714286,121.7441351109641L147.81810825892856,125.58551332643285L147.92126116071427,123.78605436530829L148.12756696428573,102.27181730255123L148.43702566964285,105.41681321395042L148.746484375,120.73373867341529L148.9527901785714,114.347171717316L149.26224888392858,121.05799451674825L149.4685546875,129.9212048483241L149.88116629464284,126.3964816741284L149.98431919642857,126.73447002136434L150.0874720982143,119.1572352933889L150.29377790178572,122.98560527654159L150.39693080357142,123.43263243361406L150.70638950892857,123.19721167410775L150.80954241071427,120.9608550008747L150.91269531249998,122.13181342700797L151.01584821428574,126.84473866669505L151.22215401785715,132.67749505201786L151.7379185267857,132.46637597872882L152.04737723214288,130.6415546802687L152.56314174107143,133.13412007823905L152.76944754464284,130.69975711025353L153.18205915178572,108.41082160055265L153.38836495535713,113.99104539924096L153.80097656249998,110.70323236427824L153.9041294642857,116.89333674911116L154.00728236607145,109.24191193452641L154.11043526785716,120.06252373098395L154.31674107142857,122.80333449907177L154.6261997767857,131.36122351729753L154.72935267857142,134.2035638073806L154.93565848214288,136.53113192740875L155.0388113839286,141.42996460885448L155.76088169642856,130.18045477953666L155.96718750000002,114.3901007249996L156.07034040178573,128.7928301899297L156.27664620535714,133.48743593744416L156.37979910714287,125.61184839149594L156.6892578125,135.31246711186012L156.7924107142857,130.8258637163237L157.30817522321428,130.12873527843925L157.411328125,134.3194807030022L157.51448102678572,120.41418407304641L157.82393973214283,125.3185333042682L158.0302455357143,130.84318649076738L158.1333984375,129.17226401043834L158.2365513392857,123.38165926380695L158.33970424107144,126.73363058885725L158.44285714285715,130.68586582071603L158.54601004464286,130.62750597834435L159.16492745535714,130.9451772150334L159.6806919642857,121.94537016666096L159.78384486607143,119.58542178656718L159.88699776785714,122.71808525022955L160.40276227678572,132.2667575170062L160.81537388392857,121.24969126085844L161.0216796875,127.7164337885946L161.12483258928572,132.14081488727584L161.53744419642857,128.7495689508425L161.95005580357142,110.58729363185806L162.6721261160714,124.85835898558067L162.87843191964285,116.65548850570885L163.187890625,116.04732024464955L163.39419642857143,129.83374395030924L163.49734933035714,129.00195584006747L163.80680803571428,118.00635868331739L163.9099609375,121.98989628999365L164.11626674107143,127.99000030416698L164.21941964285716,128.52794695672281L164.52887834821428,123.93682580023776L166.28247767857144,116.8132708403888L166.38563058035714,122.63850717364467L166.48878348214285,116.44677809520522L166.59193638392856,113.73403787617443L167.0045479910714,117.32285401607109L167.31400669642858,120.28002161721213L167.72661830357143,124.160622445203L167.82977120535713,120.76920197671267L167.93292410714284,133.03714896382078L168.34553571428572,120.7062492525323L168.44868861607142,128.30320543870698L168.55184151785713,127.70714144656824L168.75814732142857,122.62449226609546L168.96445312499998,115.81434176843192L169.17075892857144,108.9738264643545L169.37706473214286,116.16302901938472L169.99598214285712,111.33916574759056L170.20228794642858,115.55529618830597L170.71805245535714,115.86648992098584L170.82120535714284,121.30789581069587L171.74958147321428,127.06918066546139L171.85273437499998,125.22533188941965L172.98741629464288,128.7095342059091L173.4000279017857,134.1585387369216L173.50318080357144,120.73548772433902L173.81263950892856,119.31783977177714L173.91579241071426,132.63078637843603L174.22525111607143,138.35076398154715L174.43155691964287,132.71426272582295L174.53470982142858,135.25073200253144L174.63786272321428,130.92420920440418L175.35993303571428,134.473426073138L175.4630859375,134.245852066321L175.56623883928572,124.84382801086636L175.66939174107142,132.25201468746243L175.9788504464286,119.26345804815085L176.18515625,112.30541357470129L176.2883091517857,111.81084650852372L176.39146205357144,111.67754081762868L176.49461495535715,125.56248056815289L177.01037946428573,130.164295640419L177.21668526785714,134.0992569378902L177.7324497767857,125.86588480890222L177.83560267857143,127.87015546399068L178.14506138392858,127.12168079691301L178.86713169642857,123.76949732674733L179.0734375,121.53513430948115L180.10496651785715,120.21317786809837L180.3112723214286,123.97879473036386L180.4144252232143,120.79478202100472L180.6207310267857,129.05655660856567L180.7238839285714,136.58419117977232L180.93018973214285,133.4754826990854L181.03334263392858,124.02829424494509L181.65226004464284,133.54910094493846L181.75541294642858,125.29885702810311L182.37433035714287,126.63985669629024L182.47748325892857,123.31777850724279L183.405859375,116.41289940276319L183.81847098214286,117.77581653312352L184.02477678571427,114.46653388113899L184.43738839285714,123.81357346658403L185.0563058035714,128.24207230780854L185.36576450892858,136.09327064867327L185.5720703125,133.39062676000088L185.88152901785713,129.20672296873133L186.08783482142857,114.94867662153756L186.1909877232143,120.56639658710267L186.60359933035713,127.71714984953942L186.70675223214286,103.54651796134276L186.91305803571427,102.85130648853107L187.01621093749998,106.739527567657L187.22251674107144,98.12106457345885L187.53197544642856,108.48308993953209L187.6351283482143,108.62848134547751L187.73828125,118.4037483393133L188.15089285714288,112.24682022467954L188.3571986607143,111.40457732823366L188.4603515625,121.4098223170452L188.5635044642857,129.7296063928655L188.76981026785714,137.61746898736394L188.97611607142855,133.42450430279655L189.18242187500002,132.17560752150283L189.49188058035713,137.17634765402053L189.80133928571428,128.88773218125175L189.90449218749998,134.5557600588315L190.0076450892857,138.63790001022733L190.31710379464286,134.1013118857834L190.5234095982143,135.97066149268164L190.6265625,141.2087485728967L190.93602120535712,145.25056414236474L191.03917410714288,137.8459500230054L191.3486328125,140.17237034561253L191.76124441964285,137.3250508472823L191.86439732142856,142.202513591921L191.96755022321426,141.47201878706068L192.68962053571428,146.51641050451124L192.8959263392857,138.44210045240376L192.99907924107143,132.7705499560847L193.10223214285716,133.69051015671468L193.41169084821428,132.4444979056771L193.51484375,131.11203391484568L193.72114955357142,134.70864858543533L194.1337611607143,137.7472742803922L194.2369140625,146.1336998489138L194.3400669642857,147.45602843443373L194.64952566964286,147.6784810597669L195.06213727678573,139.2688496769812L195.16529017857144,147.8647051815272L195.37159598214285,143.87824027866066L195.47474888392858,141.19400631971214L195.5779017857143,142.75320575424627L195.6810546875,137.00253090840826L195.88736049107143,134.98554830627265L196.19681919642858,141.04664137452454L196.29997209821428,144.7586062753123L196.40312500000002,131.66551888229165L196.50627790178572,130.42275869556929L196.91888950892857,138.36501344377092L197.02204241071428,145.63056149248493L197.53780691964286,149.84916423223578L197.74411272321427,155.44658903159L197.847265625,128.1310234040836L197.9504185267857,133.30858610152666L198.3630301339286,132.25422100309572L198.6724888392857,129.43089148614865L198.87879464285714,133.84232502924027L199.1882533482143,135.12906572559356L199.29140625,138.21817932710198L199.39455915178573,135.9175117839665L199.49771205357143,136.00848516292027L199.60086495535714,134.8979547008239L199.80717075892858,137.12691097599804L200.0134765625,138.82317947938657L200.32293526785716,138.57219125766147L200.42608816964287,137.9090491843898L200.63239397321428,128.5125877761812L200.73554687499998,137.10025668438826L200.83869977678572,144.25026108745124L201.14815848214286,146.97680598018238L201.3544642857143,146.6774829803241L201.4576171875,140.1144625574982L201.5607700892857,141.18919354859804L201.66392299107142,136.4269380981391L202.38599330357144,137.0683889636198L202.48914620535714,137.75125496353232L202.7986049107143,134.1122638271184L203.31436941964287,135.1014021805484L203.72698102678572,135.94222838600737L204.3458984375,126.05791260769307L204.44905133928572,127.78306778001448L204.65535714285713,134.03061264482642L205.06796874999998,136.25248757438365L205.17112165178574,133.91198875351472L205.27427455357144,135.6270046083932L205.48058035714286,135.16291941695243L205.58373325892856,130.76317614448132L205.6868861607143,132.5611673048695L206.09949776785712,125.20436349764283L206.512109375,126.42942129904736L206.71841517857143,127.91465304368289L206.82156808035714,132.3722779289208L207.64679129464287,133.29169651643008L207.74994419642857,131.08843269160187L208.0594029017857,133.44556888467548L208.36886160714286,133.60362449439614L208.7814732142857,121.04912841464972L208.98777901785712,129.43377988858919L209.400390625,131.91082203527088L209.91615513392856,129.0318919298528L210.01930803571426,129.22505764014213L210.43191964285714,142.96475179537512L210.53507254464287,140.6370050013001L210.84453125,136.9073115722661L210.9476841517857,139.92764197425177L211.05083705357143,136.7873706064427L211.36029575892857,143.10143614497966L211.66975446428572,145.25188412642427L211.77290736607142,141.87836160558757L211.97921316964283,141.28184474884446L212.1855189732143,135.3082823337039L212.288671875,137.23358517663115L212.3918247767857,138.51598595247526L213.11389508928573,137.39827860123702L213.32020089285714,144.55848467783207L213.42335379464285,140.1675925302488L214.04227120535714,141.63051824855702L214.14542410714287,132.95711728874494L214.24857700892858,141.5405914861398L214.35172991071428,132.88988183662462L214.45488281250002,136.40144491736285L214.66118861607143,136.07359687956145L214.97064732142857,133.08145587942366L215.69271763392857,129.01322271082347L215.79587053571427,125.2429197236565L215.8990234375,131.77087929710115L216.8273995535714,128.65714921057662L217.2400111607143,137.26893844415105L217.65262276785714,143.6632062935303L217.75577566964284,134.62438306254785L217.85892857142858,133.32865832256675L217.96208147321428,135.45431057435894L218.27154017857143,133.15122913775056L218.37469308035716,140.87805735958128L218.47784598214287,143.21974341371796L218.58099888392857,148.65137461060314L218.99361049107142,152.945806604935L219.09676339285713,123.85813115756326L219.19991629464286,139.06030584353033L219.509375,136.96972745697937L219.71568080357142,143.74328376512835L219.92198660714286,141.78517348672705L220.12829241071427,141.01227714265656L220.2314453125,138.45542201242557L220.33459821428573,134.98935377015786L220.54090401785714,140.28566038692827L220.64405691964285,135.98447538989953L221.1598214285714,121.98087693634896L221.46928013392858,130.26461291704177L221.6755859375,132.8965467779905L221.98504464285713,133.75064905914272L222.2945033482143,123.8802017367746L222.39765625,121.06152695290349L222.60396205357142,127.22832093054224L222.81026785714286,138.77867235679835L223.42918526785715,132.29528255101417L223.53233816964286,135.56518808668318L223.7386439732143,140.98096230047403L223.9449497767857,136.84996149463657L224.87332589285714,134.57900876823078L224.97647879464284,138.90566623062065L225.07963169642855,135.9493613819382L225.1827845982143,141.325961511683L226.42061941964286,142.77118640026544L226.6269252232143,140.74038087112905L226.8332310267857,132.30374021888602L227.03953683035712,141.22486582190837L227.4521484375,138.94486766007896L227.5553013392857,140.55999874116122L227.65845424107144,145.38200386082724L227.76160714285714,146.17171918092615L227.86476004464285,133.21392292007693L227.96791294642856,138.08107456753132L228.27737165178573,137.7675744647786L228.38052455357143,138.34084051037405L228.48367745535714,143.35638855859926L228.68998325892858,140.73951718840718L229.20574776785716,146.13508116438763L229.51520647321428,141.06133562628926L229.72151227678572,146.2913896156168L229.82466517857142,140.62164165670748L230.03097098214283,136.42496208225913L230.3404296875,141.1138538938368L230.64988839285715,148.04058757607314L230.85619419642856,122.56188387818007L231.16565290178573,128.99903374293478L231.47511160714285,137.9824246076938L231.57826450892858,142.97330181918448L231.8877232142857,145.4885623695314L232.09402901785714,146.77498598239887L232.19718191964287,143.65512488363154L233.02240513392857,145.17044924110587L233.12555803571428,138.7219564256422L233.33186383928572,139.84032282347505L233.84762834821427,135.74102298360805L234.36339285714286,143.04712998182077L234.4665457589286,139.12354901292946L234.5696986607143,145.10552693250463L234.7760044642857,137.46724012183577L234.8791573660714,140.34009644202845L235.08546316964285,145.0749341948125L235.2917689732143,148.24623605628568L235.60122767857143,146.49174765197654L235.70438058035714,132.66548450531224L236.1169921875,146.66655172280736L236.63275669642857,143.7544209497056L236.83906249999998,148.45593598379708L237.4579799107143,147.11591142298641L237.5611328125,147.2995950680974L237.6642857142857,140.35878619346855L237.76743861607142,141.65958968115513L237.87059151785715,137.186010985179L238.18005022321427,134.7267029781036L238.38635602678573,139.25112060139296L238.69581473214285,136.3683520001319L238.79896763392856,125.60477111482412L239.1084263392857,120.47912997721633L239.31473214285717,128.92415643925506L239.52103794642858,133.99932050983767L239.62419084821428,142.24198637175954L239.72734375,139.6945466277016L240.13995535714284,135.27656443361337L240.55256696428572,141.18170993646862L240.65571986607142,146.6845303342178L240.75887276785713,139.8523237511233L241.17148437499998,125.03037086103109L241.27463727678574,133.11402171997116L241.48094308035715,136.01268134530392L241.58409598214286,138.65508043450447L241.7904017857143,141.2640788081048L241.8935546875,145.51647576608624L241.9967075892857,144.79271444087792L242.20301339285712,149.40680355833945L242.30616629464288,146.72567818006425L242.40931919642858,143.36310819053978L242.5124720982143,138.25952669702207L242.82193080357143,139.98442596735984L243.02823660714284,135.2145339380431L243.13138950892855,136.4161089216471L243.75030691964287,136.6303072729046L243.85345982142857,138.8278693997951L243.95661272321428,136.86786610801113L244.36922433035716,134.63549253079572L244.57553013392857,141.0418675358003L244.7818359375,143.72773858289264L245.19444754464288,138.75448702041874L245.91651785714285,145.21990178547676L246.22597656250002,138.11017377579546L246.43228236607143,132.49903243750208L246.63858816964287,138.70471170472482L246.74174107142858,140.94568820010593L246.948046875,142.2019055514556L247.15435267857143,137.50769292505893L247.36065848214287,124.6995551256242L247.46381138392857,137.66303547266898L247.56696428571428,147.2113109721279L247.87642299107142,143.78671467970122L247.97957589285713,138.05305531857957L248.2890345982143,144.17354160852L248.3921875,141.12392880124094L248.70164620535715,152.2832725403659L249.01110491071427,146.83460229492988L249.42371651785714,139.78696483071548L250.04263392857143,143.8945242852812L250.14578683035714,147.42702498869082L250.45524553571428,147.20503479523865L250.55839843750002,149.75288950590516L250.76470424107143,145.80299168666411L250.97101004464284,141.34187626851812L251.07416294642857,146.02608119365593L251.28046875,146.08970619119688L251.38362165178572,146.75649964682208L251.58992745535716,136.34781204277354L251.69308035714286,144.1307521629089L251.79623325892857,143.43106514565125L251.89938616071427,139.41213188489553L252.1056919642857,133.6571152584786L252.31199776785715,138.35118752472715L252.41515066964286,143.76595162873068L252.8277622767857,145.61876067831872L252.9309151785714,135.92195635192087L253.13722098214285,143.6021816777519L253.4466796875,147.41061721997175L253.65298549107143,141.16224385084016L253.96244419642858,146.66091003016683L254.58136160714287,149.353995263553L255.20027901785713,139.12360397575875L255.612890625,138.29320343818685L255.92234933035715,137.9072669795159L256.43811383928573,139.23739201026092L256.64441964285714,141.6609505849352L256.9538783482143,149.0617699601974L257.5727957589286,150.5346679588122L257.67594866071425,152.21740038882382L257.8822544642857,149.11950162356416L258.19171316964287,148.63440810353026L258.501171875,152.17966571602776L258.6043247767857,155.24339569627648L258.7074776785714,151.5821857318084L259.63585379464286,149.50998204899273L259.73900669642853,143.96987673882833L259.8421595982143,137.04369094246417L259.9453125,141.5358785287964L260.1516183035714,144.8174250432616L260.3579241071429,154.0965246861437L260.66738281249997,140.9032978142275L260.7705357142857,149.7917759200373L261.1831473214286,137.6921734635658L261.389453125,141.05592772565592L261.4926060267857,144.5403496835586L261.5957589285714,136.22806319189897L261.69891183035713,142.15793165646963L262.52413504464283,152.34217036632663L263.45251116071427,155.6214401665317L263.6588169642857,150.0974327010071L263.9682756696429,152.75812696166318L264.48404017857143,150.23944352443777L264.7934988839286,150.34373239502767L264.8966517857143,135.69937226234785L265.20611049107146,142.48068592746043L265.30926339285713,144.57516147428686L265.6187220982143,142.2641996920506L265.9281808035714,144.2437215468255L266.13448660714283,140.17179899449047L266.3407924107143,143.7671357584996L266.65025111607144,151.86313620113802L266.9597098214286,143.71199916272715L267.06286272321427,134.3193745218423L267.166015625,142.49594427688436L267.3723214285714,141.54222784528878L268.19754464285717,131.64831431940857L268.4038504464286,145.80431148496123L268.61015625,149.27417048972055L268.81646205357146,153.10968744363203L269.3322265625,157.10611118818628L269.84799107142857,150.3558977004606L270.26060267857144,149.02460799609477L270.67321428571427,154.66145244400252L270.7763671875,149.56675667695893L270.87952008928573,143.24984782525607L271.29213169642856,137.0212669163811L271.3952845982143,150.8840809956927L271.49843749999997,152.26489067539913L271.6015904017857,144.06248918290507L271.91104910714284,142.33318791295795L272.4268136160714,141.88669067760097L272.73627232142854,138.7819093116509L272.942578125,132.21747119498394L273.35518973214283,136.58844162333747L273.45834263392857,145.13917791539762L273.5614955357143,146.44642332284977L273.6646484375,150.2114892666896L273.87095424107144,143.4327279140676L274.07726004464286,149.10399350204995L274.38671875,145.26240324511758L274.69617745535714,149.3964585840057L274.7993303571428,131.9046783456632L275.0056361607143,136.23634756317853L275.2119419642857,145.84147978903073L275.9340122767857,143.89095922594365L276.24347098214287,140.8479204476617L276.34662388392854,143.86555383914254L276.5529296875,149.82416614914428L276.7592354910714,147.83188752004742L276.9655412946429,154.00629888900932L277.06869419642857,134.7046143532975L277.275,141.2808417251599L277.5844587053571,142.84083188598706L277.79076450892853,143.59028559558982L278.10022321428573,151.7963241609483L278.30652901785714,150.63901463962708L278.6159877232143,148.41310808332844L278.71914062499997,152.65261437350668L278.8222935267857,152.73973044286845L279.85382254464287,153.7423448637602L279.9569754464286,159.84466548849372L280.16328125,144.76830343169598L280.2664341517857,142.35934401067217L280.3695870535714,141.60002540546836L280.47273995535716,145.57772658791328L280.7821986607143,143.6523017665408L280.88535156250003,140.23152118589272L281.09165736607144,140.41488700255678L281.1948102678571,142.46283391204432" style="fill: none;" fill="none"></path></g><g><path stroke="rgb(0, 119, 187)" stroke-width="2px" d="M278.51283482142856,29.447246724909007Z" style="fill: none;" fill="none"></path></g></g></g></g><g opacity="0.2"><g><g><g><path stroke="rgb(255, 112, 67)" stroke-width="2px" d="M22.074720982142857,-47.439676804976024L22.177873883928573,10.372372367165326L22.487332589285714,-13.091762456026911L23.10625,-57.592182983051615L24.34408482142857,28.622068535197872L24.756696428571427,72.33984583074397L24.963002232142856,34.5613568912853L25.169308035714288,30.809522802179515L25.2724609375,56.25030825354836L25.47876674107143,13.729374018582444L25.685072544642857,39.25042611902412L26.097684151785714,25.62425097552214L26.20083705357143,-42.271322510459186L26.303989955357142,-36.62619087912818L26.40714285714286,33.36626924167981L26.510295758928574,33.54356575012209L27.129213169642856,75.2073385932229L27.335518973214285,64.13544073971836L27.438671875,35.608777826482616L27.541824776785717,-17.454016598788144L27.644977678571426,13.39735057137231L27.95443638392857,-25.238820596174758L28.779659598214288,-20.5129648988897L29.295424107142857,56.00279530611906L29.604882812499998,-12.60613090341739L29.708035714285714,-13.534164602106253L30.326953125,1.4697380932894746L31.152176339285717,-44.11238210851494L31.461635044642858,-10.833416591991067L31.564787946428574,54.11717527562922L32.28685825892857,58.69108182733711L32.59631696428571,11.708876696499924L32.802622767857144,19.89850547096948L33.524693080357146,65.42082595825195L33.62784598214286,29.383897607976756L33.937304687499996,24.47638581015849L34.040457589285715,62.853334860368214L34.76252790178572,24.39957211234355L34.96883370535714,13.598817738619726L35.175139508928574,74.46535916761918L35.278292410714286,74.0416106744246L35.3814453125,68.01385732130571L36.103515625,-47.977797074751415L36.61928013392857,16.05687535892834L36.8255859375,66.85636633092707L36.928738839285714,5.2603648359125454L37.03189174107143,5.283570983193159L37.34135044642857,25.59442827918315L37.650809151785715,63.463060465725995L37.85711495535714,73.00312111594461L37.96026785714285,22.74130673841997L38.269726562500004,23.302015868100266L38.888643973214286,68.83047064867888L38.991796875000006,64.05172113938767L39.19810267857142,38.27590296485207L39.507561383928575,73.84839972582732L39.7138671875,53.27814670042559L39.81702008928571,-2.785416689786037L40.023325892857144,75.15348026969217L40.22963169642857,49.722629287026145L40.33278459821429,75.21574913371694L41.05485491071429,54.30050962621516L41.880078125,79.58774484287609L41.98323102678571,81.97602969949897L42.08638392857143,51.48209121010522L42.49899553571428,81.52095387198709L43.53052455357143,66.22953029112382L43.633677455357144,75.43604356592353L43.83998325892857,66.19604245099156L44.25259486607143,96.11725399710916L44.56205357142857,63.32089146700773L44.66520647321428,69.51251532814722L44.768359375,53.797150351784445L45.07781808035715,84.26784411343662L46.109347098214286,88.99931326779453L46.31565290178572,116.06249390948904L46.9345703125,68.97524382851343L47.24402901785714,63.34018169749868L47.34718191964286,82.37039917165583L47.45033482142857,33.79185030677102L47.55348772321429,93.89027404785156L47.75979352678572,103.16849875450134L48.17240513392857,79.31723794070159L48.58501674107143,102.99295765703376L48.79132254464286,110.13660261847757L49.30708705357143,39.700119972229025L49.92600446428571,41.35761373693293L50.64807477678571,12.332607009194135L50.751227678571425,71.80579579960217L51.266992187499994,52.26299832083962L51.370145089285714,51.91033432700417L51.67960379464286,74.37538953260942L51.78275669642858,96.62450989809902L51.88590959821428,68.12805548581211L52.29852120535715,84.60137219862504L52.40167410714286,23.491638833826244L52.607979910714285,99.88106731934981L52.91743861607143,89.81332241405141L53.330050223214286,48.72435985911977L53.433203125,87.22167994759299L53.53635602678572,13.376941507512887L53.63950892857143,35.6043410734697L53.845814732142856,63.426814122633516L54.1552734375,70.917866490104L54.25842633928571,104.66224739768289L54.36157924107143,37.002342657609425L54.67103794642857,65.90528080680154L54.980496651785714,66.18647449666804L55.5994140625,49.055129441347994L55.805719866071435,40.66119783574885L56.11517857142857,67.68295270746405L56.218331473214285,88.15993746844207L56.42463727678572,82.77825251492588L56.52779017857142,75.95686049894853L57.043554687500006,43.2468024600636L57.14670758928572,40.95140006325463L57.559319196428575,67.86084721305154L57.765625,59.64895751259545L58.075083705357144,77.46958108381791L58.4876953125,70.82616073435004L58.90030691964286,74.34498812935571L59.10661272321429,88.29784332622182L59.51922433035714,90.16980587352407L59.62237723214286,81.13295017589223L59.72553013392857,40.711699659174144L59.9318359375,101.59512003985317L60.447600446428574,62.69777844168923L60.55075334821428,75.82269694588403L60.96336495535714,102.58411086689343L61.06651785714286,81.23480259288442L61.169670758928575,39.10956885597924L62.201199776785714,82.64356812563811L62.71696428571428,36.127704316919505L63.439034598214285,90.454356063496L63.5421875,90.61689554561269L64.05795200892857,119.92881551655857L64.16110491071429,109.17841828953136L64.36741071428571,87.2301869392395L64.57371651785714,80.95488205823033L64.986328125,97.22049121423201L65.91470424107142,87.54614162445068L66.12101004464286,114.78718783638696L66.22416294642858,86.20539344440807L66.53362165178571,-3.1446007815274L67.1525390625,105.43328755552119L67.97776227678571,80.21326914700596L68.08091517857143,89.05801343917847L68.18406808035714,63.223823027177296L68.39037388392858,68.55078159679067L68.4935267857143,79.84295459227128L68.80298549107142,104.53074589642613L68.90613839285714,94.83154084465723L69.42190290178571,78.03331877968527L69.52505580357143,94.1728759245439L70.65973772321428,90.38558639179577L70.96919642857144,114.68747663497925L71.07234933035714,106.64593895998867L71.27865513392857,103.39478280327539L71.4849609375,82.23486601222646L71.79441964285715,93.80742250789297L72.9291015625,87.30657625198364L73.34171316964286,123.04585634578359L73.44486607142856,89.99690753763373L73.651171875,98.98225831985474L73.96063058035713,93.40473894639449L74.16693638392857,77.94246179407294L74.68270089285714,130.13205500082537L74.78585379464286,78.1920002157038L75.40477120535714,90.37248832529242L75.61107700892858,100.37849484790456L75.71422991071428,82.15841882879084L75.9205357142857,95.28162050247192L76.02368861607144,96.1309886412187L76.12684151785714,106.88187776912343L76.33314732142857,104.94532188502224L76.53945312500001,74.99263832785867L77.05521763392858,89.86880111694336L77.15837053571428,74.99591766704214L77.2615234375,104.78545409982856L77.46782924107144,103.01277836886318L77.88044084821428,117.8463290387934L78.08674665178572,108.58468428525059L78.29305245535714,127.15976806120439L78.7056640625,104.43114079128613L78.80881696428571,49.454379341819084L78.91196986607142,37.32630278847436L79.32458147321428,83.00583865425803L79.73719308035714,102.3946711583571L79.84034598214285,80.72262768311936L80.14980468750001,58.12726697054777L80.35611049107142,97.51932581988247L80.45926339285714,72.2486030405218L80.56241629464286,108.84720503200185L80.66556919642858,86.0016886104237L80.76872209821428,110.26245208220048L80.871875,122.31618408723311L81.07818080357143,54.39888980171899L81.18133370535715,35.26749506863681L81.69709821428572,96.42331279407848L81.80025111607142,64.50531161915173L82.10970982142858,72.60601243105803L82.21286272321429,12.864592985673388L82.52232142857143,100.88158405910839L82.72862723214286,75.73591019890527L83.14123883928572,73.15794450586493L83.34754464285714,101.15803235227412L83.55385044642858,96.56496095657349L83.76015625,73.23061080412431L84.06961495535715,144.10361207615247L84.48222656249999,125.33684127981013L84.58537946428572,69.42258427359842L84.79168526785715,77.31466124274515L85.10114397321429,83.87767991152678L85.51375558035716,20.475129040804784L86.02952008928573,67.46366136724299L86.75159040178572,69.55053637244485L86.85474330357142,92.0023584799333L87.06104910714286,84.42932263287632L87.16420200892857,78.62022404237229L87.26735491071429,63.52232005379418L87.3705078125,96.3949175747958L87.57681361607143,67.2555197802457L87.88627232142856,101.16678047180176L88.29888392857143,108.85105343298478L88.40203683035713,103.81372802907771L88.8146484375,113.96727587959985L89.12410714285714,73.01311345533891L89.53671875,75.01270016756926L89.84617745535714,111.11472340063615L89.94933035714286,114.7824038592252L90.05248325892858,75.98240076411855L90.1556361607143,97.30613019249658L90.2587890625,99.05274482206865L90.46509486607142,98.84612716328014L90.56824776785714,100.80243624340405L90.67140066964286,111.38462266055019L90.87770647321429,106.85863304138184L90.980859375,70.2059219533747L91.08401227678571,113.59333476153286L91.18716517857143,117.75365877151489L91.39347098214286,105.875159220262L91.59977678571428,108.38739345290445L91.7029296875,72.96149279854517L92.425,53.455790433016695L92.73445870535714,112.23609343442051L92.94076450892857,90.8546090559526L93.1470703125,91.1807682730935L93.45652901785714,78.2354803952304L93.66283482142858,109.99009331789883L93.869140625,129.32677468386564L94.28175223214285,121.00016598267989L94.69436383928571,142.3756703896956L95.00382254464284,110.71727713671596L95.10697544642858,105.90965015237983L95.21012834821428,98.98248980262063L95.31328125,133.60270504517987L95.41643415178571,103.9832216392864L95.93219866071428,117.97230388901453L96.55111607142858,116.38293357328935L96.757421875,112.47849447076972L96.86057477678571,96.64210258830678L96.96372767857142,100.88394711234353L97.27318638392858,90.65055699781938L97.58264508928572,91.52124084125866L97.68579799107142,112.5260255986994L97.99525669642857,108.51349368962376L98.09840959821429,114.75649707967585L98.20156250000001,83.67358927293259L98.40786830357142,49.50895140387795L98.61417410714286,111.93240733580156L99.23309151785715,17.74968953566118L99.54255022321429,116.50783781571822L99.645703125,117.3122597174211L99.95516183035714,129.36819080872968L100.05831473214286,119.7767602747137L100.16146763392858,109.50846448811619L100.36777343749999,69.72162142666905L100.47092633928571,95.37232316624035L101.08984375,87.1292411630804L101.50245535714285,96.08172139254482L101.60560825892858,105.25854700261897L101.8119140625,103.62815601175483L102.01821986607142,113.20349849354137L102.22452566964286,109.43146753311157L102.32767857142856,94.06647101315586L102.43083147321428,109.62693543867631L102.53398437499999,100.01206727461381L102.63713727678572,129.0274192419919L102.94659598214285,112.20846017924221L103.15290178571429,111.15923560749401L103.35920758928572,97.21621842817827L103.66866629464286,99.4617845145139L103.87497209821429,86.99851127104326L103.97812499999999,56.78563143990258L104.08127790178573,108.22996588186784L104.49388950892856,97.62262500416149L104.7001953125,142.62329907850787L104.80334821428572,72.47067217393356L105.00965401785713,81.2785142551769L105.31911272321429,126.62130056728017L105.73172433035714,141.43815554272047L106.0411830357143,127.90761171687734L106.35064174107143,92.11379814147949L106.45379464285713,101.46051281148738L106.66010044642857,100.58124481547964L106.86640625,123.44097813692959L107.07271205357144,124.83643341064453L107.5884765625,115.5451106374914L107.89793526785714,113.16787908293985L108.00108816964286,100.91348045522517L108.10424107142858,91.39054952968252L108.4136997767857,116.46877509897406L109.23892299107143,114.27842729741877L109.34207589285714,105.21399621530013L109.65153459821428,124.30506472154097L110.06414620535713,122.6152984012257L110.27045200892857,108.77131726525049L110.37360491071428,123.37713711911982L110.78621651785714,127.09138419411401L110.99252232142857,90.51259326934814L111.09567522321429,117.49790889566596L111.40513392857143,93.16793207688765L111.61143973214287,129.16572054949674L111.81774553571428,116.914659131657L112.12720424107144,119.40080332756042L112.33351004464285,86.85290861129761L112.43666294642857,124.32098880681126L112.64296875000001,114.60252245989712L112.74612165178571,97.73602262410252L113.05558035714284,120.585599639199L113.3650390625,101.68699940768154L113.46819196428571,108.38737416267395L114.19026227678572,95.93768124146895L114.29341517857144,133.69124720313332L114.39656808035714,117.8189465566115L114.49972098214285,73.43367906050248L114.70602678571429,124.47794376720083L114.8091796875,134.48835810748014L115.01548549107142,127.58201191642068L115.11863839285715,87.79085748845881L115.22179129464286,109.17116516286677L115.53125,122.95197079398416L115.63440290178572,109.76285440271552L115.73755580357142,94.54429002241655L115.84070870535714,140.5931566411799L116.04701450892857,115.86502946506847L116.66593191964286,135.13468692519447L116.76908482142858,112.73719575188379L117.07854352678571,92.68197259035976L117.80061383928572,74.76694263111462L118.11007254464286,129.41070647673175L118.83214285714286,110.08633227781816L118.93529575892858,102.4745037772439L119.03844866071428,125.39392107183284L119.24475446428572,77.3665326725353L119.34790736607142,104.82578997178511L119.45106026785714,96.75853841955012L119.76051897321429,101.408043384552L119.863671875,113.49540790644558L120.06997767857142,121.73943513089961L120.27628348214286,110.7515365860679L120.37943638392856,120.51286582513289L120.79204799107143,114.23549688946117L120.89520089285715,110.79612595384772L121.3078125,118.47355088320644L121.41096540178572,95.74601351131093L121.51411830357142,94.57897385683926L121.61727120535716,147.54097682779488L121.92672991071429,113.955219485543L122.02988281249999,75.5549485466697L122.13303571428573,135.87846998734906L122.44249441964286,129.7166688225486L122.54564732142856,109.51204282587226L123.37087053571429,111.3030635660345L123.78348214285714,134.0686026919972L123.98978794642856,117.08418167721142L124.19609375,126.48278706723994L124.29924665178572,126.97647229107945L124.60870535714287,103.72719205509533L124.71185825892857,114.07817541469228L124.9181640625,99.40400062907827L125.02131696428572,113.35742488774387L125.12446986607144,69.71089605851608L125.22762276785714,129.2189133600755L125.53708147321429,132.81950239701703L126.3623046875,53.35170034928757L126.56861049107142,109.2179246815768L126.77491629464286,130.42545940659264L126.98122209821429,121.06920571760698L127.084375,120.71260651675136L127.18752790178571,112.94682268662886L127.39383370535714,147.12585106762972L127.60013950892856,60.82068469307641L127.70329241071428,130.9656533761458L127.8064453125,76.28921188007702L128.11590401785713,122.35095472769304L128.32220982142857,74.368850144473L129.04428013392857,129.13637046380475L129.14743303571427,123.92130487615412L129.45689174107144,124.68177398768337L129.66319754464286,113.69965286688371L130.28211495535714,139.6699744354595L130.38526785714285,105.93964646079324L130.5915736607143,119.93609757856889L130.7978794642857,104.96759245612405L131.21049107142858,156.419536894018L131.62310267857143,101.23981328444047L131.82940848214284,95.56462747400458L132.03571428571428,100.78512326153843L132.34517299107142,112.70013921911067L132.44832589285716,96.09468442743476L132.55147879464286,128.36417289213702L133.27354910714286,133.58433110063729L133.3767020089286,116.4005069732666L133.99561941964285,133.63842090693387L134.2019252232143,102.08754175359553L134.40823102678573,124.8618193539706L134.51138392857143,141.13089110634544L134.61453683035714,115.94022278352217L135.54291294642857,115.35323071479797L135.74921874999998,129.84553720734337L136.05867745535716,128.51133806055245L136.4712890625,128.10001247579402L136.67759486607142,141.5739780556072L136.78074776785715,130.47041528875178L137.193359375,124.51299411600287L137.2965122767857,72.50670632449065L137.50281808035714,119.73985806378452L137.60597098214285,142.54562696543607L137.70912388392858,109.79013078862971L138.01858258928573,130.36480127681386L138.12173549107143,115.69917206330733L139.15326450892857,122.34099132364447L139.35957031249998,109.18084885857324L139.46272321428572,146.3444520560178L139.77218191964286,102.80469465255737L139.87533482142857,147.73069624467328L139.9784877232143,99.66752446781506L140.28794642857142,145.6195927099748L140.39109933035715,99.45924784920435L140.49425223214286,97.05989040027966L142.04154575892858,128.96388686786997L142.35100446428572,113.96092939376831L142.55731026785713,129.48549470034513L142.66046316964287,144.68014883995056L142.86676897321428,135.75942997498944L142.969921875,103.82707686857744L143.27938058035713,129.6315506805073L143.5888392857143,101.48084471442483L143.6919921875,127.9858721819791L143.7951450892857,116.1536306034435L143.89829799107142,135.3042480512099L144.10460379464286,117.92661497809671L144.3109095982143,120.81378377567638L144.5172154017857,34.13400112498891L144.72352120535714,111.6877879229459L144.82667410714285,119.52008446780117L145.0329799107143,109.8617361242121L145.23928571428573,136.2731481031938L145.44559151785714,115.64592138203709L145.54874441964284,123.09006955406885L145.65189732142858,139.72671664844862L145.75505022321428,133.8069210702723L145.858203125,101.22428464889526L146.88973214285713,78.72259729558772L147.30234375,139.24760519374502L147.71495535714286,128.4246863451871L147.81810825892856,131.347580649636L147.92126116071427,121.08686592362146L148.12756696428573,70.00046170841564L148.43702566964285,110.13430708104914L148.746484375,143.70912686261264L148.9527901785714,104.76732128316706L149.26224888392858,131.1242287158966L149.4685546875,143.21602034568787L149.88116629464284,121.10939691283487L149.98431919642857,127.24145254221828L150.0874720982143,107.79138320142573L150.29377790178572,128.72816025127065L150.39693080357142,124.10317316922276L150.70638950892857,122.84408053484829L150.80954241071427,117.60631999102505L150.91269531249998,123.88825106620789L151.01584821428574,133.91412652622571L151.22215401785715,141.4266296300021L151.7379185267857,132.14969736879524L152.04737723214288,127.90432273257863L152.56314174107143,136.87296817519447L152.76944754464284,127.04821265827526L153.18205915178572,74.97741833600132L153.38836495535713,122.3613810972734L153.80097656249998,105.77151281183417L153.9041294642857,126.17849332636054L154.00728236607145,97.76477471264927L154.11043526785716,136.2934414256703L154.31674107142857,126.91455065120351L154.6261997767857,144.19805704463613L154.72935267857142,138.46707424250516L154.93565848214288,140.022484107451L155.0388113839286,148.77821363102308L155.76088169642856,113.30619003555994L155.96718750000002,90.70456964319403L156.07034040178573,150.39692438732496L156.27664620535714,140.52934455871582L156.37979910714287,113.79846707257359L156.6892578125,149.8633951924064L156.7924107142857,124.09595862301914L157.30817522321428,129.08304262161255L157.411328125,140.60559883984652L157.51448102678572,99.5562391281128L157.82393973214283,132.67505715110084L158.0302455357143,139.13016627051613L158.1333984375,126.66588028994472L158.2365513392857,114.69575214385986L158.33970424107144,131.76158757643267L158.44285714285715,136.6142186685042L158.54601004464286,130.5399662147869L159.16492745535714,131.42168407006696L159.6806919642857,108.44565959410234L159.78384486607143,116.0454992164265L159.88699776785714,127.4170804457231L160.40276227678572,146.58976591717115L160.81537388392857,104.72409187663686L161.0216796875,137.4165475801988L161.12483258928572,138.77738653529775L161.53744419642857,123.66270004619253L161.95005580357142,83.34388065338135L162.6721261160714,146.26495701616463L162.87843191964285,104.35118278590114L163.187890625,115.13506785306065L163.39419642857143,150.51337950879878L163.49734933035714,127.75427367470483L163.80680803571428,101.51296294819225L163.9099609375,127.96520270000804L164.11626674107143,136.99015632542697L164.21941964285716,129.3348669355566L164.52887834821428,117.05014406551015L166.28247767857144,106.12793840061535L166.38563058035714,131.37636167352852L166.48878348214285,107.15918447754602L166.59193638392856,109.66492754762824L167.0045479910714,122.70607822591609L167.31400669642858,124.71577301892368L167.72661830357143,129.98152368718928L167.82977120535713,115.68207127397712L167.93292410714284,151.43906944448298L168.34553571428572,102.20989968559961L168.44868861607142,139.69863971796903L168.55184151785713,126.81304545836015L168.75814732142857,115.0005184953863L168.96445312499998,105.5991160219366L169.17075892857144,98.71305350823836L169.37706473214286,126.9468328519301L169.99598214285712,104.10337083989924L170.20228794642858,121.87949184937911L170.71805245535714,116.33328052000566L170.82120535714284,129.4700046452609L171.74958147321428,135.71110794760963L171.85273437499998,122.45955872535706L172.98741629464288,133.93583768064326L173.4000279017857,142.33204553344032L173.50318080357144,100.60091120546515L173.81263950892856,117.19136784293435L173.91579241071426,152.6002062884244L174.22525111607143,146.9307303862138L174.43155691964287,124.2595108422366L174.53470982142858,139.05543591759422L174.63786272321428,124.43442500721325L175.35993303571428,139.79725137623873L175.4630859375,133.90449105609548L175.56623883928572,110.74079192768444L175.66939174107142,143.36429470235652L175.9788504464286,99.78062308918346L176.18515625,101.86834686452693L176.2883091517857,111.06899590925737L176.39146205357144,111.47758228128608L176.49461495535715,146.3898901939392L177.01037946428573,137.06701824881813L177.21668526785714,140.001698884097L177.7324497767857,113.51582661542027L177.83560267857143,130.87656144662336L178.14506138392858,125.99896879629655L178.86713169642857,118.74122212149881L179.0734375,118.18358978358181L180.10496651785715,118.23024320602417L180.3112723214286,129.6272200237621L180.4144252232143,116.01876295696606L180.6207310267857,141.449218489907L180.7238839285714,147.87564303658226L180.93018973214285,128.8124199780551L181.03334263392858,109.85751156373458L181.65226004464284,147.83031099492854L181.75541294642858,112.92349115285008L182.37433035714287,128.65135619857094L182.47748325892857,118.33466122367166L183.405859375,106.05558074604382L183.81847098214286,119.82019222866406L184.02477678571427,109.50260990316218L184.43738839285714,137.83413284475154L185.0563058035714,134.88482056964529L185.36576450892858,147.87006815997037L185.5720703125,129.33666092699227L185.88152901785713,122.93086728182705L186.08783482142857,93.56160710074687L186.1909877232143,128.99297653545034L186.60359933035713,138.44327974319458L186.70675223214286,67.29057012904775L186.91305803571427,101.80848927931352L187.01621093749998,112.57185918634589L187.22251674107144,85.19337008216165L187.53197544642856,124.02612798864192L187.6351283482143,108.84656845439565L187.73828125,133.06664883006704L188.15089285714288,103.01142805272883L188.3571986607143,110.1412129835649L188.4603515625,136.41768980026245L188.5635044642857,142.20928250659597L188.76981026785714,149.44926287911156L188.97611607142855,127.1350572759455L189.18242187500002,130.3022623495622L189.49188058035713,144.67745785279706L189.80133928571428,116.45480897209863L189.90449218749998,143.05780187520114L190.0076450892857,144.76110993732107L190.31710379464286,127.2964296991175L190.5234095982143,138.774685903029L190.6265625,149.06587919321927L190.93602120535712,151.31328749656677L191.03917410714288,126.73902884396641L191.3486328125,143.66200082952327L191.76124441964285,133.05407159978694L191.86439732142856,149.51870770887896L191.96755022321426,140.37627657977018L192.68962053571428,154.08299808068708L192.8959263392857,126.33063537424262L192.99907924107143,124.2632242116061L193.10223214285716,135.07045045765963L193.41169084821428,130.5754795291207L193.51484375,129.11333792859858L193.72114955357142,140.1035705913197L194.1337611607143,142.30521282282743L194.2369140625,158.71333820169622L194.3400669642857,149.43952131271362L194.64952566964286,148.01215999776667L195.06213727678573,126.65440260280263L195.16529017857144,160.75848843834618L195.37159598214285,137.89854292436078L195.47474888392858,137.1676553812894L195.5779017857143,145.0920049060475L195.6810546875,128.3765186396512L195.88736049107143,131.96007440306923L196.19681919642858,150.13828097690237L196.29997209821428,150.32655362649396L196.40312500000002,112.02588779276068L196.50627790178572,128.55861841548574L196.91888950892857,150.27839556607333L197.02204241071428,156.52888356555593L197.53780691964286,156.17706834186208L197.74411272321427,163.84272623062134L197.847265625,87.15767496282405L197.9504185267857,141.07493014769122L198.3630301339286,130.67267335544932L198.6724888392857,125.19589721072805L198.87879464285714,140.45947534387764L199.1882533482143,137.05917677012357L199.29140625,142.85184972936457L199.39455915178573,132.46651046926326L199.49771205357143,136.144945231351L199.60086495535714,133.23215900767934L199.80717075892858,140.47034538875928L200.0134765625,141.36758223446932L200.32293526785716,138.1957089250738L200.42608816964287,136.91433607448232L200.63239397321428,114.41789566386831L200.73554687499998,149.98176004669884L200.83869977678572,154.97526769204572L201.14815848214286,151.06662331927907L201.3544642857143,146.22849848053673L201.4576171875,130.26993192325938L201.5607700892857,142.8012900352478L201.66392299107142,129.28355492245066L202.38599330357144,138.03056526184082L202.48914620535714,138.7755539634011L202.7986049107143,128.65377712249756L203.31436941964287,136.58510971069336L203.72698102678572,137.20346769419584L204.3458984375,111.23143894022162L204.44905133928572,130.37080053849652L204.65535714285713,143.40192994204435L205.06796874999998,139.58529996871948L205.17112165178574,130.40124052221125L205.27427455357144,138.199528390711L205.48058035714286,134.46679162979126L205.58373325892856,124.16356123577465L205.6868861607143,135.2581540454518L206.09949776785712,114.16915778680281L206.512109375,128.26700800115412L206.71841517857143,130.14250066063622L206.82156808035714,139.05871525677767L207.64679129464287,134.670824397694L207.74994419642857,127.78353695435958L208.0594029017857,136.9812731742859L208.36886160714286,133.84070790897718L208.7814732142857,102.21738429503007L208.98777901785712,142.01075709949842L209.400390625,135.6263852552934L209.91615513392856,124.71349677172573L210.01930803571426,129.51480620557612L210.43191964285714,163.57429302822462L210.53507254464287,137.1453848101876L210.84453125,131.3127714287151L210.9476841517857,144.4581375772303L211.05083705357143,132.0769635547291L211.36029575892857,152.57253445278516L211.66975446428572,148.4775560985912L211.77290736607142,136.8180778243325L211.97921316964283,140.38706946372986L212.1855189732143,126.34793871099299L212.288671875,140.121539441022L212.3918247767857,140.43958711624146L213.11389508928573,135.72171757437965L213.32020089285714,155.2987937927246L213.42335379464285,133.58125430887398L214.04227120535714,143.8249068260193L214.14542410714287,119.94701584902676L214.24857700892858,154.4158027822321L214.35172991071428,119.91381736235185L214.45488281250002,141.66878953847018L214.66118861607143,135.58182482285932L214.97064732142857,128.593244379217L215.69271763392857,122.91087295792322L215.79587053571427,119.58746524290605L215.8990234375,141.5628186572682L216.8273995535714,123.98655408078974L217.2400111607143,150.18662229451266L217.65262276785714,153.2546080675992L217.75577566964284,121.06614821607417L217.85892857142858,131.38507121259516L217.96208147321428,138.6427889520472L218.27154017857143,129.69660698283803L218.37469308035716,152.46829969232735L218.47784598214287,146.732272494923L218.58099888392857,156.79882140593097L218.99361049107142,159.38745459643278L219.09676339285713,80.22661798650569L219.19991629464286,161.8635678724809L219.509375,133.8338598771529L219.71568080357142,153.9036182273518L219.92198660714286,138.8480080691251L220.12829241071427,139.85293262655085L220.2314453125,134.62013931707904L220.33459821428573,129.7902514067563L220.54090401785714,148.23012031208387L220.64405691964285,129.53269789435646L221.1598214285714,100.97547925602306L221.46928013392858,142.69021688808095L221.6755859375,136.84444756941363L221.98504464285713,135.03180248087105L222.2945033482143,109.07453075322239L222.39765625,116.83351477709682L222.60396205357142,136.4785118970004L222.81026785714286,156.10419949618253L223.42918526785715,122.57019784233789L223.53233816964286,140.47004639018667L223.7386439732143,149.10462362116036L223.9449497767857,130.65346028588036L224.87332589285714,131.17257967862216L224.97647879464284,145.39565242420545L225.07963169642855,131.51490410891446L225.1827845982143,149.39086170630023L226.42061941964286,144.93902373313904L226.6269252232143,137.6941725774245L226.8332310267857,119.6487792405215L227.03953683035712,154.60655422644183L227.4521484375,135.52487041733482L227.5553013392857,142.98269536278465L227.65845424107144,152.6150115403262L227.76160714285714,147.35629216107455L227.86476004464285,113.77722852880305L227.96791294642856,145.38180203871295L228.27737165178573,137.29732431064954L228.38052455357143,139.20073957876727L228.48367745535714,150.87971063093707L228.68998325892858,136.81421013311908L229.20574776785716,154.22842712835833L229.51520647321428,133.45071731914175L229.72151227678572,154.13647059960797L229.82466517857142,132.11701971834358L230.03097098214283,130.12994272058663L230.3404296875,148.14719161120328L230.64988839285715,158.43068809942767L230.85619419642856,84.34382833134045L231.16565290178573,138.6547585400668L231.47511160714285,151.45751090483233L231.57826450892858,150.45961763642052L231.8877232142857,149.2614531950517L232.09402901785714,148.7046214017001L232.19718191964287,138.97533323548058L233.02240513392857,147.4434357773174L233.12555803571428,129.04921720244667L233.33186383928572,141.51787242022428L233.84762834821427,129.5920732238076L234.36339285714286,154.00629047913984L234.4665457589286,133.23817755959251L234.5696986607143,154.07849381186745L234.7760044642857,126.00980990583247L234.8791573660714,144.6493809223175L235.08546316964285,152.17719082398847L235.2917689732143,153.00318884849548L235.60122767857143,143.86001504551282L235.70438058035714,111.9260897853158L236.1169921875,167.66815254905006L236.63275669642857,139.38622479005292L236.83906249999998,155.5082085349343L237.4579799107143,145.10587458177045L237.5611328125,147.57512053576383L237.6642857142857,129.94757288152522L237.76743861607142,143.61079491268507L237.87059151785715,130.47564294121483L238.18005022321427,131.03774096749046L238.38635602678573,146.03774703632703L238.69581473214285,132.04419909824026L238.79896763392856,109.45939978686245L239.1084263392857,112.79066827080469L239.31473214285717,141.59169613231313L239.52103794642858,141.61206661571157L239.62419084821428,154.60598516464233L239.72734375,135.8733870116147L240.13995535714284,128.64959114248103L240.55256696428572,150.03942819075152L240.65571986607142,154.93876093084162L240.75887276785713,129.6040138764815L241.17148437499998,102.79744152589278L241.27463727678574,145.23949800838125L241.48094308035715,140.360670783303L241.58409598214286,142.61867906830528L241.7904017857143,145.17757636850533L241.8935546875,151.89507120305842L241.9967075892857,143.70707245306536L242.20301339285712,156.32793723453176L242.30616629464288,142.7039901126515L242.40931919642858,138.31925320625305L242.5124720982143,130.6041544567455L242.82193080357143,142.57177487286654L243.02823660714284,128.05969589406794L243.13138950892855,138.21847139705312L243.75030691964287,136.95160479979083L243.85345982142857,142.1242125901309L243.95661272321428,133.92786117033526L244.36922433035716,131.28693216497248L244.57553013392857,150.65143004330722L244.7818359375,147.75654515353116L245.19444754464288,131.29460967670786L245.91651785714285,154.91802393306386L246.22597656250002,127.44558176127346L246.43228236607143,124.08232043006204L246.63858816964287,148.0132306055589L246.74174107142858,144.30715294317767L246.948046875,144.08623157848012L247.15435267857143,130.46637398546395L247.36065848214287,105.48734842647207L247.46381138392857,157.1082559932362L247.56696428571428,161.53372422131625L247.87642299107142,138.64982024106112L247.97957589285713,129.45256627689707L248.2890345982143,153.35427104343069L248.3921875,136.54950959032234L248.70164620535715,169.0222881490534L249.01110491071427,138.66159692677584L249.42371651785714,129.21550863439387L250.04263392857143,150.0558634671298L250.14578683035714,152.7257760438052L250.45524553571428,146.87204950506037L250.55839843750002,153.57467157190496L250.76470424107143,139.8781449578025L250.97101004464284,134.65020314129916L251.07416294642857,153.05238858136264L251.28046875,146.18514368750832L251.38362165178572,147.75668983025983L251.58992745535716,120.7347806367007L251.69308035714286,155.8051623431119L251.79623325892857,142.38153461976484L251.89938616071427,133.38373199376193L252.1056919642857,125.02459031885321L252.31199776785715,145.3922959241L252.41515066964286,151.88809778473595L252.8277622767857,148.3979742527008L252.9309151785714,121.37674986232412L253.13722098214285,155.12251966649836L253.4466796875,153.12327053330162L253.65298549107143,131.78968379714271L253.96244419642858,154.90890929915687L254.58136160714287,153.3936231136322L255.20027901785713,123.77801704406738L255.612890625,137.047602631829L255.92234933035715,137.32836229150948L256.43811383928573,141.23257955637845L256.64441964285714,145.2962884469466L256.9538783482143,160.16299902309072L257.5727957589286,152.7440149567344L257.67594866071425,154.74149903384122L257.8822544642857,144.47265347567472L258.19171316964287,147.90676782347938L258.501171875,157.49755213477394L258.6043247767857,159.83899066664955L258.7074776785714,146.09037078510633L259.63585379464286,146.4016765247692L259.73900669642853,135.65971877358177L259.8421595982143,126.65441224791788L259.9453125,148.27415990829468L260.1516183035714,149.73974481495944L260.3579241071429,168.01517415046692L260.66738281249997,121.11345750635321L260.7705357142857,163.124493078752L261.1831473214286,119.54276977885854L261.389453125,146.10155911879107L261.4926060267857,149.76698262041268L261.5957589285714,123.75963345440952L261.69891183035713,151.05273435332558L262.52413504464283,167.6185284311121L263.45251116071427,160.54034486683932L263.6588169642857,141.81142150272024L263.9682756696429,156.74916835264727L264.48404017857143,146.46141836859962L264.7934988839286,150.50016570091248L264.8966517857143,113.73283206332815L265.20611049107146,152.6526564251293L265.30926339285713,147.71687479452655L265.6187220982143,138.7977570186962L265.9281808035714,147.2130043289878L266.13448660714283,134.06391516598788L266.3407924107143,149.16014090451327L266.65025111607144,164.00713686509565L266.9597098214286,131.48529360511085L267.06286272321427,120.23043756051497L267.166015625,154.7607989094474L267.3723214285714,140.1116531978954L268.19754464285717,116.80744403058833L268.4038504464286,167.03830723329023L268.61015625,154.47895899685946L268.81646205357146,158.86296287449923L269.3322265625,163.10074680501765L269.84799107142857,140.23057746887207L270.26060267857144,147.02767343954608L270.67321428571427,163.11671911586416L270.7763671875,141.92471302639356L270.87952008928573,133.77448454770175L271.29213169642856,127.67839555306868L271.3952845982143,171.67830211466008L271.49843749999997,154.33610519495878L271.6015904017857,131.75888694416392L271.91104910714284,139.73923600803724L272.4268136160714,141.21694482456556L272.73627232142854,134.12473726272583L272.942578125,122.37081401998347L273.35518973214283,143.14489726586774L273.45834263392857,157.96528235348788L273.5614955357143,148.40729143402794L273.6646484375,155.85908818244934L273.87095424107144,133.2645858851346L274.07726004464286,157.6108918840235L274.38671875,139.500017859719L274.69617745535714,155.59754159233788L274.7993303571428,105.66700798814948L275.0056361607143,142.73385138945147L275.2119419642857,160.24917812780902L275.9340122767857,140.965178381313L276.24347098214287,136.28336228023878L276.34662388392854,148.39200392636386L276.5529296875,158.76208461414686L276.7592354910714,144.84346957640216L276.9655412946429,163.26791594245216L277.06869419642857,105.75208754972978L277.275,151.14518278295344L277.5844587053571,145.18081712722778L277.79076450892853,144.71446615999398L278.10022321428573,164.10538200898603L278.30652901785714,148.9030503576452L278.6159877232143,145.07424824888056L278.71914062499997,159.01187380877408L278.8222935267857,152.8704045469111L279.85382254464287,155.24626649509779L279.9569754464286,168.998146425594L280.16328125,122.15376034649937L280.2664341517857,138.74590487913653L280.3695870535714,140.46104749766263L280.47273995535716,151.54427836158058L280.7821986607143,140.7641645344821L280.88535156250003,135.1003503149206L281.09165736607144,140.68993572755292L281.1948102678571,145.53475427627563" style="fill: none;" fill="none"></path></g><g><path stroke="rgb(0, 119, 187)" stroke-width="2px" d="M278.51283482142856,29.447246724909007Z" style="fill: none;" fill="none"></path></g></g></g></g></g></g><g transform="translate(41, 178)" clip-path="url(#clip_1)"><clipPath id="clip_1"><rect width="288" height="22"></rect></clipPath><g><g><line x1="0" y1="0" x2="0" y2="5" style="visibility: inherit;" fill="rgb(0, 0, 0)" stroke="rgb(204, 204, 204)" stroke-width="1px"></line><line x1="20.630580357142858" y1="0" x2="20.630580357142858" y2="5" style="visibility: inherit;" fill="rgb(0, 0, 0)" stroke="rgb(204, 204, 204)" stroke-width="1px"></line><line x1="41.261160714285715" y1="0" x2="41.261160714285715" y2="5" style="visibility: inherit;" fill="rgb(0, 0, 0)" stroke="rgb(204, 204, 204)" stroke-width="1px"></line><line x1="61.89174107142857" y1="0" x2="61.89174107142857" y2="5" style="visibility: inherit;" fill="rgb(0, 0, 0)" stroke="rgb(204, 204, 204)" stroke-width="1px"></line><line x1="82.52232142857143" y1="0" x2="82.52232142857143" y2="5" style="visibility: inherit;" fill="rgb(0, 0, 0)" stroke="rgb(204, 204, 204)" stroke-width="1px"></line><line x1="103.15290178571429" y1="0" x2="103.15290178571429" y2="5" style="visibility: inherit;" fill="rgb(0, 0, 0)" stroke="rgb(204, 204, 204)" stroke-width="1px"></line><line x1="123.78348214285714" y1="0" x2="123.78348214285714" y2="5" style="visibility: inherit;" fill="rgb(0, 0, 0)" stroke="rgb(204, 204, 204)" stroke-width="1px"></line><line x1="144.4140625" y1="0" x2="144.4140625" y2="5" style="visibility: inherit;" fill="rgb(0, 0, 0)" stroke="rgb(204, 204, 204)" stroke-width="1px"></line><line x1="165.04464285714286" y1="0" x2="165.04464285714286" y2="5" style="visibility: inherit;" fill="rgb(0, 0, 0)" stroke="rgb(204, 204, 204)" stroke-width="1px"></line><line x1="185.67522321428572" y1="0" x2="185.67522321428572" y2="5" style="visibility: inherit;" fill="rgb(0, 0, 0)" stroke="rgb(204, 204, 204)" stroke-width="1px"></line><line x1="206.30580357142858" y1="0" x2="206.30580357142858" y2="5" style="visibility: inherit;" fill="rgb(0, 0, 0)" stroke="rgb(204, 204, 204)" stroke-width="1px"></line><line x1="226.93638392857142" y1="0" x2="226.93638392857142" y2="5" style="visibility: inherit;" fill="rgb(0, 0, 0)" stroke="rgb(204, 204, 204)" stroke-width="1px"></line><line x1="247.56696428571428" y1="0" x2="247.56696428571428" y2="5" style="visibility: inherit;" fill="rgb(0, 0, 0)" stroke="rgb(204, 204, 204)" stroke-width="1px"></line><line x1="268.19754464285717" y1="0" x2="268.19754464285717" y2="5" style="visibility: inherit;" fill="rgb(0, 0, 0)" stroke="rgb(204, 204, 204)" stroke-width="1px"></line><line x1="288.828125" y1="0" x2="288.828125" y2="5" style="visibility: inherit;" fill="rgb(0, 0, 0)" stroke="rgb(204, 204, 204)" stroke-width="1px"></line></g><g transform="translate(0, 8)"><text x="0" y="0" dx="0em" dy="0.95em" style="text-anchor: middle; visibility: hidden; font-family: Roboto, sans-serif; font-size: 12px; font-weight: 200;" fill="rgb(50, 49, 63)" stroke="none" stroke-width="1px">-200</text><text x="20.630580357142858" y="0" dx="0em" dy="0.95em" style="text-anchor: middle; visibility: inherit; font-family: Roboto, sans-serif; font-size: 12px; font-weight: 200;" fill="rgb(50, 49, 63)" stroke="none" stroke-width="1px">0</text><text x="41.261160714285715" y="0" dx="0em" dy="0.95em" style="text-anchor: middle; visibility: hidden; font-family: Roboto, sans-serif; font-size: 12px; font-weight: 200;" fill="rgb(50, 49, 63)" stroke="none" stroke-width="1px">200</text><text x="61.89174107142857" y="0" dx="0em" dy="0.95em" style="text-anchor: middle; visibility: inherit; font-family: Roboto, sans-serif; font-size: 12px; font-weight: 200;" fill="rgb(50, 49, 63)" stroke="none" stroke-width="1px">400</text><text x="82.52232142857143" y="0" dx="0em" dy="0.95em" style="text-anchor: middle; visibility: hidden; font-family: Roboto, sans-serif; font-size: 12px; font-weight: 200;" fill="rgb(50, 49, 63)" stroke="none" stroke-width="1px">600</text><text x="103.15290178571429" y="0" dx="0em" dy="0.95em" style="text-anchor: middle; visibility: inherit; font-family: Roboto, sans-serif; font-size: 12px; font-weight: 200;" fill="rgb(50, 49, 63)" stroke="none" stroke-width="1px">800</text><text x="123.78348214285714" y="0" dx="0em" dy="0.95em" style="text-anchor: middle; visibility: hidden; font-family: Roboto, sans-serif; font-size: 12px; font-weight: 200;" fill="rgb(50, 49, 63)" stroke="none" stroke-width="1px">1k</text><text x="144.4140625" y="0" dx="0em" dy="0.95em" style="text-anchor: middle; visibility: inherit; font-family: Roboto, sans-serif; font-size: 12px; font-weight: 200;" fill="rgb(50, 49, 63)" stroke="none" stroke-width="1px">1.2k</text><text x="165.04464285714286" y="0" dx="0em" dy="0.95em" style="text-anchor: middle; visibility: hidden; font-family: Roboto, sans-serif; font-size: 12px; font-weight: 200;" fill="rgb(50, 49, 63)" stroke="none" stroke-width="1px">1.4k</text><text x="185.67522321428572" y="0" dx="0em" dy="0.95em" style="text-anchor: middle; visibility: inherit; font-family: Roboto, sans-serif; font-size: 12px; font-weight: 200;" fill="rgb(50, 49, 63)" stroke="none" stroke-width="1px">1.6k</text><text x="206.30580357142858" y="0" dx="0em" dy="0.95em" style="text-anchor: middle; visibility: hidden; font-family: Roboto, sans-serif; font-size: 12px; font-weight: 200;" fill="rgb(50, 49, 63)" stroke="none" stroke-width="1px">1.8k</text><text x="226.93638392857142" y="0" dx="0em" dy="0.95em" style="text-anchor: middle; visibility: inherit; font-family: Roboto, sans-serif; font-size: 12px; font-weight: 200;" fill="rgb(50, 49, 63)" stroke="none" stroke-width="1px">2k</text><text x="247.56696428571428" y="0" dx="0em" dy="0.95em" style="text-anchor: middle; visibility: hidden; font-family: Roboto, sans-serif; font-size: 12px; font-weight: 200;" fill="rgb(50, 49, 63)" stroke="none" stroke-width="1px">2.2k</text><text x="268.19754464285717" y="0" dx="0em" dy="0.95em" style="text-anchor: middle; visibility: inherit; font-family: Roboto, sans-serif; font-size: 12px; font-weight: 200;" fill="rgb(50, 49, 63)" stroke="none" stroke-width="1px">2.4k</text><text x="288.828125" y="0" dx="0em" dy="0.95em" style="text-anchor: middle; visibility: hidden; font-family: Roboto, sans-serif; font-size: 12px; font-weight: 200;" fill="rgb(50, 49, 63)" stroke="none" stroke-width="1px">2.6k</text></g><line x1="0" y1="0" x2="288.828125" y2="0" fill="rgb(0, 0, 0)" stroke="rgb(204, 204, 204)" stroke-width="1px"></line></g></g></g></g></svg>