<svg viewBox="0 0 330 200" xmlns="http://www.w3.org/2000/svg"><g><g><g><g><g><line x1="51.5625" y1="178" x2="46.5625" y2="178" style="visibility: inherit;" fill="rgb(0, 0, 0)" stroke="rgb(204, 204, 204)" stroke-width="1px"></line><line x1="51.5625" y1="158.2222222222222" x2="46.5625" y2="158.2222222222222" style="visibility: inherit;" fill="rgb(0, 0, 0)" stroke="rgb(204, 204, 204)" stroke-width="1px"></line><line x1="51.5625" y1="138.44444444444446" x2="46.5625" y2="138.44444444444446" style="visibility: inherit;" fill="rgb(0, 0, 0)" stroke="rgb(204, 204, 204)" stroke-width="1px"></line><line x1="51.5625" y1="118.66666666666666" x2="46.5625" y2="118.66666666666666" style="visibility: inherit;" fill="rgb(0, 0, 0)" stroke="rgb(204, 204, 204)" stroke-width="1px"></line><line x1="51.5625" y1="98.8888888888889" x2="46.5625" y2="98.8888888888889" style="visibility: inherit;" fill="rgb(0, 0, 0)" stroke="rgb(204, 204, 204)" stroke-width="1px"></line><line x1="51.5625" y1="79.1111111111111" x2="46.5625" y2="79.1111111111111" style="visibility: inherit;" fill="rgb(0, 0, 0)" stroke="rgb(204, 204, 204)" stroke-width="1px"></line><line x1="51.5625" y1="59.33333333333334" x2="46.5625" y2="59.33333333333334" style="visibility: inherit;" fill="rgb(0, 0, 0)" stroke="rgb(204, 204, 204)" stroke-width="1px"></line><line x1="51.5625" y1="39.55555555555557" x2="46.5625" y2="39.55555555555557" style="visibility: inherit;" fill="rgb(0, 0, 0)" stroke="rgb(204, 204, 204)" stroke-width="1px"></line><line x1="51.5625" y1="19.777777777777786" x2="46.5625" y2="19.777777777777786" style="visibility: inherit;" fill="rgb(0, 0, 0)" stroke="rgb(204, 204, 204)" stroke-width="1px"></line><line x1="51.5625" y1="0" x2="46.5625" y2="0" style="visibility: inherit;" fill="rgb(0, 0, 0)" stroke="rgb(204, 204, 204)" stroke-width="1px"></line></g><g transform="translate(41.5625, 0)"><text x="0" y="178" dx="0em" dy="0.3em" style="text-anchor: end; visibility: hidden; font-family: Roboto, sans-serif; font-size: 12px; font-weight: 200;" fill="rgb(50, 49, 63)" stroke="none" stroke-width="1px">-0.1</text><text x="0" y="158.2222222222222" dx="0em" dy="0.3em" style="text-anchor: end; visibility: inherit; font-family: Roboto, sans-serif; font-size: 12px; font-weight: 200;" fill="rgb(50, 49, 63)" stroke="none" stroke-width="1px">0</text><text x="0" y="138.44444444444446" dx="0em" dy="0.3em" style="text-anchor: end; visibility: hidden; font-family: Roboto, sans-serif; font-size: 12px; font-weight: 200;" fill="rgb(50, 49, 63)" stroke="none" stroke-width="1px">0.1</text><text x="0" y="118.66666666666666" dx="0em" dy="0.3em" style="text-anchor: end; visibility: inherit; font-family: Roboto, sans-serif; font-size: 12px; font-weight: 200;" fill="rgb(50, 49, 63)" stroke="none" stroke-width="1px">0.2</text><text x="0" y="98.8888888888889" dx="0em" dy="0.3em" style="text-anchor: end; visibility: hidden; font-family: Roboto, sans-serif; font-size: 12px; font-weight: 200;" fill="rgb(50, 49, 63)" stroke="none" stroke-width="1px">0.3</text><text x="0" y="79.1111111111111" dx="0em" dy="0.3em" style="text-anchor: end; visibility: inherit; font-family: Roboto, sans-serif; font-size: 12px; font-weight: 200;" fill="rgb(50, 49, 63)" stroke="none" stroke-width="1px">0.4</text><text x="0" y="59.33333333333334" dx="0em" dy="0.3em" style="text-anchor: end; visibility: hidden; font-family: Roboto, sans-serif; font-size: 12px; font-weight: 200;" fill="rgb(50, 49, 63)" stroke="none" stroke-width="1px">0.5</text><text x="0" y="39.55555555555557" dx="0em" dy="0.3em" style="text-anchor: end; visibility: inherit; font-family: Roboto, sans-serif; font-size: 12px; font-weight: 200;" fill="rgb(50, 49, 63)" stroke="none" stroke-width="1px">0.6</text><text x="0" y="19.777777777777786" dx="0em" dy="0.3em" style="text-anchor: end; visibility: hidden; font-family: Roboto, sans-serif; font-size: 12px; font-weight: 200;" fill="rgb(50, 49, 63)" stroke="none" stroke-width="1px">0.7</text><text x="0" y="0" dx="0em" dy="0.3em" style="text-anchor: end; visibility: hidden; font-family: Roboto, sans-serif; font-size: 12px; font-weight: 200;" fill="rgb(50, 49, 63)" stroke="none" stroke-width="1px">0.8</text></g><line x1="51.5625" y1="0" x2="51.5625" y2="178" fill="rgb(0, 0, 0)" stroke="rgb(204, 204, 204)" stroke-width="1px"></line></g></g><g transform="translate(51, 0)" clip-path="url(#clip_0)"><clipPath id="clip_0"><rect width="278" height="178"></rect></clipPath><g><g><g><line x1="0" y1="0" x2="0" y2="178" fill="rgb(0, 0, 0)" stroke="rgb(60, 60, 60)" stroke-width="1px" opacity="0.25"></line><line x1="18.5625" y1="0" x2="18.5625" y2="178" fill="rgb(0, 0, 0)" stroke="rgb(60, 60, 60)" stroke-width="1px" opacity="0.25"></line><line x1="37.125" y1="0" x2="37.125" y2="178" fill="rgb(0, 0, 0)" stroke="rgb(60, 60, 60)" stroke-width="1px" opacity="0.25"></line><line x1="55.6875" y1="0" x2="55.6875" y2="178" fill="rgb(0, 0, 0)" stroke="rgb(60, 60, 60)" stroke-width="1px" opacity="0.25"></line><line x1="74.25" y1="0" x2="74.25" y2="178" fill="rgb(0, 0, 0)" stroke="rgb(60, 60, 60)" stroke-width="1px" opacity="0.25"></line><line x1="92.8125" y1="0" x2="92.8125" y2="178" fill="rgb(0, 0, 0)" stroke="rgb(60, 60, 60)" stroke-width="1px" opacity="0.25"></line><line x1="111.375" y1="0" x2="111.375" y2="178" fill="rgb(0, 0, 0)" stroke="rgb(60, 60, 60)" stroke-width="1px" opacity="0.25"></line><line x1="129.9375" y1="0" x2="129.9375" y2="178" fill="rgb(0, 0, 0)" stroke="rgb(60, 60, 60)" stroke-width="1px" opacity="0.25"></line><line x1="148.5" y1="0" x2="148.5" y2="178" fill="rgb(0, 0, 0)" stroke="rgb(60, 60, 60)" stroke-width="1px" opacity="0.25"></line><line x1="167.0625" y1="0" x2="167.0625" y2="178" fill="rgb(0, 0, 0)" stroke="rgb(60, 60, 60)" stroke-width="1px" opacity="0.25"></line><line x1="185.625" y1="0" x2="185.625" y2="178" fill="rgb(0, 0, 0)" stroke="rgb(60, 60, 60)" stroke-width="1px" opacity="0.25"></line><line x1="204.18749999999997" y1="0" x2="204.18749999999997" y2="178" fill="rgb(0, 0, 0)" stroke="rgb(60, 60, 60)" stroke-width="1px" opacity="0.25"></line><line x1="222.75" y1="0" x2="222.75" y2="178" fill="rgb(0, 0, 0)" stroke="rgb(60, 60, 60)" stroke-width="1px" opacity="0.25"></line><line x1="241.3125" y1="0" x2="241.3125" y2="178" fill="rgb(0, 0, 0)" stroke="rgb(60, 60, 60)" stroke-width="1px" opacity="0.25"></line><line x1="259.875" y1="0" x2="259.875" y2="178" fill="rgb(0, 0, 0)" stroke="rgb(60, 60, 60)" stroke-width="1px" opacity="0.25"></line><line x1="278.4375" y1="0" x2="278.4375" y2="178" fill="rgb(0, 0, 0)" stroke="rgb(60, 60, 60)" stroke-width="1px" opacity="0.25"></line></g><g><line x1="0" y1="178" x2="278.4375" y2="178" fill="rgb(0, 0, 0)" stroke="rgb(60, 60, 60)" stroke-width="1px" opacity="0.25"></line><line x1="0" y1="158.2222222222222" x2="278.4375" y2="158.2222222222222" fill="rgb(0, 0, 0)" stroke="rgb(60, 60, 60)" stroke-width="1px" opacity="0.25"></line><line x1="0" y1="138.44444444444446" x2="278.4375" y2="138.44444444444446" fill="rgb(0, 0, 0)" stroke="rgb(60, 60, 60)" stroke-width="1px" opacity="0.25"></line><line x1="0" y1="118.66666666666666" x2="278.4375" y2="118.66666666666666" fill="rgb(0, 0, 0)" stroke="rgb(60, 60, 60)" stroke-width="1px" opacity="0.25"></line><line x1="0" y1="98.8888888888889" x2="278.4375" y2="98.8888888888889" fill="rgb(0, 0, 0)" stroke="rgb(60, 60, 60)" stroke-width="1px" opacity="0.25"></line><line x1="0" y1="79.1111111111111" x2="278.4375" y2="79.1111111111111" fill="rgb(0, 0, 0)" stroke="rgb(60, 60, 60)" stroke-width="1px" opacity="0.25"></line><line x1="0" y1="59.33333333333334" x2="278.4375" y2="59.33333333333334" fill="rgb(0, 0, 0)" stroke="rgb(60, 60, 60)" stroke-width="1px" opacity="0.25"></line><line x1="0" y1="39.55555555555557" x2="278.4375" y2="39.55555555555557" fill="rgb(0, 0, 0)" stroke="rgb(60, 60, 60)" stroke-width="1px" opacity="0.25"></line><line x1="0" y1="19.777777777777786" x2="278.4375" y2="19.777777777777786" fill="rgb(0, 0, 0)" stroke="rgb(60, 60, 60)" stroke-width="1px" opacity="0.25"></line><line x1="0" y1="0" x2="278.4375" y2="0" fill="rgb(0, 0, 0)" stroke="rgb(60, 60, 60)" stroke-width="1px" opacity="0.25"></line></g></g></g><g><g><line x1="0" y1="158.2222222222222" x2="278.4375" y2="158.2222222222222" fill="rgb(0, 0, 0)" stroke="rgb(153, 153, 153)" stroke-width="1.5px"></line></g></g><g><g><line x1="18.5625" y1="0" x2="18.5625" y2="178" fill="rgb(0, 0, 0)" stroke="rgb(153, 153, 153)" stroke-width="1.5px"></line></g></g><g><g><g><g><g><path stroke="rgb(255, 112, 67)" stroke-width="2px" d="M20.41875,-11.430849919075026L20.790000000000003,4.917260319889912L21.90375,9.431951935025745L22.275000000000002,10.555955257826138L22.460625,20.902756163069775L22.64625,24.25875265748012L22.7390625,30.93283710371049L22.924687499999997,-5.141979126620663L23.6671875,-2.7681525413026558L23.759999999999998,1.7712824760277004L23.8528125,3.064923142438925L24.4096875,-0.24893869411867176L24.5953125,12.843427837820911L24.7809375,7.563062305567717L24.87375,12.889726865662311L25.1521875,14.297194782598837L25.245,-0.08327586810701915L25.3378125,-5.476701769133102L25.430625,0.5943654800751565L25.8946875,6.692043690366667L26.35875,8.930161301786264L26.6371875,13.662770031506223L26.73,-15.640790999404262L27.286875000000002,7.754019589167717L28.029375,8.879460617261707L28.3078125,11.677093850599581L28.400624999999998,21.909192673154365L29.0503125,26.5354766738676L29.32875,34.59383211366651L29.514374999999998,42.22558070432103L30.1640625,-26.33174784943735L31.834687499999998,-24.215795605686306L32.484375,1.8291044024318184L32.9484375,9.176749068486515L33.1340625,13.745880740366026L33.226875,19.886825622293987L33.598125,26.620217338584563L34.0621875,23.733123311625512L34.155,27.058508984451237L34.4334375,31.172860085293063L34.9903125,30.023512570984884L35.083125,31.21385447981305L35.268750000000004,35.62850882690593L35.5471875,29.83348615085586L35.7328125,30.658218807670533L35.825625,37.61788593929606L36.01125,41.140732063726865L36.196875,41.84602828852907L36.2896875,46.59499134242085L36.939375,42.2057037529521L37.681875,50.39809297452075L37.7746875,39.61799596042589L37.8675,38.547059605267606L38.23875,51.877746406377845L39.166875,56.5466218371281L39.2596875,58.35969808506834L39.4453125,52.84647925778943L39.816562499999996,50.36128915201457L40.095,39.99171404550971L40.1878125,22.619053199949864L40.280625,19.147605606951135L40.5590625,20.900998906383276L41.6728125,23.90774780676127L42.229687500000004,29.42451579271969L42.508125,30.80768446266185L42.693749999999994,22.855832548443317L42.7865625,36.71944156643648L42.9721875,41.951700365683834L43.3434375,45.12020618420658L43.714687500000004,53.92053069824402L43.900312500000005,43.58330528960614L44.364374999999995,41.14970280411103L45.5709375,52.06346885306328L45.66375,55.79728213911867L46.1278125,56.47483338759379L46.220625000000005,52.69139147110404L46.591875,61.254662965912686L46.684687499999995,66.22085129000156L47.055937500000006,61.26151260336021L47.14875,62.62750069657828L47.334375,61.16427438738533L47.612812500000004,61.4096104380444L48.076875,55.25187396402223L48.169687499999995,49.68465653164886L48.2625,37.1834556261257L48.7265625,49.54393989242448L48.819375,62.052853659507974L48.9121875,57.01717983096547L49.190625,54.431807617139384L50.0259375,58.43724427873057L50.21156250000001,40.76270004132556L50.5828125,53.998556955769644L50.7684375,60.796244884665484L51.325312499999995,62.09594175989237L51.418125,43.76986619364767L51.975,38.62828754371003L52.253437500000004,43.03637275620989L52.6246875,43.912160569907726L52.9959375,53.80626377333096L53.1815625,52.1025495580965L53.5528125,55.361218195949675L53.645625,56.52850369851802L53.7384375,51.82155375889218L53.9240625,58.93049125068817L54.388125,54.463737179001775L54.480937499999996,60.49467635700738L54.8521875,45.361108852059786L54.945,57.938668251943625L55.037812499999994,45.20788244725652L56.43,51.31776849885286L57.0796875,57.626697262217945L57.1725,54.72758884700225L57.6365625,56.00209242453095L57.729375000000005,57.27839077389852L57.915,45.317851742035515L58.100625,51.77098730665691L58.471875,58.532101069000205L59.3071875,62.664114180337165L59.4928125,64.33560408805323L59.585625,63.61391970508007L59.864062499999996,66.31183586977214L60.4209375,67.41084353007251L61.1634375,68.95153559505698L61.25625,62.28555506556421L61.534687500000004,57.03814260880331L61.6275,62.6762650214842L61.9059375,52.27594835115075L61.99875,56.09043562344273L62.4628125,48.45006397789322L62.555625,44.65526795309812L63.5765625,48.868784718578546L63.855,59.74095127819573L63.9478125,61.79080346726534L64.1334375,67.63918669457462L64.3190625,68.22026614276372L64.5975,65.38555188400893L65.6184375,70.01722524352215L66.0825,66.48776875872484L66.268125,66.14629256622767L66.5465625,67.60928025978868L66.7321875,66.49263515488478L67.19625,44.20474372025701L67.2890625,54.33352750635633L67.8459375,53.78840313677551L68.0315625,48.33707683147393L68.124375,51.99422115203582L68.31,54.41348841657346L68.4028125,58.19679718138836L68.68125,53.502173108722495L68.866875,62.91809556919943L69.3309375,58.51483906530507L69.42375,54.65971442262896L69.5165625,55.895724830233455L69.70218750000001,61.56768593489001L70.2590625,59.29397195954445L70.4446875,61.15350696074558L70.8159375,63.699452803961655L70.90875,65.4253213073075L71.0015625,66.95410046171705L71.37281250000001,63.971113545844325L71.7440625,59.072151409807745L71.836875,69.60314057966116L72.1153125,71.32271315011738L72.3009375,72.57572635291697L72.39375,68.63880069686846L72.4865625,67.9872283542851L72.579375,66.86957502658032L72.6721875,70.15847687897005L72.76499999999999,69.24121103074303L72.950625,66.20264648627926L73.0434375,69.40562275322624L73.50750000000001,68.25674204127729L73.60031249999999,63.220783915036705L73.9715625,64.73016096308655L74.25,68.08149006260332L74.43562499999999,65.88064056809482L74.99249999999999,70.13177636966549L75.17812500000001,67.5861472085774L75.6421875,55.48030459457596L76.01343750000001,57.968099917415536L76.10624999999999,68.99517243497861L76.291875,67.08711367483912L77.405625,72.01903410138276L78.0553125,68.70735230871986L78.14812500000001,56.189373878280705L78.33375,46.05324646425007L78.4265625,52.50860288495874L78.519375,48.53811495091881L78.6121875,36.3837759423768L78.79781249999999,54.33019911022081L79.07624999999999,54.4380823830365L79.4475,58.43862786648266L79.5403125,68.71084318480116L79.91156249999999,73.31874214893647L80.19,70.65185481016808L80.56125,74.0180816248687L80.8396875,61.30373625994184L80.9325,65.83623218361808L81.0253125,65.69485802545712L81.118125,69.97075988706688L81.2109375,68.54179774437392L81.3965625,64.19071280189779L81.48937500000001,65.05700628297583L81.58218749999999,69.46954402594665L81.7678125,68.90028441973531L81.860625,72.22526713295251L81.9534375,77.8490674050326L82.04625,74.8914728003414L82.231875,64.90638758433558L82.41749999999999,69.3553718773751L82.5103125,62.498607272797535L83.16000000000001,68.84495205839762L83.4384375,65.90415452615593L83.62406250000001,73.30530899648241L83.8096875,73.84399550289535L84.08812499999999,68.19507443254234L84.27374999999999,71.20541093488889L84.45937500000001,73.54643233329932L84.830625,75.27985872520203L85.201875,78.15692192398095L85.4803125,76.01760127196263L85.573125,54.28144940962127L85.6659375,67.25928559506441L85.75874999999999,71.74609395360982L86.315625,64.94659938313188L86.8725,69.6573721548442L87.05812499999999,71.85464251190234L87.1509375,66.31870722065256L87.24375,60.411796909973994L87.5221875,70.48000227356314L87.80062500000001,63.674485255942905L87.89343749999999,65.04531774832112L88.171875,68.7431722755033L88.26468750000001,68.04123628452875L88.3575,61.83713022261135L88.543125,68.49027563896675L88.72874999999999,69.61032082233301L89.285625,70.72108193393632L89.56406249999999,69.30140776992158L89.656875,73.32928419645818L89.93531250000001,69.0420391697524L90.02812499999999,69.88809503747055L90.1209375,71.46180271751167L90.3065625,68.92034761959869L90.39937499999999,73.79025734245182L90.95625,70.65113795268178L91.3275,74.64414289806204L91.4203125,76.10205250112564L91.60593750000001,78.21555234998807L91.7915625,78.41054038080448L91.9771875,84.56723770754593L92.07,87.95567291797103L92.1628125,81.39911183806798L92.255625,79.29208690446805L92.3484375,81.97903841515364L92.626875,80.17966497210651L92.8125,79.59150003751908L92.998125,84.3922579303365L93.27656250000001,82.29504594362331L93.4621875,86.84457462258403L93.555,82.70834731197715L93.6478125,74.19012467081497L94.20468749999999,67.58188746779253L94.2975,75.80752183177856L94.483125,75.63345709019838L94.7615625,65.50344671353065L95.1328125,72.935185158186L95.41125,72.22380580341787L95.6896875,70.1687116970776L95.7825,67.62201132742183L95.968125,70.49444933554102L96.15375,71.86311207505408L96.33937499999999,74.82976486724685L96.8034375,74.72030461495365L97.08187500000001,74.07282482384788L97.2675,74.40760463687599L97.5459375,67.41445241233734L98.2884375,75.99882317698615L98.6596875,70.15843579110141L99.03093750000001,70.82054484978632L99.2165625,75.98841717366233L99.309375,76.90761740387461L99.68062499999999,83.34603041703755L99.86625000000001,81.8111429669177L99.9590625,80.10291017505487L100.2375,71.35795338466211L100.42312500000001,72.65014732389317L100.60875,78.19918980636729L100.8871875,75.19880115320073L101.0728125,71.60934635663568L101.165625,71.05371903974536L101.35125,73.08984718083576L101.7225,75.61338892793198L102.09374999999999,81.29165337942698L102.7434375,77.64189701223634L102.83625,78.94956088364015L102.9290625,74.45006052831742L103.021875,72.65160802842473L103.2075,76.67982223998946L103.3003125,63.00148249092564L103.48593749999999,68.48126733290208L103.57875,73.82635901496376L103.67156250000001,74.00919414038796L103.95,60.387348045427295L104.0428125,65.18975262811901L104.135625,65.86001005486654L104.2284375,76.00162741637497L104.4140625,74.33710953253271L104.9709375,79.16492761633123L105.06375,78.6644254056294L105.34218750000001,82.03261001208833L105.991875,85.12874514903935L106.2703125,75.80515277082179L106.92,65.85733699881375L107.01281250000001,59.46277711706032L107.105625,60.48625226898328L107.29125,65.77109823011692L107.3840625,69.94374790486364L107.476875,71.65683328063622L107.7553125,53.15083619393377L107.848125,51.90012483062824L108.03375,60.844789101257795L108.219375,60.66546185428393L108.31218750000001,58.26945153112573L108.6834375,65.14815412701387L108.77625,67.65482121088172L109.14750000000001,68.84148280912146L109.24031249999999,69.67247498422302L109.333125,73.10170147651098L109.4259375,66.71948911117379L109.704375,70.45274609214846L109.79718749999999,75.33316289118997L109.89,77.89961998236751L110.1684375,72.93852559536906L110.26125,70.6971632522291L111.00375,77.77843598085983L111.375,80.59335571396689L111.560625,68.92264666346382L111.74624999999999,74.14677162679637L111.8390625,73.4980776796165L112.1175,75.51026073829868L112.2103125,76.61934193348145L112.3959375,80.08632625697541L112.48875000000001,83.34107090766324L112.5815625,88.18083958070532L112.674375,82.48959693787464L112.95281250000001,79.03373786959496L113.6953125,83.25974962339203L113.88093749999999,88.1937123186248L114.0665625,87.91914164504553L114.2521875,86.84621754707912L114.345,88.70613695965753L114.62343750000001,85.75040384933612L114.8090625,75.97771092206064L114.901875,82.09013812512053L114.9946875,85.22497232154281L115.45875000000001,83.89258469115192L116.1084375,71.8587479993598L116.20125,75.00167713989197L116.4796875,80.78835154497915L116.6653125,81.52075015195122L117.22218749999999,78.19866638726074L117.315,77.03931393101129L117.500625,77.95666751124384L117.68625,81.96547612065825L118.05749999999999,86.8120812022903L118.42875000000001,85.29299593897638L118.614375,88.64666425412749L119.07843749999999,83.60314751004688L119.17125,70.29262168872332L119.26406250000001,74.6046366088998L119.91375,74.48411555913226L120.0065625,69.8715829070702L120.56343749999999,71.0011442670998L120.93468750000001,78.26585607480999L121.02749999999999,78.64330518693922L121.1203125,69.84327395231246L121.955625,63.99909655997254L122.14125,71.65734793261811L122.4196875,75.79666008263503L122.7909375,84.33279424467818L122.9765625,88.27769266369093L123.06937500000001,90.51778301743623L123.44062500000001,91.01708224239059L123.53343749999999,87.53003882924646L123.7190625,83.3428523832158L123.811875,89.66789043375097L123.90468750000001,87.19983603149927L124.183125,87.30436926835941L124.27593750000001,88.03273955172135L125.20406249999999,83.52416907990806L125.3896875,85.92634315835336L125.4825,80.28840715085275L125.7609375,82.4408528709102L125.85375,78.51203499325908L125.9465625,89.79964850928994L126.225,86.53797348557545L126.3178125,74.38085914848097L126.41062500000001,79.1486139209937L127.8028125,80.26124353943163L128.08125,83.0874465423432L128.266875,86.53374497266917L128.3596875,89.87839025494176L128.5453125,85.23517417651446L128.638125,86.15590154176175L128.9165625,80.37449451778132L129.195,81.0687287439533L129.2878125,78.19145642192265L129.380625,83.15684869437743L129.47343750000002,87.15300971067215L129.6590625,87.82032806354522L129.8446875,90.63632832904646L130.0303125,83.18812337084606L130.30875,85.28020537898009L130.494375,91.89397154188526L130.68,88.37844807401453L130.865625,85.72028856969966L131.05125,89.87767787077286L131.1440625,90.7997930564379L131.236875,89.53783283141627L132.165,89.48655760391974L132.53625,75.9810524920224L132.9075,75.52880160845908L133.0003125,81.48018107913491L133.093125,86.85272850654059L133.27875,89.49724011855245L133.5571875,94.33778051212913L133.835625,84.26690608202045L134.02125,90.18640552987497L134.2996875,90.85047129211728L134.4853125,91.12283066031743L134.8565625,85.81791732844825L135.04218749999998,89.76175505799321L135.2278125,87.98933424283426L135.320625,88.24217570858814L135.5990625,85.96746837651635L135.691875,86.33692657682839L135.78468750000002,89.80295699013729L135.8775,90.15353615188674L136.063125,86.64530141614324L136.5271875,80.34289751262266L136.805625,80.96117308424392L137.2696875,73.47758417141326L137.4553125,77.97741319027676L138.01218749999998,83.05324692433689L138.38343749999999,87.39767198175225L138.47625,90.1767758897214L138.5690625,88.14488300311181L138.661875,90.11273533347484L138.8475,81.13929831199455L139.1259375,83.32319368581871L139.21875,87.86294804874267L139.40437500000002,87.04700243325291L139.4971875,87.36076299525719L140.146875,87.8353307204755L140.3325,88.15814105415215L140.6109375,84.41318250079607L140.70374999999999,90.45315342705575L140.98218749999998,85.20362609893095L141.07500000000002,87.82049176721448L141.5390625,88.42121192790275L141.631875,82.93529171201577L141.72468750000002,85.50505146852925L142.003125,82.95842634654453L142.18875,78.68469165374682L142.2815625,76.6716445257191L142.374375,77.91206071462445L142.46718750000002,81.75878220344642L142.56,88.52958955890969L142.65281249999998,91.13920582847018L143.2096875,84.51911098271344L143.67375,84.91323613762033L143.7665625,87.22491414596806L143.85937500000003,82.95523811529182L144.32343749999998,84.89328171038026L144.69468750000001,83.20106909209527L144.8803125,84.90932702078179L144.973125,77.26857675942038L145.344375,80.03365790876434L145.715625,80.4090997247525L146.3653125,79.65188272540867L146.5509375,80.69201747954281L146.829375,84.23042134405742L147.01500000000001,84.01366844419249L147.1078125,85.9932278181397L147.38625,82.85711379095943L147.4790625,75.2161980981332L147.66468749999999,70.46039280250548L147.7575,81.41638096742756L148.0359375,83.73647075570712L149.61375,83.43584591222722L149.7065625,79.00327877379543L149.799375,81.47199354012395L149.8921875,83.74604208532722L150.26343749999998,82.87900735628192L150.54187499999998,82.04443035074357L150.913125,86.0266616966556L151.0059375,79.2526143977117L151.09875,84.4487845983879L151.47,88.09336785727731L151.5628125,85.51856447212292L151.655625,87.68185780880951L151.84125,92.34108852939003L152.02687500000002,90.02742915972456L152.21249999999998,94.29075066422057L152.398125,97.44308778549015L153.140625,96.49760553316473L153.60468749999998,87.34387922133725L153.69750000000002,88.64983251797591L154.5328125,89.42395485504926L154.625625,84.87034828767521L155.64656250000002,57.53608903470839L156.0178125,66.31154123057846L156.110625,71.90672007136166L156.3890625,77.5312625821389L156.481875,44.870256375628145L156.7603125,49.56724595243512L156.94593749999999,59.13353012464642L157.03875,69.31663353851094L157.1315625,74.90037834147338L157.78125,82.16201030909852L157.87406249999998,83.71198874665532L157.96687500000002,68.74743224089617L158.0596875,58.30280157204964L158.338125,68.30977130365935L158.52375,54.02569670935017L158.6165625,58.3286712905671L158.709375,65.97218165575235L158.8021875,71.75437004301874L159.451875,76.87365214983977L159.9159375,80.44026188363182L160.00875,70.21484211205505L160.2871875,59.89451215801739L160.936875,72.23578314731051L161.1225,74.83332620908536L162.050625,75.30438887917164L162.23625,81.45461926631695L162.5146875,81.12166247364752L162.6075,82.92625201435344L162.793125,82.12840695528395L162.88593749999998,81.05508928175361L163.4428125,79.69371343856409L163.535625,81.91768241117278L164.0925,76.76508335650557L164.1853125,76.8147821369604L165.020625,72.06791873697122L165.391875,71.89016123567232L165.57750000000001,78.41997681431498L165.94875,79.023076892795L166.50562499999998,85.45673203257167L166.7840625,89.82488811154298L166.9696875,92.94514859865254L167.24812500000002,92.52712736020574L167.43375,78.53716152337576L167.5265625,82.81993895957633L167.8978125,86.24207007070903L167.99062500000002,90.73643995697283L168.17624999999998,84.45825600384L168.2690625,89.1358187131252L168.4546875,75.95081248938702L168.733125,73.81628135014705L168.91875000000002,78.50224936572857L169.29,84.14335397688106L169.475625,81.79991461586158L169.5684375,78.55165199157979L169.66125,80.62209021876684L169.84687499999998,88.0799322674499L170.0325,87.40761991175302L170.49656249999998,95.31797140074477L170.77499999999998,96.90148556172474L170.960625,86.45088286628764L171.2390625,91.29986749680435L171.51749999999998,80.87009282597197L171.88875,85.78601108736106L172.16718749999998,92.71283291228399L172.53843750000001,90.16666445336745L172.63125,89.45213704295823L172.7240625,88.09759391472792L173.37375,79.22369719487727L173.559375,80.5130845602888L173.6521875,88.27364425042498L173.745,83.76324367365113L174.0234375,84.98352717198784L174.11624999999998,89.97511348031675L174.673125,87.87708840378419L174.7659375,90.58074969084703L174.85875000000001,91.05206130496977L175.1371875,88.70080802372489L175.50843749999999,86.58324036186438L175.60125000000002,85.92556839166053L175.78687499999998,91.1221866480521L175.87968750000002,86.81004971695015L175.9725,85.67558854810967L176.0653125,75.22291511027892L176.2509375,74.27637467355191L176.52937500000002,78.08884465835885L176.8078125,81.09825516626674L177.1790625,84.65871487721401L177.27187500000002,90.56681440140234L177.7359375,93.94677693896084L177.9215625,94.00880240948553L178.014375,85.7827664666467L178.1071875,85.75076585927168L178.4784375,77.8226003575769L178.756875,72.80332734423229L178.94250000000002,79.56542952069715L179.31375,86.57998754241844L179.4065625,74.85326570863792L179.49937500000001,66.61535051091339L179.5921875,74.22910174768133L179.7778125,77.48012960312676L180.241875,82.49271289455972L180.33468749999997,77.14977929296276L180.5203125,83.13405897863682L180.613125,89.2004704315343L180.7059375,76.37708595163231L180.984375,78.88295946710603L181.17,75.73989615158217L181.2628125,83.13548226081254L181.355625,87.79410122918176L182.098125,89.48368348531177L182.1909375,89.5910877894496L182.46937499999999,90.48699267572971L183.3046875,86.20245080974453L183.8615625,91.38971348079096L183.954375,87.38005497140917L184.51125,91.88121177007693L184.6040625,92.25830327884984L184.696875,97.3542566291158L184.88250000000002,95.89007408304334L184.9753125,93.10913823309865L185.06812499999998,84.78152935794323L185.439375,91.85503422010073L185.99625,91.4206005898404L186.0890625,92.8664658699141L186.83156250000002,70.72878473138383L186.924375,80.35535923257146L187.2028125,78.47518742119743L187.48125,72.72004219977012L187.8525,78.51939838051237L188.038125,74.52547782280375L188.40937499999998,80.6284974936412L188.96625,83.7789347166081L189.3375,85.29548827243075L189.4303125,87.42242004268039L189.70875,90.6555884203209L189.8015625,92.86042597352161L189.89437500000003,92.13152335360861L190.17281250000002,95.39480781056943L190.5440625,93.61929090518828L190.7296875,94.61482295810627L190.9153125,96.32595966973241L191.008125,94.45253558454583L191.10093750000001,91.16433418027493L191.75062499999999,96.9579147644092L191.93625,95.78274615423709L192.0290625,97.13312342852451L192.5859375,100.00474368983568L192.67874999999998,104.52868442739813L192.77156250000002,96.24333559476794L192.95718749999997,94.12209131123699L193.1428125,95.07955430363198L194.07093749999999,93.70287458216562L194.2565625,98.96758941613218L195.091875,94.84818134455101L195.463125,91.38837708349622L195.9271875,97.71414008129992L196.01999999999998,97.13399446904938L196.11281250000002,98.82844887051486L196.39125,98.87271856788894L196.4840625,99.46398366538479L196.576875,100.16351079770601L196.6696875,96.88574857079858L197.0409375,98.94146952038L197.13375,100.67317967484058L197.50500000000002,70.00757126001979L197.69062499999998,47.632929952870604L197.87625,31.012553877789262L198.06187500000001,31.73645411096852L198.1546875,35.65554738274255L198.2475,38.49769622622554L198.433125,41.039783299530626L198.5259375,51.07986223863799L198.99,63.50998809967117L199.2684375,61.2373265394258L199.45406250000002,70.54108217370633L199.73250000000002,69.85099965407395L200.0109375,80.81710459302896L200.10375,75.46955245706722L200.289375,73.772980224927L200.475,56.51133757343275L201.03187499999999,58.048663092714854L201.12468750000002,67.02312147203821L201.31031249999998,67.87572231309522L201.4959375,74.25858897219247L202.33125,81.14493772470375L202.4240625,86.62080750316434L202.51687500000003,86.15059222449892L202.6096875,88.75985984473114L203.72343750000002,87.5994277107836L203.90906249999998,85.13803067851791L204.0946875,85.41467141008282L204.2803125,93.77406507999575L204.65156249999998,97.61930384135104L204.744375,97.07867473831624L204.8371875,93.73186924075924L205.0228125,93.81655604186493L205.115625,94.0978045005835L205.39406250000002,99.47265499335613L205.486875,95.30004781982554L205.57968749999998,94.50884191096576L205.7653125,98.79617389513834L206.229375,97.20758592040278L206.5078125,95.8845650424947L206.6934375,84.89115952805352L206.78625,85.3331701028354L206.97187499999998,87.46181357047334L207.25031249999998,86.17940833123019L207.52875,89.756297817206L207.714375,91.50574935233466L207.99281249999999,97.38685804658653L208.27125,96.99715940057018L208.3640625,97.09064012573099L208.64249999999998,93.76161632819533L208.828125,91.8967657996231L208.92093749999998,90.49465625164987L209.66343750000001,93.59194804171902L209.75625,92.26887092091086L209.941875,93.54924204738735L210.40593750000002,89.07431213135601L210.87,84.08030094615336L210.9628125,89.19781614224475L211.055625,91.44615698915273L211.24125,93.01313981582985L211.33406250000002,83.21301335926346L211.5196875,85.12000508409038L211.7053125,92.71357532455634L211.98375,94.71177889309128L212.07656250000002,83.28682247573548L212.4478125,83.97244987883153L212.911875,81.30808137389144L213.0975,81.43443469126298L213.654375,85.83707881720429L213.74718750000002,86.76828500347938L213.84,85.10386044877004L213.93281249999998,87.75371018507418L214.02562500000002,93.72691188065545L214.30406250000001,91.68029925576516L214.4896875,87.18774716600115L214.768125,80.51949303739535L214.86093749999998,84.39275327559271L215.13937499999997,87.5999184086082L215.325,94.14167087811508L215.510625,84.8621482781864L215.60343749999998,89.0166935244578L215.69625,77.71288128610719L216.0675,83.41521997136967L216.43875,87.4568006634367L216.53156249999998,84.12971163297279L216.62437500000001,92.8587629242349L216.995625,93.49154730765338L217.0884375,91.3170446006158L217.27406249999999,94.38693257854575L217.366875,97.62387567770199L217.5525,99.7891148342725L217.6453125,96.69830834419413L217.738125,96.75580650962588L217.92374999999998,99.41945108412027L218.01656250000002,92.64833748985984L218.109375,88.39446028195944L218.20218749999998,89.65998928885205L218.48062499999997,89.64379484538561L218.66625,91.9441876621769L218.7590625,96.02714561028968L219.3159375,95.82628667317046L219.40875,94.86324434522784L219.5015625,98.20070837696124L219.87281249999998,95.55860812719501L220.0584375,96.97916133754951L220.2440625,98.29210667344037L220.6153125,97.43858347521153L221.265,95.81386628924035L221.54343749999998,97.59737625691893L221.7290625,93.5832312045908L221.9146875,99.35314903422027L222.0075,97.39387752206756L222.193125,98.2403067153856L222.37875,91.86258011539437L222.564375,89.43749942866755L222.6571875,90.70647268983399L222.75,93.36918192534586L223.02843750000002,95.23388713787692L223.12125,96.985011013161L223.3996875,84.62977119063652L223.49249999999998,85.54786736831258L223.7709375,88.74805969104946L224.049375,95.63085394101147L224.420625,86.80756252935942L224.97750000000002,91.91113744403438L225.0703125,93.69121509395018L225.34875,90.78139431901626L225.4415625,95.21142453925522L225.6271875,99.23852069827609L225.8128125,96.99365106481595L225.90562500000001,94.21402650496997L226.09125,93.35527353339376L226.1840625,97.83060864056272L226.3696875,85.68757135007522L226.4625,89.42386860384124L226.55531249999999,95.54582087768594L226.648125,92.70114014755444L226.83375,87.14820054365318L227.019375,89.57960961973542L227.1121875,88.79755571447669L227.48343749999998,83.06744091422406L227.57625000000002,85.53873138321734L227.76187499999997,85.82567105441602L228.0403125,83.57359879794637L228.2259375,90.17937040212834L228.504375,84.77652989423788L229.06125,88.1762939819817L229.618125,91.70498014001129L229.989375,91.33011310668304L230.2678125,91.07007737977217L230.731875,81.2951113251886L230.91750000000002,72.76430264322208L231.1959375,79.54299550114357L231.7528125,85.05432288098635L231.845625,90.91777765633975L232.03125,88.65887573754841L232.30968750000002,90.11915977700848L232.58812500000002,86.8096886205267L232.6809375,80.746990420741L232.77374999999998,75.96266417800713L233.6090625,79.39438949551447L233.701875,75.75468764751247L233.7946875,83.45742366740559L233.8875,88.21750204713152L234.073125,93.31596442365584L234.25875000000002,89.3887605870667L234.53718750000002,96.47560732261424L234.63,99.95414389919226L235.00125,96.3844721977968L235.18687500000001,90.60448905352442L235.2796875,91.76359317085026L235.3725,98.79895836010769L235.4653125,101.12046014272953L236.20781250000002,97.35321598253917L237.043125,94.29054593312769L237.22875,92.63374608981098L237.5071875,95.60135033133781L237.97125,87.31889879281547L238.2496875,89.98359660054382L238.3425,90.82934161935L238.6209375,90.93669253205175L238.99218749999997,89.16281784543344L239.270625,95.5132546827002L239.45624999999998,95.4192825876556L239.641875,89.9192365812324L239.9203125,93.50196385955522L240.19875000000002,95.85378434736289L240.2915625,94.53311937008223L240.38437499999998,97.79458804169317L240.57,95.04340256926164L241.3125,97.38595204028204L241.498125,96.46983839687668L241.68375,102.06930948267558L241.86937500000002,86.78294795932477L242.3334375,94.47766731821098L242.79749999999999,89.27546146961278L243.16875,94.23744048480857L243.54000000000002,95.42394687615634L243.6328125,97.56395834349607L243.72562499999998,91.92548554140139L244.096875,97.70356466040366L244.3753125,96.64729718565158L244.65375,97.0241790968795L245.11781249999999,97.37216570130703L245.39624999999998,104.09475334443347L245.581875,98.55723076901121L245.953125,98.57478098112448L246.0459375,98.95164265920253L246.13875000000002,94.97191971421626L246.2315625,87.85495562614565L246.4171875,89.95531106349766L246.6028125,95.20761802144347L246.88125000000002,97.48331425264642L247.15968750000002,88.36216274571187L247.2525,92.83977868096424L247.438125,95.78052189179763L247.62375,98.23299268355404L248.27343750000003,98.05574387393654L248.6446875,100.71775978587756L248.83031250000002,96.52984871337426L249.0159375,95.09826311854954L249.2015625,93.0331669519318L249.294375,83.58244910524789L249.48000000000002,82.20610922454367L249.7584375,86.46998610026779L249.94406249999997,84.07012242035356L250.2225,84.04119262271891L250.40812499999998,89.94585019917218L250.6865625,88.61423798345086L250.779375,93.21536084511744L250.8721875,88.41655996143143L251.8003125,88.33323908931273L251.893125,81.75539548779615L252.07874999999999,89.58531374154212L252.1715625,82.19907898754508L252.264375,90.86149900983153L252.3571875,95.95647853246889L252.635625,99.24959881483451L252.72843749999998,99.62736648083425L252.9140625,96.9987808279503L253.1925,97.03689560036379L253.378125,96.39694099867653L253.56375,74.73847390757588L253.749375,76.92932968001847L254.5846875,88.99587468170562L254.67749999999998,91.33459028851387L254.95593749999998,95.17203583403598L255.1415625,95.16674901562104L255.3271875,78.42462023473747L255.5128125,85.46668443374682L255.6984375,90.04655797987226L255.79125,93.54926745983056L256.0696875,95.04928251374352L256.6265625,96.62943935289468L256.719375,91.81033367517948L257.090625,98.22838158569748L257.3690625,97.87764016552643L257.6475,95.15664640391859L257.833125,97.27436459456877L257.9259375,97.24115489824281L258.2971875,103.26133557566868L258.66843750000004,101.98419906806934L258.8540625,97.22946374880465L258.94687500000003,92.86776387652075L259.0396875,88.73255115856253L259.1325,95.58655591473692L259.22531250000003,92.23084012732997L259.50375,96.08186534815026L259.875,94.99254542056516L260.060625,97.2574448805214L260.431875,97.39913500408629L260.52468749999997,100.92394096953518L260.7103125,102.30335343263256L260.803125,97.81803225903734L261.2671875,94.15564610882679L261.54562500000003,95.77471171810676L261.6384375,93.25918879174525L261.8240625,98.4748081833588L262.0096875,84.84824536796543L262.1953125,88.49974984791889L262.288125,92.04154802017949L262.5665625,95.66068635376419L262.659375,94.92736199824621L262.7521875,96.47586843037438L262.84499999999997,96.17583995526L263.12343749999997,92.88909545553042L263.21625,88.91504990730738L263.40187499999996,89.81243948477274L263.95875,91.73127762413019L264.2371875,89.89533163668312L264.515625,83.50184253457809L264.60843750000004,80.41741519532773L264.9796875,92.06112657670153L265.5365625,92.13750153657843L265.7221875,95.58940100993941L266.18625,93.11731461083629L266.74312499999996,93.54435200595965L267.114375,94.51311461921334L267.3,93.70132583456713L267.7640625,93.37188096754902L267.94968750000004,99.29464366914061L268.0425,102.31574046474765L268.22812500000003,101.57108711319408L268.599375,98.79582860738381L268.970625,101.55339073077381L269.0634375,103.1221126281022L269.4346875,106.29735121770166L269.80593749999997,97.42781010123832L270.08437499999997,95.5591016330154L270.5484375,98.08815636542425" style="fill: none;" fill="none"></path></g><g><path stroke="rgb(0, 119, 187)" stroke-width="2px" d="M250.59375,23.1209560500251Z" style="fill: none;" fill="none"></path></g></g></g></g><g opacity="0.2"><g><g><g><path stroke="rgb(255, 112, 67)" stroke-width="2px" d="M20.233125,-48.25151215659248L20.3259375,11.293697781033002L20.41875,29.61117124557495L20.790000000000003,29.027547465430374L21.90375,16.13574282328289L22.275000000000002,12.231765614615554L22.460625,36.366650687323684L22.64625,29.281789488262614L22.7390625,40.930888546837714L22.924687499999997,-59.21179887983536L23.574375,-16.966540257136L23.6671875,13.539272440804387L23.759999999999998,8.579743464787807L23.8528125,5.005265898174725L24.4096875,-5.219549708896217L24.5953125,32.48154682583281L24.7809375,-0.3573817412058249L24.87375,20.879660606384277L25.1521875,16.408386654324016L25.245,-21.65392051802742L25.3378125,-13.566826820373535L25.430625,9.700957033369294L25.8946875,15.838555388980446L26.35875,12.287336481942083L26.6371875,20.76168155670166L26.73,-59.596126715342216L27.286875000000002,42.84623267915514L28.029375,10.567622078789617L28.3078125,15.873543580373134L28.400624999999998,37.25734064314102L29.0503125,33.47490260336136L29.32875,46.68136519855925L29.514374999999998,53.67320354779562L30.1640625,-129.16774045096506L30.256874999999997,13.471995618608265L30.5353125,-36.88052678108215L31.834687499999998,-35.82463314798145L32.484375,40.8964544137319L32.9484375,20.19821606742012L33.1340625,20.59957824812996L33.226875,29.098242945141276L33.598125,36.72030491299101L34.0621875,19.402482271194458L34.155,32.04658749368456L34.4334375,37.34438673655193L34.9903125,28.299491299523257L35.083125,32.999367343054885L35.268750000000004,42.250490347544364L35.5471875,21.140952136781483L35.7328125,31.895317792892456L35.825625,48.05738663673401L36.01125,46.425001250373L36.196875,42.90397262573242L36.2896875,53.718435923258475L36.939375,35.62177236874899L37.681875,62.68667680687376L37.7746875,23.4478504392836L37.8675,36.94065507253012L38.23875,71.87377660804326L39.166875,63.54993498325348L39.2596875,61.079312456978705L39.4453125,44.576651016871146L39.816562499999996,46.633503993352264L40.095,24.437351385752372L40.1878125,-3.4399380683898926L40.280625,13.940434217453003L40.5590625,23.531088855531483L41.6728125,28.4178711573283L42.229687500000004,37.69966777165732L42.508125,32.88243746757507L42.693749999999994,10.928054677115554L42.7865625,57.51485509342619L42.9721875,49.80008856455486L43.3434375,49.8729649119907L43.714687500000004,67.12101746930017L43.900312500000005,28.07746717664932L44.364374999999995,37.4992990758684L45.5709375,68.43411792649164L45.66375,61.39800206820171L46.1278125,57.49116026030647L46.220625000000005,47.01622859636944L46.591875,74.09957020812566L46.684687499999995,73.67013377613493L47.055937500000006,53.82250457339817L47.14875,64.67648283640546L47.334375,58.96943492359587L47.612812500000004,61.77761451403301L48.076875,46.01526925298902L48.169687499999995,41.33383038308886L48.2625,18.43165426784092L48.7265625,68.08466629187268L48.819375,80.8162243101332L48.9121875,49.463669088151725L49.190625,50.55374929640028L50.0259375,64.44539927111732L50.21156250000001,14.250883685217971L50.5828125,73.85234232743582L50.7684375,70.9927767780092L51.325312499999995,64.04548707273271L51.418125,16.28075284428068L51.975,30.915919568803577L52.253437500000004,49.64850057495966L52.6246875,45.225842290454445L52.9959375,68.64741857846579L53.1815625,49.54697823524475L53.5528125,60.249221152729476L53.645625,58.27943195237055L53.7384375,44.761128849453414L53.9240625,69.59389748838213L54.388125,47.76360607147217L54.480937499999996,69.54108512401581L54.8521875,22.660757594638405L54.945,76.80500735176935L55.037812499999994,26.111703740225906L56.43,60.48259757624733L57.0796875,67.09009040726556L57.1725,50.378926224178755L57.6365625,57.91384779082405L57.729375000000005,59.192838297949905L57.915,27.377043194241008L58.100625,61.45069065358904L58.471875,68.67377171251509L59.3071875,68.8621338473426L59.4928125,66.84283894962736L59.585625,62.53139313062033L59.864062499999996,70.35871011681029L60.4209375,69.05935502052307L61.1634375,71.2625736925337L61.25625,52.28658427132502L61.534687500000004,49.16702392366198L61.6275,71.13344864050549L61.9059375,36.67547334565058L61.99875,61.812166531880706L62.4628125,36.98950650956896L62.555625,38.96307391590544L63.5765625,55.18905986679926L63.855,76.04920111762154L63.9478125,64.86558175086975L64.1334375,76.41176153553857L64.3190625,69.09188531504738L64.5975,61.13348049587675L65.6184375,76.96473528279199L66.0825,61.193584031528914L66.268125,65.63407827748193L66.5465625,69.80376180013022L66.7321875,64.81766749752893L67.19625,10.772906568315296L67.2890625,69.52670318550535L67.8459375,52.97071658240425L68.0315625,40.1600873735216L68.124375,57.47993763287863L68.31,58.042389313379935L68.4028125,63.87176032861075L68.68125,46.46023699972364L68.866875,77.04197925991484L69.3309375,51.9099543094635L69.42375,48.87702745861479L69.5165625,57.74974044164023L69.70218750000001,70.07562759187486L70.2590625,55.88340099652609L70.4446875,63.9428094625473L70.8159375,67.51837156878578L70.90875,68.01412406232622L71.0015625,69.24726919333142L71.37281250000001,59.49663317203522L71.7440625,51.72370820575291L71.836875,85.3996243344413L72.1153125,73.90207200580174L72.3009375,74.45524615711638L72.39375,62.7334122127957L72.4865625,67.00986984041002L72.579375,65.19309503502318L72.6721875,75.09182965755463L72.76499999999999,67.86531225840253L72.950625,61.64479966958365L73.0434375,74.21008715364668L73.50750000000001,66.53342097335393L73.60031249999999,55.66684672567579L73.9715625,66.99422653516135L74.25,73.10848371187848L74.43562499999999,62.57936632633209L74.99249999999999,76.50848007202148L75.17812500000001,63.76770346694523L75.6421875,37.32154067357382L76.01343750000001,61.69979290167492L76.10624999999999,85.53578121132323L76.291875,64.22502553462982L77.405625,79.41691474119824L78.0553125,63.739829619725555L78.14812500000001,37.41240623262194L78.33375,30.84905534320408L78.4265625,62.19163751602173L78.519375,42.582383049858954L78.6121875,18.15226742956375L78.79781249999999,81.24983386198682L79.07624999999999,54.59990729226008L79.4475,64.43944609165192L79.5403125,84.11916616227892L79.91156249999999,80.2305905951394L80.19,66.65152380201552L80.56125,79.0674218469196L80.8396875,42.23221821255156L80.9325,72.6349760691325L81.0253125,65.48279678821564L81.118125,76.3846126794815L81.2109375,66.39835453033447L81.3965625,57.664085388183594L81.48937500000001,66.3564465045929L81.58218749999999,76.08835064040291L81.7678125,68.04639501041838L81.860625,77.2127412027783L81.9534375,86.28476781315275L82.04625,70.45508089330461L82.231875,49.92875976032683L82.41749999999999,76.02884831693437L82.5103125,52.213460365931205L83.16000000000001,78.36446923679777L83.4384375,61.49295822779339L83.62406250000001,84.40704070197212L83.8096875,74.65202526251477L84.08812499999999,59.72169282701281L84.27374999999999,75.72091568840875L84.45937500000001,77.05796443091499L84.830625,77.8799983130561L85.201875,82.47251672214934L85.4803125,72.80862029393515L85.573125,21.677221616109218L85.6659375,86.72603987322914L85.75874999999999,78.47630649142796L86.315625,54.74735752741497L86.8725,76.7235313124127L87.05812499999999,75.15054804748961L87.1509375,58.014804283777885L87.24375,51.55143144395617L87.5221875,85.58231031894684L87.80062500000001,53.46620972951254L87.89343749999999,67.10156648688847L88.171875,74.28995406627655L88.26468750000001,66.98833229806688L88.3575,52.53097112973532L88.543125,78.4699937634998L88.72874999999999,71.29038859738245L89.285625,72.38722360134125L89.56406249999999,67.17189652389952L89.656875,79.37109883626303L89.93531250000001,62.61117162969378L90.02812499999999,71.15717883904776L90.1209375,73.82236423757341L90.3065625,65.10816497272917L90.39937499999999,81.09512192673155L90.95625,65.94245886802673L91.3275,80.63365031613245L91.4203125,78.28891690572104L91.60593750000001,81.38580212328169L91.7915625,78.7030224270291L91.9771875,93.80228369765813L92.07,93.03832573360866L92.1628125,71.56427021821341L92.255625,76.13154950406816L92.3484375,86.00946568118202L92.626875,77.48060480753583L92.8125,78.70925263563794L92.998125,91.59339476956262L93.27656250000001,79.14922796355354L93.4621875,93.66886764102513L93.555,76.5040063460668L93.6478125,61.41279070907169L94.20468749999999,57.66953166325888L94.2975,88.14597337775761L94.483125,75.37235997782814L94.7615625,50.30843114852905L95.1328125,84.08279282516905L95.41125,71.15673677126568L95.6896875,67.08607053756714L95.7825,63.801960772938216L95.968125,74.80310634771985L96.15375,73.91610618432364L96.33937499999999,79.27974405553606L96.8034375,74.55611423651379L97.08187500000001,73.10160513718924L97.2675,74.9097743564182L97.5459375,56.924724075529305L98.2884375,88.87537932395935L98.6596875,61.397854712274345L99.03093750000001,71.81370843781366L99.2165625,83.7402256594764L99.309375,78.28641774919298L99.68062499999999,93.003649936782L99.86625000000001,79.50881179173788L99.9590625,77.5405609872606L100.2375,58.24051819907295L100.42312500000001,74.58843823273978L100.60875,86.52275353007848L100.8871875,70.69821817345091L101.0728125,66.2251641617881L101.165625,70.22027806440991L101.35125,76.14403939247131L101.7225,79.39870154857635L102.09374999999999,89.80905005666946L102.7434375,72.16726246145036L102.83625,80.9110566907459L102.9290625,67.70080999533337L103.021875,69.95392927858565L103.2075,82.7221435573366L103.3003125,42.483972867329925L103.48593749999999,76.70094459586674L103.57875,81.84399653805627L103.67156250000001,74.28344682852429L103.95,39.95457890298632L104.0428125,72.39335950215658L104.135625,66.86539619498784L104.2284375,91.21405345863765L104.4140625,71.84033270676932L104.9709375,86.40665474202898L105.06375,77.91367208957672L105.34218750000001,87.08488692177667L105.991875,89.7729478544659L106.2703125,61.81976420349547L106.92,50.93561334080168L107.01281250000001,49.87093729443022L107.105625,62.021464996867714L107.29125,73.69836717181737L107.3840625,76.20272241698372L107.476875,74.22646134429509L107.7553125,25.39184056388008L107.848125,50.024057785669974L108.03375,74.26178550720215L108.219375,60.39647098382315L108.31218750000001,54.67543604638842L108.6834375,75.46620802084607L108.77625,71.41482183668349L109.14750000000001,70.6214752064811L109.24031249999999,70.91896324687535L109.333125,78.24554121494293L109.4259375,57.14617056316801L109.704375,76.05263156361052L109.79718749999999,82.6537880897522L109.89,81.74930561913385L110.1684375,65.49688401487138L110.26125,67.33511973751916L111.00375,88.40034507380592L111.375,84.81573531362746L111.560625,51.41658308770922L111.74624999999999,81.98295907179516L111.8390625,72.52503675884672L112.1175,78.52853532632193L112.2103125,78.28296372625563L112.3959375,85.28680274221632L112.48875000000001,88.22318788369498L112.5815625,95.44049259026846L112.674375,73.95273297362859L112.95281250000001,73.84994926717546L113.6953125,89.59876725408768L113.88093749999999,95.59465636147394L114.0665625,87.50728563467663L114.2521875,85.23683140012953L114.345,91.49601607852513L114.62343750000001,81.316804183854L114.8090625,61.318671531147444L114.901875,91.25877892971039L114.9946875,89.92722361617619L115.45875000000001,81.89400324556563L116.1084375,53.80799296167162L116.20125,79.71607085069022L116.4796875,89.46836315260994L116.6653125,82.6193480624093L117.22218749999999,73.21554074022505L117.315,75.30028524663713L117.500625,79.33269788159265L117.68625,87.97868903477988L118.05749999999999,94.0819888247384L118.42875000000001,83.01436804400551L118.614375,93.67716672685411L119.07843749999999,76.037872393926L119.17125,50.32683295673796L119.26406250000001,81.07265898916457L119.91375,74.30333398448097L120.0065625,62.95278392897713L120.56343749999999,72.69548630714417L120.93468750000001,89.16292378637527L121.02749999999999,79.20947885513306L121.1203125,56.643227100372314L121.955625,55.23283047146269L122.14125,83.14472499158647L122.4196875,82.00562830766043L122.7909375,97.13699548774296L122.9765625,94.19504029221004L123.06937500000001,93.87791854805415L123.44062500000001,91.76603107982213L123.53343749999999,82.29947370953032L123.7190625,77.06207271416983L123.811875,99.1554475095537L123.90468750000001,83.49775442812178L124.183125,87.4611691236496L124.27593750000001,89.12529497676427L125.20406249999999,76.76131337218816L125.3896875,89.52960427602133L125.4825,71.83150313960182L125.7609375,85.6695214509964L125.85375,72.6188081767824L125.9465625,106.73106878333623L126.225,81.64546095000374L126.3178125,56.145187642839225L126.41062500000001,86.30024607976279L127.8028125,81.93018796708849L128.08125,87.32675104671056L128.266875,91.70319261815813L128.3596875,94.89535817835068L128.5453125,78.2703500588735L128.638125,87.53699258963269L128.9165625,71.70238398181068L129.195,82.11008008321127L129.2878125,73.8755479388767L129.380625,90.60493710305956L129.47343750000002,93.14725123511421L129.6590625,88.82130559285483L129.8446875,94.86032872729832L130.0303125,72.01581593354544L130.30875,88.4183283911811L130.494375,101.81462078624303L130.68,83.1051628722085L130.865625,81.73304931322735L131.05125,96.11376182238263L131.1440625,92.18296583493552L131.236875,87.64489249388379L132.165,89.40964476267499L132.53625,55.72279482417637L132.9075,74.85042528311413L133.0003125,90.40725028514862L133.093125,94.91154964764914L133.27875,93.46400753657025L133.5571875,101.59859110249414L133.835625,69.16059443685744L134.02125,99.06565470165675L134.2996875,91.84656993548077L134.4853125,91.53136971261766L134.8565625,77.8605473306444L135.04218749999998,95.6775116523107L135.2278125,85.33070302009583L135.320625,88.62143790721893L135.5990625,82.55540737840865L135.691875,86.89111387729645L135.78468750000002,95.00200261010065L135.8775,90.67940489451092L136.063125,81.38294931252798L136.5271875,70.88929165734186L136.805625,81.88858644167584L137.2696875,62.252200802167266L137.4553125,84.72715671857199L138.01218749999998,90.66699752542709L138.38343749999999,93.91430956787532L138.47625,94.34543175167506L138.5690625,85.09704367319745L138.661875,93.06451382901933L138.8475,67.67914277977415L139.1259375,86.59903674655492L139.21875,94.67257959312862L139.40437500000002,85.82308401001825L139.4971875,87.83140383826363L140.146875,88.547182308303L140.3325,88.64235655466717L140.6109375,78.79574467076196L140.70374999999999,99.51310981644525L140.98218749999998,77.32933510674371L141.07500000000002,91.74579026963976L141.5390625,89.32229216893515L141.631875,74.70641138818529L141.72468750000002,89.35969110329947L142.003125,79.13848866356744L142.18875,72.27408961455029L142.2815625,73.6520738336775L142.374375,79.77268499798247L142.46718750000002,87.52886443667943L142.56,98.68580059210461L142.65281249999998,95.05363023281097L143.2096875,74.58896871407828L143.67375,85.50442386998071L143.7665625,90.69243115848964L143.85937500000003,76.55072406927746L144.32343749999998,87.80034710301294L144.69468750000001,80.66275016466778L144.8803125,87.47171391381158L144.973125,65.80745136737823L145.344375,84.18127963278029L145.715625,80.97226244873472L146.3653125,78.51605722639296L146.5509375,82.25221961074406L146.829375,89.53802714082931L147.01500000000001,83.68853909439513L147.1078125,88.96256687906053L147.38625,78.15294275018904L147.4790625,63.75482455889385L147.66468749999999,63.326684859063896L147.7575,97.8503632148107L148.0359375,87.21660543812646L149.61375,82.98490864700743L149.7065625,72.3544280661477L149.799375,85.17506568961674L149.8921875,87.15711490313214L150.26343749999998,81.57845526271397L150.54187499999998,80.79256484243605L150.913125,92.00000871552362L151.0059375,69.0915434492959L151.09875,92.2430398994022L151.47,93.56024274561142L151.5628125,81.65635939439139L151.655625,90.92679781383937L151.84125,99.32993461026086L152.02687500000002,86.5569401052263L152.21249999999998,100.68573292096457L152.398125,102.17159346739453L153.140625,95.07938215467667L153.60468749999998,73.613289753596L153.69750000000002,90.60876246293387L154.5328125,90.5851383606593L154.625625,78.03993843661415L155.64656250000002,16.53470015525818L156.0178125,79.47471952438354L156.110625,80.29948833253648L156.3890625,85.96807634830475L156.481875,-4.121252934137954L156.7603125,56.61273031764561L156.94593749999999,73.4829563829634L157.03875,84.5912886593077L157.1315625,83.2759955459171L157.78125,93.0544582605362L157.87406249999998,86.03695640299055L157.96687500000002,46.30059748225742L158.0596875,42.63585556877985L158.338125,83.3202259010739L158.52375,32.59958481788635L158.6165625,64.78313316239252L158.709375,77.43744720353021L158.8021875,80.42765262391832L159.451875,84.55257531007132L159.9159375,85.7901764843199L160.00875,54.87671245468989L160.2871875,44.41401722696093L160.936875,90.74768963125017L161.1225,78.72964080174765L162.050625,76.01098288430109L162.23625,90.67996484703487L162.5146875,80.62222728464339L162.6075,85.63313632541234L162.793125,80.93163936667973L162.88593749999998,79.44511277145811L163.4428125,77.65164967377981L163.535625,85.25363587008583L164.0925,69.03618477450478L164.1853125,76.88933030764264L165.020625,64.94762363698747L165.391875,71.62352498372397L165.57750000000001,88.21470018227896L165.94875,79.927727010515L166.50562499999998,95.10721474223668L166.7840625,96.37712222999996L166.9696875,97.62553932931688L167.24812500000002,91.90009550253552L167.43375,57.552212768130836L167.5265625,89.2441051138772L167.8978125,91.3752667374081L167.99062500000002,97.47799478636848L168.17624999999998,75.04098007414076L168.2690625,96.152162777053L168.4546875,56.17330315377978L168.733125,70.61448464128706L168.91875000000002,85.53120138910081L169.29,92.60501089360979L169.475625,78.28475557433235L169.5684375,73.67925805515715L169.66125,83.72774755954742L169.84687499999998,99.26669534047446L170.0325,86.39915137820775L170.49656249999998,107.18349863423242L170.77499999999998,99.2767568031947L170.960625,70.774978823132L171.2390625,98.5733444425795L171.51749999999998,65.22543081972334L171.88875,93.15988847944473L172.16718749999998,103.1030656496684L172.53843750000001,86.34741176499261L172.63125,88.38034592734444L172.7240625,86.06577922238245L173.37375,65.9128521151013L173.559375,82.44716560840607L173.6521875,99.91448378562927L173.745,76.99764280849034L174.0234375,86.81395241949294L174.11624999999998,97.46249294281006L174.673125,84.73005078898537L174.7659375,94.6362416214413L174.85875000000001,91.75902872615391L175.1371875,85.17392810185751L175.50843749999999,83.40688886907365L175.60125000000002,84.93906043635475L175.78687499999998,98.9171140326394L175.87968750000002,80.34184432029724L175.9725,83.97389679484898L176.0653125,59.54390495353275L176.2509375,72.85656401846144L176.52937500000002,83.80754963556927L176.8078125,85.61237092812857L177.1790625,89.99940444363489L177.27187500000002,99.4289636876848L177.7359375,99.01672074529861L177.9215625,94.10184061527252L178.014375,73.44371255238852L178.1071875,85.70276494820914L178.4784375,65.93035210503473L178.756875,65.27441782421538L178.94250000000002,89.70858278539446L179.31375,97.10182457500035L179.4065625,57.26318295796713L179.49937500000001,54.25847771432665L179.5921875,85.64972860283324L179.7778125,82.3566713862949L180.241875,90.01158783170914L180.33468749999997,69.13537889056737L180.5203125,92.1104785071479L180.613125,98.30008761088055L180.7059375,57.142009231779305L180.984375,82.6417697403166L181.17,71.02530117829642L181.2628125,94.22886142465805L181.355625,94.78202968173558L182.098125,92.01805686950684L182.1909375,89.75219424565634L182.46937499999999,91.83085000514984L183.3046875,79.77563801076677L183.8615625,99.17060748736066L183.954375,81.36556720733643L184.51125,98.63294696807861L184.6040625,92.82394054200914L184.696875,104.99818665451473L184.88250000000002,93.69380026393468L184.9753125,88.9377344581816L185.06812499999998,72.2901160452101L185.439375,102.46529151333704L185.99625,90.76895014444989L186.0890625,95.03526379002466L186.83156250000002,37.52226302358841L186.924375,94.79522098435297L187.2028125,75.65492970413634L187.48125,64.08732436762917L187.8525,87.21843265162575L188.038125,68.53459698624083L188.40937499999998,89.78302699989742L188.96625,88.50459055105847L189.3375,87.57031860616472L189.4303125,90.61281769805485L189.70875,95.50534098678166L189.8015625,96.16768230332269L189.89437500000003,91.03816942373913L190.17281250000002,100.28973449601068L190.5440625,90.9560155471166L190.7296875,96.10812103748322L190.9153125,98.89266473717159L191.008125,91.64239945676592L191.10093750000001,86.23203207386865L191.75062499999999,105.6482856406106L191.93625,94.01999323897893L192.0290625,99.15868933995566L192.5859375,104.31217408180237L192.67874999999998,111.31459553374184L192.77156250000002,83.81531234582266L192.95718749999997,90.94022488594055L193.1428125,96.51574879222447L194.07093749999999,91.63785499996608L194.2565625,106.86466166708206L195.091875,88.66906923717924L195.463125,86.19867069191405L195.9271875,107.20278457800549L196.01999999999998,96.2637760506736L196.11281250000002,101.37013047271306L196.39125,98.9391231139501L196.4840625,100.35088131162857L196.576875,101.21280149618786L196.6696875,91.96910523043739L197.0409375,102.02505094475215L197.13375,103.27074490653145L197.50500000000002,24.009158637788563L197.69062499999998,14.070967992146816L197.87625,6.081989765167236L198.06187500000001,32.822304460737456L198.1546875,41.534187290403594L198.2475,42.760919491450004L198.433125,44.85291390948826L198.5259375,66.13998064729903L198.99,82.15517689122095L199.2684375,57.82833419905769L199.45406250000002,84.49671562512717L199.73250000000002,68.81587587462532L200.0109375,97.26626200146144L200.10375,67.44822425312468L200.289375,71.22812187671661L200.475,30.618873596191406L201.03187499999999,60.35465137163799L201.12468750000002,80.48480904102325L201.31031249999998,69.15462357468077L201.4959375,83.83288896083832L202.33125,91.4744608534707L202.4240625,94.83461217085522L202.51687500000003,85.44526930650076L202.6096875,92.67376127507951L203.72343750000002,85.85877950986227L203.90906249999998,81.44593513011932L204.0946875,85.82963250743019L204.2803125,106.31315558486516L204.65156249999998,103.38716198338403L204.744375,96.26773108376398L204.8371875,88.71166099442377L205.0228125,93.9435862435235L205.115625,94.51967718866136L205.39406250000002,107.53493073251512L205.486875,89.04113705952963L205.57968749999998,93.32203304767609L205.7653125,105.22717187139725L206.229375,94.82470395829942L206.5078125,93.90003372563257L206.6934375,68.40105125639174L206.78625,85.99618596500822L206.97187499999998,90.65477877193028L207.25031249999998,84.2558004723655L207.52875,95.1216320461697L207.714375,94.12992665502762L207.99281249999999,106.20852108796439L208.27125,96.41261143154567L208.3640625,97.23086121347215L208.64249999999998,88.7680806318919L208.828125,89.09949000676474L208.92093749999998,88.39149192969006L209.66343750000001,98.23788572682275L209.75625,90.28425523969864L209.941875,95.4697987371021L210.40593750000002,82.36191725730896L210.87,76.58928416834938L210.9628125,96.87408893638188L211.055625,94.81866825951471L211.24125,95.36361405584549L211.33406250000002,68.5128236744139L211.5196875,87.98049267133078L211.7053125,104.10393068525528L211.98375,97.7090842458937L212.07656250000002,66.14938784970178L212.4478125,85.00089098347559L212.911875,77.31152861648137L213.0975,81.62396466732025L213.654375,92.44104500611624L213.74718750000002,88.16509428289201L213.84,82.60722361670601L213.93281249999998,91.72848478953046L214.02562500000002,102.68671442402734L214.30406250000001,88.61038031842973L214.4896875,80.44891903135512L214.768125,70.51711184448668L214.86093749999998,90.2026436328888L215.13937499999997,92.41066610813141L215.325,103.95429958237543L215.510625,70.94286437829336L215.60343749999998,95.24851139386496L215.69625,60.75716292858124L216.0675,91.96872799926335L216.43875,93.51917170153725L216.53156249999998,79.1390780872769L216.62437500000001,105.95233986112808L216.995625,94.44072388278114L217.0884375,88.05529054005942L217.27406249999999,98.99176454544067L217.366875,102.47929032643637L217.5525,103.03697356912826L217.6453125,92.06209860907661L217.738125,96.84205375777351L217.92374999999998,103.41491794586182L218.01656250000002,82.49166709846922L218.109375,82.01364447010889L218.20218749999998,91.55828279919093L218.48062499999997,89.61950318018597L218.66625,95.39477688736385L218.7590625,102.15158253245885L219.3159375,95.52499826749167L219.40875,93.41868085331386L219.5015625,103.2069044245614L219.87281249999998,91.59545775254568L220.0584375,99.10999115308127L220.2440625,100.26152467727661L220.6153125,96.1582986778683L221.265,93.37679051028358L221.54343749999998,100.27264120843675L221.7290625,87.56201362609863L221.9146875,108.00802577866449L222.0075,94.45497025383844L222.193125,99.50995050536262L222.37875,82.29599021540749L222.564375,85.79987839857739L222.6571875,92.60993258158368L222.75,97.36324577861363L223.02843750000002,98.03094495667352L223.12125,99.61169682608711L223.3996875,66.09691145684984L223.49249999999998,86.92501163482666L223.7709375,93.5483481751548L224.049375,105.95504531595444L224.420625,73.57262541188135L224.97750000000002,99.56649981604683L225.0703125,96.36133156882393L225.34875,86.41666315661537L225.4415625,101.85646986961365L225.6271875,105.27916493680742L225.8128125,93.62634661462572L225.90562500000001,90.04458966520097L226.09125,92.06714407602948L226.1840625,104.54361130131616L226.3696875,67.47301541434395L226.4625,95.0283144844903L226.55531249999999,104.728749288453L226.648125,88.43411905235716L226.83375,78.81879113780128L227.019375,93.22672323385876L227.1121875,87.62447485658858L227.48343749999998,74.47226871384515L227.57625000000002,89.24566708670723L227.76187499999997,86.25608056121403L228.0403125,80.19549041324193L228.2259375,100.08802780840134L228.504375,76.6722691324022L229.06125,93.27594011359746L229.618125,96.99800937705571L229.989375,90.76781255669063L230.2678125,90.68002378940582L230.731875,66.63266224331328L230.91750000000002,59.96808962027233L231.1959375,89.71103478802576L231.7528125,93.32131395075058L231.845625,99.71295981936986L232.03125,85.27052285936144L232.30968750000002,92.3095858361986L232.58812500000002,81.84548188580408L232.6809375,71.65294312106239L232.77374999999998,68.78617481390637L233.6090625,84.5419774717755L233.701875,70.29513487550948L233.7946875,95.0115276972453L233.8875,95.35761961672043L234.073125,100.96365798844232L234.25875000000002,83.497954832183L234.53718750000002,107.10587742593553L234.63,105.1719487640593L235.00125,91.02996464570364L235.18687500000001,81.93451433711583L235.2796875,93.50224934683906L235.3725,109.35200614399379L235.4653125,104.60271281666225L236.20781250000002,91.70234974225363L237.043125,89.69654085901048L237.22875,90.14854632483589L237.5071875,100.0527566936281L237.97125,74.89522148503198L238.2496875,93.98064331213635L238.3425,92.09795914755928L238.6209375,91.09771890110439L238.99218749999997,86.50200581550598L239.270625,105.03890993860033L239.45624999999998,95.27832444508871L239.641875,81.66916757159764L239.9203125,98.87605477703943L240.19875000000002,99.38151507907445L240.2915625,92.55212190416124L240.38437499999998,102.68679104910957L240.57,90.91662436061436L241.3125,100.8997762468126L241.498125,95.09566793176865L241.68375,110.4685161113739L241.86937500000002,63.853405674298614L242.3334375,106.01974635654027L242.79749999999999,81.47215269671547L243.16875,101.68040900760228L243.54000000000002,97.20370646317801L243.6328125,100.77397554450566L243.72562499999998,83.4677763382594L244.096875,106.37068333890703L244.3753125,95.06289597352347L244.65375,97.58950196372139L245.11781249999999,97.8941456079483L245.39624999999998,114.17863480912315L245.581875,90.25094690587785L245.953125,98.60110629929437L246.0459375,99.51693517631954L246.13875000000002,89.00233529673683L246.2315625,77.17950949403975L246.4171875,93.10584421952566L246.6028125,103.08607845836217L246.88125000000002,100.89685859945085L247.15968750000002,74.68043548531004L247.2525,99.55620258384282L247.438125,100.19163670804765L247.62375,101.9116988711887L248.27343750000003,97.78987065951031L248.6446875,104.71078365378911L248.83031250000002,90.24798210461935L249.0159375,92.95088472631242L249.2015625,89.93552270200517L249.294375,69.40637233522203L249.48000000000002,80.14159940348732L249.7584375,92.86580141385397L249.94406249999997,80.47032690048218L250.2225,83.997797926267L250.40812499999998,98.8028365638521L250.6865625,86.6168196598689L250.779375,100.11704513761734L250.8721875,81.2183586359024L251.8003125,88.20825778113472L251.893125,71.88863008552129L252.07874999999999,101.33019112216103L252.1715625,71.11972685654959L252.264375,103.85512904326123L252.3571875,103.59894781642491L252.635625,104.189279238383L252.72843749999998,100.19401797983383L252.9140625,93.05590234862434L253.1925,97.09406775898402L253.378125,95.43700909614563L253.56375,42.250773270924896L253.749375,80.21561333868239L254.5846875,107.09569218423631L254.67749999999998,94.84266369872624L254.95593749999998,100.92820415231918L255.1415625,95.15881878799861L255.3271875,53.311427063412154L255.5128125,96.02978073226082L255.6984375,96.91636829906041L255.79125,98.80333167976802L256.0696875,97.29930509461298L256.6265625,98.99967461162144L256.719375,84.58167515860664L257.090625,107.85545345147452L257.3690625,97.35152803526985L257.6475,91.07515576150682L257.833125,100.45094188054404L257.9259375,97.19134035375383L258.2971875,112.29160659180748L258.66843750000004,100.0684943066703L258.8540625,90.09736076990765L258.94687500000003,86.32521406809491L259.0396875,82.5297320816252L259.1325,105.86756304899853L259.22531250000003,87.19726644621956L259.50375,101.85840317938064L259.875,93.35856552918753L260.060625,100.65479407045578L260.431875,97.61167018943364L260.52468749999997,106.21114991770851L260.7103125,104.37247212727866L260.803125,91.09005049864453L261.2671875,88.66206688351103L261.54562500000003,98.20331013202667L261.6384375,89.48590440220302L261.8240625,106.29823727077907L262.0096875,64.40840114487543L262.1953125,93.97700656784906L262.288125,97.3542452785704L262.5665625,101.08939385414124L262.659375,93.82737546496922L262.7521875,98.79862807856667L262.84499999999997,95.72579724258846L263.12343749999997,87.95897870593602L263.21625,82.95398158497282L263.40187499999996,91.15852385097081L263.95875,94.60953483316635L264.2371875,87.14141265551251L264.515625,73.91160888142058L264.60843750000004,75.79077418645224L264.9796875,109.52669364876216L265.5365625,92.25206397639381L265.7221875,100.7672502199809L266.18625,89.40918501218161L266.74312499999996,94.18490809864467L267.114375,95.96625853909387L267.3,92.48364265759787L267.7640625,92.87771366702187L267.94968750000004,108.17878772152795L268.0425,106.8473856581582L268.22812500000003,100.45410708586377L268.599375,94.63294084866843L268.970625,105.68973391585881L269.0634375,105.4751954740948L269.4346875,111.06020910210079L269.80593749999997,84.12349842654335L270.08437499999997,92.75603893068102L270.5484375,101.8817384640376" style="fill: none;" fill="none"></path></g><g><path stroke="rgb(0, 119, 187)" stroke-width="2px" d="M250.59375,23.1209560500251Z" style="fill: none;" fill="none"></path></g></g></g></g></g></g><g transform="translate(51, 178)" clip-path="url(#clip_1)"><clipPath id="clip_1"><rect width="278" height="22"></rect></clipPath><g><g><line x1="0" y1="0" x2="0" y2="5" style="visibility: inherit;" fill="rgb(0, 0, 0)" stroke="rgb(204, 204, 204)" stroke-width="1px"></line><line x1="18.5625" y1="0" x2="18.5625" y2="5" style="visibility: inherit;" fill="rgb(0, 0, 0)" stroke="rgb(204, 204, 204)" stroke-width="1px"></line><line x1="37.125" y1="0" x2="37.125" y2="5" style="visibility: inherit;" fill="rgb(0, 0, 0)" stroke="rgb(204, 204, 204)" stroke-width="1px"></line><line x1="55.6875" y1="0" x2="55.6875" y2="5" style="visibility: inherit;" fill="rgb(0, 0, 0)" stroke="rgb(204, 204, 204)" stroke-width="1px"></line><line x1="74.25" y1="0" x2="74.25" y2="5" style="visibility: inherit;" fill="rgb(0, 0, 0)" stroke="rgb(204, 204, 204)" stroke-width="1px"></line><line x1="92.8125" y1="0" x2="92.8125" y2="5" style="visibility: inherit;" fill="rgb(0, 0, 0)" stroke="rgb(204, 204, 204)" stroke-width="1px"></line><line x1="111.375" y1="0" x2="111.375" y2="5" style="visibility: inherit;" fill="rgb(0, 0, 0)" stroke="rgb(204, 204, 204)" stroke-width="1px"></line><line x1="129.9375" y1="0" x2="129.9375" y2="5" style="visibility: inherit;" fill="rgb(0, 0, 0)" stroke="rgb(204, 204, 204)" stroke-width="1px"></line><line x1="148.5" y1="0" x2="148.5" y2="5" style="visibility: inherit;" fill="rgb(0, 0, 0)" stroke="rgb(204, 204, 204)" stroke-width="1px"></line><line x1="167.0625" y1="0" x2="167.0625" y2="5" style="visibility: inherit;" fill="rgb(0, 0, 0)" stroke="rgb(204, 204, 204)" stroke-width="1px"></line><line x1="185.625" y1="0" x2="185.625" y2="5" style="visibility: inherit;" fill="rgb(0, 0, 0)" stroke="rgb(204, 204, 204)" stroke-width="1px"></line><line x1="204.18749999999997" y1="0" x2="204.18749999999997" y2="5" style="visibility: inherit;" fill="rgb(0, 0, 0)" stroke="rgb(204, 204, 204)" stroke-width="1px"></line><line x1="222.75" y1="0" x2="222.75" y2="5" style="visibility: inherit;" fill="rgb(0, 0, 0)" stroke="rgb(204, 204, 204)" stroke-width="1px"></line><line x1="241.3125" y1="0" x2="241.3125" y2="5" style="visibility: inherit;" fill="rgb(0, 0, 0)" stroke="rgb(204, 204, 204)" stroke-width="1px"></line><line x1="259.875" y1="0" x2="259.875" y2="5" style="visibility: inherit;" fill="rgb(0, 0, 0)" stroke="rgb(204, 204, 204)" stroke-width="1px"></line><line x1="278.4375" y1="0" x2="278.4375" y2="5" style="visibility: inherit;" fill="rgb(0, 0, 0)" stroke="rgb(204, 204, 204)" stroke-width="1px"></line></g><g transform="translate(0, 8)"><text x="0" y="0" dx="0em" dy="0.95em" style="text-anchor: middle; visibility: hidden; font-family: Roboto, sans-serif; font-size: 12px; font-weight: 200;" fill="rgb(50, 49, 63)" stroke="none" stroke-width="1px">-200</text><text x="18.5625" y="0" dx="0em" dy="0.95em" style="text-anchor: middle; visibility: inherit; font-family: Roboto, sans-serif; font-size: 12px; font-weight: 200;" fill="rgb(50, 49, 63)" stroke="none" stroke-width="1px">0</text><text x="37.125" y="0" dx="0em" dy="0.95em" style="text-anchor: middle; visibility: hidden; font-family: Roboto, sans-serif; font-size: 12px; font-weight: 200;" fill="rgb(50, 49, 63)" stroke="none" stroke-width="1px">200</text><text x="55.6875" y="0" dx="0em" dy="0.95em" style="text-anchor: middle; visibility: inherit; font-family: Roboto, sans-serif; font-size: 12px; font-weight: 200;" fill="rgb(50, 49, 63)" stroke="none" stroke-width="1px">400</text><text x="74.25" y="0" dx="0em" dy="0.95em" style="text-anchor: middle; visibility: hidden; font-family: Roboto, sans-serif; font-size: 12px; font-weight: 200;" fill="rgb(50, 49, 63)" stroke="none" stroke-width="1px">600</text><text x="92.8125" y="0" dx="0em" dy="0.95em" style="text-anchor: middle; visibility: inherit; font-family: Roboto, sans-serif; font-size: 12px; font-weight: 200;" fill="rgb(50, 49, 63)" stroke="none" stroke-width="1px">800</text><text x="111.375" y="0" dx="0em" dy="0.95em" style="text-anchor: middle; visibility: hidden; font-family: Roboto, sans-serif; font-size: 12px; font-weight: 200;" fill="rgb(50, 49, 63)" stroke="none" stroke-width="1px">1k</text><text x="129.9375" y="0" dx="0em" dy="0.95em" style="text-anchor: middle; visibility: inherit; font-family: Roboto, sans-serif; font-size: 12px; font-weight: 200;" fill="rgb(50, 49, 63)" stroke="none" stroke-width="1px">1.2k</text><text x="148.5" y="0" dx="0em" dy="0.95em" style="text-anchor: middle; visibility: hidden; font-family: Roboto, sans-serif; font-size: 12px; font-weight: 200;" fill="rgb(50, 49, 63)" stroke="none" stroke-width="1px">1.4k</text><text x="167.0625" y="0" dx="0em" dy="0.95em" style="text-anchor: middle; visibility: inherit; font-family: Roboto, sans-serif; font-size: 12px; font-weight: 200;" fill="rgb(50, 49, 63)" stroke="none" stroke-width="1px">1.6k</text><text x="185.625" y="0" dx="0em" dy="0.95em" style="text-anchor: middle; visibility: hidden; font-family: Roboto, sans-serif; font-size: 12px; font-weight: 200;" fill="rgb(50, 49, 63)" stroke="none" stroke-width="1px">1.8k</text><text x="204.18749999999997" y="0" dx="0em" dy="0.95em" style="text-anchor: middle; visibility: inherit; font-family: Roboto, sans-serif; font-size: 12px; font-weight: 200;" fill="rgb(50, 49, 63)" stroke="none" stroke-width="1px">2k</text><text x="222.75" y="0" dx="0em" dy="0.95em" style="text-anchor: middle; visibility: hidden; font-family: Roboto, sans-serif; font-size: 12px; font-weight: 200;" fill="rgb(50, 49, 63)" stroke="none" stroke-width="1px">2.2k</text><text x="241.3125" y="0" dx="0em" dy="0.95em" style="text-anchor: middle; visibility: inherit; font-family: Roboto, sans-serif; font-size: 12px; font-weight: 200;" fill="rgb(50, 49, 63)" stroke="none" stroke-width="1px">2.4k</text><text x="259.875" y="0" dx="0em" dy="0.95em" style="text-anchor: middle; visibility: hidden; font-family: Roboto, sans-serif; font-size: 12px; font-weight: 200;" fill="rgb(50, 49, 63)" stroke="none" stroke-width="1px">2.6k</text><text x="278.4375" y="0" dx="0em" dy="0.95em" style="text-anchor: middle; visibility: hidden; font-family: Roboto, sans-serif; font-size: 12px; font-weight: 200;" fill="rgb(50, 49, 63)" stroke="none" stroke-width="1px">2.8k</text></g><line x1="0" y1="0" x2="278.4375" y2="0" fill="rgb(0, 0, 0)" stroke="rgb(204, 204, 204)" stroke-width="1px"></line></g></g></g></g></svg>