<svg viewBox="0 0 330 200" xmlns="http://www.w3.org/2000/svg"><g><g><g><g><g><line x1="51.5625" y1="178" x2="46.5625" y2="178" style="visibility: inherit;" fill="rgb(0, 0, 0)" stroke="rgb(204, 204, 204)" stroke-width="1px"></line><line x1="51.5625" y1="163.16666666666666" x2="46.5625" y2="163.16666666666666" style="visibility: inherit;" fill="rgb(0, 0, 0)" stroke="rgb(204, 204, 204)" stroke-width="1px"></line><line x1="51.5625" y1="148.33333333333334" x2="46.5625" y2="148.33333333333334" style="visibility: inherit;" fill="rgb(0, 0, 0)" stroke="rgb(204, 204, 204)" stroke-width="1px"></line><line x1="51.5625" y1="133.5" x2="46.5625" y2="133.5" style="visibility: inherit;" fill="rgb(0, 0, 0)" stroke="rgb(204, 204, 204)" stroke-width="1px"></line><line x1="51.5625" y1="118.66666666666669" x2="46.5625" y2="118.66666666666669" style="visibility: inherit;" fill="rgb(0, 0, 0)" stroke="rgb(204, 204, 204)" stroke-width="1px"></line><line x1="51.5625" y1="103.83333333333334" x2="46.5625" y2="103.83333333333334" style="visibility: inherit;" fill="rgb(0, 0, 0)" stroke="rgb(204, 204, 204)" stroke-width="1px"></line><line x1="51.5625" y1="89.00000000000001" x2="46.5625" y2="89.00000000000001" style="visibility: inherit;" fill="rgb(0, 0, 0)" stroke="rgb(204, 204, 204)" stroke-width="1px"></line><line x1="51.5625" y1="74.16666666666669" x2="46.5625" y2="74.16666666666669" style="visibility: inherit;" fill="rgb(0, 0, 0)" stroke="rgb(204, 204, 204)" stroke-width="1px"></line><line x1="51.5625" y1="59.33333333333336" x2="46.5625" y2="59.33333333333336" style="visibility: inherit;" fill="rgb(0, 0, 0)" stroke="rgb(204, 204, 204)" stroke-width="1px"></line><line x1="51.5625" y1="44.50000000000002" x2="46.5625" y2="44.50000000000002" style="visibility: inherit;" fill="rgb(0, 0, 0)" stroke="rgb(204, 204, 204)" stroke-width="1px"></line><line x1="51.5625" y1="29.66666666666668" x2="46.5625" y2="29.66666666666668" style="visibility: inherit;" fill="rgb(0, 0, 0)" stroke="rgb(204, 204, 204)" stroke-width="1px"></line><line x1="51.5625" y1="14.83333333333334" x2="46.5625" y2="14.83333333333334" style="visibility: inherit;" fill="rgb(0, 0, 0)" stroke="rgb(204, 204, 204)" stroke-width="1px"></line><line x1="51.5625" y1="0" x2="46.5625" y2="0" style="visibility: inherit;" fill="rgb(0, 0, 0)" stroke="rgb(204, 204, 204)" stroke-width="1px"></line></g><g transform="translate(41.5625, 0)"><text x="0" y="178" dx="0em" dy="0.3em" style="text-anchor: end; visibility: hidden; font-family: Roboto, sans-serif; font-size: 12px; font-weight: 200;" fill="rgb(50, 49, 63)" stroke="none" stroke-width="1px">-0.1</text><text x="0" y="163.16666666666666" dx="0em" dy="0.3em" style="text-anchor: end; visibility: inherit; font-family: Roboto, sans-serif; font-size: 12px; font-weight: 200;" fill="rgb(50, 49, 63)" stroke="none" stroke-width="1px">0</text><text x="0" y="148.33333333333334" dx="0em" dy="0.3em" style="text-anchor: end; visibility: hidden; font-family: Roboto, sans-serif; font-size: 12px; font-weight: 200;" fill="rgb(50, 49, 63)" stroke="none" stroke-width="1px">0.1</text><text x="0" y="133.5" dx="0em" dy="0.3em" style="text-anchor: end; visibility: inherit; font-family: Roboto, sans-serif; font-size: 12px; font-weight: 200;" fill="rgb(50, 49, 63)" stroke="none" stroke-width="1px">0.2</text><text x="0" y="118.66666666666669" dx="0em" dy="0.3em" style="text-anchor: end; visibility: hidden; font-family: Roboto, sans-serif; font-size: 12px; font-weight: 200;" fill="rgb(50, 49, 63)" stroke="none" stroke-width="1px">0.3</text><text x="0" y="103.83333333333334" dx="0em" dy="0.3em" style="text-anchor: end; visibility: inherit; font-family: Roboto, sans-serif; font-size: 12px; font-weight: 200;" fill="rgb(50, 49, 63)" stroke="none" stroke-width="1px">0.4</text><text x="0" y="89.00000000000001" dx="0em" dy="0.3em" style="text-anchor: end; visibility: hidden; font-family: Roboto, sans-serif; font-size: 12px; font-weight: 200;" fill="rgb(50, 49, 63)" stroke="none" stroke-width="1px">0.5</text><text x="0" y="74.16666666666669" dx="0em" dy="0.3em" style="text-anchor: end; visibility: inherit; font-family: Roboto, sans-serif; font-size: 12px; font-weight: 200;" fill="rgb(50, 49, 63)" stroke="none" stroke-width="1px">0.6</text><text x="0" y="59.33333333333336" dx="0em" dy="0.3em" style="text-anchor: end; visibility: hidden; font-family: Roboto, sans-serif; font-size: 12px; font-weight: 200;" fill="rgb(50, 49, 63)" stroke="none" stroke-width="1px">0.7</text><text x="0" y="44.50000000000002" dx="0em" dy="0.3em" style="text-anchor: end; visibility: inherit; font-family: Roboto, sans-serif; font-size: 12px; font-weight: 200;" fill="rgb(50, 49, 63)" stroke="none" stroke-width="1px">0.8</text><text x="0" y="29.66666666666668" dx="0em" dy="0.3em" style="text-anchor: end; visibility: hidden; font-family: Roboto, sans-serif; font-size: 12px; font-weight: 200;" fill="rgb(50, 49, 63)" stroke="none" stroke-width="1px">0.9</text><text x="0" y="14.83333333333334" dx="0em" dy="0.3em" style="text-anchor: end; visibility: inherit; font-family: Roboto, sans-serif; font-size: 12px; font-weight: 200;" fill="rgb(50, 49, 63)" stroke="none" stroke-width="1px">1</text><text x="0" y="0" dx="0em" dy="0.3em" style="text-anchor: end; visibility: hidden; font-family: Roboto, sans-serif; font-size: 12px; font-weight: 200;" fill="rgb(50, 49, 63)" stroke="none" stroke-width="1px">1.1</text></g><line x1="51.5625" y1="0" x2="51.5625" y2="178" fill="rgb(0, 0, 0)" stroke="rgb(204, 204, 204)" stroke-width="1px"></line></g></g><g transform="translate(51, 0)" clip-path="url(#clip_0)"><clipPath id="clip_0"><rect width="278" height="178"></rect></clipPath><g><g><g><line x1="0" y1="0" x2="0" y2="178" fill="rgb(0, 0, 0)" stroke="rgb(60, 60, 60)" stroke-width="1px" opacity="0.25"></line><line x1="18.5625" y1="0" x2="18.5625" y2="178" fill="rgb(0, 0, 0)" stroke="rgb(60, 60, 60)" stroke-width="1px" opacity="0.25"></line><line x1="37.125" y1="0" x2="37.125" y2="178" fill="rgb(0, 0, 0)" stroke="rgb(60, 60, 60)" stroke-width="1px" opacity="0.25"></line><line x1="55.6875" y1="0" x2="55.6875" y2="178" fill="rgb(0, 0, 0)" stroke="rgb(60, 60, 60)" stroke-width="1px" opacity="0.25"></line><line x1="74.25" y1="0" x2="74.25" y2="178" fill="rgb(0, 0, 0)" stroke="rgb(60, 60, 60)" stroke-width="1px" opacity="0.25"></line><line x1="92.8125" y1="0" x2="92.8125" y2="178" fill="rgb(0, 0, 0)" stroke="rgb(60, 60, 60)" stroke-width="1px" opacity="0.25"></line><line x1="111.375" y1="0" x2="111.375" y2="178" fill="rgb(0, 0, 0)" stroke="rgb(60, 60, 60)" stroke-width="1px" opacity="0.25"></line><line x1="129.9375" y1="0" x2="129.9375" y2="178" fill="rgb(0, 0, 0)" stroke="rgb(60, 60, 60)" stroke-width="1px" opacity="0.25"></line><line x1="148.5" y1="0" x2="148.5" y2="178" fill="rgb(0, 0, 0)" stroke="rgb(60, 60, 60)" stroke-width="1px" opacity="0.25"></line><line x1="167.0625" y1="0" x2="167.0625" y2="178" fill="rgb(0, 0, 0)" stroke="rgb(60, 60, 60)" stroke-width="1px" opacity="0.25"></line><line x1="185.625" y1="0" x2="185.625" y2="178" fill="rgb(0, 0, 0)" stroke="rgb(60, 60, 60)" stroke-width="1px" opacity="0.25"></line><line x1="204.18749999999997" y1="0" x2="204.18749999999997" y2="178" fill="rgb(0, 0, 0)" stroke="rgb(60, 60, 60)" stroke-width="1px" opacity="0.25"></line><line x1="222.75" y1="0" x2="222.75" y2="178" fill="rgb(0, 0, 0)" stroke="rgb(60, 60, 60)" stroke-width="1px" opacity="0.25"></line><line x1="241.3125" y1="0" x2="241.3125" y2="178" fill="rgb(0, 0, 0)" stroke="rgb(60, 60, 60)" stroke-width="1px" opacity="0.25"></line><line x1="259.875" y1="0" x2="259.875" y2="178" fill="rgb(0, 0, 0)" stroke="rgb(60, 60, 60)" stroke-width="1px" opacity="0.25"></line><line x1="278.4375" y1="0" x2="278.4375" y2="178" fill="rgb(0, 0, 0)" stroke="rgb(60, 60, 60)" stroke-width="1px" opacity="0.25"></line></g><g><line x1="0" y1="178" x2="278.4375" y2="178" fill="rgb(0, 0, 0)" stroke="rgb(60, 60, 60)" stroke-width="1px" opacity="0.25"></line><line x1="0" y1="163.16666666666666" x2="278.4375" y2="163.16666666666666" fill="rgb(0, 0, 0)" stroke="rgb(60, 60, 60)" stroke-width="1px" opacity="0.25"></line><line x1="0" y1="148.33333333333334" x2="278.4375" y2="148.33333333333334" fill="rgb(0, 0, 0)" stroke="rgb(60, 60, 60)" stroke-width="1px" opacity="0.25"></line><line x1="0" y1="133.5" x2="278.4375" y2="133.5" fill="rgb(0, 0, 0)" stroke="rgb(60, 60, 60)" stroke-width="1px" opacity="0.25"></line><line x1="0" y1="118.66666666666669" x2="278.4375" y2="118.66666666666669" fill="rgb(0, 0, 0)" stroke="rgb(60, 60, 60)" stroke-width="1px" opacity="0.25"></line><line x1="0" y1="103.83333333333334" x2="278.4375" y2="103.83333333333334" fill="rgb(0, 0, 0)" stroke="rgb(60, 60, 60)" stroke-width="1px" opacity="0.25"></line><line x1="0" y1="89.00000000000001" x2="278.4375" y2="89.00000000000001" fill="rgb(0, 0, 0)" stroke="rgb(60, 60, 60)" stroke-width="1px" opacity="0.25"></line><line x1="0" y1="74.16666666666669" x2="278.4375" y2="74.16666666666669" fill="rgb(0, 0, 0)" stroke="rgb(60, 60, 60)" stroke-width="1px" opacity="0.25"></line><line x1="0" y1="59.33333333333336" x2="278.4375" y2="59.33333333333336" fill="rgb(0, 0, 0)" stroke="rgb(60, 60, 60)" stroke-width="1px" opacity="0.25"></line><line x1="0" y1="44.50000000000002" x2="278.4375" y2="44.50000000000002" fill="rgb(0, 0, 0)" stroke="rgb(60, 60, 60)" stroke-width="1px" opacity="0.25"></line><line x1="0" y1="29.66666666666668" x2="278.4375" y2="29.66666666666668" fill="rgb(0, 0, 0)" stroke="rgb(60, 60, 60)" stroke-width="1px" opacity="0.25"></line><line x1="0" y1="14.83333333333334" x2="278.4375" y2="14.83333333333334" fill="rgb(0, 0, 0)" stroke="rgb(60, 60, 60)" stroke-width="1px" opacity="0.25"></line><line x1="0" y1="0" x2="278.4375" y2="0" fill="rgb(0, 0, 0)" stroke="rgb(60, 60, 60)" stroke-width="1px" opacity="0.25"></line></g></g></g><g><g><line x1="0" y1="163.16666666666666" x2="278.4375" y2="163.16666666666666" fill="rgb(0, 0, 0)" stroke="rgb(153, 153, 153)" stroke-width="1.5px"></line></g></g><g><g><line x1="18.5625" y1="0" x2="18.5625" y2="178" fill="rgb(0, 0, 0)" stroke="rgb(153, 153, 153)" stroke-width="1.5px"></line></g></g><g><g><g><g><g><path stroke="rgb(255, 112, 67)" stroke-width="2px" d="M23.8528125,-5.4550374872233105L24.4096875,7.300255990979035L24.5953125,17.384589249428295L24.688125000000003,22.47357358616319L24.7809375,29.1347469832537L24.87375,20.938869405508587L25.1521875,26.78896956202789L25.245,20.878018358319757L25.3378125,26.85887121991574L25.430625,19.63804180906442L25.8946875,29.7133518815993L26.35875,34.68522861465731L26.6371875,20.211500453700147L26.73,29.07884395728186L27.286875000000002,34.205592442441265L28.029375,-18.723805916708258L30.1640625,-7.104210005586671L30.256874999999997,0.1151036117750519L30.5353125,5.680563082535107L30.628125,8.29056131274231L31.2778125,7.939810932249991L31.4634375,22.962475383959422L31.6490625,26.933573081953497L31.741875,23.08544545659085L31.834687499999998,35.01097463745893L32.484375,41.683108523581105L32.9484375,46.271240994398084L33.1340625,55.78085774883489L33.226875,60.57840484801153L33.598125,63.526348358929596L33.8765625,61.591622658494934L34.0621875,66.95273700630173L34.155,68.68854220276391L34.4334375,68.48553024668684L34.9903125,71.66247530145968L35.083125,70.56424712755397L35.268750000000004,71.66689375013976L35.5471875,56.955401311144385L35.7328125,65.49439952959135L35.825625,67.47602273338742L36.01125,62.715613078954085L36.196875,63.77897365404107L36.2896875,66.47059642978274L36.939375,67.66443864330309L37.681875,69.58309053475455L37.7746875,69.64596030172585L37.8675,69.5897162341488L38.23875,68.12348274291037L39.166875,63.79499505301602L39.2596875,58.99282236699437L39.4453125,63.42004856946573L39.816562499999996,69.36772392679755L40.095,65.43495521439813L40.1878125,65.67308585739356L40.280625,65.80824750798676L40.5590625,61.176488165881636L41.4871875,64.48977024842883L41.6728125,73.10313312703124L42.229687500000004,76.17623053686074L42.508125,79.39182177402328L42.693749999999994,80.13586547703198L42.7865625,79.61067268886558L42.9721875,79.73660627387999L43.3434375,80.27066498229728L43.714687500000004,78.00562965013481L43.900312500000005,72.71573112291831L44.364374999999995,72.69127385943774L44.92125,74.26969154554394L45.5709375,76.2317828330067L45.66375,74.08538811957841L46.1278125,72.22366950644656L46.220625000000005,77.42239001035851L46.4990625,75.19158716185983L46.591875,77.17872832924583L46.684687499999995,75.9226223868755L47.055937500000006,79.1485343362467L47.14875,79.74013532711525L47.334375,77.63229033259627L47.612812500000004,68.54481905842668L48.076875,68.33906550891109L48.169687499999995,66.0104837955251L48.2625,67.17941800005524L48.448125,68.81847855596119L48.7265625,66.53826284298326L48.819375,73.37987321946437L48.9121875,76.85664698084246L49.190625,77.82030821204215L49.4690625,74.13871151026109L50.0259375,80.24586717972767L50.21156250000001,81.40009087337819L50.49,76.28414442944788L50.5828125,78.59048505708535L50.7684375,67.62304645430022L50.86125,70.66539099405793L51.325312499999995,79.91126970404737L51.418125,82.72577829333754L51.975,73.50557678842115L52.253437500000004,74.62415701093416L52.6246875,73.2509856737185L52.9959375,72.75451009968094L53.1815625,73.8822014023811L53.5528125,68.15171916226252L53.645625,71.66476886435176L53.7384375,75.49383380192812L53.9240625,76.51620074616848L54.388125,74.10594801410227L54.480937499999996,55.128456173166754L54.8521875,60.72212054997193L54.945,65.21753492357041L55.037812499999994,54.48471127987925L55.9659375,63.458212505028804L56.43,65.27192981059125L57.0796875,63.77905726640289L57.1725,68.70336121047855L57.6365625,68.72132973904603L57.729375000000005,57.64813120982166L57.915,58.59887646727433L58.100625,58.75763827418888L58.471875,58.28482057564819L59.3071875,61.98641698706169L59.4928125,65.25058406878325L59.585625,65.758603340122L59.864062499999996,46.39277431511854L60.4209375,51.73920179889983L61.1634375,59.136488684930725L61.25625,53.08441552057961L61.349062499999995,64.30970820904831L61.534687500000004,69.89192860794701L61.6275,69.8969968565661L61.9059375,62.92972521037015L61.99875,69.42469441125881L62.4628125,76.42692271409487L62.555625,79.15768054845765L63.5765625,74.50681215756833L63.855,73.71646747331044L63.9478125,70.79002579852077L64.1334375,72.36168632986625L64.3190625,66.72824183751632L64.5975,67.35817552993393L65.6184375,65.59000275963363L65.9896875,60.87105893155231L66.0825,69.61658139463442L66.268125,60.56282175840643L66.5465625,70.77278432803377L66.7321875,76.98020843798137L67.19625,79.43704591672153L67.2890625,82.35643773762702L67.8459375,85.8545217245121L68.0315625,84.51888562814193L68.124375,82.9165797089088L68.31,84.90455923008211L68.4028125,80.78990237033739L68.495625,83.78778210550372L68.68125,86.40512576065358L68.866875,70.6100255232765L69.3309375,71.27567662289026L69.42375,22.819681104959724L69.5165625,43.81534212645394L69.70218750000001,40.729687471090784L70.0734375,28.796472083866004L70.2590625,26.67577605923382L70.4446875,29.54796670365552L70.8159375,36.18369742922915L70.90875,37.1663248580273L71.0015625,35.690302469824346L71.37281250000001,37.14313919057127L71.7440625,45.035874907432074L71.836875,45.1847059076576L72.1153125,53.30304822199834L72.3009375,60.4990189286468L72.39375,62.975357211375105L72.4865625,67.8240016282065L72.579375,68.2346317835925L72.6721875,71.25747139860857L72.76499999999999,71.81245612070761L72.950625,74.12568781554185L73.0434375,71.62540727722337L73.50750000000001,69.53256752014771L73.60031249999999,69.46132239850728L73.87875,73.08207944921078L73.9715625,76.38037068779126L74.25,70.95134682934395L74.43562499999999,54.806754848247266L74.99249999999999,55.30228834602366L75.17812500000001,64.15793107302864L75.6421875,65.2286083043727L76.01343750000001,72.32588681426321L76.10624999999999,76.25042555042113L76.291875,81.67054051145716L76.5703125,75.84916649253054L77.405625,67.19687350982954L78.0553125,75.53130418694734L78.14812500000001,70.55730076613062L78.33375,72.9714622973325L78.4265625,72.37160808715751L78.519375,70.88792743011435L78.6121875,72.68575285508705L78.79781249999999,75.80798600495541L79.07624999999999,75.0671951992155L79.4475,76.59861870345519L79.5403125,68.2131873194598L79.91156249999999,67.84824038888355L80.19,68.7800064961831L80.56125,73.6716982253822L80.8396875,77.29910811553991L80.9325,76.61624902548746L81.0253125,76.38373909431115L81.118125,73.15579907519073L81.2109375,75.55950764272085L81.3965625,79.57454605571512L81.48937500000001,81.45992036465059L81.58218749999999,73.97907395245583L81.7678125,71.45321620552909L81.860625,77.34321043321991L81.9534375,83.17865605014269L82.04625,87.8489858161869L82.231875,86.15934001514091L82.41749999999999,86.6110708898829L82.5103125,82.76082818825206L83.16000000000001,79.11710553041596L83.4384375,78.5400128086696L83.62406250000001,77.77727274022241L83.8096875,75.78461375189865L84.08812499999999,69.25556251815783L84.27374999999999,69.12941824641919L84.45937500000001,75.54876836486913L84.830625,68.31671000529285L85.201875,77.3396969259319L85.4803125,78.70630725347225L85.573125,71.12123163614605L85.6659375,81.71500763142467L85.75874999999999,76.04099621481316L86.315625,79.74159824514359L86.8725,83.44400408067686L87.05812499999999,84.90696890075039L87.1509375,86.51335683814108L87.24375,56.68774857134475L87.5221875,62.5316958229394L87.80062500000001,60.93562234644005L87.89343749999999,59.99390331032223L88.171875,59.330807108416245L88.26468750000001,63.77929604375408L88.3575,67.59425385191467L88.543125,70.08558594819564L88.72874999999999,70.70462417385971L89.285625,72.1913310753226L89.56406249999999,75.57873235942445L89.656875,58.14194569668088L89.93531250000001,69.85421645053772L90.02812499999999,64.75609463498125L90.1209375,57.43187573380349L90.3065625,65.76839786466208L90.39937499999999,69.1306923490539L90.95625,74.18837783307481L91.3275,65.20776009701082L91.4203125,68.91702770476971L91.60593750000001,73.74807919235289L91.7915625,75.62163623872158L91.9771875,65.35449712695335L92.07,66.02948338918878L92.1628125,68.41795194426972L92.255625,71.50749642221012L92.3484375,73.29804985464342L92.626875,75.53841879809337L92.8125,75.09838032828434L92.998125,70.33399051888783L93.27656250000001,77.9606986987432L93.4621875,82.7053901482328L93.555,77.08494658442561L93.6478125,77.07858807547227L94.0190625,70.59214247884356L94.20468749999999,63.027176358036236L94.2975,71.11202573243699L94.483125,75.41860845564159L94.7615625,76.64954775300635L95.1328125,74.8984739962837L95.41125,78.8313164343608L95.6896875,77.43459512572522L95.7825,73.35923985112333L95.968125,68.71261400859728L96.15375,72.54212088712758L96.33937499999999,71.67184704539402L96.8034375,71.6506304144694L97.08187500000001,76.13569256066285L97.2675,73.8544115567148L97.5459375,72.6027060395841L98.2884375,75.27534563023036L98.38125,73.97627696203105L98.6596875,68.30438320322979L99.03093750000001,76.25246187339714L99.2165625,69.47232363397177L99.309375,66.56356521710335L99.68062499999999,73.0589416678622L99.86625000000001,74.92514192993688L99.9590625,74.2711482203121L100.2375,70.68438081082394L100.42312500000001,69.46010039728894L100.60875,73.37430633593804L100.8871875,75.34527572088962L101.0728125,78.59484252190705L101.165625,77.9642930797107L101.35125,72.90103161959055L101.7225,74.01988053696279L102.0009375,74.40817455675358L102.09374999999999,71.2912992411424L102.7434375,75.3756679320476L102.83625,79.34216432715307L102.9290625,83.39079023765436L103.021875,86.0652815741315L103.2075,86.68712530783901L103.3003125,83.02630645186954L103.48593749999999,77.9102403610026L103.57875,77.67520651950886L103.67156250000001,77.26169209719372L103.95,76.01458806022409L104.0428125,73.41832316452904L104.135625,75.77252459050005L104.2284375,77.65734359137687L104.4140625,71.75413024730966L104.9709375,73.03923937662933L105.06375,77.37569468608197L105.34218750000001,78.57472411825674L105.991875,83.70246291975826L106.2703125,81.94821423383944L106.92,79.33236834660606L107.01281250000001,85.0494004085984L107.105625,86.655115727305L107.29125,86.1030569893437L107.3840625,80.95189659728513L107.476875,83.61684154431367L107.7553125,82.51058002488024L107.848125,79.39109414523567L108.03375,71.70197804196115L108.219375,71.5326370125419L108.31218750000001,78.2986119742437L108.6834375,83.41051631899143L108.77625,84.34152374504882L109.14750000000001,81.53604542715676L109.24031249999999,77.35280854405957L109.333125,78.47925233186483L109.4259375,74.85454175874312L109.704375,75.56907397511435L109.79718749999999,76.40193520786067L109.89,77.23478715500256L110.1684375,74.74902008104934L110.26125,81.19315749483474L111.00375,71.48267031954032L111.375,64.97417901305141L111.560625,64.06542319266664L111.74624999999999,66.20087226753634L111.8390625,53.07264174933356L112.1175,66.55509246537163L112.2103125,70.81564761687763L112.3959375,65.32971386207808L112.48875000000001,65.0393942202747L112.5815625,72.05734818015219L112.674375,70.07499495049551L112.95281250000001,70.90086039841316L113.6953125,75.73759138349777L113.88093749999999,78.28735853690358L114.0665625,72.26384358480644L114.2521875,65.72624488398476L114.345,64.6832409286005L114.62343750000001,72.09862321914251L114.8090625,52.77101413190972L114.901875,64.94381796388197L114.9946875,73.58973475536725L115.273125,71.02431421423569L115.45875000000001,65.21042558120459L116.1084375,75.27294996519944L116.20125,73.07000108047365L116.4796875,57.89652584086282L116.6653125,65.49809023195759L117.22218749999999,71.65182384125941L117.315,71.51994074348146L117.500625,76.62926849303763L117.68625,84.27772525496157L118.05749999999999,87.89608035214864L118.42875000000001,88.79942160682752L118.614375,85.09107548695927L118.80000000000001,82.1815983535973L119.07843749999999,85.52978839569059L119.17125,82.57594340300223L119.26406250000001,82.63631857984659L119.91375,81.19607619575697L120.0065625,82.44512793301763L120.56343749999999,84.73255522775187L120.7490625,83.76097725070039L120.93468750000001,84.25770498655153L121.02749999999999,88.25973739231775L121.1203125,91.34117006861257L121.955625,83.98795379561041L122.14125,76.27261771378032L122.4196875,73.00996074845659L122.7909375,80.11599742831947L122.9765625,83.5354467995693L123.06937500000001,80.75183914310117L123.44062500000001,80.28584596836397L123.53343749999999,84.42916297906935L123.7190625,82.2990955511389L123.811875,64.76881149607846L123.90468750000001,70.53135028996834L124.183125,70.45912147076193L124.27593750000001,72.92724198010325L125.20406249999999,73.87885659082787L125.3896875,72.31317030475968L125.4825,68.7629486506369L125.7609375,67.67275712799149L125.85375,67.55040378120215L125.9465625,66.14375424432758L126.225,74.81566608775458L126.3178125,74.31137154596331L126.41062500000001,77.91224626360705L127.8028125,74.10872854982838L128.08125,78.39502370871122L128.266875,80.03560800860534L128.3596875,79.6867741078747L128.5453125,79.52781644646006L128.638125,81.89110614766882L128.9165625,77.17964041576907L129.195,83.1978706579176L129.2878125,84.61622156664336L129.380625,86.41655499119325L129.47343750000002,86.65533914394436L129.6590625,93.88925838605914L129.8446875,89.29548548143919L130.0303125,87.5677578597177L130.2159375,89.60405998720182L130.30875,83.66360936141088L130.494375,85.40328945463543L130.68,87.83744489200302L130.865625,89.52888497341108L130.9584375,84.2911759096092L131.05125,84.16794061726569L131.1440625,80.24093311667187L131.236875,78.33733883086687L132.165,77.88644541849999L132.53625,78.6778764260827L132.9075,85.47061216431968L133.0003125,85.43935903468598L133.093125,88.41670033072752L133.27875,90.66767237227353L133.5571875,87.49794100309133L133.835625,85.36667961230707L134.02125,87.45578788330653L134.2996875,85.11996482974588L134.4853125,86.81774986485422L134.8565625,75.27313567419718L134.949375,78.78299689225278L135.04218749999998,81.92799571314607L135.2278125,80.67521742478502L135.320625,86.9325881848464L135.5990625,87.21070277192571L135.691875,70.89483378429242L135.78468750000002,75.27786048709767L135.8775,81.77011290267755L136.063125,80.67012847508383L136.5271875,81.39116817938522L136.805625,83.07254507279735L137.2696875,85.07481775762446L137.4553125,84.19813389429532L137.8265625,87.44614464550665L138.01218749999998,90.38312642877968L138.38343749999999,81.45467538697922L138.47625,86.15167257227543L138.5690625,82.47321092906422L138.661875,80.90112364186541L138.8475,78.8634811951341L139.1259375,85.83604729455442L139.21875,86.35773793229498L139.40437500000002,90.47271206797582L139.4971875,90.98988418273979L140.146875,80.95375546113365L140.3325,79.98146131214926L140.6109375,85.24781924830336L140.70374999999999,81.21508509921904L140.98218749999998,85.53181670312807L141.07500000000002,91.05387376668887L141.5390625,93.13974040502015L141.631875,87.95116742702547L141.72468750000002,90.06808689983022L142.003125,86.16167259862821L142.18875,77.65731947809937L142.2815625,75.414369820697L142.374375,76.18449557571188L142.46718750000002,84.62019712576414L142.56,84.668152094975L142.65281249999998,84.82074295744988L143.2096875,83.64083626627342L143.67375,79.64479916151016L143.7665625,73.55370765242368L143.85937500000003,82.48690631775096L144.32343749999998,85.75205727093241L144.69468750000001,82.22609988653355L144.8803125,85.52701754055637L144.973125,88.98293575852446L145.344375,79.28493780221143L145.715625,76.45010716711839L146.3653125,82.87489028570272L146.5509375,85.88589696763287L146.829375,90.03839555191001L147.01500000000001,94.18710425778428L147.1078125,91.96575421860337L147.38625,88.06038909020339L147.4790625,87.89321860986341L147.66468749999999,89.3402950206442L147.7575,78.67226929499965L148.0359375,80.24329046627442L149.61375,82.46836656066114L149.7065625,80.46652191717826L149.799375,84.69919029775899L149.8921875,86.51601050239985L150.26343749999998,87.33271553084563L150.54187499999998,89.37253093698806L150.913125,84.70438340492561L151.0059375,81.58573656392605L151.09875,85.29001695978151L151.47,82.93764693975949L151.5628125,83.74984709088308L151.655625,78.98793055811109L151.84125,86.44872931757718L152.02687500000002,22.793313527817418L152.21249999999998,41.50217665714914L152.398125,59.023876564599455L152.955,56.60955079609002L153.140625,-157.0856891619334L154.625625,-32.94530503189095L155.64656250000002,9.22027160980981L156.0178125,32.42407484606118L156.110625,49.00352012965211L156.3890625,62.77345741502322L156.481875,67.8557181798133L156.7603125,59.56390702979046L156.94593749999999,66.98130647494163L157.03875,70.25861495427549L157.1315625,73.82165692066506L157.78125,71.22541358758227L157.87406249999998,72.2488447826458L157.96687500000002,68.80996241577586L158.0596875,71.20009102667242L158.338125,77.15364639507655L158.52375,70.7387115987952L158.6165625,72.07181072430704L158.709375,75.01263983367024L158.8021875,76.20270735016351L159.26624999999999,79.67345072025589L159.451875,78.45274859186728L159.9159375,77.01710710634819L160.00875,80.37978243257622L160.2871875,79.69503434951714L160.936875,60.52909204436708L161.1225,65.77930517041705L162.050625,65.89566685583604L162.23625,61.560062689541255L162.3290625,68.67474529124804L162.5146875,74.23125939951845L162.6075,79.30780259799864L162.793125,80.72268583793584L162.88593749999998,73.73216609807298L163.4428125,80.58009386053575L163.535625,72.11181169345514L164.0925,70.95660234448037L164.1853125,71.14120408469472L165.020625,69.82848565125883L165.391875,74.83936573869639L165.57750000000001,80.17583148761581L165.94875,71.85845720619356L166.50562499999998,72.17394942353407L166.7840625,75.55916494316006L166.9696875,67.7308741938242L167.24812500000002,73.03668769187742L167.43375,76.69468073837169L167.5265625,79.51825963333573L167.8978125,78.62026295786299L167.99062500000002,74.10631011560676L168.17624999999998,70.45554538549057L168.2690625,71.80814311493083L168.4546875,77.7257296338994L168.733125,83.53142314127994L168.82593749999998,83.4672895012612L168.91875000000002,82.6710344079126L169.29,84.50421367027296L169.475625,85.9607567584789L169.5684375,81.86548001346647L169.66125,83.3548793958286L169.84687499999998,87.80024542609807L170.0325,87.34135443091368L170.218125,86.33884662461269L170.49656249999998,78.05121904654496L170.77499999999998,42.69181558714228L170.8678125,56.358628184949865L170.960625,63.40589491805765L171.2390625,63.015955155777924L171.4246875,62.91441005012673L171.51749999999998,64.28126643622684L171.7959375,68.15485560809437L171.88875,70.08463513800419L172.16718749999998,70.76949032912009L172.53843750000001,77.86815692247562L172.63125,73.4336518760221L172.7240625,80.57324676408551L173.37375,78.22493130779773L173.559375,69.36856757094368L173.6521875,70.71567459795817L173.745,73.14361858304706L174.0234375,79.28048231563787L174.11624999999998,84.507056302002L174.301875,80.05042818357802L174.673125,77.95525242787754L174.7659375,77.47961671691432L174.85875000000001,75.49612208728767L175.1371875,76.5587779712167L175.50843749999999,82.33111964254499L175.60125000000002,77.46995331399988L175.78687499999998,79.77690325709196L175.87968750000002,75.019354795607L175.9725,80.01503002754376L176.0653125,77.60249806311644L176.2509375,72.99941064238696L176.52937500000002,75.11430142712683L176.6221875,80.97738818958656L176.715,81.2446557241793L176.8078125,79.20124469348484L177.1790625,75.7592855740509L177.27187500000002,78.95280343983104L177.7359375,84.4688577772788L177.9215625,79.24011915454936L178.014375,70.24168669499758L178.1071875,77.6228916763334L178.4784375,82.26640655909391L178.756875,82.12807442931978L178.94250000000002,85.02162185622443L179.22093750000002,82.79753206161573L179.31375,60.925627553390946L179.4065625,71.52890636360297L179.49937500000001,80.79964605869245L179.5921875,87.62373364310298L179.7778125,87.55102009976407L179.9634375,85.68918840530218L180.241875,88.68966255054494L180.33468749999997,86.29618968247745L180.5203125,78.36103762197122L180.613125,81.48074885809994L180.7059375,79.91066414080807L180.984375,81.99496337153165L181.17,77.81344583259612L181.2628125,81.45923284665697L181.355625,84.81850119814847L182.098125,85.16446945102358L182.1909375,90.59365602154342L182.46937499999999,65.17623262297397L182.9334375,71.96154546354981L183.3046875,78.4043171859668L183.8615625,88.28278284014581L183.954375,86.52474194809587L184.14,84.75590721395486L184.51125,80.83836045837528L184.6040625,85.10005418246664L184.696875,84.77798728020396L184.88250000000002,63.00832051359459L184.9753125,68.54951783611085L185.06812499999998,74.49831521864955L185.439375,78.7630829752856L185.810625,80.049244630816L185.99625,85.02508580395528L186.0890625,83.19941299582887L186.83156250000002,84.06186386004312L186.924375,87.5805873675459L187.2028125,83.82938909153025L187.48125,86.87933514686357L187.8525,85.23801680111049L188.038125,81.2047970992515L188.40937499999998,79.05864316039421L188.8734375,80.54884461847826L188.96625,84.06111193272203L189.3375,71.67279920124648L189.4303125,74.70443302677258L189.70875,69.24322889419109L189.8015625,77.07346651259091L189.89437500000003,80.25984690171298L190.17281250000002,85.35681240706731L190.45125000000002,87.72453134625609L190.5440625,87.43216773690456L190.7296875,88.83329413426921L190.9153125,88.24625725404228L191.008125,83.159545764461L191.10093750000001,87.87106551635354L191.75062499999999,87.32828740621463L191.93625,90.4356358270537L192.0290625,89.27094869339614L192.5859375,82.53433220698922L192.67874999999998,72.49613369970216L192.77156250000002,69.54625055075901L192.95718749999997,71.03526557017099L193.1428125,71.01358719981947L193.42125,54.45235274821862L194.07093749999999,70.62226091975178L194.16375000000002,71.84899901044892L194.2565625,81.48455417568998L195.091875,86.57051288534511L195.463125,88.22302315304265L195.9271875,88.21368608675155L196.01999999999998,86.42373206099921L196.11281250000002,82.3418208234373L196.39125,76.04767107205767L196.4840625,78.91710094156176L196.576875,87.63261245216316L196.6696875,86.87976087644928L197.0409375,79.55847927837708L197.13375,85.8851820920456L197.2265625,79.15775547193778L197.50500000000002,77.59274132510402L197.69062499999998,79.10463796135015L197.87625,77.49386748915649L198.06187500000001,80.86893167443516L198.1546875,73.40812569269006L198.2475,81.04735136871616L198.433125,80.35940883663343L198.5259375,84.94295704825949L198.99,84.20851320702374L199.2684375,91.36272877461833L199.45406250000002,92.18337269230958L199.73250000000002,90.0402181204415L200.0109375,93.46745402353545L200.10375,91.05648843489612L200.289375,92.28693541313721L200.475,94.40551604286144L201.03187499999999,90.57070196542328L201.12468750000002,86.52500734849683L201.31031249999998,85.18957580401843L201.4959375,87.23809976145236L202.33125,88.6338772263007L202.4240625,93.00533788318694L202.51687500000003,96.77363488822338L202.6096875,94.6541422193199L203.72343750000002,91.53123119582432L203.90906249999998,89.59860468969563L204.0946875,91.70853027343246L204.2803125,88.68886127853092L204.65156249999998,84.41792875995455L204.744375,88.83593781672052L204.8371875,86.52210632889748L205.0228125,89.86399105745126L205.115625,94.80120895837288L205.39406250000002,96.08664398114608L205.486875,91.66144419146016L205.57968749999998,96.00544028142554L205.7653125,92.63088541423954L206.229375,91.15700785236962L206.5078125,93.16324937294368L206.6934375,96.31901530792581L206.78625,94.93399410071136L206.97187499999998,92.3843084849248L207.25031249999998,87.68057421906768L207.52875,89.7209713979402L207.714375,93.46578294379546L207.99281249999999,92.68763717220051L208.27125,89.36420141978554L208.3640625,90.56966389411782L208.64249999999998,89.91215857581753L208.828125,86.47736781070506L208.92093749999998,89.06742836572654L209.66343750000001,85.25307489358144L209.75625,90.2796607748037L209.941875,78.4639924249271L210.40593750000002,83.62586341785706L210.87,86.44855387103946L210.9628125,84.68789646879272L211.055625,87.68849245223663L211.24125,92.0800922364787L211.33406250000002,93.26644372845465L211.5196875,94.06073386215036L211.7053125,95.68801922048846L211.98375,96.98500274685455L212.07656250000002,86.50785713434676L212.4478125,84.39755069240208L212.911875,84.28132659012641L213.0975,78.56017638334376L213.654375,75.35034854266291L213.74718750000002,81.03668929171509L213.84,74.91456288317013L213.93281249999998,71.11499357751511L214.02562500000002,76.1521457306435L214.30406250000001,81.34300583234769L214.4896875,86.09848811009333L214.768125,86.11413377391582L214.86093749999998,87.13866087119155L215.13937499999997,89.2633126873992L215.325,92.95733739729062L215.510625,91.21179576195479L215.60343749999998,89.11683025843226L215.69625,89.09531900616281L216.0675,85.3053904294876L216.43875,82.05100474674948L216.53156249999998,88.28574627987214L216.62437500000001,92.37628449808561L216.995625,88.50534422682327L217.0884375,88.41543101958398L217.27406249999999,89.52063609972772L217.366875,89.51710324971981L217.5525,81.76257346564L217.6453125,85.94682946101904L217.738125,86.196577689823L217.92374999999998,89.35049824025818L218.01656250000002,95.52756425603187L218.109375,84.41740703302993L218.20218749999998,74.99004416297899L218.48062499999997,67.44293082931256L218.66625,77.26099130617747L218.7590625,83.96859733128848L219.3159375,70.73371364989461L219.40875,76.74278046877336L219.5015625,83.66235497906497L219.87281249999998,81.87890294779157L220.0584375,83.47632177425713L220.2440625,84.36141811064853L220.6153125,86.00266725769825L221.265,81.61781037023377L221.54343749999998,86.10738279523878L221.7290625,84.48986020546613L221.9146875,84.6673047315764L222.0075,72.41474100182577L222.193125,79.95920185782589L222.37875,83.82729109449035L222.564375,83.70326931669024L222.6571875,84.83002868132021L222.75,81.0916838417623L223.02843750000002,84.75973854284528L223.12125,75.63393540673083L223.3996875,84.73082363700445L223.49249999999998,87.1251280075048L223.7709375,86.52352352335463L224.049375,87.3672379775509L224.420625,92.65485056183724L224.97750000000002,97.67877853279506L225.0703125,92.95638505040723L225.34875,90.96696598978312L225.4415625,90.43586098940058L225.6271875,95.64001091196668L225.8128125,90.30747002685784L225.90562500000001,92.7157839675231L226.09125,88.80265971856217L226.1840625,79.86675510905326L226.3696875,83.72211163899587L226.4625,90.13018704450897L226.55531249999999,88.50941586293841L226.648125,91.03242024062912L226.83375,90.8277833875746L227.019375,87.95801329712452L227.1121875,86.4746096775952L227.48343749999998,65.56320802247662L227.57625000000002,76.44424602514194L227.76187499999997,87.92624893462072L228.0403125,81.22354800706354L228.2259375,84.4976532133733L228.504375,87.4320201241363L229.06125,89.51128803273376L229.618125,93.01319995669722L229.989375,93.38660829354247L230.2678125,95.35414387239369L230.731875,85.5985236492953L230.91750000000002,86.28059319221187L231.1959375,87.76039223410613L231.7528125,93.56825089377918L231.845625,90.68490365300232L232.03125,87.06753465624841L232.30968750000002,91.15671348030683L232.58812500000002,82.25897932522685L232.6809375,87.95424280846034L232.77374999999998,84.82564135959099L233.6090625,85.60251045567007L233.701875,89.3743175328307L233.7946875,84.1359412070433L233.8875,81.39143421230634L234.073125,66.9442789751962L234.25875000000002,73.91438471865706L234.53718750000002,74.3055294966224L234.63,77.67699495646495L235.00125,85.74659229334083L235.18687500000001,88.12942469328178L235.2796875,71.86413927997869L235.3725,80.961105804398L235.4653125,80.4600334211713L236.20781250000002,88.03761962917604L237.043125,91.35528127273219L237.22875,93.33271171204426L237.5071875,88.57671802174356L237.97125,92.15475712774976L238.2496875,93.80212356979918L238.3425,92.99706913830005L238.6209375,90.85064327995678L238.71374999999998,83.51229798166374L238.99218749999997,85.33771463653498L239.270625,87.31586770864958L239.45624999999998,92.95582856328865L239.641875,96.64397069767068L239.9203125,92.8970113095936L240.19875000000002,92.3876544811704L240.2915625,92.92336964080998L240.38437499999998,93.9823799896455L240.57,92.47779441882469L241.3125,95.1102184594232L241.498125,96.7857059204911L241.68375,93.34560545072962L241.86937500000002,90.78485549163427L242.3334375,96.04159216089016L242.79749999999999,95.11813356083411L243.16875,98.41557925702203L243.54000000000002,96.21885616636912L243.6328125,96.60476373666512L243.72562499999998,102.12187049607823L244.096875,103.48484188608563L244.1896875,97.75248163715345L244.2825,86.03256124124134L244.3753125,91.4585123292518L244.65375,94.75089661867891L245.11781249999999,92.31885128373787L245.39624999999998,94.02090030404857L245.581875,92.32606526310998L245.953125,96.71162155526338L246.0459375,95.14461461657757L246.13875000000002,93.53842119348728L246.2315625,88.76068931404363L246.4171875,90.26233059714403L246.6028125,89.36129147937001L246.88125000000002,96.71030299542407L247.15968750000002,98.11712187138038L247.2525,94.82325894200905L247.438125,97.2008296364393L247.62375,88.7558941511619L248.27343750000003,93.05297530104565L248.55187500000002,93.18314102735032L248.6446875,95.63833264576937L248.83031250000002,91.84919474959896L249.0159375,91.29581897123968L249.2015625,94.81267079510877L249.294375,88.68226886271592L249.48000000000002,90.72398517417405L249.7584375,86.57116844189662L249.94406249999997,90.81446240305401L250.2225,87.44113349493045L250.40812499999998,86.73875260100186L250.6865625,85.30679601676515L250.779375,88.72049010344696L250.8721875,92.0064432971578L251.8003125,93.07721546210256L251.893125,93.98835341285115L252.07874999999999,90.07884086857503L252.1715625,94.458496179324L252.264375,93.09322724708417L252.3571875,98.71122882347404L252.635625,96.27089670249481L252.72843749999998,92.70809734035726L252.9140625,81.46291605732358L253.1925,93.47814358135969L253.378125,97.67933773712859L253.56375,88.00506983429123L253.749375,88.74601930516917L254.5846875,93.6970827746667L254.67749999999998,97.63124825765358L254.95593749999998,95.00569509392777L255.1415625,96.37361512338599L255.3271875,95.18043894622016L255.42,94.36676199269269L255.5128125,94.93684663990325L255.6984375,92.81155091893187L255.79125,95.73260465287076L256.0696875,90.17604574574774L256.6265625,93.3567200760866L256.719375,92.94423168465447L256.905,83.5439798527854" style="fill: none;" fill="none"></path></g><g><path stroke="rgb(0, 119, 187)" stroke-width="2px" d="M250.59375,13.21762863794964Z" style="fill: none;" fill="none"></path></g></g></g></g><g opacity="0.2"><g><g><g><path stroke="rgb(255, 112, 67)" stroke-width="2px" d="M20.790000000000003,-91.25147596995033L21.90375,14.807622671127339L22.275000000000002,-56.72009384632106L22.460625,29.050869782765712L22.64625,0.10075255235036873L22.7390625,38.10157104333244L22.924687499999997,-19.216760754585266L23.110312500000003,2.0163029829661183L23.4815625,-45.340473413467365L23.574375,11.902194062868768L23.6671875,-7.852188309033698L23.759999999999998,-38.44759341080982L23.8528125,17.090646366278342L24.4096875,26.432944377263393L24.5953125,32.510969678560926L24.688125000000003,30.107013920942975L24.7809375,39.12647867202761L24.87375,8.645074009895344L25.1521875,35.564110815525076L25.245,12.011596997578945L25.3378125,35.830147206783316L25.430625,8.806800087292995L25.8946875,44.82631498575213L26.35875,42.14304312070213L26.6371875,-1.4990907510121532L26.73,42.37985883156462L27.286875000000002,41.8957150379817L28.029375,-98.11790263652797L28.3078125,18.70782756805422L28.400624999999998,-23.43677516778309L29.514374999999998,-14.672692974408454L30.1640625,2.4823838869730763L30.256874999999997,10.944074034690876L30.5353125,14.028752287228908L30.628125,12.205558657646199L31.2778125,7.413685361544305L31.4634375,45.49647206068041L31.6490625,32.890219628810904L31.741875,17.31325401862463L31.834687499999998,52.89926840861641L32.484375,51.691309352715834L32.9484375,53.153439700603506L33.1340625,70.04528288046521L33.226875,67.77472549676897L33.598125,67.94826362530392L33.8765625,58.68953410784405L34.0621875,74.99440852801007L34.155,71.29224999745689L34.4334375,68.18101231257123L34.9903125,76.4278928836187L35.083125,68.91690486669542L35.268750000000004,73.32086368401848L35.5471875,34.8881626526515L35.7328125,78.30289685726167L35.825625,70.44845753908159L36.01125,55.57499859730404L36.196875,65.37401451667152L36.2896875,70.50803059339525L36.939375,69.45520196358365L37.681875,72.46106837193173L37.7746875,69.74026495218278L37.8675,69.50535013278328L38.23875,65.92413250605267L39.166875,57.30226351817451L39.2596875,51.789563337961845L39.4453125,70.06088787317277L39.816562499999996,78.28923696279527L40.095,59.535802145799025L40.1878125,66.03028182188672L40.280625,66.01098998387657L40.5590625,54.22884915272396L41.4871875,69.45969337224962L41.6728125,86.02317744493486L42.229687500000004,80.785876651605L42.508125,84.21520862976712L42.693749999999994,81.25193103154503L42.7865625,78.82288350661598L42.9721875,79.92550665140153L43.3434375,81.07175304492317L43.714687500000004,74.6080766518911L43.900312500000005,64.78088333209358L44.364374999999995,72.65458796421689L44.92125,76.63731807470323L45.5709375,79.17491976420087L45.66375,70.86579604943596L46.1278125,69.43109158674878L46.220625000000005,85.22047076622647L46.4990625,71.84538288911186L46.591875,80.15944008032483L46.684687499999995,74.03846347332002L47.055937500000006,83.98740226030351L47.14875,80.62753681341809L47.334375,74.4705228408178L47.612812500000004,54.913612147172316L48.076875,68.03043518463772L48.169687499999995,62.51761122544609L48.2625,68.93281930685045L48.448125,71.27706938982011L48.7265625,63.11793927351635L48.819375,83.64228878418606L48.9121875,82.07180762290956L49.190625,79.26580005884172L49.4690625,68.61631645758949L50.0259375,89.40660068392755L50.21156250000001,83.13142641385399L50.49,68.61022476355237L50.5828125,82.04999599854153L50.7684375,51.1718885501226L50.86125,75.22890780369443L51.325312499999995,93.78008776903154L51.418125,86.94754117727281L51.975,59.67527453104656L52.253437500000004,76.30202734470369L52.6246875,71.19122866789502L52.9959375,72.00979673862459L53.1815625,75.57373835643135L53.5528125,59.55599580208462L53.645625,76.93434341748558L53.7384375,81.23743120829266L53.9240625,78.049751162529L54.388125,70.49056891600293L54.480937499999996,26.662218411763515L54.8521875,69.11261711517972L54.945,71.96065648396812L55.037812499999994,38.38547581434252L55.9659375,76.91846434275311L56.43,67.9925057689349L57.0796875,61.539748450120314L57.1725,76.08981712659202L57.6365625,68.74828253189725L57.729375000000005,41.03833341598513L57.915,60.02499435345333L58.100625,58.99578098456066L58.471875,57.57559402783714L59.3071875,67.53881160418194L59.4928125,70.14683469136558L59.585625,66.5206322471301L59.864062499999996,17.344030777613334L60.4209375,59.75884302457176L61.1634375,70.23241901397706L61.25625,44.00630577405296L61.349062499999995,81.14764724175137L61.534687500000004,78.26525920629503L61.6275,69.90459922949475L61.9059375,52.47881774107616L61.99875,79.16714821259183L62.4628125,86.93026516834897L62.555625,83.2538173000018L63.5765625,67.5305095712344L63.855,72.5309504469236L63.9478125,66.40036328633629L64.1334375,74.71917712688447L64.3190625,58.278075098991415L64.5975,68.3030760685603L65.6184375,62.93774360418322L65.9896875,53.79264318943026L66.0825,82.73486508925758L66.268125,46.982182304064445L66.5465625,86.08772818247479L66.7321875,86.29134460290275L67.19625,83.12230213483177L67.2890625,86.73552546898526L67.8459375,91.10164770483972L68.0315625,82.51543148358665L68.124375,80.51312083005907L68.31,87.88652851184212L68.4028125,74.61791708072029L68.495625,88.28460170825325L68.68125,90.33114124337834L68.866875,46.91737516721092L69.3309375,72.27415327231091L69.42375,-49.86431217193599L69.5165625,75.30883365869524L69.70218750000001,36.101205488046034L70.0734375,10.89664900302889L70.2590625,23.49473202228546L70.4446875,33.85625267028811L70.8159375,46.13729351758959L70.90875,38.64026600122454L71.0015625,33.47626888751986L71.37281250000001,39.322394271691664L71.7440625,56.87497848272326L71.836875,45.40795240799587L72.1153125,65.48056169350944L72.3009375,71.2929749886195L72.39375,66.68986463546754L72.4865625,75.0969682534536L72.579375,68.85057701667152L72.6721875,75.79173082113267L72.76499999999999,72.64493320385617L72.950625,77.5955353577932L73.0434375,67.87498646974565L73.50750000000001,66.39330788453422L73.60031249999999,69.35445471604667L73.87875,78.51321502526604L73.9715625,81.32780754566194L74.25,62.80781104167305L74.43562499999999,30.589866876602194L74.99249999999999,56.045588592688254L75.17812500000001,77.44139516353609L75.6421875,66.83462415138882L76.01343750000001,82.97180457909904L76.10624999999999,82.13723365465802L76.291875,89.80071295301121L76.5703125,67.1171054641406L77.405625,54.21843403577807L78.0553125,88.03295020262402L78.14812500000001,63.09629563490551L78.33375,76.5927045941353L78.4265625,71.47182677189511L78.519375,68.66240644454957L78.6121875,75.3824909925461L78.79781249999999,80.49133572975796L79.07624999999999,73.9560089906057L79.4475,78.89575395981473L79.5403125,55.63504024346672L79.91156249999999,67.30081999301912L80.19,70.17765565713249L80.56125,81.00923581918083L80.8396875,82.74022295077644L80.9325,75.59196039040886L81.0253125,76.03497419754666L81.118125,68.31388904651008L81.2109375,79.16507049401604L81.3965625,85.59710367520653L81.48937500000001,84.28798182805382L81.58218749999999,62.75780433416369L81.7678125,67.66442958513898L81.860625,86.17820177475613L81.9534375,91.93182447552682L82.04625,94.85448046525322L82.231875,83.62487131357194L82.41749999999999,87.28866720199586L82.5103125,76.98546413580578L83.16000000000001,73.65152154366177L83.4384375,77.67437372605008L83.62406250000001,76.63316263755165L83.8096875,72.79562526941301L84.08812499999999,59.461985667546614L84.27374999999999,68.94020183881126L84.45937500000001,85.17779354254407L84.830625,57.46862246592842L85.201875,90.8741773068905L85.4803125,80.75622274478279L85.573125,59.74361821015678L85.6659375,97.60567162434262L85.75874999999999,67.5299790898959L86.315625,85.29250129063927L86.8725,88.99761283397676L87.05812499999999,87.10141613086067L87.1509375,88.92293874422711L87.24375,11.949336171150227L87.5221875,71.29761670033139L87.80062500000001,58.541512131691L87.89343749999999,58.5813247561455L88.171875,58.33616280555727L88.26468750000001,70.45202944676083L88.3575,73.31669056415559L88.543125,73.82258409261705L88.72874999999999,71.63318151235582L89.285625,74.42139142751695L89.56406249999999,80.65983428557716L89.656875,31.98676570256554L89.93531250000001,87.42262258132301L90.02812499999999,57.10891191164654L90.1209375,46.44554738203686L90.3065625,78.27318106094998L90.39937499999999,74.17413407564165L90.95625,81.77490605910621L91.3275,51.73683349291485L91.4203125,74.48092911640805L91.60593750000001,80.99465642372769L91.7915625,78.43197180827461L91.9771875,49.953788459301016L92.07,67.04196278254193L92.1628125,72.0006547768911L92.255625,76.14181313912076L92.3484375,75.98388000329338L92.626875,78.8989722132683L92.8125,74.43832262357078L92.998125,63.18740580479305L93.27656250000001,89.40076096852623L93.4621875,89.82242732246719L93.555,68.65428123871487L93.6478125,77.06905031204225L94.0190625,60.86247408390047L94.20468749999999,51.67972717682522L94.2975,83.23929979403816L94.483125,81.87848254044853L94.7615625,78.49595669905347L95.1328125,72.27186336119972L95.41125,84.73058009147645L95.6896875,75.33951316277188L95.7825,67.24620693922044L95.968125,61.74267524480822L96.15375,78.28638120492302L96.33937499999999,70.3664362827937L96.8034375,71.61880546808244L97.08187500000001,82.86328577995302L97.2675,70.43249005079271L97.5459375,70.72514776388806L98.2884375,79.28430501619977L98.38125,72.02767395973207L98.6596875,59.796542565027885L99.03093750000001,88.17457987864815L99.2165625,59.3021162748337L99.309375,62.20042759180071L99.68062499999999,82.80200634400052L99.86625000000001,77.72444232304893L99.9590625,73.2901576558749L100.2375,65.30422969659172L100.42312500000001,67.62367977698646L100.60875,79.24561524391176L100.8871875,78.30172979831697L101.0728125,83.4691927234332L101.165625,77.01846891641618L101.35125,65.30613942941032L101.7225,75.6981539130211L102.0009375,74.99061558643979L102.09374999999999,66.61598626772565L102.7434375,81.50222096840542L102.83625,85.29190891981126L102.9290625,89.4637291034063L103.021875,90.07701857884727L103.2075,87.61989090840024L103.3003125,77.53507816791536L103.48593749999999,70.23614122470222L103.57875,77.3226557572683L103.67156250000001,76.64142046372098L103.95,74.14393200476967L104.0428125,69.52392582098645L104.135625,79.3038267294566L104.2284375,80.48457209269208L104.4140625,62.89931023120882L104.9709375,74.9669030706088L105.06375,83.88037765026094L105.34218750000001,80.37326826651893L105.991875,91.39407112201057L106.2703125,79.31684120496116L106.92,75.408599515756L107.01281250000001,93.62494850158693L107.105625,89.06368870536488L107.29125,85.27496888240181L107.3840625,73.22515600919725L107.476875,87.61425896485649L107.7553125,80.8511877457301L107.848125,74.71186532576881L108.03375,60.16830388704937L108.219375,71.27862546841305L108.31218750000001,88.44757441679639L108.6834375,91.07837283611299L108.77625,85.73803488413495L109.14750000000001,77.32782795031868L109.24031249999999,71.07795321941377L109.333125,80.1689180135727L109.4259375,69.41747589906059L109.704375,76.64087229967119L109.79718749999999,77.65122705698015L109.89,78.4840650757154L110.1684375,71.02036947011949L110.26125,90.85936361551286L111.00375,56.916939556598685L111.375,55.211442053318045L111.560625,62.70228946208956L111.74624999999999,69.40404587984087L111.8390625,33.3802959720294L112.1175,86.77876853942873L112.2103125,77.20648034413658L112.3959375,57.10081322987877L112.48875000000001,64.60391475756965L112.5815625,82.58427911996843L112.674375,67.10146510601045L112.95281250000001,72.13965857028963L113.6953125,82.9926878611247L113.88093749999999,82.1120092670123L114.0665625,63.22857115666073L114.2521875,55.91984683275225L114.345,63.1187349955241L114.62343750000001,83.22169665495557L114.8090625,23.779600501060486L114.901875,83.20302371184033L114.9946875,86.55860994259518L115.273125,67.17618340253831L115.45875000000001,56.48959263165794L116.1084375,90.36673654119176L116.20125,69.76557775338493L116.4796875,35.13631298144661L116.6653125,76.90043681859972L117.22218749999999,80.88242425521217L117.315,71.3221160968145L117.500625,84.2932601173719L117.68625,95.75041039784752L118.05749999999999,93.32361299792927L118.42875000000001,90.15443348884584L118.614375,79.5285563071569L118.80000000000001,77.8173826535543L119.07843749999999,90.55207345883053L119.17125,78.1451759139697L119.26406250000001,82.72688134511314L119.91375,79.03571261962257L120.0065625,84.31870553890866L120.56343749999999,88.16369616985322L120.7490625,82.30361028512321L120.93468750000001,85.00279659032823L121.02749999999999,94.26278600096704L121.1203125,95.96331908305488L121.955625,72.95812938610715L122.14125,64.69961359103523L122.4196875,68.115975300471L122.7909375,90.77505244811378L122.9765625,88.66462085644406L123.06937500000001,76.57642765839897L123.44062500000001,79.58685620625816L123.53343749999999,90.64413849512738L123.7190625,79.10399440924328L123.811875,38.473385413487776L123.90468750000001,79.17515848080319L124.183125,70.35077824195228L124.27593750000001,76.62942274411522L125.20406249999999,75.3062785069148L125.3896875,69.96464087565742L125.4825,63.43761616945269L125.7609375,66.0374698440234L125.85375,67.36687376101814L125.9465625,64.03377993901573L126.225,87.82353385289512L126.3178125,73.55492973327638L126.41062500000001,83.31355834007265L127.8028125,68.40345197916032L128.08125,84.82446644703549L128.266875,82.49648445844652L128.3596875,79.16352325677873L128.5453125,79.28937995433809L128.638125,85.43604069948198L128.9165625,70.11244181791943L129.195,92.22521602114044L129.2878125,86.74374792973202L129.380625,89.11705512801808L129.47343750000002,87.01351537307106L129.6590625,104.74013724923134L129.8446875,82.4048261245092L130.0303125,84.97616642713548L130.2159375,92.65851317842804L130.30875,74.75293342272442L130.494375,88.01280959447227L130.68,91.4886780480544L130.865625,92.06604509552322L130.9584375,76.43461231390637L131.05125,83.98308767875038L131.1440625,74.35042186578117L131.236875,75.48194740215939L132.165,77.21010529994966L132.53625,79.86502293745679L132.9075,95.65971577167512L133.0003125,85.39247934023541L133.093125,92.88271227478982L133.27875,94.04413043459259L133.5571875,82.74334394931795L133.835625,82.16978752613069L134.02125,90.58945028980575L134.2996875,81.61623024940492L134.4853125,89.36442741751672L134.8565625,57.95621438821159L134.949375,84.04778871933621L135.04218749999998,86.645493944486L135.2278125,78.79604999224347L135.320625,96.31864432493848L135.5990625,87.62787465254468L135.691875,46.42103030284248L135.78468750000002,81.85240054130556L135.8775,91.50849152604741L136.063125,79.0201518336932L136.5271875,82.47272773583732L136.805625,85.59461041291557L137.2696875,88.07822678486508L137.4553125,82.88310809930168L137.8265625,92.31816077232362L138.01218749999998,94.78859910368921L138.38343749999999,68.06199882427853L138.47625,93.19716835021974L138.5690625,76.9555184642474L138.661875,78.54299271106721L138.8475,75.80701752503715L139.1259375,96.29489644368492L139.21875,87.14027388890587L139.40437500000002,96.64517327149711L139.4971875,91.76564235488576L140.146875,65.89956237872444L140.3325,78.52302008867265L140.6109375,93.1473561525345L140.70374999999999,75.16598387559257L140.98218749999998,92.00691410899164L141.07500000000002,99.33695936203004L141.5390625,96.26854036251706L141.631875,80.16830796003343L141.72468750000002,93.24346610903741L142.003125,80.30205114682518L142.18875,64.90078979730608L142.2815625,72.04994533459347L142.374375,77.33968420823417L142.46718750000002,97.27374945084256L142.56,84.74008454879127L142.65281249999998,85.04962925116223L143.2096875,81.87097622950874L143.67375,73.65074350436531L143.7665625,64.41707038879396L143.85937500000003,95.88670431574188L144.32343749999998,90.64978370070459L144.69468750000001,76.93716380993527L144.8803125,90.47839402159057L144.973125,94.16681308547658L145.344375,64.73794086774193L145.715625,72.19786121447883L146.3653125,92.51206496357919L146.5509375,90.40240699052812L146.829375,96.26714342832567L147.01500000000001,100.41016731659573L147.1078125,88.63372915983201L147.38625,82.20234139760338L147.4790625,87.64246288935345L147.66468749999999,91.51090963681541L147.7575,62.67023070653282L148.0359375,82.59982222318651L149.61375,85.80598070224129L149.7065625,77.4637549519539L149.799375,91.04819286863011L149.8921875,89.24124080936116L150.26343749999998,88.55777307351433L150.54187499999998,92.43225404620172L150.913125,77.70216210683189L151.0059375,76.90776630242668L151.09875,90.84643755356473L151.47,79.40909190972648L151.5628125,84.96814731756848L151.655625,71.84505575895311L151.84125,97.63992745677632L152.02687500000002,-72.68981015682216L152.21249999999998,69.56547135114671L152.398125,85.30642642577492L152.955,52.98806214332583L153.140625,-477.62854909896834L153.60468749999998,74.23186812798184L153.69750000000002,-295.504120349884L154.5328125,-18.915588816006967L154.625625,70.22925380865735L155.64656250000002,72.468636572361L156.0178125,67.2297797004382L156.110625,73.87268805503847L156.3890625,83.42836334307991L156.481875,75.47910932699841L156.7603125,47.126190304756186L156.94593749999999,78.10740564266843L157.03875,75.17457767327629L157.1315625,79.16621987024945L157.78125,67.33104858795804L157.87406249999998,73.7839915752411L157.96687500000002,63.65163886547091L158.0596875,74.78528394301735L158.338125,86.08397944768272L158.52375,61.11630940437319L158.6165625,74.07145941257478L158.709375,79.42388349771501L158.8021875,77.98780862490338L159.26624999999999,84.87956577539445L159.451875,76.62169539928438L159.9159375,74.86364487806958L160.00875,85.42379542191826L160.2871875,78.66791222492856L160.936875,31.78017858664198L161.1225,73.654624859492L162.050625,66.07020938396455L162.23625,55.056656440099104L162.3290625,79.34676919380826L162.5146875,82.566030561924L162.6075,86.92261739571892L162.793125,82.84501069784166L162.88593749999998,63.24638648827873L163.4428125,90.85198550422989L163.535625,59.40938844283424L164.0925,69.22378832101823L164.1853125,71.41810669501625L165.020625,67.85940800110501L165.391875,82.35568586985272L165.57750000000001,88.180530110995L165.94875,59.38239578406017L166.50562499999998,72.6471877495448L166.7840625,80.63698822259904L166.9696875,55.988438069820425L167.24812500000002,80.99540793895723L167.43375,82.18167030811311L167.5265625,83.75362797578178L167.8978125,77.27326794465385L167.99062500000002,67.33538085222246L168.17624999999998,64.97939829031628L168.2690625,73.8370397090912L168.4546875,86.60210941235226L168.733125,92.23996340235077L168.82593749999998,83.37108904123308L168.91875000000002,81.47665176788968L169.29,87.25398256381355L169.475625,88.14557139078778L169.5684375,75.7225648959478L169.66125,85.58897846937181L169.84687499999998,94.46829447150232L170.0325,86.65301793813707L170.218125,84.83508491516115L170.49656249999998,65.61977767944337L170.77499999999998,-10.347289601961744L170.8678125,76.85884708166124L170.960625,73.97679501771928L171.2390625,62.43104551235836L171.4246875,62.762092391649894L171.51749999999998,66.33155101537706L171.7959375,73.96523936589561L171.88875,72.97930443286897L172.16718749999998,71.79677311579388L172.53843750000001,88.51615681250892L172.63125,66.78189430634183L172.7240625,91.28263909618062L173.37375,74.70245812336606L173.559375,56.08402196566265L173.6521875,72.73633513847989L173.745,76.7855345606804L174.0234375,88.48577791452409L174.11624999999998,92.3469172815482L174.301875,73.36548600594205L174.673125,74.8124887943268L174.7659375,76.76616315046948L174.85875000000001,72.52088014284772L175.1371875,78.15276179711026L175.50843749999999,90.98963214953743L175.60125000000002,70.17820382118227L175.78687499999998,83.23732817173006L175.87968750000002,67.88303210337959L175.9725,87.50854287544888L176.0653125,73.98370011647545L176.2509375,66.0947795112928L176.52937500000002,78.28663760423662L176.6221875,89.77201833327614L176.715,81.64555702606839L176.8078125,76.13612814744316L177.1790625,70.59634689490002L177.27187500000002,83.74308023850125L177.7359375,92.74293928345047L177.9215625,71.39701122045518L178.014375,56.744038005669935L178.1071875,88.69469914833707L178.4784375,89.23167888323468L178.756875,81.92057623465858L178.94250000000002,89.36194299658142L179.22093750000002,79.46139736970268L179.31375,28.117770791053772L179.4065625,87.43382457892102L179.49937500000001,94.70575560132664L179.5921875,97.85986501971882L179.7778125,87.44194978475572L179.9634375,82.89644086360933L180.241875,93.19037376840912L180.33468749999997,82.7059803803762L180.5203125,66.45830953121187L180.613125,86.16031571229301L180.7059375,77.55553706487022L180.984375,85.12141221761705L181.17,71.54116952419282L181.2628125,86.92791336774827L181.355625,89.85740372538568L182.098125,85.68342183033627L182.1909375,98.73743587732316L182.46937499999999,27.05009752511978L182.9334375,82.13951472441357L183.3046875,88.0684747695923L183.8615625,103.10048132141434L183.954375,83.88768061002098L184.14,82.10265511274339L184.51125,74.96204032500587L184.6040625,91.49259476860367L184.696875,84.29488692680997L184.88250000000002,30.353820363680555L184.9753125,76.86131381988527L185.06812499999998,83.4215112924576L185.439375,85.16023461023968L185.810625,81.9784871141116L185.99625,92.48884756366414L186.0890625,80.4609037836393L186.83156250000002,85.35554015636446L186.924375,92.8586726288001L187.2028125,78.20259167750679L187.48125,91.45425422986351L187.8525,82.7760392824809L188.038125,75.15496754646303L188.40937499999998,75.83941225210827L188.8734375,82.78414680560432L188.96625,89.32951290408772L189.3375,53.090330104033164L189.4303125,79.25188376506172L189.70875,61.05142269531887L189.8015625,88.81882294019066L189.89437500000003,85.03941748539609L190.17281250000002,93.00226066509885L190.45125000000002,91.27610975503923L190.5440625,86.99362232287727L190.7296875,90.93498373031618L190.9153125,87.36570193370186L191.008125,75.52947853008908L191.10093750000001,94.9383451441924L191.75062499999999,86.51412024100624L191.93625,95.09665845831238L192.0290625,87.52391799290977L192.5859375,72.42940747737886L192.67874999999998,57.43883593877159L192.77156250000002,65.12142582734428L192.95718749999997,73.26878809928895L193.1428125,70.98106964429222L193.42125,29.610501070817318L194.07093749999999,94.87712317705156L194.16375000000002,73.68910614649457L194.2565625,95.93788692355157L195.091875,94.19945094982785L195.463125,90.70178855458897L195.9271875,88.19968048731488L196.01999999999998,83.73880102237068L196.11281250000002,76.21895396709444L196.39125,66.60644644498826L196.4840625,83.22124574581784L196.576875,100.70587971806526L196.6696875,85.75048351287843L197.0409375,68.57655688126884L197.13375,95.37523631254834L197.2265625,69.06661554177605L197.50500000000002,75.24522010485333L197.69062499999998,81.37248291571937L197.87625,75.07771178086601L198.06187500000001,85.93152795235318L198.1546875,62.21691672007244L198.2475,92.5061898827553L198.433125,79.32749503850938L198.5259375,91.81827936569852L198.99,83.1068474451701L199.2684375,102.09405212601028L199.45406250000002,93.4143385688464L199.73250000000002,86.82548626263939L200.0109375,98.60830787817639L200.10375,87.44004005193712L200.289375,94.1326058804989L200.475,97.58338698744775L201.03187499999999,84.81848084926607L201.12468750000002,80.45646542310716L201.31031249999998,83.18642848730089L201.4959375,90.31088569760324L202.33125,90.7275434235732L202.4240625,99.56252886851631L202.51687500000003,102.42608039577804L202.6096875,91.47490321596466L203.72343750000002,86.84686466058098L203.90906249999998,86.69966493050259L204.0946875,94.8734186490377L204.2803125,84.1593577861786L204.65156249999998,78.01152998209001L204.744375,95.46295140186947L204.8371875,83.0513590971629L205.0228125,94.87681815028192L205.115625,102.20703580975533L205.39406250000002,98.01479651530586L205.486875,85.02364450693132L205.57968749999998,102.5214344163736L205.7653125,87.56905311346055L206.229375,88.94619150956474L206.5078125,96.1726116538048L206.6934375,101.05266421039902L206.78625,92.85646228988968L206.97187499999998,88.55978006124498L207.25031249999998,80.624972820282L207.52875,92.78156716624898L207.714375,99.08300026257835L207.99281249999999,91.52041851480804L208.27125,84.37904779116315L208.3640625,92.37785760561627L208.64249999999998,88.92590059836708L208.828125,81.32518166303636L208.92093749999998,92.95251919825874L209.66343750000001,79.53154468536378L209.75625,97.81953959663711L209.941875,60.74048990011217L210.40593750000002,91.36866990725201L210.87,90.68258955081306L210.9628125,82.04691036542259L211.055625,92.18938642740251L211.24125,98.66749191284181L211.33406250000002,95.04597096641861L211.5196875,95.25216906269394L211.7053125,98.12894725799562L211.98375,98.93047803640367L212.07656250000002,70.7921387155851L212.4478125,81.23209102948509L212.911875,84.10699043671292L213.0975,69.97845107316972L213.654375,70.53560678164166L213.74718750000002,89.5662004152934L213.84,65.7313732703527L213.93281249999998,65.41563961903256L214.02562500000002,83.70787396033607L214.30406250000001,89.12929598490399L214.4896875,93.2317115267118L214.768125,86.13760226964952L214.86093749999998,88.67545151710512L215.13937499999997,92.45029041171075L215.325,98.4983744621277L215.510625,88.59348330895108L215.60343749999998,85.97438200314842L215.69625,89.06305212775868L216.0675,79.62049756447476L216.43875,77.16942622264229L216.53156249999998,97.63785857955617L216.62437500000001,98.51209182540578L216.995625,82.69893381992978L217.0884375,88.28056120872499L217.27406249999999,91.17844371994339L217.366875,89.51180397470795L217.5525,70.13077878952028L217.6453125,92.2232134540876L217.738125,86.57120003302894L217.92374999999998,94.081379065911L218.01656250000002,104.79316327969235L218.109375,67.75217119852704L218.20218749999998,60.84899985790255L218.48062499999997,56.12226082881294L218.66625,91.98808202147485L218.7590625,94.030006368955L219.3159375,50.881388127803824L219.40875,85.75638069709144L219.5015625,94.04171674450241L219.87281249999998,79.20372490088147L220.0584375,85.87245001395546L220.2440625,85.68906261523567L220.6153125,88.46454097827278L221.265,75.04052503903709L221.54343749999998,92.84174143274628L221.7290625,82.06357632080716L221.9146875,84.9334715207418L222.0075,54.03589540719988L222.193125,91.27589314182602L222.37875,89.62942494948707L222.564375,83.5172366499901L222.6571875,86.52016772826515L222.75,75.48416658242546L223.02843750000002,90.26182059446973L223.12125,61.945230702559165L223.3996875,98.3761559824149L223.49249999999998,90.71658456325532L223.7709375,85.62111679712933L224.049375,88.63280965884529L224.420625,100.58626943826675L224.97750000000002,105.21467048923176L225.0703125,85.87279482682548L225.34875,87.98283739884697L225.4415625,89.63920348882677L225.6271875,103.44623579581581L225.8128125,82.30865869919461L225.90562500000001,96.32825487852098L226.09125,82.93297334512077L226.1840625,66.4628981947899L226.3696875,89.50514643390976L226.4625,99.74230015277864L226.55531249999999,86.07825909058255L226.648125,94.81692680716516L226.83375,90.52082810799283L227.019375,83.65335816144945L227.1121875,84.2495042483012L227.48343749999998,34.19610553979876L227.57625000000002,92.76580302913986L227.76187499999997,105.14925329883896L228.0403125,71.16949661572777L228.2259375,89.40881102283798L228.504375,91.8335704902808L229.06125,92.6301898956299L229.618125,98.26606784264249L229.989375,93.94672079881035L230.2678125,98.30544724067055L230.731875,70.96509331464769L230.91750000000002,87.30369750658673L231.1959375,89.9800907969475L231.7528125,102.28003888328873L231.845625,86.35988279183708L232.03125,81.64148116111757L232.30968750000002,97.29048171639444L232.58812500000002,68.91237809260689L232.6809375,96.49713803331059L232.77374999999998,80.13273918628694L233.6090625,86.76781409978868L233.701875,95.03202814857167L233.7946875,76.2783767183622L233.8875,77.27467372020088L234.073125,45.27354611953102L234.25875000000002,84.36954333384834L234.53718750000002,74.89224666357042L234.63,82.7341931462288L235.00125,97.85098829865457L235.18687500000001,91.7036732931932L235.2796875,47.46621116002403L235.3725,94.60655559102696L235.4653125,79.7084248463313L236.20781250000002,99.4039989411831L237.043125,96.33177373806637L237.22875,96.29885737101239L237.5071875,81.44272748629254L237.97125,97.52181578675908L238.2496875,96.2731732328733L238.3425,91.78948749105137L238.6209375,87.63100449244183L238.71374999999998,72.50478003422421L238.99218749999997,88.07583961884183L239.270625,90.28309731682144L239.45624999999998,101.41576984524727L239.641875,102.1761838992437L239.9203125,87.27657222747804L240.19875000000002,91.62361923853558L240.2915625,93.72694238026939L240.38437499999998,95.57089551289879L240.57,90.22091606259347L241.3125,99.0588545203209L241.498125,99.29893711209299L241.68375,88.18545474608742L241.86937500000002,86.94373055299125L242.3334375,103.92669716477394L242.79749999999999,93.73294566075009L243.16875,103.36174780130386L243.54000000000002,92.9237715303898L243.6328125,97.18362509210907L243.72562499999998,110.39753063519798L244.096875,105.5292989710967L244.1896875,89.15394126375519L244.2825,68.45268064737321L244.3753125,99.59743896126749L244.65375,99.6894730528196L245.11781249999999,88.67078328132631L245.39624999999998,96.57397383451463L245.581875,89.78381270170213L245.953125,103.28995599349342L246.0459375,92.79410420854889L246.13875000000002,91.1291310588519L246.2315625,81.59409149487816L246.4171875,92.51479252179466L246.6028125,88.00973280270897L246.88125000000002,107.7338202695052L247.15968750000002,100.22735018531483L247.2525,89.88246454795204L247.438125,100.76718567808472L247.62375,76.08849092324577L248.27343750000003,99.49859702587129L248.55187500000002,93.37838961680733L248.6446875,99.32112007339798L248.83031250000002,86.1654879053434L249.0159375,90.46575530370079L249.2015625,100.08794853091241L249.294375,79.4866659641266L249.48000000000002,93.78655964136125L249.7584375,80.34194334348045L249.94406249999997,97.17940334479016L250.2225,82.38114013274513L250.40812499999998,85.68518126010896L250.6865625,83.15886114041012L250.779375,93.84103123346966L250.8721875,96.93537308772407L251.8003125,94.68337370951973L251.893125,95.35506033897401L252.07874999999999,84.21457205216092L252.1715625,101.02797914544743L252.264375,91.04532384872438L252.3571875,107.13823118805885L252.635625,92.610398521026L252.72843749999998,87.36389829715095L252.9140625,64.5951441327731L253.1925,111.50098486741386L253.378125,103.98112897078198L253.56375,73.49366798003517L253.749375,89.85744351148607L254.5846875,101.12367797891301L254.67749999999998,103.53249648213387L254.95593749999998,91.0673653483391L255.1415625,98.42549516757332L255.3271875,93.39067468047143L255.42,93.14624656240147L255.5128125,95.79197361071907L255.6984375,89.62360733747484L255.79125,100.11418525377911L256.0696875,81.84120738506319L256.6265625,98.1277315715949L256.719375,92.32549909750622L256.905,69.44360210498176" style="fill: none;" fill="none"></path></g><g><path stroke="rgb(0, 119, 187)" stroke-width="2px" d="M250.59375,13.21762863794964Z" style="fill: none;" fill="none"></path></g></g></g></g></g></g><g transform="translate(51, 178)" clip-path="url(#clip_1)"><clipPath id="clip_1"><rect width="278" height="22"></rect></clipPath><g><g><line x1="0" y1="0" x2="0" y2="5" style="visibility: inherit;" fill="rgb(0, 0, 0)" stroke="rgb(204, 204, 204)" stroke-width="1px"></line><line x1="18.5625" y1="0" x2="18.5625" y2="5" style="visibility: inherit;" fill="rgb(0, 0, 0)" stroke="rgb(204, 204, 204)" stroke-width="1px"></line><line x1="37.125" y1="0" x2="37.125" y2="5" style="visibility: inherit;" fill="rgb(0, 0, 0)" stroke="rgb(204, 204, 204)" stroke-width="1px"></line><line x1="55.6875" y1="0" x2="55.6875" y2="5" style="visibility: inherit;" fill="rgb(0, 0, 0)" stroke="rgb(204, 204, 204)" stroke-width="1px"></line><line x1="74.25" y1="0" x2="74.25" y2="5" style="visibility: inherit;" fill="rgb(0, 0, 0)" stroke="rgb(204, 204, 204)" stroke-width="1px"></line><line x1="92.8125" y1="0" x2="92.8125" y2="5" style="visibility: inherit;" fill="rgb(0, 0, 0)" stroke="rgb(204, 204, 204)" stroke-width="1px"></line><line x1="111.375" y1="0" x2="111.375" y2="5" style="visibility: inherit;" fill="rgb(0, 0, 0)" stroke="rgb(204, 204, 204)" stroke-width="1px"></line><line x1="129.9375" y1="0" x2="129.9375" y2="5" style="visibility: inherit;" fill="rgb(0, 0, 0)" stroke="rgb(204, 204, 204)" stroke-width="1px"></line><line x1="148.5" y1="0" x2="148.5" y2="5" style="visibility: inherit;" fill="rgb(0, 0, 0)" stroke="rgb(204, 204, 204)" stroke-width="1px"></line><line x1="167.0625" y1="0" x2="167.0625" y2="5" style="visibility: inherit;" fill="rgb(0, 0, 0)" stroke="rgb(204, 204, 204)" stroke-width="1px"></line><line x1="185.625" y1="0" x2="185.625" y2="5" style="visibility: inherit;" fill="rgb(0, 0, 0)" stroke="rgb(204, 204, 204)" stroke-width="1px"></line><line x1="204.18749999999997" y1="0" x2="204.18749999999997" y2="5" style="visibility: inherit;" fill="rgb(0, 0, 0)" stroke="rgb(204, 204, 204)" stroke-width="1px"></line><line x1="222.75" y1="0" x2="222.75" y2="5" style="visibility: inherit;" fill="rgb(0, 0, 0)" stroke="rgb(204, 204, 204)" stroke-width="1px"></line><line x1="241.3125" y1="0" x2="241.3125" y2="5" style="visibility: inherit;" fill="rgb(0, 0, 0)" stroke="rgb(204, 204, 204)" stroke-width="1px"></line><line x1="259.875" y1="0" x2="259.875" y2="5" style="visibility: inherit;" fill="rgb(0, 0, 0)" stroke="rgb(204, 204, 204)" stroke-width="1px"></line><line x1="278.4375" y1="0" x2="278.4375" y2="5" style="visibility: inherit;" fill="rgb(0, 0, 0)" stroke="rgb(204, 204, 204)" stroke-width="1px"></line></g><g transform="translate(0, 8)"><text x="0" y="0" dx="0em" dy="0.95em" style="text-anchor: middle; visibility: hidden; font-family: Roboto, sans-serif; font-size: 12px; font-weight: 200;" fill="rgb(50, 49, 63)" stroke="none" stroke-width="1px">-200</text><text x="18.5625" y="0" dx="0em" dy="0.95em" style="text-anchor: middle; visibility: inherit; font-family: Roboto, sans-serif; font-size: 12px; font-weight: 200;" fill="rgb(50, 49, 63)" stroke="none" stroke-width="1px">0</text><text x="37.125" y="0" dx="0em" dy="0.95em" style="text-anchor: middle; visibility: hidden; font-family: Roboto, sans-serif; font-size: 12px; font-weight: 200;" fill="rgb(50, 49, 63)" stroke="none" stroke-width="1px">200</text><text x="55.6875" y="0" dx="0em" dy="0.95em" style="text-anchor: middle; visibility: inherit; font-family: Roboto, sans-serif; font-size: 12px; font-weight: 200;" fill="rgb(50, 49, 63)" stroke="none" stroke-width="1px">400</text><text x="74.25" y="0" dx="0em" dy="0.95em" style="text-anchor: middle; visibility: hidden; font-family: Roboto, sans-serif; font-size: 12px; font-weight: 200;" fill="rgb(50, 49, 63)" stroke="none" stroke-width="1px">600</text><text x="92.8125" y="0" dx="0em" dy="0.95em" style="text-anchor: middle; visibility: inherit; font-family: Roboto, sans-serif; font-size: 12px; font-weight: 200;" fill="rgb(50, 49, 63)" stroke="none" stroke-width="1px">800</text><text x="111.375" y="0" dx="0em" dy="0.95em" style="text-anchor: middle; visibility: hidden; font-family: Roboto, sans-serif; font-size: 12px; font-weight: 200;" fill="rgb(50, 49, 63)" stroke="none" stroke-width="1px">1k</text><text x="129.9375" y="0" dx="0em" dy="0.95em" style="text-anchor: middle; visibility: inherit; font-family: Roboto, sans-serif; font-size: 12px; font-weight: 200;" fill="rgb(50, 49, 63)" stroke="none" stroke-width="1px">1.2k</text><text x="148.5" y="0" dx="0em" dy="0.95em" style="text-anchor: middle; visibility: hidden; font-family: Roboto, sans-serif; font-size: 12px; font-weight: 200;" fill="rgb(50, 49, 63)" stroke="none" stroke-width="1px">1.4k</text><text x="167.0625" y="0" dx="0em" dy="0.95em" style="text-anchor: middle; visibility: inherit; font-family: Roboto, sans-serif; font-size: 12px; font-weight: 200;" fill="rgb(50, 49, 63)" stroke="none" stroke-width="1px">1.6k</text><text x="185.625" y="0" dx="0em" dy="0.95em" style="text-anchor: middle; visibility: hidden; font-family: Roboto, sans-serif; font-size: 12px; font-weight: 200;" fill="rgb(50, 49, 63)" stroke="none" stroke-width="1px">1.8k</text><text x="204.18749999999997" y="0" dx="0em" dy="0.95em" style="text-anchor: middle; visibility: inherit; font-family: Roboto, sans-serif; font-size: 12px; font-weight: 200;" fill="rgb(50, 49, 63)" stroke="none" stroke-width="1px">2k</text><text x="222.75" y="0" dx="0em" dy="0.95em" style="text-anchor: middle; visibility: hidden; font-family: Roboto, sans-serif; font-size: 12px; font-weight: 200;" fill="rgb(50, 49, 63)" stroke="none" stroke-width="1px">2.2k</text><text x="241.3125" y="0" dx="0em" dy="0.95em" style="text-anchor: middle; visibility: inherit; font-family: Roboto, sans-serif; font-size: 12px; font-weight: 200;" fill="rgb(50, 49, 63)" stroke="none" stroke-width="1px">2.4k</text><text x="259.875" y="0" dx="0em" dy="0.95em" style="text-anchor: middle; visibility: hidden; font-family: Roboto, sans-serif; font-size: 12px; font-weight: 200;" fill="rgb(50, 49, 63)" stroke="none" stroke-width="1px">2.6k</text><text x="278.4375" y="0" dx="0em" dy="0.95em" style="text-anchor: middle; visibility: hidden; font-family: Roboto, sans-serif; font-size: 12px; font-weight: 200;" fill="rgb(50, 49, 63)" stroke="none" stroke-width="1px">2.8k</text></g><line x1="0" y1="0" x2="278.4375" y2="0" fill="rgb(0, 0, 0)" stroke="rgb(204, 204, 204)" stroke-width="1px"></line></g></g></g></g></svg>