<svg viewBox="0 0 330 200" xmlns="http://www.w3.org/2000/svg"><g><g><g><g><g><line x1="30.78125" y1="178" x2="25.78125" y2="178" style="visibility: inherit;" fill="rgb(0, 0, 0)" stroke="rgb(204, 204, 204)" stroke-width="1px"></line><line x1="30.78125" y1="165.28571428571428" x2="25.78125" y2="165.28571428571428" style="visibility: inherit;" fill="rgb(0, 0, 0)" stroke="rgb(204, 204, 204)" stroke-width="1px"></line><line x1="30.78125" y1="152.57142857142858" x2="25.78125" y2="152.57142857142858" style="visibility: inherit;" fill="rgb(0, 0, 0)" stroke="rgb(204, 204, 204)" stroke-width="1px"></line><line x1="30.78125" y1="139.85714285714286" x2="25.78125" y2="139.85714285714286" style="visibility: inherit;" fill="rgb(0, 0, 0)" stroke="rgb(204, 204, 204)" stroke-width="1px"></line><line x1="30.78125" y1="127.14285714285714" x2="25.78125" y2="127.14285714285714" style="visibility: inherit;" fill="rgb(0, 0, 0)" stroke="rgb(204, 204, 204)" stroke-width="1px"></line><line x1="30.78125" y1="114.42857142857142" x2="25.78125" y2="114.42857142857142" style="visibility: inherit;" fill="rgb(0, 0, 0)" stroke="rgb(204, 204, 204)" stroke-width="1px"></line><line x1="30.78125" y1="101.71428571428571" x2="25.78125" y2="101.71428571428571" style="visibility: inherit;" fill="rgb(0, 0, 0)" stroke="rgb(204, 204, 204)" stroke-width="1px"></line><line x1="30.78125" y1="89" x2="25.78125" y2="89" style="visibility: inherit;" fill="rgb(0, 0, 0)" stroke="rgb(204, 204, 204)" stroke-width="1px"></line><line x1="30.78125" y1="76.28571428571429" x2="25.78125" y2="76.28571428571429" style="visibility: inherit;" fill="rgb(0, 0, 0)" stroke="rgb(204, 204, 204)" stroke-width="1px"></line><line x1="30.78125" y1="63.57142857142856" x2="25.78125" y2="63.57142857142856" style="visibility: inherit;" fill="rgb(0, 0, 0)" stroke="rgb(204, 204, 204)" stroke-width="1px"></line><line x1="30.78125" y1="50.857142857142854" x2="25.78125" y2="50.857142857142854" style="visibility: inherit;" fill="rgb(0, 0, 0)" stroke="rgb(204, 204, 204)" stroke-width="1px"></line><line x1="30.78125" y1="38.142857142857146" x2="25.78125" y2="38.142857142857146" style="visibility: inherit;" fill="rgb(0, 0, 0)" stroke="rgb(204, 204, 204)" stroke-width="1px"></line><line x1="30.78125" y1="25.428571428571438" x2="25.78125" y2="25.428571428571438" style="visibility: inherit;" fill="rgb(0, 0, 0)" stroke="rgb(204, 204, 204)" stroke-width="1px"></line><line x1="30.78125" y1="12.714285714285708" x2="25.78125" y2="12.714285714285708" style="visibility: inherit;" fill="rgb(0, 0, 0)" stroke="rgb(204, 204, 204)" stroke-width="1px"></line><line x1="30.78125" y1="0" x2="25.78125" y2="0" style="visibility: inherit;" fill="rgb(0, 0, 0)" stroke="rgb(204, 204, 204)" stroke-width="1px"></line></g><g transform="translate(20.78125, 0)"><text x="0" y="178" dx="0em" dy="0.3em" style="text-anchor: end; visibility: hidden; font-family: Roboto, sans-serif; font-size: 12px; font-weight: 200;" fill="rgb(50, 49, 63)" stroke="none" stroke-width="1px">-2</text><text x="0" y="165.28571428571428" dx="0em" dy="0.3em" style="text-anchor: end; visibility: inherit; font-family: Roboto, sans-serif; font-size: 12px; font-weight: 200;" fill="rgb(50, 49, 63)" stroke="none" stroke-width="1px">-1</text><text x="0" y="152.57142857142858" dx="0em" dy="0.3em" style="text-anchor: end; visibility: hidden; font-family: Roboto, sans-serif; font-size: 12px; font-weight: 200;" fill="rgb(50, 49, 63)" stroke="none" stroke-width="1px">0</text><text x="0" y="139.85714285714286" dx="0em" dy="0.3em" style="text-anchor: end; visibility: inherit; font-family: Roboto, sans-serif; font-size: 12px; font-weight: 200;" fill="rgb(50, 49, 63)" stroke="none" stroke-width="1px">1</text><text x="0" y="127.14285714285714" dx="0em" dy="0.3em" style="text-anchor: end; visibility: hidden; font-family: Roboto, sans-serif; font-size: 12px; font-weight: 200;" fill="rgb(50, 49, 63)" stroke="none" stroke-width="1px">2</text><text x="0" y="114.42857142857142" dx="0em" dy="0.3em" style="text-anchor: end; visibility: inherit; font-family: Roboto, sans-serif; font-size: 12px; font-weight: 200;" fill="rgb(50, 49, 63)" stroke="none" stroke-width="1px">3</text><text x="0" y="101.71428571428571" dx="0em" dy="0.3em" style="text-anchor: end; visibility: hidden; font-family: Roboto, sans-serif; font-size: 12px; font-weight: 200;" fill="rgb(50, 49, 63)" stroke="none" stroke-width="1px">4</text><text x="0" y="89" dx="0em" dy="0.3em" style="text-anchor: end; visibility: inherit; font-family: Roboto, sans-serif; font-size: 12px; font-weight: 200;" fill="rgb(50, 49, 63)" stroke="none" stroke-width="1px">5</text><text x="0" y="76.28571428571429" dx="0em" dy="0.3em" style="text-anchor: end; visibility: hidden; font-family: Roboto, sans-serif; font-size: 12px; font-weight: 200;" fill="rgb(50, 49, 63)" stroke="none" stroke-width="1px">6</text><text x="0" y="63.57142857142856" dx="0em" dy="0.3em" style="text-anchor: end; visibility: inherit; font-family: Roboto, sans-serif; font-size: 12px; font-weight: 200;" fill="rgb(50, 49, 63)" stroke="none" stroke-width="1px">7</text><text x="0" y="50.857142857142854" dx="0em" dy="0.3em" style="text-anchor: end; visibility: hidden; font-family: Roboto, sans-serif; font-size: 12px; font-weight: 200;" fill="rgb(50, 49, 63)" stroke="none" stroke-width="1px">8</text><text x="0" y="38.142857142857146" dx="0em" dy="0.3em" style="text-anchor: end; visibility: inherit; font-family: Roboto, sans-serif; font-size: 12px; font-weight: 200;" fill="rgb(50, 49, 63)" stroke="none" stroke-width="1px">9</text><text x="0" y="25.428571428571438" dx="0em" dy="0.3em" style="text-anchor: end; visibility: hidden; font-family: Roboto, sans-serif; font-size: 12px; font-weight: 200;" fill="rgb(50, 49, 63)" stroke="none" stroke-width="1px">10</text><text x="0" y="12.714285714285708" dx="0em" dy="0.3em" style="text-anchor: end; visibility: inherit; font-family: Roboto, sans-serif; font-size: 12px; font-weight: 200;" fill="rgb(50, 49, 63)" stroke="none" stroke-width="1px">11</text><text x="0" y="0" dx="0em" dy="0.3em" style="text-anchor: end; visibility: hidden; font-family: Roboto, sans-serif; font-size: 12px; font-weight: 200;" fill="rgb(50, 49, 63)" stroke="none" stroke-width="1px">12</text></g><line x1="30.78125" y1="0" x2="30.78125" y2="178" fill="rgb(0, 0, 0)" stroke="rgb(204, 204, 204)" stroke-width="1px"></line></g></g><g transform="translate(30, 0)" clip-path="url(#clip_0)"><clipPath id="clip_0"><rect width="299" height="178"></rect></clipPath><g><g><g><line x1="0" y1="0" x2="0" y2="178" fill="rgb(0, 0, 0)" stroke="rgb(60, 60, 60)" stroke-width="1px" opacity="0.25"></line><line x1="19.947916666666668" y1="0" x2="19.947916666666668" y2="178" fill="rgb(0, 0, 0)" stroke="rgb(60, 60, 60)" stroke-width="1px" opacity="0.25"></line><line x1="39.895833333333336" y1="0" x2="39.895833333333336" y2="178" fill="rgb(0, 0, 0)" stroke="rgb(60, 60, 60)" stroke-width="1px" opacity="0.25"></line><line x1="59.84375" y1="0" x2="59.84375" y2="178" fill="rgb(0, 0, 0)" stroke="rgb(60, 60, 60)" stroke-width="1px" opacity="0.25"></line><line x1="79.79166666666667" y1="0" x2="79.79166666666667" y2="178" fill="rgb(0, 0, 0)" stroke="rgb(60, 60, 60)" stroke-width="1px" opacity="0.25"></line><line x1="99.73958333333333" y1="0" x2="99.73958333333333" y2="178" fill="rgb(0, 0, 0)" stroke="rgb(60, 60, 60)" stroke-width="1px" opacity="0.25"></line><line x1="119.6875" y1="0" x2="119.6875" y2="178" fill="rgb(0, 0, 0)" stroke="rgb(60, 60, 60)" stroke-width="1px" opacity="0.25"></line><line x1="139.63541666666666" y1="0" x2="139.63541666666666" y2="178" fill="rgb(0, 0, 0)" stroke="rgb(60, 60, 60)" stroke-width="1px" opacity="0.25"></line><line x1="159.58333333333334" y1="0" x2="159.58333333333334" y2="178" fill="rgb(0, 0, 0)" stroke="rgb(60, 60, 60)" stroke-width="1px" opacity="0.25"></line><line x1="179.53125" y1="0" x2="179.53125" y2="178" fill="rgb(0, 0, 0)" stroke="rgb(60, 60, 60)" stroke-width="1px" opacity="0.25"></line><line x1="199.47916666666666" y1="0" x2="199.47916666666666" y2="178" fill="rgb(0, 0, 0)" stroke="rgb(60, 60, 60)" stroke-width="1px" opacity="0.25"></line><line x1="219.42708333333331" y1="0" x2="219.42708333333331" y2="178" fill="rgb(0, 0, 0)" stroke="rgb(60, 60, 60)" stroke-width="1px" opacity="0.25"></line><line x1="239.375" y1="0" x2="239.375" y2="178" fill="rgb(0, 0, 0)" stroke="rgb(60, 60, 60)" stroke-width="1px" opacity="0.25"></line><line x1="259.3229166666667" y1="0" x2="259.3229166666667" y2="178" fill="rgb(0, 0, 0)" stroke="rgb(60, 60, 60)" stroke-width="1px" opacity="0.25"></line><line x1="279.2708333333333" y1="0" x2="279.2708333333333" y2="178" fill="rgb(0, 0, 0)" stroke="rgb(60, 60, 60)" stroke-width="1px" opacity="0.25"></line><line x1="299.21875" y1="0" x2="299.21875" y2="178" fill="rgb(0, 0, 0)" stroke="rgb(60, 60, 60)" stroke-width="1px" opacity="0.25"></line></g><g><line x1="0" y1="178" x2="299.21875" y2="178" fill="rgb(0, 0, 0)" stroke="rgb(60, 60, 60)" stroke-width="1px" opacity="0.25"></line><line x1="0" y1="165.28571428571428" x2="299.21875" y2="165.28571428571428" fill="rgb(0, 0, 0)" stroke="rgb(60, 60, 60)" stroke-width="1px" opacity="0.25"></line><line x1="0" y1="152.57142857142858" x2="299.21875" y2="152.57142857142858" fill="rgb(0, 0, 0)" stroke="rgb(60, 60, 60)" stroke-width="1px" opacity="0.25"></line><line x1="0" y1="139.85714285714286" x2="299.21875" y2="139.85714285714286" fill="rgb(0, 0, 0)" stroke="rgb(60, 60, 60)" stroke-width="1px" opacity="0.25"></line><line x1="0" y1="127.14285714285714" x2="299.21875" y2="127.14285714285714" fill="rgb(0, 0, 0)" stroke="rgb(60, 60, 60)" stroke-width="1px" opacity="0.25"></line><line x1="0" y1="114.42857142857142" x2="299.21875" y2="114.42857142857142" fill="rgb(0, 0, 0)" stroke="rgb(60, 60, 60)" stroke-width="1px" opacity="0.25"></line><line x1="0" y1="101.71428571428571" x2="299.21875" y2="101.71428571428571" fill="rgb(0, 0, 0)" stroke="rgb(60, 60, 60)" stroke-width="1px" opacity="0.25"></line><line x1="0" y1="89" x2="299.21875" y2="89" fill="rgb(0, 0, 0)" stroke="rgb(60, 60, 60)" stroke-width="1px" opacity="0.25"></line><line x1="0" y1="76.28571428571429" x2="299.21875" y2="76.28571428571429" fill="rgb(0, 0, 0)" stroke="rgb(60, 60, 60)" stroke-width="1px" opacity="0.25"></line><line x1="0" y1="63.57142857142856" x2="299.21875" y2="63.57142857142856" fill="rgb(0, 0, 0)" stroke="rgb(60, 60, 60)" stroke-width="1px" opacity="0.25"></line><line x1="0" y1="50.857142857142854" x2="299.21875" y2="50.857142857142854" fill="rgb(0, 0, 0)" stroke="rgb(60, 60, 60)" stroke-width="1px" opacity="0.25"></line><line x1="0" y1="38.142857142857146" x2="299.21875" y2="38.142857142857146" fill="rgb(0, 0, 0)" stroke="rgb(60, 60, 60)" stroke-width="1px" opacity="0.25"></line><line x1="0" y1="25.428571428571438" x2="299.21875" y2="25.428571428571438" fill="rgb(0, 0, 0)" stroke="rgb(60, 60, 60)" stroke-width="1px" opacity="0.25"></line><line x1="0" y1="12.714285714285708" x2="299.21875" y2="12.714285714285708" fill="rgb(0, 0, 0)" stroke="rgb(60, 60, 60)" stroke-width="1px" opacity="0.25"></line><line x1="0" y1="0" x2="299.21875" y2="0" fill="rgb(0, 0, 0)" stroke="rgb(60, 60, 60)" stroke-width="1px" opacity="0.25"></line></g></g></g><g><g><line x1="0" y1="152.57142857142858" x2="299.21875" y2="152.57142857142858" fill="rgb(0, 0, 0)" stroke="rgb(153, 153, 153)" stroke-width="1.5px"></line></g></g><g><g><line x1="19.947916666666668" y1="0" x2="19.947916666666668" y2="178" fill="rgb(0, 0, 0)" stroke="rgb(153, 153, 153)" stroke-width="1.5px"></line></g></g><g><g><g><g><g><path stroke="rgb(255, 112, 67)" stroke-width="2px" d="M21.74322916666667,-9.601350091795906L21.842968749999997,8.594512417121097L21.942708333333332,17.363385913171978L22.34166666666667,24.049335041647552L23.538541666666667,23.821419745650413L23.9375,20.8830389711701L24.136979166666666,22.297484192370668L24.336458333333333,20.222302210957903L24.436197916666668,20.99867518323775L24.63567708333333,19.831207330096102L24.83515625,19.94001053679951L25.234114583333334,17.69271463640087L25.33385416666667,18.516938456271873L25.433593750000004,18.301352941161714L25.53333333333333,17.35300312553656L25.633072916666666,18.59264312540806L26.23151041666667,19.212592266531928L26.430989583333332,21.015800413257626L26.530729166666667,19.733606960656417L26.63046875,20.32485952961951L26.730208333333334,19.663815830733174L27.029427083333335,19.7438111474704L27.12916666666667,18.667914971609257L27.228906249999998,19.744862325734523L27.328645833333333,19.066042017661875L27.82734375,20.888706885546632L28.326041666666665,21.6900474640969L28.625260416666666,19.867270155969766L28.725,21.04177956808335L29.3234375,22.471528915439418L30.121354166666666,16.70862701077747L30.420572916666668,19.07309502540943L30.5203125,18.788885864622923L31.218489583333334,17.60574848758142L31.517708333333335,18.05557708363232L31.717187499999998,19.09921310248825L32.415364583333336,20.32432572648814L32.51510416666667,20.361801246446277L32.81432291666667,20.93186455268426L32.9140625,20.981527898222208L33.612239583333334,21.414467472243338L33.811718750000004,23.12359596059211L34.01119791666667,23.53963184132319L34.1109375,22.84875785147497L34.21067708333333,24.26223698671842L34.908854166666664,24.675720204553166L35.407552083333336,25.403244012381595L35.60703125,26.868516209850988L35.70677083333333,26.742628978142644L36.10572916666667,26.690954355269348L36.40494791666667,25.358367844571756L36.604427083333334,26.7831466222706L36.704166666666666,26.755579098414664L37.00338541666667,25.985888461594815L37.60182291666667,27.989052924281854L37.7015625,28.12685575054081L37.90104166666667,29.054262591908618L38.20026041666667,27.802263681766966L38.39973958333333,28.18704374285622L38.49947916666667,29.637681775062916L38.69895833333333,28.811799891453767L38.8984375,28.2736430997195L38.99817708333333,28.245058858750518L39.696354166666666,28.933410905983433L40.49427083333333,29.866097416392808L40.59401041666666,29.378239665830385L40.69375,29.881894513609552L41.092708333333334,29.50644874168276L42.09010416666666,29.869354736081096L42.189843749999994,28.929657166251058L42.389322916666664,29.345052611431022L42.78828125,30.575962873970074L43.0875,28.661937435075416L43.18723958333334,28.146530093229966L43.28697916666667,29.60415836660692L43.58619791666667,30.22493365783383L44.58359375,30.928356136298387L44.78307291666667,32.11908496430206L45.38151041666667,32.94971161831687L45.680729166666666,33.36891433191717L45.88020833333333,33.17842557102181L45.97994791666667,33.93778354652283L46.17942708333333,33.86755855346824L46.57838541666667,34.25076895122507L46.97734375,33.619523303980024L47.17682291666667,32.97072635726594L47.67552083333333,33.532458757038846L48.27395833333333,34.691180445699295L48.97213541666666,35.333552054476634L49.071875,35.176140438095445L49.57057291666666,33.58648543647614L49.6703125,34.21861216991441L49.96953125,33.48524270652453L50.069270833333334,34.26428775735501L50.169010416666666,33.945021269350924L50.567968750000006,34.38517916742459L50.66770833333334,34.758134739573066L50.86718750000001,35.18018078794027L51.16640625,34.84178167745864L51.665104166666666,33.43328490526146L51.76484375,34.098478731678775L51.864583333333336,34.40809100356852L52.0640625,34.79091369289167L52.36328125,35.268084429201096L52.46302083333334,36.04988917942358L52.56276041666666,36.659053053726964L52.861979166666664,36.79137239489313L53.161197916666666,35.94501283120555L53.75963541666667,36.864843021512115L53.95911458333334,38.0043034787485L54.25833333333334,37.30052187824729L54.35807291666667,37.46595591433676L54.55755208333333,35.2577061779966L54.657291666666666,35.86713743970811L55.15598958333333,37.58355810077032L55.25572916666667,38.144399517619L55.85416666666667,37.086578729910826L56.15338541666667,37.74343795624308L56.55234375,37.79246780304272L56.95130208333333,38.44145881380108L57.15078125,38.67142528697276L57.549739583333334,37.00728185588203L57.64947916666667,37.80378459291677L57.749218750000004,38.670413259760956L57.94869791666666,39.37306519480049L58.44739583333333,39.034648170573796L58.54713541666666,36.91305732842199L58.94609375,38.129240091197296L59.045833333333334,38.13525922544245L59.145572916666666,36.946198303471384L60.14296875,38.33252692842421L60.641666666666666,38.44651191947082L61.33984374999999,38.50168150035018L61.43958333333334,39.633460420857425L61.938281249999996,39.45593924602729L62.038020833333334,38.908512278085134L62.2375,38.940036489775885L62.43697916666667,39.77517688610534L62.8359375,39.43132257322641L63.73359375,39.63126532607521L63.93307291666667,41.19799120989247L64.0328125,40.66993085177254L64.33203125,38.01661959156017L64.93046875,39.5623662949054L65.72838541666667,40.53542479926467L65.828125,39.77323171017753L65.92786458333333,41.53336422752254L66.12734375,41.92390124438184L66.22708333333333,41.50109591063928L66.52630208333333,40.69545021213761L66.62604166666667,41.6381081835744L67.12473958333334,42.784756455031655L67.22447916666667,43.31585389481726L68.32161458333333,43.698533877940854L68.62083333333334,43.22193600931197L68.72057291666667,43.215950181985754L68.92005208333333,44.10732132335509L69.11953125000001,43.271186224886364L69.41875,43.729284741698L70.51588541666666,43.669573212310944L70.91484375,42.86851938558622L71.01458333333333,45.05693452694673L71.2140625,43.71305661198973L71.51328124999999,45.09816221644398L71.71276041666667,46.50031693130682L72.21145833333334,46.70606037842345L72.31119791666667,46.95061382061227L72.90963541666667,47.53268736672561L73.10911458333334,47.51336639821965L73.20885416666667,47.14185162604119L73.40833333333333,47.34896366727511L73.50807291666666,46.67722515253094L73.6078125,46.929384091849876L73.80729166666667,47.692836732139774L74.00677083333333,46.56676372402856L74.50546875,47.35361877475265L74.60520833333334,42.51391000386528L74.70494791666667,44.74546905573366L74.90442708333335,44.564717924180286L75.30338541666666,43.2275584875753L75.50286458333333,43.24861351400163L75.70234375,44.17014839840517L76.10130208333334,44.74206722987387L76.20104166666667,45.316763023383984L76.30078125,45.35300162680943L76.69973958333334,44.688710559041134L77.09869791666667,46.325544919321885L77.1984375,47.200506493044706L77.49765625,47.7926623814574L77.69713541666667,48.79833209815108L77.796875,48.85574192159294L77.89661458333335,48.92182996653695L77.99635416666666,49.08863826094547L78.09609375000001,49.70985840430374L78.19583333333333,49.2120384818261L78.3953125,49.696814720303806L78.49505208333332,49.59777971091415L78.99375,48.97928108818005L79.09348958333332,49.556185410982096L79.39270833333333,50.30568540147032L79.49244791666666,50.7800700565386L79.79166666666667,49.071327796165065L79.99114583333332,47.590147370448065L80.58958333333332,48.30286466738603L80.7890625,50.07357679233138L81.28776041666667,50.30222320639771L81.68671875000001,51.772537940387885L81.78645833333333,52.27351258444061L81.9859375,52.55497579211074L82.28515625,52.369150249479965L83.18281250000001,51.515405435070925L83.88098958333333,52.52162530515353L83.98072916666666,52.708875418949404L84.18020833333333,52.81830086782473L84.27994791666667,52.205160704105474L84.37968749999999,52.05820177350261L84.47942708333333,52.19319961111608L84.67890625,52.62648157348465L84.97812499999999,53.00173071153813L85.37708333333333,53.36669931232501L85.47682291666668,52.570735687815294L85.87578124999999,53.23730693916099L86.175,52.24320535882654L86.57395833333334,53.471512912997504L86.87317708333333,54.272407412105125L86.97291666666668,54.55220512296585L87.07265625,54.40041266357967L87.17239583333334,54.2994259777516L87.27213541666667,54.94667916365987L87.47161458333333,55.323953412328166L87.57135416666667,55.37918407546435L87.67109375,54.49147234626216L87.87057291666667,53.603135442625806L87.97031249999999,54.64076789713243L88.07005208333334,55.59740874722545L88.16979166666667,55.95226020718014L88.36927083333333,55.925085535841994L88.56875,55.7930836625086L88.66848958333334,55.46449204538813L89.36666666666667,55.37397898076419L89.66588541666667,54.67922314394295L89.86536458333333,55.35687571484826L90.06484375,55.874508217430844L90.3640625,55.316378754223834L90.56354166666665,54.56575648554038L90.76302083333334,55.469467357205595L91.16197916666665,54.94083939346675L91.5609375,56.454096052025925L91.86015625,56.71867257959725L91.95989583333333,55.692312273169904L92.05963541666667,56.85868058115223L92.159375,56.24225793103646L92.7578125,57.69841204774543L93.35625,58.21618367164915L93.55572916666667,58.23706439436084L93.65546875,58.87133150705632L93.75520833333334,56.29406120935726L94.05442708333334,56.930905588965345L94.35364583333335,56.40972678146236L94.45338541666666,55.9727449978848L94.75260416666666,56.65672123055986L94.85234375,57.16430570172352L94.95208333333333,57.428908411442876L95.1515625,56.39454657405253L95.35104166666666,57.15553083248433L95.94947916666666,57.17841924564538L96.24869791666666,58.18976519223237L96.3484375,56.15790159362834L96.64765625,58.29348194259234L96.74739583333333,58.17530519077165L96.84713541666666,56.96522350665744L97.04661458333332,58.079344539044364L97.14635416666667,58.262417639782285L97.74479166666667,59.52861866597038L98.14375,59.690300690025865L98.24348958333333,59.862661292573L98.44296875,59.95144728191761L98.64244791666667,60.11214649981811L98.84192708333333,58.63846737158802L98.94166666666666,59.07393256092714L99.04140625000001,59.55385971312227L99.14114583333333,59.88568529547242L99.24088541666667,60.0262931069535L99.54010416666667,60.02224019566275L99.73958333333333,59.65877073134157L99.9390625,58.98917971328005L100.23828125,60.71767567900737L100.43776041666666,61.19669233999544L100.53750000000001,60.6961550633339L100.63723958333333,60.879204867921494L101.03619791666667,60.17878422315596L101.23567708333333,59.70922071612713L101.33541666666667,60.879776825341025L101.53489583333332,61.521433125975044L101.83411458333333,61.5227585517761L102.23307291666667,61.212671129905985L102.53229166666667,62.07817940567447L102.83151041666667,62.05697299461843L102.93124999999999,61.954257687457094L103.13072916666667,61.428838672271276L103.33020833333333,62.26056430631162L103.5296875,61.96335871666923L104.02838541666667,61.99023888243247L104.32760416666667,61.711494534467846L104.52708333333334,61.846126364366185L104.82630208333333,61.72455138537474L105.62421875,63.146242116189256L105.72395833333333,63.58608009986143L106.02317708333334,63.61176706212284L106.42213541666668,64.36358433962096L106.62161458333334,62.82823731729099L106.72135416666667,62.209130647864484L107.1203125,63.08623905025259L107.31979166666667,64.03703224088154L107.41953124999999,64.07077259334311L107.71875,63.46054549352329L107.91822916666668,63.29656445584298L108.11770833333334,63.73049779041427L108.41692708333333,64.3786196428765L108.61640625,65.9035546134847L108.71614583333334,66.02373451042655L108.91562499999999,64.76783243446637L109.31458333333333,64.95163898246938L109.61380208333334,64.63355589597752L109.71354166666666,64.10162412509348L110.41171874999999,65.13109291595664L110.51145833333334,66.0523550195499L110.61119791666665,67.3165465642812L110.7109375,67.98422368550825L110.91041666666666,68.26371773421057L111.01015625,67.55659162859833L111.20963541666666,66.92259698852898L111.309375,66.34596697280664L111.40911458333333,66.6413075570796L111.70833333333334,66.97768783494183L111.80807291666666,66.22196020353731L111.9078125,67.0042432237372L112.00755208333334,67.05828312993846L112.20703125,66.22700342768059L112.80546875,66.53287940079433L112.90520833333333,67.33974905182737L113.20442708333334,66.22522925614352L113.90260416666666,67.96231996923963L114.20182291666666,67.83229187843794L114.9,68.37196628197873L114.99973958333334,69.40619880779634L115.09947916666667,69.5980220997064L115.29895833333335,69.72745786518796L115.39869791666666,68.87220938620959L115.49843750000001,69.46232810473951L115.79765625,69.19902333531684L115.89739583333332,68.94531617709342L116.096875,67.51063414900507L116.29635416666666,67.32256499650056L116.39609375,69.31270188438366L116.79505208333333,70.7102536205158L116.89479166666666,70.8044229482407L117.29375,70.34587869766408L117.39348958333332,70.30813860557879L117.49322916666667,71.12878406187195L117.59296875000001,71.02449805138971L117.8921875,71.10947422145883L117.99192708333332,70.35913360775673L118.09166666666667,70.773292501167L118.39088541666666,70.52118563275413L118.49062500000001,71.8733820143309L119.28854166666667,70.03721844265094L119.6875,69.81552033234036L119.88697916666666,69.415650558692L120.08645833333333,70.19476940168249L120.18619791666667,68.73438058370623L120.48541666666667,70.88696656782277L120.58515625000001,71.25553640562461L120.78463541666667,70.73263912700514L120.884375,71.12415599577793L120.98411458333334,71.2560520974842L121.08385416666667,70.66605090461739L121.38307291666666,70.81980631312132L122.18098958333333,71.6471042010808L122.38046874999999,72.6331578290068L122.57994791666667,72.4137537595989L122.77942708333333,71.07220160638887L122.87916666666668,70.20026354936975L123.17838541666667,71.68234927538252L123.37786458333333,69.71192920002129L123.47760416666667,71.33401127759858L123.57734375,72.64633207042702L123.87656249999999,72.44058102849365L124.07604166666667,71.40270910380795L124.77421874999999,73.54110069618022L124.87395833333333,73.13117145199246L125.17317708333333,72.34507841288247L125.37265624999999,73.58403635785784L125.97109375,74.65925599963379L126.07083333333334,74.44778713227714L126.2703125,74.69400576565083L126.46979166666668,75.97462440447629L126.86874999999999,76.57307423048049L127.26770833333333,76.58535604668498L127.4671875,76.26088511173204L127.66666666666667,76.24384286622485L127.96588541666665,76.96069099761925L128.065625,77.1068717137449L128.16536458333334,76.28683987743779L128.86354166666666,76.0258414578522L128.96328125,75.85538077715971L129.56171875,76.31177700123409L129.76119791666667,76.79329908909844L129.96067708333334,77.00268985472161L130.06041666666667,77.94439982984258L130.16015625,78.56822618526778L131.0578125,78.00834860527338L131.25729166666667,77.41579034231967L131.55651041666667,77.32387611535621L131.95546875,78.27619591174128L132.15494791666666,79.07621493997166L132.2546875,78.00259868880164L132.65364583333334,78.51510378638366L132.75338541666667,78.8915512310064L132.95286458333334,79.11019787640377L133.05260416666667,77.91479693323973L133.15234375,77.72677910097515L133.4515625,77.71182674882797L133.55130208333335,77.76290946264429L134.54869791666667,78.07945155025853L134.74817708333333,77.88580302549204L134.84791666666666,78.6071317852136L135.14713541666666,78.221144736019L135.24687500000002,77.59512174652734L135.34661458333332,75.75029896300778L135.64583333333331,77.85670354554674L135.74557291666667,78.30749240102709L135.8453125,79.20769010788747L137.34140625,80.13396034551162L137.640625,80.85456577487291L137.84010416666666,80.59028032578102L137.93984375,79.76188391114944L138.13932291666666,79.74791752581913L138.23906250000002,80.72162294983508L138.53828125,80.10692200336925L138.8375,81.15160442839222L138.93723958333334,81.41560102373454L139.03697916666667,81.79516907938093L139.13671875,82.12492238355908L139.33619791666666,83.58392796866607L139.53567708333333,82.77310635504347L139.73515625000002,82.7012909523083L139.93463541666668,82.88273051381138L140.034375,82.21958688071814L140.23385416666667,82.5056445310798L140.43333333333334,83.00775868868833L140.6328125,83.51779553739686L140.73255208333333,83.27345568634716L140.83229166666666,83.08450057070898L140.93203125,82.1371380854761L141.03177083333333,82.60101181595502L142.02916666666667,82.35095966569257L142.428125,82.17839959091945L142.82708333333332,83.17672724365254L142.92682291666668,83.6290175539029L143.02656249999998,83.95757702207911L143.22604166666667,84.36900291316375L143.52526041666667,83.80587952674172L143.82447916666666,83.7144931941247L144.02395833333333,83.81098983562939L144.32317708333332,83.76144322083566L144.52265624999998,84.07870461113386L144.92161458333334,82.89929436527825L145.02135416666667,82.5497904166L145.12109375,82.87270343653576L145.32057291666666,83.2687058980682L145.4203125,84.74808719284135L145.71953125,85.05251873023815L145.81927083333335,83.57269157632123L145.91901041666668,83.06675882309464L146.01874999999998,84.3447392516379L146.21822916666667,84.06117203347436L146.71692708333333,84.22001015934592L147.01614583333333,84.48214729390206L147.51484375,84.94899787079575L147.71432291666665,85.13263942769508L148.11328125,86.07300401227764L148.31276041666666,86.64254091422866L148.71171875,86.89883312811833L148.81145833333335,87.5351439821828L148.91119791666665,86.10098435160741L149.0109375,85.73549374490172L149.21041666666667,85.72380613245653L149.50963541666667,86.98896905414257L149.609375,87.33948098627496L149.8088541666667,87.34909038292882L149.90859375,87.77820559214916L150.60677083333331,86.76596551205394L150.80625,86.5785080530471L151.10546875,87.20643517262242L151.20520833333333,86.58379370332233L151.50442708333333,86.86030612377039L151.60416666666669,87.91585806260278L152.10286458333331,88.33880578343219L152.20260416666667,86.81916135724018L152.30234375,87.93388131621006L152.6015625,87.10537363421716L152.8010416666667,85.74628231978637L152.90078125,85.65477753570552L153.00052083333333,86.46575601291327L153.10026041666669,87.91829202153146L153.20000000000002,87.42917931339147L153.29973958333332,87.95888777275341L153.89817708333334,87.78920352961013L154.396875,87.56209026024828L154.49661458333333,87.33932292097178L154.59635416666669,88.39442572715757L155.09505208333331,88.7999442611934L155.4940104166667,88.38432601999904L155.69348958333333,88.89009617003514L155.7932291666667,89.49108372043627L156.19218750000002,87.91446025488837L156.59114583333331,87.2590347453751L157.28932291666666,89.0628452017783L157.48880208333333,89.24804933755868L157.78802083333332,90.16716461796838L157.9875,90.92832123716809L158.08723958333334,90.71364772691128L158.38645833333334,89.60855667813897L158.48619791666664,89.57201566625488L158.68567708333333,89.93361633530853L158.78541666666666,88.13812333054304L159.08463541666666,88.65151735028941L160.78020833333332,89.45696216580632L160.87994791666665,88.80317534744871L160.9796875,90.40528028367325L161.07942708333334,90.355451876869L161.47838541666667,90.74767004972283L161.77760416666666,91.36800551472314L162.17656250000002,91.03505098513827L162.27630208333332,90.64073287575965L162.37604166666665,91.8653167843024L162.775,91.07914136234693L162.87473958333334,91.46158745347296L162.97447916666667,90.6297892989532L163.17395833333333,92.48858658443784L163.37343750000002,86.62955465299423L163.57291666666666,88.27475738242505L163.77239583333335,89.16158349003678L164.37083333333334,88.06810972929341L164.5703125,67.95097260550295L165.06901041666666,75.58599741980812L165.16875000000002,43.17574466814115L166.06640625000003,57.29384935825773L166.16614583333333,68.67001599116664L167.26328125,75.11715236246994L167.66223958333333,78.8064212872155L167.76197916666666,81.15881718665338L168.06119791666666,82.95899145116962L168.16093750000002,83.97237782663439L168.46015624999998,83.13752951188118L168.65963541666667,83.84992289010337L168.75937499999998,84.64888500847609L168.85911458333334,85.08157022148144L169.55729166666666,83.44180837652377L169.65703125,84.63634651360262L169.75677083333335,84.15651205114078L169.85651041666665,84.77624493711409L170.15572916666667,85.24108562564213L170.35520833333334,84.38824235700498L170.45494791666667,84.64633696344964L170.55468749999997,85.57639489810151L170.65442708333333,85.91742580931816L171.153125,85.76578642692739L171.35260416666665,86.3577669044614L171.85130208333334,86.39455726029159L171.95104166666667,86.54578761370844L172.25026041666666,86.96934314862581L172.94843749999998,85.7441161888581L173.14791666666667,85.91502758881185L174.1453125,85.78178850850475L174.34479166666668,85.51083782765447L174.44453124999998,86.8005398070576L174.64401041666667,87.55617063803618L174.74374999999998,88.28874843711685L174.94322916666667,88.45391198036094L175.04296875,87.59032773653024L175.64140625,88.46292101805166L175.74114583333335,87.2184039049943L176.33958333333334,87.3162441786289L176.43932291666667,87.84816437238555L177.33697916666668,88.0892708615905L177.7359375,87.98759740944524L177.93541666666667,88.92504045664477L178.334375,88.0809219812448L178.93281249999998,88.43094727095253L179.23203125,89.0446714749285L179.43151041666667,88.17858080636127L179.73072916666666,89.42921598978948L179.93020833333335,89.74363722937176L180.02994791666669,89.8882097020814L180.42890624999998,89.97654159840079L180.52864583333334,89.49079722662731L180.728125,89.54530446316494L180.8278645833333,89.70190499518587L181.02734375,90.08658848835734L181.3265625,91.35023786888459L181.42630208333333,90.81152127117905L181.52604166666669,90.78562276833136L181.92499999999998,91.0788395685044L182.12447916666667,91.51328805833722L182.22421875,91.40305915070232L182.3239583333333,92.04810388271179L182.5234375,92.97811565713297L182.72291666666666,92.56483382277275L182.92239583333333,92.20690533778335L183.22161458333332,91.7636350740951L183.52083333333331,88.54208067868207L183.62057291666667,89.56921208475178L183.7203125,90.6581637450789L184.01953125,90.77283973286102L184.21901041666666,89.84586577034581L184.31875,89.96299377076635L184.61796875,90.62009812163427L184.71770833333332,90.72323742370077L185.01692708333331,90.28887177877927L185.41588541666667,91.92175430026491L185.515625,91.13638385173923L185.61536458333333,92.24399044876502L186.31354166666668,92.42684582587349L186.51302083333331,90.95870748418899L186.61276041666667,91.15152113336181L186.7125,91.8916810417899L187.01171875,92.33979530720285L187.11145833333333,93.16202319785407L187.3109375,93.241172228431L187.70989583333332,92.60477116782555L187.80963541666668,92.728271298369L187.909375,92.29563135158348L188.20859375,92.46295451416228L188.60755208333333,92.82731835080519L188.7072916666667,92.48794788652943L188.90677083333333,93.08421871469702L189.00651041666669,93.2218078118086L189.10625,93.6229968564054L189.20598958333332,94.01715579947731L189.40546875,93.46373232027999L189.7046875,93.4591701292547L189.80442708333334,94.62406407292286L189.90416666666667,93.61735803865466L190.00390625,93.53885651391023L190.40286458333333,91.49418962114959L190.50260416666669,92.24482021059083L191.00130208333331,93.0489489838723L191.20078125,92.93292932030732L191.30052083333334,91.85747640321955L191.40026041666667,92.9823123582194L191.79921875,93.90533854430002L192.09843750000002,94.43122486817461L192.29791666666668,94.8202941075677L192.59713541666667,93.96482176090991L192.696875,91.86176762712002L192.79661458333334,92.84277872028011L192.8963541666667,93.51939798974514L192.99609375,95.08623247409261L193.1955729166667,94.72228271914446L193.39505208333333,95.12923820535666L193.69427083333332,95.51559504614751L193.79401041666665,95.50197635141899L193.99348958333331,94.60482511378629L194.09322916666665,95.09315095816434L194.19296875,95.46694453215655L194.4921875,95.61168848922627L194.69166666666666,94.56613241617632L194.79140625,95.60043850361727L194.89114583333333,96.02468949704166L195.6890625,96.09453801005363L195.78880208333334,97.12232516307911L196.08802083333333,94.09648826692359L196.58671875000002,94.02457825525913L196.98567708333334,95.74332143348472L197.58411458333333,97.45824441430749L197.68385416666666,96.35274015139211L197.88333333333333,96.38162419446425L198.28229166666665,96.22682888570583L198.38203125,96.8902083216753L198.48177083333334,96.96233977463011L198.68125,93.17421445088996L198.78098958333334,93.55161674862408L198.88072916666667,95.17573034449742L199.27968750000002,96.02208513684808L199.67864583333332,96.11844819841569L199.878125,97.33579032625852L199.97786458333334,96.87287085996584L200.77578125000002,96.87221838084768L200.87552083333333,98.0285841936174L201.17473958333335,98.14730613402062L201.47395833333334,98.30705632380139L201.87291666666667,98.97281193671945L202.07239583333333,97.74799571000531L202.47135416666666,98.27468396164772L202.97005208333334,98.48622300843219L203.06979166666665,98.41934796259977L203.46875000000003,97.12529115387647L203.56848958333333,98.2201017989107L203.86770833333333,96.73604553064037L203.96744791666666,97.47892682879507L204.06718750000002,97.8228589670193L204.36640625,98.57475434570927L204.665625,99.17976632442299L204.76536458333334,99.59972598815267L204.96484375000003,99.64974784395537L205.16432291666666,98.6621728597284L205.26406250000002,98.64066102000139L205.36380208333333,99.13887602026499L206.06197916666667,99.20618292395274L206.26145833333334,99.78981633265359L206.36119791666667,99.62292075749534L206.95963541666666,98.30224709866225L207.059375,98.28564548841923L207.15911458333335,97.27635225778194L207.35859374999998,97.44665893135547L207.55807291666667,97.54290639462347L207.85729166666667,95.24851638054501L208.55546875,97.73755505581376L208.65520833333335,97.08611913774502L208.75494791666665,98.72122098869822L209.65260416666666,100.20708086581503L210.0515625,100.16894976874786L210.55026041666667,100.49155693400263L210.64999999999998,100.5848329782814L210.74973958333334,99.78474601543213L211.04895833333333,99.52626407065891L211.14869791666666,99.87370260394667L211.2484375,101.31622415854197L211.34817708333335,101.67149892067538L211.74713541666668,100.89822918202994L211.84687499999998,101.6298340475437L211.94661458333334,101.11892011345401L212.24583333333334,100.28252820463422L212.4453125,101.07702939684059L212.64479166666666,100.75352417300773L212.84427083333335,101.29051283776286L212.94401041666666,99.76089571753285L213.04375,101.3799296446136L213.24322916666668,101.16088197565453L213.34296874999998,102.06386652125173L213.84166666666667,101.66812030054226L214.14088541666666,103.17959012051962L214.34036458333335,103.31633193682246L214.63958333333335,102.32771896952754L214.93880208333334,102.79190538052201L215.03854166666667,102.54415063863512L215.23802083333334,102.24659319744673L215.4375,103.02896353532857L216.0359375,103.01881363264995L216.13567708333335,102.52239524288345L216.33515624999998,102.03958749493833L216.53463541666667,102.03508597616309L217.43229166666669,102.63663059134797L217.53203125,103.45457400561794L217.63177083333335,104.12628572308162L217.73151041666668,103.97088505188225L218.92838541666669,103.44807116773912L219.12786458333332,103.57023843025335L219.32734374999998,104.12313878133142L219.52682291666667,103.78178608175662L219.92578125,103.48384861460399L220.02552083333333,103.72476901852872L220.12526041666666,103.7550804374103L220.32473958333333,104.38358637181683L220.42447916666669,105.0777892448343L220.72369791666668,105.3202791388108L220.82343749999998,103.43649219467738L220.92317708333331,104.31442958368703L221.12265625,104.8413072073263L221.62135416666666,104.23693528777032L221.92057291666669,104.6174564711023L222.12005208333332,105.21840594889761L222.21979166666668,105.50721939527502L222.41927083333331,104.59242051743146L222.7184895833333,103.93633060908209L223.01770833333333,104.4072218050201L223.2171875,105.42513461085281L223.51640625,105.41975519844878L223.815625,104.77477850958527L223.91536458333331,105.61842189951773L224.2145833333333,105.6903795540914L224.4140625,105.00589016662407L224.51380208333333,104.95224018190977L225.31171875,104.26315666527641L225.41145833333331,105.53587695618839L225.6109375,103.46175286482283L226.1096354166667,104.04387419323713L226.60833333333332,104.1900435705731L226.70807291666668,104.25427427750185L226.8078125,104.67397718432076L227.00729166666667,105.59704758236894L227.10703125,105.6806699502218L227.30651041666667,106.51431641301288L227.50598958333333,106.6680217685405L227.80520833333333,106.60613621230402L227.90494791666669,106.05535222691158L228.30390625,103.91954289437449L228.80260416666667,104.18495664079514L229.00208333333333,103.57773271250444L229.60052083333332,102.74753510043791L229.70026041666668,104.57147461141894L229.8,103.94954021467503L229.89973958333331,103.5423184308462L229.99947916666667,104.74248665155146L230.2986979166667,105.08592643317856L230.49817708333333,105.46839020068383L230.79739583333333,105.37566319014732L230.89713541666666,105.73986992183987L231.19635416666665,105.78938442520214L231.39583333333331,106.46553829258116L231.5953125,105.99238975781886L231.69505208333334,105.48385785611258L231.79479166666664,106.2139836568002L232.19375,105.92545248209194L232.59270833333332,105.7752420833888L232.69244791666665,106.52043904166798L232.7921875,107.37292377362054L233.19114583333334,106.25321299132774L233.29088541666664,106.35997307307335L233.49036458333333,106.96826902461706L233.59010416666666,107.28360930513367L233.78958333333333,106.23259903023684L233.88932291666666,106.17370503222116L233.98906250000002,106.81073887648427L234.18854166666665,106.83240890206244L234.28828125,108.05267852877672L234.38802083333334,106.43660736794615L234.48776041666665,104.95308527691654L234.78697916666664,104.08579302634888L234.98645833333333,105.22964858126866L235.08619791666666,106.30064030526843L235.68463541666665,106.00052210626546L235.784375,106.25388172231642L235.88411458333334,107.05911463050985L236.28307291666667,107.173485574418L236.48255208333333,107.09833617900571L236.68203125000002,107.07203710016468L237.08098958333332,107.25270428960495L237.77916666666667,106.62656679743937L238.07838541666666,106.9171664382397L238.27786458333333,106.8829191349034L238.47734375000002,107.36395268060983L238.57708333333335,105.70833748317408L238.7765625,105.83964942877337L238.97604166666665,106.89675573697593L239.17552083333334,106.49886531603025L239.27526041666667,106.86608625548381L239.375,106.48647291973754L239.67421875000002,106.85203283566122L239.77395833333333,105.61987484077487L240.07317708333335,107.35438852315214L240.17291666666665,107.92081367768174L240.47213541666665,107.18650165505177L240.77135416666667,107.26124644547596L241.17031250000002,108.06783057101222L241.76875,109.02038340392586L241.86848958333334,109.00141237834534L242.16770833333334,108.12991277713101L242.26744791666667,108.12635121547295L242.46692708333333,109.08267947318024L242.66640625000002,108.88825699769862L242.76614583333333,109.43993724719442L242.96562500000002,108.83097369104651L243.06536458333335,107.94298231806941L243.26484374999998,108.53250291470638L243.36458333333334,109.07001280926609L243.46432291666667,108.56787065182465L243.56406249999998,108.70104654227015L243.76354166666667,108.93002642662204L243.96302083333333,109.09185529972495L244.06276041666666,109.15102836113118L244.46171875,106.73130087200796L244.56145833333335,107.92293230891906L244.76093749999998,109.63411511132102L245.06015624999998,108.19907369957896L245.25963541666667,108.90062740804956L245.55885416666666,109.02009345423787L246.15729166666665,109.13874159652953L246.75572916666667,109.63826839650763L247.1546875,109.98094800853359L247.45390625,110.72272266167009L247.95260416666667,108.81749443030633L248.15208333333334,108.71712738676918L248.45130208333333,109.27960980009041L249.04973958333335,109.87584440069286L249.14947916666668,109.37645948367307L249.34895833333334,109.28159675518013L249.64817708333334,109.93459895222131L249.94739583333333,108.43935386519875L250.04713541666666,109.41067000224652L250.146875,109.15337852406606L251.04453124999998,109.0914492559235L251.14427083333334,109.7071365872673L251.24401041666667,109.56406642468964L251.34375,110.01060448570368L251.54322916666666,107.5718648172985L251.74270833333335,108.59159257550745L252.04192708333335,109.52627471666503L252.14166666666668,109.34857395126717L252.540625,110.84411504936224L252.74010416666667,110.69483458442693L252.83984375,108.57902887216844L252.93958333333336,109.86365000457548L253.03932291666666,109.8208110267408L253.83723958333334,110.8411404502512L254.73489583333335,111.44596592941325L254.934375,111.46763743205504L255.23359374999998,110.23846765646377L255.73229166666667,110.89542723214906L256.03151041666666,111.02607682399577L256.13125,111.39021474750415L256.43046875,111.51964575088111L256.5302083333333,110.31977433668939L256.8294270833333,109.95535764945537L257.12864583333334,110.09085697869823L257.328125,111.01554915273408L257.52760416666666,111.85425624400338L257.8268229166667,111.17049485619555L258.12604166666665,111.48283969609213L258.22578125,111.44130176709201L258.3255208333333,111.85714776928319L258.525,111.64807941343584L259.3229166666667,112.00566499981146L259.52239583333335,112.22692527334182L259.721875,111.454087347407L259.9213541666667,111.51376536184823L260.4200520833333,113.24648800139762L260.91875,112.89349348759308L261.3177083333333,113.28279215600624L261.7166666666667,112.43614402289539L261.81640625,112.4950099196838L261.9161458333333,113.66988097469846L262.3151041666667,114.0821221997788L262.41484375,113.36281959595982L262.51458333333335,111.64227144605681L262.61432291666665,112.79734567642839L262.9135416666667,113.47957809557609L263.4122395833333,113.26504845494085L263.7114583333333,112.57911428512709L263.9109375,111.855042679745L264.3098958333333,112.58036166305764L264.4096354166667,112.78777224772996L264.509375,112.90987841800008L264.60911458333334,112.55105870417704L264.80859375,112.41924705689604L265.00807291666666,112.49267800032938L265.3072916666667,114.24902726212477L265.6065104166667,114.21566169516984L265.70625,114.05947173612222L265.9057291666667,114.12186477766576L266.10520833333334,112.19692099716237L266.8033854166667,112.79239764246071L267.1026041666667,112.3652078262645L267.20234375,113.291411410585L267.4018229166667,112.76169114076279L267.60130208333334,113.21238517875524L267.80078125,113.80713364805952L267.9005208333333,112.49175398459029L268.1,113.01515891072576L268.39921875,112.63168620162517L268.59869791666665,113.4805385671796L268.8979166666667,112.86712715642103L269.09739583333334,112.18035378397799L269.3966145833333,111.92755905252618L269.49635416666666,112.39291021843762L269.59609375,112.74168733131891L270.59348958333334,112.9967265602555L270.69322916666664,112.89760958923819L270.8927083333333,113.02653970243034L270.99244791666666,113.57974983747557L271.0921875,113.77083221373412L271.1919270833333,114.43227512758303L271.49114583333335,113.92655385719819L271.59088541666665,112.97306501891747L271.7903645833333,111.77430289488669L272.08958333333334,113.60953818943794L272.2890625,114.18069031434986L272.48854166666666,112.08476069500115L272.6880208333333,112.30948418592594L273.58567708333334,113.1469362663425L273.68541666666664,114.7872384532041L273.98463541666666,114.63821098639475L274.1841145833333,115.07775897131422L274.38359375,114.27494624037607L274.48333333333335,113.64403874827576L274.58307291666665,114.36163238974305L274.7825520833333,113.78432859526637L274.8822916666667,114.40230925323789L275.18151041666664,113.25894021655454L275.77994791666663,113.77885262426082L275.8796875,113.62373034766266L276.07916666666665,111.51634113130964" style="fill: none;" fill="none"></path></g><g><path stroke="rgb(0, 119, 187)" stroke-width="2px" d="M269.296875,101.51474591663904Z" style="fill: none;" fill="none"></path></g></g></g></g><g opacity="0.2"><g><g><g><path stroke="rgb(255, 112, 67)" stroke-width="2px" d="M21.444010416666668,-13.005717005048467L21.74322916666667,31.59480163029263L21.842968749999997,35.12425463540213L21.942708333333332,30.295771053859163L22.34166666666667,33.97719029017856L23.538541666666667,23.48161397661481L23.9375,16.49145834786551L24.136979166666666,24.414533615112305L24.336458333333333,17.11359473637173L24.436197916666668,22.16232204437256L24.63567708333333,18.08082893916538L24.83515625,20.10316930498395L25.234114583333334,14.322341373988557L25.33385416666667,19.753148623875212L25.433593750000004,17.977994373866487L25.53333333333333,15.930530411856509L25.633072916666666,20.452062334333156L26.23151041666667,20.14250373840332L26.430989583333332,23.720591272626613L26.530729166666667,17.81032589503696L26.63046875,21.211735861642026L26.730208333333334,18.672251973833347L27.029427083333335,19.863803999764585L27.12916666666667,17.05407169886997L27.228906249999998,21.360282761710025L27.328645833333333,18.047811780657078L27.82734375,23.62270382472446L28.326041666666665,22.892058236258364L28.625260416666666,17.13310432434082L28.725,22.803543635777068L29.3234375,24.616152899605893L30.121354166666666,8.064274242946077L30.420572916666668,22.619797025408054L30.5203125,18.362572125026155L31.218489583333334,15.83104242597308L31.517708333333335,18.73031997680664L31.717187499999998,20.6646671295166L32.415364583333336,22.161994661603664L32.51510416666667,20.418014526367188L32.81432291666667,21.78695951189313L32.9140625,21.056022916521336L33.612239583333334,22.063876833234524L33.811718750000004,25.68728869301932L34.01119791666667,24.163685662405825L34.1109375,21.81244686671665L34.21067708333333,26.38245568956647L34.908854166666664,25.29594503130231L35.407552083333336,26.494529724121094L35.60703125,29.066424506051206L35.70677083333333,26.553798130580354L36.10572916666667,26.613442420959473L36.40494791666667,23.35948807852609L36.604427083333334,28.92031478881836L36.704166666666666,26.714227812630796L37.00338541666667,24.831352506365086L37.60182291666667,30.993799618312288L37.7015625,28.3335599899292L37.90104166666667,30.4453728539603L38.20026041666667,25.924265316554475L38.39973958333333,28.764213834490086L38.49947916666667,31.813638823372983L38.69895833333333,27.57297706604004L38.8984375,27.4664079121181L38.99817708333333,28.202182497297024L39.696354166666666,29.965938976832796L40.49427083333333,31.265127182006836L40.59401041666666,28.646453039986753L40.69375,30.63737678527832L41.092708333333334,28.943280083792544L42.09010416666666,30.413713727678562L42.189843749999994,27.520110811506008L42.389322916666664,29.96814577920096L42.78828125,32.42232826777866L43.0875,25.7908992767334L43.18723958333334,27.373419080461765L43.28697916666667,31.790600776672363L43.58619791666667,31.156096594674253L44.58359375,31.98348985399518L44.78307291666667,33.90517820630755L45.38151041666667,34.19565159933908L45.680729166666666,33.997718402317595L45.88020833333333,32.892692429678775L45.97994791666667,35.07682050977435L46.17942708333333,33.76222106388638L46.57838541666667,34.82558454786029L46.97734375,32.67265483311245L47.17682291666667,31.997530937194824L47.67552083333333,34.37505735669818L48.27395833333333,36.429262978690005L48.97213541666666,36.29710946764264L49.071875,34.94002301352365L49.57057291666666,31.20200293404715L49.6703125,35.16680227007184L49.96953125,32.38518851143973L50.069270833333334,35.432855333600735L50.169010416666666,33.46612153734479L50.567968750000006,35.04541601453509L50.66770833333334,35.31756809779575L50.86718750000001,35.81324986049106L51.16640625,34.33418301173618L51.665104166666666,31.32053974696567L51.76484375,35.09626947130475L51.864583333333336,34.87250941140311L52.0640625,35.3651477268764L52.36328125,35.98384053366525L52.46302083333334,37.22259630475726L52.56276041666666,37.572798865182065L52.861979166666664,36.989851406642366L53.161197916666666,34.67547348567417L53.75963541666667,38.244588306971956L53.95911458333334,39.71349416460309L54.25833333333334,36.24484947749546L54.35807291666667,37.71410696847098L54.55755208333333,31.945331573486328L54.657291666666666,36.78128433227539L55.15598958333333,40.15818909236362L55.25572916666667,38.985661642892026L55.85416666666667,35.49984754834857L56.15338541666667,38.72872679574149L56.55234375,37.86601257324219L56.95130208333333,39.414945329938625L57.15078125,39.016374996730256L57.549739583333334,34.511066709245945L57.64947916666667,38.9985386984689L57.749218750000004,39.970356260027195L57.94869791666666,40.4270430973598L58.44739583333333,38.52702263423374L58.54713541666666,33.73067106519427L58.94609375,39.95351423536029L59.045833333333334,38.14428792681012L59.145572916666666,35.1626069205148L60.14296875,40.41201986585345L60.641666666666666,38.61748940604074L61.33984374999999,38.58443587166922L61.43958333333334,41.33112880161831L61.938281249999996,39.18965748378208L62.038020833333334,38.087371826171875L62.2375,38.98732280731201L62.43697916666667,41.027887480599546L62.8359375,38.91554110390799L63.73359375,39.93117945534842L63.93307291666667,43.548080035618376L64.0328125,39.877840314592625L64.33203125,34.036652701241636L64.93046875,41.880986349923276L65.72838541666667,41.99501255580356L65.828125,38.62994207654681L65.92786458333333,44.17356300354004L66.12734375,42.50970676967075L66.22708333333333,40.866887910025454L66.52630208333333,39.486981664385105L66.62604166666667,43.05209514072964L67.12473958333334,44.5047288622175L67.22447916666667,44.11250005449567L68.32161458333333,44.27255385262625L68.62083333333334,42.50703920636859L68.72057291666667,43.20697144099643L68.92005208333333,45.444378035409116L69.11953125000001,42.01698357718332L69.41875,44.416432516915464L70.51588541666666,43.58000591823032L70.91484375,41.66693864549909L71.01458333333333,48.33955723898752L71.2140625,41.69723973955426L71.51328124999999,47.17582062312534L71.71276041666667,48.603549003601074L72.21145833333334,47.01467554909842L72.31119791666667,47.317443983895444L72.90963541666667,48.40579768589566L73.10911458333334,47.484384945460725L73.20885416666667,46.58457946777344L73.40833333333333,47.65963172912598L73.50807291666666,45.6696173804147L73.6078125,47.30762250082834L73.80729166666667,48.83801569257464L74.00677083333333,44.87765421186175L74.50546875,48.5339013508388L74.60520833333334,35.25434684753418L74.70494791666667,48.0928076335362L74.90442708333335,44.293591226850246L75.30338541666666,41.221819332667756L75.50286458333333,43.28019605364118L75.70234375,45.552450725010466L76.10130208333334,45.599945477076936L76.20104166666667,46.1788067136492L76.30078125,45.40735953194754L76.69973958333334,43.692273957388736L77.09869791666667,48.78079645974295L77.1984375,48.51294885362897L77.49765625,48.68089621407645L77.69713541666667,50.30683667319162L77.796875,48.94185665675571L77.89661458333335,49.020962033952976L77.99635416666666,49.338850702558254L78.09609375000001,50.64168861934116L78.19583333333333,48.46530859810965L78.3953125,50.42397907802036L78.49505208333332,49.44922719682965L78.99375,48.05153315407889L79.09348958333332,50.42154189518521L79.39270833333333,51.42993538720267L79.49244791666666,51.491647039140965L79.79166666666667,46.50821440560477L79.99114583333332,45.36837673187256L80.58958333333332,49.37194061279297L80.7890625,52.729644979749416L81.28776041666667,50.64519282749722L81.68671875000001,53.97801004137311L81.78645833333333,53.02497455051968L81.9859375,52.9771706036159L82.28515625,52.09041193553379L83.18281250000001,50.23478821345737L83.88098958333333,54.03095511027744L83.98072916666666,52.989750589643215L84.18020833333333,52.982439041137695L84.27994791666667,51.28545045852661L84.37968749999999,51.83776337759836L84.47942708333333,52.39569636753628L84.67890625,53.276404517037534L84.97812499999999,53.564604418618345L85.37708333333333,53.91415221350534L85.47682291666668,51.376790251050686L85.87578124999999,54.23716381617954L86.175,50.752052988324856L86.57395833333334,55.31397424425397L86.87317708333333,55.4737491607666L86.97291666666668,54.97190168925693L87.07265625,54.17272397450039L87.17239583333334,54.14794594900949L87.27213541666667,55.91755894252231L87.47161458333333,55.88986478533063L87.57135416666667,55.46203007016864L87.67109375,53.159904752458836L87.87057291666667,52.27063008717129L87.97031249999999,56.1972165788923L88.07005208333334,57.03237002236502L88.16979166666667,56.484537397112156L88.36927083333333,55.88432352883475L88.56875,55.595080852508545L88.66848958333334,54.97160461970737L89.36666666666667,55.238209383828305L89.66588541666667,53.63708938871112L89.86536458333333,56.373354571206235L90.06484375,56.65095697130475L90.3640625,54.47918455941336L90.56354166666665,53.43982308251517L90.76302083333334,56.82503366470337L91.16197916666665,54.14789744785855L91.5609375,58.72398103986468L91.86015625,57.11553737095425L91.95989583333333,54.15277181352887L92.05963541666667,58.6082330431257L92.159375,55.31762395586286L92.7578125,59.88264322280884L93.35625,58.9928411075047L93.55572916666667,58.268385478428435L93.65546875,59.822732176099514L93.75520833333334,52.42815576280866L94.05442708333334,57.886172158377505L94.35364583333335,55.62795857020786L94.45338541666666,55.31727232251849L94.75260416666666,57.682685579572414L94.85234375,57.92568240846906L94.95208333333333,57.82581247602191L95.1515625,54.84300381796701L95.35104166666666,58.297007220132016L95.94947916666666,57.21275186538696L96.24869791666666,59.70678411211286L96.3484375,53.11010619572232L96.64765625,61.4968524660383L96.74739583333333,57.99804006304059L96.84713541666666,55.15010098048618L97.04661458333332,59.75052608762469L97.14635416666667,58.53702729088919L97.74479166666667,61.427920205252505L98.14375,59.9328237261091L98.24348958333333,60.1212021963937L98.44296875,60.08462626593454L98.64244791666667,60.35319532666888L98.84192708333333,56.427948679242824L98.94166666666666,59.72713034493582L99.04140625000001,60.273750441414975L99.14114583333333,60.38342366899762L99.24088541666667,60.237204824175144L99.54010416666667,60.016160828726626L99.73958333333333,59.1135665348598L99.9390625,57.984793186187744L100.23828125,63.31041962759836L100.43776041666666,61.91521733147757L100.53750000000001,59.945349148341585L100.63723958333333,61.15377957480295L101.03619791666667,59.1281532560076L101.23567708333333,59.004875455583836L101.33541666666667,62.6356109891619L101.53489583333332,62.48391757692609L101.83411458333333,61.524746690477635L102.23307291666667,60.74753999710083L102.53229166666667,63.37644181932721L102.83151041666667,62.02516337803433L102.93124999999999,61.80018472671509L103.13072916666667,60.64071014949253L103.33020833333333,63.508152757372166L103.5296875,61.51755033220563L104.02838541666667,62.03055913107736L104.32760416666667,61.29337801252093L104.52708333333334,62.04807410921369L104.82630208333333,61.54218891688755L105.62421875,65.27877821241107L105.72395833333333,64.24583707536969L106.02317708333334,63.650297505514956L106.42213541666668,65.4913102558681L106.62161458333334,60.52521678379605L106.72135416666667,61.280470643724705L107.1203125,64.40190165383476L107.31979166666667,65.46322202682495L107.41953124999999,64.12138312203544L107.71875,62.545204843793606L107.91822916666668,63.05059289932251L108.11770833333334,64.3813977922712L108.41692708333333,65.35080242156982L108.61640625,68.19095706939697L108.71614583333334,66.20400435583932L108.91562499999999,62.88397932052612L109.31458333333333,65.22734880447388L109.61380208333334,64.15643126623971L109.71354166666666,63.30372646876743L110.41171874999999,66.67529610225132L110.51145833333334,67.43424817493984L110.61119791666665,69.21283388137817L110.7109375,68.98573936734881L110.91041666666666,68.68295880726406L111.01015625,66.49590247017997L111.20963541666666,65.97160502842495L111.309375,65.4810219492231L111.40911458333333,67.08431843348912L111.70833333333334,67.48225825173515L111.80807291666666,65.08836875643048L111.9078125,68.17766775403705L112.00755208333334,67.13934298924038L112.20703125,64.98008387429374L112.80546875,66.99169336046491L112.90520833333333,68.55005352837699L113.20442708333334,64.55344956261771L113.90260416666666,70.56795603888375L114.20182291666666,67.63724974223545L114.9,69.18147788728986L114.99973958333334,70.95754759652274L115.09947916666667,69.8857570375715L115.29895833333335,69.9216115134103L115.39869791666666,67.58933666774205L115.49843750000001,70.34750618253436L115.79765625,68.80406618118286L115.89739583333332,68.5647554397583L116.096875,65.35861110687256L116.29635416666666,67.0404612677438L116.39609375,72.29790721620832L116.79505208333333,72.80658122471401L116.89479166666666,70.94567693982806L117.29375,69.65806232179914L117.39348958333332,70.25152846745083L117.49322916666667,72.35975224631173L117.59296875000001,70.86806903566632L117.8921875,71.2369384765625L117.99192708333332,69.23362268720355L118.09166666666667,71.39453084128243L118.39088541666666,70.1430253301348L118.49062500000001,73.90167658669608L119.28854166666667,67.28297308513096L119.6875,69.48297316687447L119.88697916666666,68.81584589821952L120.08645833333333,71.36344766616821L120.18619791666667,66.54379735674176L120.48541666666667,74.11584554399762L120.58515625000001,71.80839116232735L120.78463541666667,69.94829320907593L120.884375,71.71143129893711L120.98411458333334,71.4538962500436L121.08385416666667,69.7810491153172L121.38307291666666,71.05043942587716L122.18098958333333,72.88805103302002L122.38046874999999,74.11223827089582L122.57994791666667,72.08464765548706L122.77942708333333,69.05987337657383L122.87916666666668,68.89235646384103L123.17838541666667,73.90547786440167L123.37786458333333,66.75629908697945L123.47760416666667,73.7671343939645L123.57734375,74.61481325966972L123.87656249999999,72.13195446559361L124.07604166666667,69.84590121677944L124.77421874999999,76.74868808473859L124.87395833333333,72.5162775857108L125.17317708333333,71.16593885421753L125.37265624999999,75.44247327532086L125.97109375,76.27208546229771L126.07083333333334,74.13058383124215L126.2703125,75.06333371571132L126.46979166666668,77.8955523627145L126.86874999999999,77.47074896948678L127.26770833333333,76.60377877099174L127.4671875,75.77417870930263L127.66666666666667,76.21827949796405L127.96588541666665,78.03596319471087L128.065625,77.32614278793335L128.16536458333334,75.05679212297711L128.86354166666666,75.63434382847377L128.96328125,75.59968975612095L129.56171875,76.99637133734566L129.76119791666667,77.51558222089496L129.96067708333334,77.31677600315639L130.06041666666667,79.35696479252407L130.16015625,79.50396571840558L131.0578125,77.1685322352818L131.25729166666667,76.52695294788906L131.55651041666667,77.18600477491107L131.95546875,79.70467560631889L132.15494791666666,80.27624348231724L132.2546875,76.39217431204659L132.65364583333334,79.2838614327567L132.75338541666667,79.4562223979405L132.95286458333334,79.43816784449986L133.05260416666667,76.12169551849365L133.15234375,77.4447523525783L133.4515625,77.68939822060722L133.55130208333335,77.8395335333688L134.54869791666667,78.55426468167987L134.74817708333333,77.59533023834229L134.84791666666666,79.68912492479596L135.14713541666666,77.64216416222709L135.24687500000002,76.65608726228986L135.34661458333332,72.98306478772845L135.64583333333331,81.01631041935512L135.74557291666667,78.9836756842477L135.8453125,80.55798666817802L137.34140625,81.5233657019479L137.640625,81.9354739189148L137.84010416666666,80.19385215214321L137.93984375,78.519289289202L138.13932291666666,79.72696794782367L138.23906250000002,82.18218108585903L138.53828125,79.18487058367047L138.8375,82.7186280659267L138.93723958333334,81.81159591674805L139.03697916666667,82.36452116285052L139.13671875,82.61955233982631L139.33619791666666,85.77243634632656L139.53567708333333,81.55687393460956L139.73515625000002,82.59356784820557L139.93463541666668,83.15488985606602L140.034375,81.22487143107823L140.23385416666667,82.93473100662231L140.43333333333334,83.76092992510114L140.6328125,84.28285081045968L140.73255208333333,82.9069459097726L140.83229166666666,82.80106789725167L140.93203125,80.71609435762677L141.03177083333333,83.2968224116734L142.02916666666667,81.97588144029889L142.428125,81.91955947875977L142.82708333333332,84.67421872275216L142.92682291666668,84.30745301927838L143.02656249999998,84.45041622434344L143.22604166666667,84.98614174979073L143.52526041666667,82.96119444710868L143.82447916666666,83.57741369519916L144.02395833333333,83.95573479788644L144.32317708333332,83.68712329864502L144.52265624999998,84.55459669658116L144.92161458333334,81.13017899649483L145.02135416666667,82.02553449358258L145.12109375,83.35707296643939L145.32057291666666,83.8627095903669L145.4203125,86.96715913500104L145.71953125,85.50916603633335L145.81927083333335,81.3529508454459L145.91901041666668,82.30785969325474L146.01874999999998,86.26170989445278L146.21822916666667,83.63582120622907L146.71692708333333,84.45826734815326L147.01614583333333,84.87535299573626L147.51484375,85.6492737361363L147.71432291666665,85.40810176304409L148.11328125,87.48355088915143L148.31276041666666,87.49684626715523L148.71171875,87.28327144895282L148.81145833333335,88.4896102632795L148.91119791666665,83.94974490574428L149.0109375,85.18725783484322L149.21041666666667,85.70627471378872L149.50963541666667,88.88671343667167L149.609375,87.86524888447353L149.8088541666667,87.36350447790963L149.90859375,88.4218784059797L150.60677083333331,85.2476053919111L150.80625,86.29732186453683L151.10546875,88.14832585198539L151.20520833333333,85.64983149937221L151.50442708333333,87.27507475444249L151.60416666666669,89.49918597085136L152.10286458333331,88.97322736467633L152.20260416666667,84.53969471795219L152.30234375,89.60596125466483L152.6015625,85.86261211122785L152.8010416666667,83.70764534814018L152.90078125,85.51752035958427L153.00052083333333,87.68222372872489L153.10026041666669,90.0970960344587L153.20000000000002,86.69551025118146L153.29973958333332,88.75345046179635L153.89817708333334,87.5346771648952L154.396875,87.22142035620553L154.49661458333333,87.00517191205707L154.59635416666669,89.97707993643624L155.09505208333331,89.40822206224713L155.4940104166667,87.76089865820748L155.69348958333333,89.64875139508929L155.7932291666667,90.39256504603796L156.19218750000002,85.54952505656651L156.59114583333331,86.27589648110526L157.28932291666666,91.76856088638306L157.48880208333333,89.52585554122925L157.78802083333332,91.54583753858294L157.9875,92.07005616596766L158.08723958333334,90.39163746152606L158.38645833333334,87.95092010498047L158.48619791666664,89.51720414842877L158.68567708333333,90.47601733888898L158.78541666666666,85.44488382339478L159.08463541666666,89.42160837990897L160.78020833333332,90.66512938908167L160.87994791666665,87.82249511991229L160.9796875,92.80843768801007L161.07942708333334,90.2807092666626L161.47838541666667,91.33599730900355L161.77760416666666,92.2985087122236L162.17656250000002,90.53561919076103L162.27630208333332,90.04925571169171L162.37604166666665,93.70219264711652L162.775,89.8998782294137L162.87473958333334,92.03525659016199L162.97447916666667,89.38209206717355L163.17395833333333,95.2767825126648L163.37343750000002,77.84100675582886L163.57291666666666,90.74256147657123L163.77239583333335,90.49182265145438L164.37083333333334,86.42789908817836L164.5703125,37.775266919817234L165.06901041666666,87.03853464126587L165.16875000000002,-5.439634459359311L166.06640625000003,78.47100639343262L166.16614583333333,85.73426594052997L167.26328125,84.78785691942487L167.66223958333333,84.34032467433384L167.76197916666666,84.6874110358102L168.06119791666666,85.65925284794399L168.16093750000002,85.49245738983154L168.46015624999998,81.88525703975132L168.65963541666667,84.9185129574367L168.75937499999998,85.84732818603516L168.85911458333334,85.73059804098946L169.55729166666666,80.98216560908726L169.65703125,86.42815371922084L169.75677083333335,83.43676035744804L169.85651041666665,85.70584426607404L170.15572916666667,85.93834665843418L170.35520833333334,83.10897745404925L170.45494791666667,85.03347887311664L170.55468749999997,86.97148180007935L170.65442708333333,86.4289721761431L171.153125,85.53832735334124L171.35260416666665,87.24573762076241L171.85130208333334,86.44974279403687L171.95104166666667,86.7726331438337L172.25026041666666,87.60467645100185L172.94843749999998,83.90627574920654L173.14791666666667,86.1713946887425L174.1453125,85.58192988804409L174.34479166666668,85.10441180637905L174.44453124999998,88.73509277616229L174.64401041666667,88.68961688450405L174.74374999999998,89.38761513573783L174.94322916666667,88.70165729522705L175.04296875,86.29495137078422L175.64140625,89.77181094033378L175.74114583333335,85.35162823540824L176.33958333333334,87.46300458908081L176.43932291666667,88.64604466302055L177.33697916666668,88.45093059539795L177.7359375,87.83508723122733L177.93541666666667,90.33120502744403L178.334375,86.81474426814488L178.93281249999998,88.9559852055141L179.23203125,89.96525778089251L179.43151041666667,86.8794448035104L179.73072916666666,91.30516876493182L179.93020833333335,90.21526908874512L180.02994791666669,90.10506841114588L180.42890624999998,90.10903944287982L180.52864583333334,88.7621806689671L180.728125,89.62706531797137L180.8278645833333,89.93680579321725L181.02734375,90.66361372811454L181.3265625,93.24571193967547L181.42630208333333,90.00344637462072L181.52604166666669,90.74677501405988L181.92499999999998,91.51866476876395L182.12447916666667,92.16496079308646L182.22421875,91.23771578924996L182.3239583333333,93.01567098072596L182.5234375,94.37313331876483L182.72291666666666,91.94491107123238L182.92239583333333,91.67001261029925L183.22161458333332,91.0987296785627L183.52083333333331,83.70974908556256L183.62057291666667,91.10990919385638L183.7203125,92.29159123556954L184.01953125,90.94485371453422L184.21901041666666,88.45540482657296L184.31875,90.13868577139718L184.61796875,91.60575464793615L184.71770833333332,90.87794637680054L185.01692708333331,89.63732331139701L185.41588541666667,94.37107808249337L185.515625,89.95832817895072L185.61536458333333,93.90540034430367L186.31354166666668,92.70112889153617L186.51302083333331,88.75649997166225L186.61276041666667,91.44074160712105L186.7125,93.00192090443201L187.01171875,93.01196670532227L187.11145833333333,94.39536503383093L187.3109375,93.35989577429635L187.70989583333332,91.65016957691736L187.80963541666668,92.91352149418421L187.909375,91.64667143140521L188.20859375,92.71393925803048L188.60755208333333,93.37386410576957L188.7072916666667,91.97889219011579L188.90677083333333,93.97862495694842L189.00651041666669,93.42819145747595L189.10625,94.2247804233006L189.20598958333332,94.60839421408517L189.40546875,92.63359710148401L189.7046875,93.45232684271676L189.80442708333334,96.37140498842511L189.90416666666667,92.10729898725238L190.00390625,93.42110422679357L190.40286458333333,88.42718928200858L190.50260416666669,93.37076609475272L191.00130208333331,94.25514214379447L191.20078125,92.7588998249599L191.30052083333334,90.24429702758789L191.40026041666667,94.66956629071917L191.79921875,95.28987782342094L192.09843750000002,95.22005435398646L192.29791666666668,95.40389796665735L192.59713541666667,92.68161324092321L192.696875,88.7071864264352L192.79661458333334,94.31429536002022L192.8963541666667,94.53432689394269L192.99609375,97.43648420061383L193.1955729166667,94.17635808672223L193.39505208333333,95.73967143467493L193.69427083333332,96.0951303073338L193.79401041666665,95.48154830932617L193.99348958333331,93.25909825733729L194.09322916666665,95.82563972473145L194.19296875,96.02763489314489L194.4921875,95.82880442483085L194.69166666666666,92.99779830660138L194.79140625,97.15189763477869L194.89114583333333,96.66106598717826L195.6890625,96.19931077957153L195.78880208333334,98.66400589261737L196.08802083333333,89.55773292269025L196.58671875000002,93.91671323776245L196.98567708333334,98.32143620082311L197.58411458333333,100.03062888554163L197.68385416666666,94.69448375701904L197.88333333333333,96.42495025907245L198.28229166666665,95.99463592256818L198.38203125,97.88527747562952L198.48177083333334,97.07053695406232L198.68125,87.49202646527972L198.78098958333334,94.1177201952253L198.88072916666667,97.61190073830741L199.27968750000002,97.29161732537406L199.67864583333332,96.26299279076713L199.878125,99.16180351802282L199.97786458333334,96.17849166052682L200.77578125000002,96.87123966217041L200.87552083333333,99.76313291277204L201.17473958333335,98.32538904462542L201.47395833333334,98.54668160847254L201.87291666666667,99.97144535609655L202.07239583333333,95.91077136993408L202.47135416666666,99.06471633911133L202.97005208333334,98.80353157860893L203.06979166666665,98.31903539385114L203.46875000000003,95.18420594079154L203.56848958333333,99.86231776646204L203.86770833333333,94.50996112823486L203.96744791666666,98.59324877602714L204.06718750000002,98.33875717435565L204.36640625,99.70259741374426L204.665625,100.08728429249354L204.76536458333334,100.2296654837472L204.96484375000003,99.72478062765938L205.16432291666666,97.18081038338798L205.26406250000002,98.60839326041085L205.36380208333333,99.8861985206604L206.06197916666667,99.30714327948434L206.26145833333334,100.66526644570487L206.36119791666667,99.37257739475794L206.95963541666666,96.3212366104126L207.059375,98.26074307305473L207.15911458333335,95.76241241182599L207.35859374999998,97.70211894171578L207.55807291666667,97.68727758952551L207.85729166666667,91.80693135942731L208.55546875,101.47111306871686L208.65520833333335,96.10896526064191L208.75494791666665,101.173873765128L209.65260416666666,102.43587068149023L210.0515625,100.11175312314715L210.55026041666667,100.97546768188477L210.64999999999998,100.72474704469953L210.74973958333334,98.58461557115827L211.04895833333333,99.13854115349906L211.14869791666666,100.39486040387835L211.2484375,103.48000649043493L211.34817708333335,102.20441106387548L211.74713541666668,99.7383245740618L211.84687499999998,102.72724134581429L211.94661458333334,100.35254921231952L212.24583333333334,99.0279403414045L212.4453125,102.26878118515015L212.64479166666666,100.26826633725848L212.84427083333335,102.09599583489555L212.94401041666666,97.46647003718786L213.04375,103.80848053523474L213.24322916666668,100.83231047221594L213.34296874999998,103.41834333964758L213.84166666666667,101.07450096947807L214.14088541666666,105.44679485048566L214.34036458333335,103.52144466127667L214.63958333333335,100.8447995185852L214.93880208333334,103.48818499701363L215.03854166666667,102.1725185258048L215.23802083333334,101.80025703566415L215.4375,104.20251904215131L216.0359375,103.00358877863202L216.13567708333335,101.77776765823364L216.33515624999998,101.31537587302071L216.53463541666667,102.02833369800024L217.43229166666669,103.53894751412528L217.53203125,104.68148912702289L217.63177083333335,105.13385329927716L217.73151041666668,103.73778404508319L218.92838541666669,102.66385034152441L219.12786458333332,103.75348932402474L219.32734374999998,104.95248930794853L219.52682291666667,103.26975703239441L219.92578125,103.03694241387504L220.02552083333333,104.08614962441581L220.12526041666666,103.80054756573267L220.32473958333333,105.3263452734266L220.42447916666669,106.11909355436053L220.72369791666668,105.68401397977557L220.82343749999998,100.61081177847726L220.92317708333331,105.63133566720145L221.12265625,105.63162364278521L221.62135416666666,103.33037740843636L221.92057291666669,105.18823824610028L222.12005208333332,106.11983016559057L222.21979166666668,105.94043956484113L222.41927083333331,103.22022220066614L222.7184895833333,102.95219574655805L223.01770833333333,105.11355859892709L223.2171875,106.95200381960187L223.51640625,105.41168607984271L223.815625,103.80731347629003L223.91536458333331,106.88388698441642L224.2145833333333,105.7983160359519L224.4140625,103.97915608542306L224.51380208333333,104.87176520483834L225.31171875,103.22953139032636L225.41145833333331,107.44495739255633L225.6109375,100.35056672777448L226.1096354166667,104.91705618585858L226.60833333333332,104.40929763657707L226.70807291666668,104.35062033789498L226.8078125,105.30353154454913L227.00729166666667,106.98165317944117L227.10703125,105.8061035020011L227.30651041666667,107.76478610719953L227.50598958333333,106.89857980183191L227.80520833333333,106.5133078779493L227.90494791666669,105.22917624882288L228.30390625,100.71582889556885L228.80260416666667,104.58307726042611L229.00208333333333,102.66689682006836L229.60052083333332,101.50223868233817L229.70026041666668,107.30738387789044L229.8,103.01663861955915L229.89973958333331,102.93148575510297L229.99947916666667,106.54273898260934L230.2986979166667,105.60108610561915L230.49817708333333,106.04208585194178L230.79739583333333,105.23657267434257L230.89713541666666,106.28618001937866L231.19635416666665,105.86365618024554L231.39583333333331,107.47976909364972L231.5953125,105.28266695567541L231.69505208333334,104.7210600035531L231.79479166666664,107.30917235783167L232.19375,105.49265572002955L232.59270833333332,105.54992648533411L232.69244791666665,107.63823447908673L232.7921875,108.65165087154932L233.19114583333334,104.57364681788854L233.29088541666664,106.52011319569178L233.49036458333333,107.88071295193262L233.59010416666666,107.75661972590856L233.78958333333333,104.6560836178916L233.88932291666666,106.08536403519767L233.98906250000002,107.76628964287895L234.18854166666665,106.86491394042969L234.28828125,109.88308296884809L234.38802083333334,104.01250062670026L234.48776041666665,102.72780214037213L234.78697916666664,102.78485465049744L234.98645833333333,106.94543191364832L235.08619791666666,107.90712789126806L235.68463541666665,105.55034480776105L235.784375,106.63392114639282L235.88411458333334,108.26696399280004L236.28307291666667,107.34504199028015L236.48255208333333,106.98561208588737L236.68203125000002,107.03258848190308L237.08098958333332,107.52370507376534L237.77916666666667,105.68736055919103L238.07838541666666,107.35306589944022L238.27786458333333,106.83154817989893L238.47734375000002,108.08550299916949L238.57708333333335,103.22491468702044L238.7765625,106.03661734717232L238.97604166666665,108.48241519927979L239.17552083333334,105.90202968461173L239.27526041666667,107.41691766466413L239.375,105.91705291611808L239.67421875000002,107.40037270954676L239.77395833333333,103.77163784844535L240.07317708333335,109.95615904671806L240.17291666666665,108.77045140947614L240.47213541666665,106.08503362110682L240.77135416666667,107.37336363111224L241.17031250000002,109.27770675931659L241.76875,110.44921265329633L241.86848958333334,108.97295583997455L242.16770833333334,106.82266337530953L242.26744791666667,108.12100887298584L242.46692708333333,110.51717185974121L242.66640625000002,108.59662328447614L242.76614583333333,110.26745762143817L242.96562500000002,107.91752835682459L243.06536458333335,106.61099525860377L243.26484374999998,109.41678380966187L243.36458333333334,109.8762776511056L243.46432291666667,107.81465741566248L243.56406249999998,108.90081037793841L243.76354166666667,109.27349625314984L243.96302083333333,109.33459860937936L244.06276041666666,109.23978795324054L244.46171875,103.10170963832311L244.56145833333335,109.71037946428571L244.76093749999998,112.20088931492396L245.06015624999998,106.04651158196586L245.25963541666667,109.95295797075543L245.55885416666666,109.19929252352033L246.15729166666665,109.31671380996704L246.75572916666667,110.38755859647479L247.1546875,110.49496742657252L247.45390625,111.83538464137487L247.95260416666667,105.95965208326068L248.15208333333334,108.56657682146344L248.45130208333333,110.12333342007227L249.04973958333335,110.7701963015965L249.14947916666668,108.6273821081434L249.34895833333334,109.13930266244071L249.64817708333334,110.91410224778312L249.94739583333333,106.19648623466492L250.04713541666666,110.86764420781817L250.146875,108.7674413067954L251.04453124999998,108.99855535370963L251.14427083333334,110.63066758428302L251.24401041666667,109.34946118082318L251.34375,110.68041157722473L251.54322916666666,103.91375531469073L251.74270833333335,110.12118421282086L252.04192708333335,110.9282979284014L252.14166666666668,109.08202280317035L252.540625,113.08742669650488L252.74010416666667,110.47091388702393L252.83984375,105.4053203037807L252.93958333333336,111.79058170318604L253.03932291666666,109.75655255998883L253.83723958333334,112.37163458551679L254.73489583333335,112.35320414815631L254.934375,111.5001446860177L255.23359374999998,108.39471299307687L255.73229166666667,111.88086659567696L256.03151041666666,111.22205121176583L256.13125,111.93642163276672L256.43046875,111.71379225594657L256.5302083333333,108.51996721540179L256.8294270833333,109.40873261860438L257.12864583333334,110.2941059725625L257.328125,112.40258741378784L257.52760416666666,113.11231688090734L257.8268229166667,110.14485277448382L258.12604166666665,111.95135695593697L258.22578125,111.37899487359184L258.3255208333333,112.48091677256994L258.525,111.33447687966483L259.3229166666667,112.54204337937492L259.52239583333335,112.55881568363733L259.721875,110.29483045850482L259.9213541666667,111.60328238351005L260.4200520833333,115.84557196072168L260.91875,112.36400171688624L261.3177083333333,113.86674015862602L261.7166666666667,111.16617182322912L261.81640625,112.58330876486642L261.9161458333333,115.43218755722046L262.3151041666667,114.70048403739929L262.41484375,112.28386569023132L262.51458333333335,109.06144922120231L262.61432291666665,114.52995702198572L262.9135416666667,114.50292672429767L263.4122395833333,112.94325399398804L263.7114583333333,111.55021303040641L263.9109375,110.76893527167184L264.3098958333333,113.66834013802665L264.4096354166667,113.09888812473841L264.509375,113.09303767340523L264.60911458333334,112.01282913344247L264.80859375,112.22152958597455L265.00807291666666,112.60282441547938L265.3072916666667,116.88355115481787L265.6065104166667,114.16561334473747L265.70625,113.82518679755074L265.9057291666667,114.21545433998108L266.10520833333334,109.30950532640729L266.8033854166667,113.68561261040824L267.1026041666667,111.72442310197013L267.20234375,114.68071678706579L267.4018229166667,111.96711073602948L267.60130208333334,113.88842623574394L267.80078125,114.69925635201591L267.9005208333333,110.51868448938642L268.1,113.80026629992895L268.39921875,112.05647713797433L268.59869791666665,114.75381711551123L268.8979166666667,111.9470100402832L269.09739583333334,111.15019372531347L269.3966145833333,111.54836695534843L269.49635416666666,113.09093696730477L269.59609375,113.26485300064087L270.59348958333334,113.37928540366036L270.69322916666664,112.74893413271222L270.8927083333333,113.21993487221854L270.99244791666666,114.40956504004342L271.0921875,114.05745577812195L271.1919270833333,115.4244394983564L271.49114583333335,113.16797195162091L271.59088541666665,111.5428317614964L271.7903645833333,109.97615970884051L272.08958333333334,116.36239113126483L272.2890625,115.03741850171771L272.48854166666666,108.94086626597814L272.6880208333333,112.64656942231315L273.58567708333334,114.40311438696725L273.68541666666664,117.24769173349652L273.98463541666666,114.41466978618078L274.1841145833333,115.73708094869342L274.38359375,113.07072714396887L274.48333333333335,112.6976775101253L274.58307291666665,115.43802285194397L274.7825520833333,112.91837290355139L274.8822916666667,115.32928024019513L275.18151041666664,111.54388666152954L275.77994791666663,114.55872123582023L275.8796875,113.39104693276542L276.07916666666665,108.35525730678015" style="fill: none;" fill="none"></path></g><g><path stroke="rgb(0, 119, 187)" stroke-width="2px" d="M269.296875,101.51474591663904Z" style="fill: none;" fill="none"></path></g></g></g></g></g></g><g transform="translate(30, 178)" clip-path="url(#clip_1)"><clipPath id="clip_1"><rect width="299" height="22"></rect></clipPath><g><g><line x1="0" y1="0" x2="0" y2="5" style="visibility: inherit;" fill="rgb(0, 0, 0)" stroke="rgb(204, 204, 204)" stroke-width="1px"></line><line x1="19.947916666666668" y1="0" x2="19.947916666666668" y2="5" style="visibility: inherit;" fill="rgb(0, 0, 0)" stroke="rgb(204, 204, 204)" stroke-width="1px"></line><line x1="39.895833333333336" y1="0" x2="39.895833333333336" y2="5" style="visibility: inherit;" fill="rgb(0, 0, 0)" stroke="rgb(204, 204, 204)" stroke-width="1px"></line><line x1="59.84375" y1="0" x2="59.84375" y2="5" style="visibility: inherit;" fill="rgb(0, 0, 0)" stroke="rgb(204, 204, 204)" stroke-width="1px"></line><line x1="79.79166666666667" y1="0" x2="79.79166666666667" y2="5" style="visibility: inherit;" fill="rgb(0, 0, 0)" stroke="rgb(204, 204, 204)" stroke-width="1px"></line><line x1="99.73958333333333" y1="0" x2="99.73958333333333" y2="5" style="visibility: inherit;" fill="rgb(0, 0, 0)" stroke="rgb(204, 204, 204)" stroke-width="1px"></line><line x1="119.6875" y1="0" x2="119.6875" y2="5" style="visibility: inherit;" fill="rgb(0, 0, 0)" stroke="rgb(204, 204, 204)" stroke-width="1px"></line><line x1="139.63541666666666" y1="0" x2="139.63541666666666" y2="5" style="visibility: inherit;" fill="rgb(0, 0, 0)" stroke="rgb(204, 204, 204)" stroke-width="1px"></line><line x1="159.58333333333334" y1="0" x2="159.58333333333334" y2="5" style="visibility: inherit;" fill="rgb(0, 0, 0)" stroke="rgb(204, 204, 204)" stroke-width="1px"></line><line x1="179.53125" y1="0" x2="179.53125" y2="5" style="visibility: inherit;" fill="rgb(0, 0, 0)" stroke="rgb(204, 204, 204)" stroke-width="1px"></line><line x1="199.47916666666666" y1="0" x2="199.47916666666666" y2="5" style="visibility: inherit;" fill="rgb(0, 0, 0)" stroke="rgb(204, 204, 204)" stroke-width="1px"></line><line x1="219.42708333333331" y1="0" x2="219.42708333333331" y2="5" style="visibility: inherit;" fill="rgb(0, 0, 0)" stroke="rgb(204, 204, 204)" stroke-width="1px"></line><line x1="239.375" y1="0" x2="239.375" y2="5" style="visibility: inherit;" fill="rgb(0, 0, 0)" stroke="rgb(204, 204, 204)" stroke-width="1px"></line><line x1="259.3229166666667" y1="0" x2="259.3229166666667" y2="5" style="visibility: inherit;" fill="rgb(0, 0, 0)" stroke="rgb(204, 204, 204)" stroke-width="1px"></line><line x1="279.2708333333333" y1="0" x2="279.2708333333333" y2="5" style="visibility: inherit;" fill="rgb(0, 0, 0)" stroke="rgb(204, 204, 204)" stroke-width="1px"></line><line x1="299.21875" y1="0" x2="299.21875" y2="5" style="visibility: inherit;" fill="rgb(0, 0, 0)" stroke="rgb(204, 204, 204)" stroke-width="1px"></line></g><g transform="translate(0, 8)"><text x="0" y="0" dx="0em" dy="0.95em" style="text-anchor: middle; visibility: hidden; font-family: Roboto, sans-serif; font-size: 12px; font-weight: 200;" fill="rgb(50, 49, 63)" stroke="none" stroke-width="1px">-200</text><text x="19.947916666666668" y="0" dx="0em" dy="0.95em" style="text-anchor: middle; visibility: inherit; font-family: Roboto, sans-serif; font-size: 12px; font-weight: 200;" fill="rgb(50, 49, 63)" stroke="none" stroke-width="1px">0</text><text x="39.895833333333336" y="0" dx="0em" dy="0.95em" style="text-anchor: middle; visibility: hidden; font-family: Roboto, sans-serif; font-size: 12px; font-weight: 200;" fill="rgb(50, 49, 63)" stroke="none" stroke-width="1px">200</text><text x="59.84375" y="0" dx="0em" dy="0.95em" style="text-anchor: middle; visibility: inherit; font-family: Roboto, sans-serif; font-size: 12px; font-weight: 200;" fill="rgb(50, 49, 63)" stroke="none" stroke-width="1px">400</text><text x="79.79166666666667" y="0" dx="0em" dy="0.95em" style="text-anchor: middle; visibility: hidden; font-family: Roboto, sans-serif; font-size: 12px; font-weight: 200;" fill="rgb(50, 49, 63)" stroke="none" stroke-width="1px">600</text><text x="99.73958333333333" y="0" dx="0em" dy="0.95em" style="text-anchor: middle; visibility: inherit; font-family: Roboto, sans-serif; font-size: 12px; font-weight: 200;" fill="rgb(50, 49, 63)" stroke="none" stroke-width="1px">800</text><text x="119.6875" y="0" dx="0em" dy="0.95em" style="text-anchor: middle; visibility: hidden; font-family: Roboto, sans-serif; font-size: 12px; font-weight: 200;" fill="rgb(50, 49, 63)" stroke="none" stroke-width="1px">1k</text><text x="139.63541666666666" y="0" dx="0em" dy="0.95em" style="text-anchor: middle; visibility: inherit; font-family: Roboto, sans-serif; font-size: 12px; font-weight: 200;" fill="rgb(50, 49, 63)" stroke="none" stroke-width="1px">1.2k</text><text x="159.58333333333334" y="0" dx="0em" dy="0.95em" style="text-anchor: middle; visibility: hidden; font-family: Roboto, sans-serif; font-size: 12px; font-weight: 200;" fill="rgb(50, 49, 63)" stroke="none" stroke-width="1px">1.4k</text><text x="179.53125" y="0" dx="0em" dy="0.95em" style="text-anchor: middle; visibility: inherit; font-family: Roboto, sans-serif; font-size: 12px; font-weight: 200;" fill="rgb(50, 49, 63)" stroke="none" stroke-width="1px">1.6k</text><text x="199.47916666666666" y="0" dx="0em" dy="0.95em" style="text-anchor: middle; visibility: hidden; font-family: Roboto, sans-serif; font-size: 12px; font-weight: 200;" fill="rgb(50, 49, 63)" stroke="none" stroke-width="1px">1.8k</text><text x="219.42708333333331" y="0" dx="0em" dy="0.95em" style="text-anchor: middle; visibility: inherit; font-family: Roboto, sans-serif; font-size: 12px; font-weight: 200;" fill="rgb(50, 49, 63)" stroke="none" stroke-width="1px">2k</text><text x="239.375" y="0" dx="0em" dy="0.95em" style="text-anchor: middle; visibility: hidden; font-family: Roboto, sans-serif; font-size: 12px; font-weight: 200;" fill="rgb(50, 49, 63)" stroke="none" stroke-width="1px">2.2k</text><text x="259.3229166666667" y="0" dx="0em" dy="0.95em" style="text-anchor: middle; visibility: inherit; font-family: Roboto, sans-serif; font-size: 12px; font-weight: 200;" fill="rgb(50, 49, 63)" stroke="none" stroke-width="1px">2.4k</text><text x="279.2708333333333" y="0" dx="0em" dy="0.95em" style="text-anchor: middle; visibility: hidden; font-family: Roboto, sans-serif; font-size: 12px; font-weight: 200;" fill="rgb(50, 49, 63)" stroke="none" stroke-width="1px">2.6k</text><text x="299.21875" y="0" dx="0em" dy="0.95em" style="text-anchor: middle; visibility: hidden; font-family: Roboto, sans-serif; font-size: 12px; font-weight: 200;" fill="rgb(50, 49, 63)" stroke="none" stroke-width="1px">2.8k</text></g><line x1="0" y1="0" x2="299.21875" y2="0" fill="rgb(0, 0, 0)" stroke="rgb(204, 204, 204)" stroke-width="1px"></line></g></g></g></g></svg>