<svg viewBox="0 0 330 200" xmlns="http://www.w3.org/2000/svg"><g><g><g><g><g><line x1="30" y1="178" x2="25" y2="178" style="visibility: inherit;" fill="rgb(0, 0, 0)" stroke="rgb(204, 204, 204)" stroke-width="1px"></line><line x1="30" y1="160.20000000000002" x2="25" y2="160.20000000000002" style="visibility: inherit;" fill="rgb(0, 0, 0)" stroke="rgb(204, 204, 204)" stroke-width="1px"></line><line x1="30" y1="142.4" x2="25" y2="142.4" style="visibility: inherit;" fill="rgb(0, 0, 0)" stroke="rgb(204, 204, 204)" stroke-width="1px"></line><line x1="30" y1="124.6" x2="25" y2="124.6" style="visibility: inherit;" fill="rgb(0, 0, 0)" stroke="rgb(204, 204, 204)" stroke-width="1px"></line><line x1="30" y1="106.8" x2="25" y2="106.8" style="visibility: inherit;" fill="rgb(0, 0, 0)" stroke="rgb(204, 204, 204)" stroke-width="1px"></line><line x1="30" y1="89" x2="25" y2="89" style="visibility: inherit;" fill="rgb(0, 0, 0)" stroke="rgb(204, 204, 204)" stroke-width="1px"></line><line x1="30" y1="71.2" x2="25" y2="71.2" style="visibility: inherit;" fill="rgb(0, 0, 0)" stroke="rgb(204, 204, 204)" stroke-width="1px"></line><line x1="30" y1="53.400000000000006" x2="25" y2="53.400000000000006" style="visibility: inherit;" fill="rgb(0, 0, 0)" stroke="rgb(204, 204, 204)" stroke-width="1px"></line><line x1="30" y1="35.599999999999994" x2="25" y2="35.599999999999994" style="visibility: inherit;" fill="rgb(0, 0, 0)" stroke="rgb(204, 204, 204)" stroke-width="1px"></line><line x1="30" y1="17.799999999999997" x2="25" y2="17.799999999999997" style="visibility: inherit;" fill="rgb(0, 0, 0)" stroke="rgb(204, 204, 204)" stroke-width="1px"></line><line x1="30" y1="0" x2="25" y2="0" style="visibility: inherit;" fill="rgb(0, 0, 0)" stroke="rgb(204, 204, 204)" stroke-width="1px"></line></g><g transform="translate(20, 0)"><text x="0" y="178" dx="0em" dy="0.3em" style="text-anchor: end; visibility: hidden; font-family: Roboto, sans-serif; font-size: 12px; font-weight: 200;" fill="rgb(50, 49, 63)" stroke="none" stroke-width="1px">-2</text><text x="0" y="160.20000000000002" dx="0em" dy="0.3em" style="text-anchor: end; visibility: inherit; font-family: Roboto, sans-serif; font-size: 12px; font-weight: 200;" fill="rgb(50, 49, 63)" stroke="none" stroke-width="1px">0</text><text x="0" y="142.4" dx="0em" dy="0.3em" style="text-anchor: end; visibility: hidden; font-family: Roboto, sans-serif; font-size: 12px; font-weight: 200;" fill="rgb(50, 49, 63)" stroke="none" stroke-width="1px">2</text><text x="0" y="124.6" dx="0em" dy="0.3em" style="text-anchor: end; visibility: inherit; font-family: Roboto, sans-serif; font-size: 12px; font-weight: 200;" fill="rgb(50, 49, 63)" stroke="none" stroke-width="1px">4</text><text x="0" y="106.8" dx="0em" dy="0.3em" style="text-anchor: end; visibility: hidden; font-family: Roboto, sans-serif; font-size: 12px; font-weight: 200;" fill="rgb(50, 49, 63)" stroke="none" stroke-width="1px">6</text><text x="0" y="89" dx="0em" dy="0.3em" style="text-anchor: end; visibility: inherit; font-family: Roboto, sans-serif; font-size: 12px; font-weight: 200;" fill="rgb(50, 49, 63)" stroke="none" stroke-width="1px">8</text><text x="0" y="71.2" dx="0em" dy="0.3em" style="text-anchor: end; visibility: hidden; font-family: Roboto, sans-serif; font-size: 12px; font-weight: 200;" fill="rgb(50, 49, 63)" stroke="none" stroke-width="1px">10</text><text x="0" y="53.400000000000006" dx="0em" dy="0.3em" style="text-anchor: end; visibility: inherit; font-family: Roboto, sans-serif; font-size: 12px; font-weight: 200;" fill="rgb(50, 49, 63)" stroke="none" stroke-width="1px">12</text><text x="0" y="35.599999999999994" dx="0em" dy="0.3em" style="text-anchor: end; visibility: hidden; font-family: Roboto, sans-serif; font-size: 12px; font-weight: 200;" fill="rgb(50, 49, 63)" stroke="none" stroke-width="1px">14</text><text x="0" y="17.799999999999997" dx="0em" dy="0.3em" style="text-anchor: end; visibility: inherit; font-family: Roboto, sans-serif; font-size: 12px; font-weight: 200;" fill="rgb(50, 49, 63)" stroke="none" stroke-width="1px">16</text><text x="0" y="0" dx="0em" dy="0.3em" style="text-anchor: end; visibility: hidden; font-family: Roboto, sans-serif; font-size: 12px; font-weight: 200;" fill="rgb(50, 49, 63)" stroke="none" stroke-width="1px">18</text></g><line x1="30" y1="0" x2="30" y2="178" fill="rgb(0, 0, 0)" stroke="rgb(204, 204, 204)" stroke-width="1px"></line></g></g><g transform="translate(30, 0)" clip-path="url(#clip_0)"><clipPath id="clip_0"><rect width="300" height="178"></rect></clipPath><g><g><g><line x1="0" y1="0" x2="0" y2="178" fill="rgb(0, 0, 0)" stroke="rgb(60, 60, 60)" stroke-width="1px" opacity="0.25"></line><line x1="21.428571428571427" y1="0" x2="21.428571428571427" y2="178" fill="rgb(0, 0, 0)" stroke="rgb(60, 60, 60)" stroke-width="1px" opacity="0.25"></line><line x1="42.857142857142854" y1="0" x2="42.857142857142854" y2="178" fill="rgb(0, 0, 0)" stroke="rgb(60, 60, 60)" stroke-width="1px" opacity="0.25"></line><line x1="64.28571428571428" y1="0" x2="64.28571428571428" y2="178" fill="rgb(0, 0, 0)" stroke="rgb(60, 60, 60)" stroke-width="1px" opacity="0.25"></line><line x1="85.71428571428571" y1="0" x2="85.71428571428571" y2="178" fill="rgb(0, 0, 0)" stroke="rgb(60, 60, 60)" stroke-width="1px" opacity="0.25"></line><line x1="107.14285714285714" y1="0" x2="107.14285714285714" y2="178" fill="rgb(0, 0, 0)" stroke="rgb(60, 60, 60)" stroke-width="1px" opacity="0.25"></line><line x1="128.57142857142856" y1="0" x2="128.57142857142856" y2="178" fill="rgb(0, 0, 0)" stroke="rgb(60, 60, 60)" stroke-width="1px" opacity="0.25"></line><line x1="150" y1="0" x2="150" y2="178" fill="rgb(0, 0, 0)" stroke="rgb(60, 60, 60)" stroke-width="1px" opacity="0.25"></line><line x1="171.42857142857142" y1="0" x2="171.42857142857142" y2="178" fill="rgb(0, 0, 0)" stroke="rgb(60, 60, 60)" stroke-width="1px" opacity="0.25"></line><line x1="192.85714285714286" y1="0" x2="192.85714285714286" y2="178" fill="rgb(0, 0, 0)" stroke="rgb(60, 60, 60)" stroke-width="1px" opacity="0.25"></line><line x1="214.28571428571428" y1="0" x2="214.28571428571428" y2="178" fill="rgb(0, 0, 0)" stroke="rgb(60, 60, 60)" stroke-width="1px" opacity="0.25"></line><line x1="235.71428571428572" y1="0" x2="235.71428571428572" y2="178" fill="rgb(0, 0, 0)" stroke="rgb(60, 60, 60)" stroke-width="1px" opacity="0.25"></line><line x1="257.1428571428571" y1="0" x2="257.1428571428571" y2="178" fill="rgb(0, 0, 0)" stroke="rgb(60, 60, 60)" stroke-width="1px" opacity="0.25"></line><line x1="278.57142857142856" y1="0" x2="278.57142857142856" y2="178" fill="rgb(0, 0, 0)" stroke="rgb(60, 60, 60)" stroke-width="1px" opacity="0.25"></line><line x1="300" y1="0" x2="300" y2="178" fill="rgb(0, 0, 0)" stroke="rgb(60, 60, 60)" stroke-width="1px" opacity="0.25"></line></g><g><line x1="0" y1="178" x2="300" y2="178" fill="rgb(0, 0, 0)" stroke="rgb(60, 60, 60)" stroke-width="1px" opacity="0.25"></line><line x1="0" y1="160.20000000000002" x2="300" y2="160.20000000000002" fill="rgb(0, 0, 0)" stroke="rgb(60, 60, 60)" stroke-width="1px" opacity="0.25"></line><line x1="0" y1="142.4" x2="300" y2="142.4" fill="rgb(0, 0, 0)" stroke="rgb(60, 60, 60)" stroke-width="1px" opacity="0.25"></line><line x1="0" y1="124.6" x2="300" y2="124.6" fill="rgb(0, 0, 0)" stroke="rgb(60, 60, 60)" stroke-width="1px" opacity="0.25"></line><line x1="0" y1="106.8" x2="300" y2="106.8" fill="rgb(0, 0, 0)" stroke="rgb(60, 60, 60)" stroke-width="1px" opacity="0.25"></line><line x1="0" y1="89" x2="300" y2="89" fill="rgb(0, 0, 0)" stroke="rgb(60, 60, 60)" stroke-width="1px" opacity="0.25"></line><line x1="0" y1="71.2" x2="300" y2="71.2" fill="rgb(0, 0, 0)" stroke="rgb(60, 60, 60)" stroke-width="1px" opacity="0.25"></line><line x1="0" y1="53.400000000000006" x2="300" y2="53.400000000000006" fill="rgb(0, 0, 0)" stroke="rgb(60, 60, 60)" stroke-width="1px" opacity="0.25"></line><line x1="0" y1="35.599999999999994" x2="300" y2="35.599999999999994" fill="rgb(0, 0, 0)" stroke="rgb(60, 60, 60)" stroke-width="1px" opacity="0.25"></line><line x1="0" y1="17.799999999999997" x2="300" y2="17.799999999999997" fill="rgb(0, 0, 0)" stroke="rgb(60, 60, 60)" stroke-width="1px" opacity="0.25"></line><line x1="0" y1="0" x2="300" y2="0" fill="rgb(0, 0, 0)" stroke="rgb(60, 60, 60)" stroke-width="1px" opacity="0.25"></line></g></g></g><g><g><line x1="0" y1="160.20000000000002" x2="300" y2="160.20000000000002" fill="rgb(0, 0, 0)" stroke="rgb(153, 153, 153)" stroke-width="1.5px"></line></g></g><g><g><line x1="21.428571428571427" y1="0" x2="21.428571428571427" y2="178" fill="rgb(0, 0, 0)" stroke="rgb(153, 153, 153)" stroke-width="1.5px"></line></g></g><g><g><g><g><g><path stroke="rgb(255, 112, 67)" stroke-width="2px" d="M21.428571428571427,139.00535018444063L21.857142857142858,140.9790656834841L22.285714285714285,64.68841367205796L22.714285714285715,50.84619747023373L23.142857142857142,56.681325433702625L23.57142857142857,3.804231746205054L24,13.285793908641597L24.42857142857143,-76.15776325686774L26.57142857142857,-23.19853944331249L27,12.318686948193163L27.428571428571427,16.32344716730145L27.857142857142858,-102.48669315094662L30.428571428571427,-29.59137616810292L30.857142857142858,13.239247172285557L31.285714285714285,33.478259033544525L31.714285714285715,23.156201129150432L32.14285714285714,-44.00296080881765L33.857142857142854,-19.241896565278704L34.285714285714285,7.773817899563732L34.714285714285715,15.933657004996896L35.142857142857146,28.62871913172209L35.57142857142858,19.292733073118534L36,15.844498656053474L36.42857142857143,-25.700205226576877L36.85714285714286,-2.233535008541263L37.285714285714285,14.727433951348234L37.714285714285715,27.13874898793784L38.14285714285714,25.758457520800405L38.57142857142857,26.57386491077829L39,23.86442739700636L39.42857142857142,29.59618966587196L39.85714285714286,35.466375948062144L40.285714285714285,37.39398473346637L40.71428571428571,47.53231712550214L41.142857142857146,35.49044809040241L41.57142857142857,16.683532159483256L42.00000000000001,18.193896494501814L42.42857142857143,9.440890203759224L42.857142857142854,27.932205516693354L43.28571428571429,-11.069873696323056L43.714285714285715,3.0004237283977235L44.14285714285714,25.486614367372262L44.57142857142857,33.277835701116715L45,12.652496022102701L45.42857142857143,34.766333581284236L45.857142857142854,43.372888336943106L46.285714285714285,26.93346521041647L46.714285714285715,42.26938603390446L47.14285714285714,47.60042106431255L47.57142857142857,57.65519679141975L48,58.84066804738603L48.42857142857142,62.57138607318262L48.85714285714286,68.59772864708343L49.285714285714285,70.63319887953425L49.71428571428571,74.86795113466636L50.142857142857146,73.57344787348782L50.57142857142857,73.56609833377289L51.00000000000001,72.29653899751713L51.42857142857143,73.09096573402053L51.857142857142854,74.09300030833222L52.285714285714285,73.42847390631282L52.714285714285715,75.69218364035751L53.14285714285714,72.46734948322575L53.57142857142857,73.33622534850477L54,76.50413160192514L54.42857142857143,77.31089212338651L54.857142857142854,77.41269971037225L55.285714285714285,78.23896752062032L55.714285714285715,78.3852691689884L56.14285714285714,78.78070217369527L56.57142857142858,79.835622994891L57,80.69108906793069L57.42857142857142,78.14092640523594L57.85714285714286,52.80135287072945L58.285714285714285,64.42440482393913L58.71428571428571,67.85123915443427L59.142857142857146,69.82432324272162L59.57142857142857,71.80386514772036L60,72.02891180103457L60.42857142857143,76.25248254052065L60.857142857142854,72.89891021675622L61.285714285714285,76.29659344450687L61.714285714285715,73.64428167400392L62.142857142857146,76.25653398548147L62.57142857142857,77.4829378015672L63,77.9588798836991L63.42857142857143,79.61684534049779L63.857142857142854,79.83386937318295L64.28571428571428,80.95943653785018L64.71428571428572,81.1432404673268L65.14285714285714,81.46948389984188L65.57142857142857,70.26554757104529L66,75.18381363479024L66.42857142857143,76.76829069094495L66.85714285714286,77.9657279851236L67.28571428571429,77.1199714971899L67.71428571428571,75.38092496832125L68.14285714285714,75.37927412772126L68.57142857142857,77.99133454194038L69,79.0928675891779L69.42857142857143,68.1268994475497L69.85714285714285,73.01418620020708L70.28571428571429,76.52200403732392L70.71428571428571,77.84080149008233L71.14285714285715,78.90667407794832L71.57142857142857,78.54247601201558L72,79.32740378958239L72.42857142857143,78.84649529804143L72.85714285714286,79.48054637163492L73.28571428571428,80.49622035532958L73.71428571428572,78.69401414221386L74.14285714285714,79.06620588675655L74.57142857142857,79.95132059321115L75,80.94820805111712L75.42857142857143,81.11161743473522L75.85714285714285,81.07672529024785L76.28571428571428,82.40610181690995L76.71428571428572,82.44295128942575L77.14285714285714,79.42156476474432L77.57142857142857,77.20763124165907L78,76.0130644627689L78.42857142857143,77.89606659819357L78.85714285714285,78.25340556865734L79.28571428571429,79.55218410352352L79.71428571428572,80.43812126075913L80.14285714285714,80.71080526683146L80.57142857142857,80.32936264618286L81,80.05183877911595L81.42857142857142,81.14957097987192L81.85714285714286,79.98446808230793L82.28571428571429,80.2483768103833L82.71428571428571,80.43376046885938L83.14285714285714,81.52429825824436L83.57142857142857,81.16533876634799L84.00000000000001,81.51786159263348L84.42857142857143,81.60187982789454L84.85714285714286,80.82647476715908L85.28571428571429,81.9531238968555L85.71428571428571,81.78574480625295L86.14285714285714,81.83669720418634L86.57142857142858,82.30600811438192L87,80.67408311722534L87.42857142857143,81.57895338748608L87.85714285714286,78.19331239351459L88.28571428571428,70.49431270771521L88.71428571428571,75.27027891643819L89.14285714285714,78.12642371277795L89.57142857142858,79.35867798102372L90,80.18572886808201L90.42857142857143,80.88672349943809L90.85714285714286,82.14423479851538L91.28571428571428,82.22943879018102L91.71428571428571,80.25492371112033L92.14285714285715,81.32488427275375L92.57142857142857,81.9055556399462L93,81.58772143023238L93.42857142857143,82.08895190415991L93.85714285714285,82.83721952353844L94.28571428571428,81.48079507777051L94.71428571428572,82.50155028122042L95.14285714285714,82.2130644537054L95.57142857142857,82.23806911808505L96,82.14276574911031L96.42857142857143,82.56808578766199L96.85714285714285,81.31444289563188L97.28571428571429,82.04154808448607L97.71428571428572,81.18281882719309L98.14285714285714,80.96212827751704L98.57142857142857,81.67246461146874L99,82.20099074503064L99.42857142857142,83.0035825756805L99.85714285714286,82.84892673657039L100.28571428571429,83.57653408149304L100.71428571428571,83.89848396360532L101.14285714285714,82.91877917516025L101.57142857142857,83.28993754904145L102.00000000000001,82.47992375684187L102.42857142857143,82.64485767359976L102.85714285714286,82.8609075622287L103.28571428571429,83.8202714202718L103.71428571428571,83.13016974913572L104.14285714285714,79.52602653972801L104.57142857142857,80.0919224195033L105,80.45797892167269L105.42857142857143,81.4196280512458L105.85714285714286,80.06467748840129L106.28571428571428,80.30483398174928L106.71428571428571,78.94973159632495L107.14285714285714,80.22649503231891L107.57142857142858,79.83851088810472L108,80.40262050228421L108.42857142857143,80.77839481113617L108.85714285714286,80.14380740212358L109.28571428571428,80.57051375798557L109.71428571428571,80.26846780831917L110.14285714285715,81.01060709032598L110.57142857142857,81.90540272160281L111,82.29665830471461L111.42857142857143,81.90737547599282L111.85714285714285,82.3983635027588L112.28571428571428,83.00231266494873L112.71428571428572,83.4247241620796L113.14285714285715,83.46390413073163L113.57142857142857,84.42580898539698L114,83.8118761535673L114.42857142857143,82.80450457550218L114.85714285714285,82.63716769586284L115.28571428571429,83.36511090499329L115.71428571428572,84.01966106356483L116.14285714285714,83.5587490764934L116.57142857142857,83.97191250131597L117,83.9506383836631L117.42857142857142,84.73826755168224L117.85714285714286,84.60061327148787L118.28571428571429,84.5946306963522L118.71428571428572,84.67325642226689L119.14285714285714,83.81059100698562L119.57142857142857,82.24598965210396L120,81.90381918646503L120.42857142857143,83.32172190128331L120.85714285714286,83.92788532125093L121.28571428571429,84.06871670453033L121.71428571428571,85.12268418531588L122.14285714285714,85.57992604768855L122.57142857142857,85.00765010950913L122.99999999999999,83.90402755044668L123.42857142857143,83.35674693645699L123.85714285714286,83.7671243337492L124.28571428571429,84.30727308199998L124.71428571428571,83.46136664155839L125.14285714285714,84.22249987842869L125.57142857142858,84.98574201537511L126,84.99568265124168L126.42857142857143,85.30578174498085L126.85714285714286,84.02858184758665L127.28571428571428,84.50064810147191L127.71428571428571,84.12930953043882L128.14285714285714,84.12858200274816L128.57142857142856,83.0029478848154L129,83.78499741436093L129.42857142857144,83.97365767408041L129.85714285714286,84.44946540980713L130.28571428571428,84.25741499417529L130.71428571428572,84.81727954002326L131.14285714285714,83.90154070527615L131.57142857142856,83.82205124659099L132,83.92571365811087L132.42857142857144,84.44459018217121L132.85714285714286,84.71915076915379L133.28571428571428,83.10996771063778L133.71428571428572,83.82874376420004L134.14285714285714,84.33213448789014L134.57142857142858,84.37732428709444L135,84.30030086040364L135.42857142857142,82.85409138202587L135.85714285714286,83.92973018169354L136.28571428571428,84.29161404895753L136.71428571428572,83.924634338188L137.14285714285714,83.35237326190936L137.57142857142858,83.90898796776574L138,84.73707681691432L138.42857142857142,84.06114028570524L138.85714285714286,83.6498169152586L139.28571428571428,84.19963441185047L139.7142857142857,84.2010508650058L140.14285714285714,84.74007532796344L140.57142857142858,84.93621862054516L141,85.34576948714643L141.42857142857142,83.87574172158475L141.85714285714286,84.7470668896403L142.2857142857143,84.6345439591626L142.71428571428572,83.93824769965528L143.14285714285714,84.18304368204902L143.57142857142858,84.86782765118498L144,84.47415221052302L144.42857142857142,85.12544477174839L144.85714285714286,83.72666994685028L145.28571428571428,84.63955520602522L145.71428571428572,84.1758952558783L146.14285714285714,84.64700035695716L146.57142857142856,85.74587134149363L147,86.03310328737909L147.42857142857144,85.6720990634919L147.85714285714286,85.83055447441104L148.28571428571428,86.05976395906069L148.71428571428572,84.7519868773285L149.14285714285714,84.62097888481995L149.57142857142856,85.45928349788417L150,85.28836993393558L150.42857142857144,85.27826304922853L150.85714285714286,85.16796654993507L151.2857142857143,85.59598336776622L151.7142857142857,84.80915248251276L152.14285714285714,84.03698315057945L152.57142857142856,84.58559549947853L153,85.03332930743856L153.42857142857144,85.03743849480249L153.85714285714286,84.70718271663247L154.28571428571428,85.1630949159292L154.7142857142857,85.60302834390566L155.14285714285714,83.88152151989321L155.57142857142858,83.56177107386219L156,82.820620536163L156.42857142857144,84.12169761619242L156.85714285714286,84.62693832374379L157.28571428571428,84.60301426682928L157.7142857142857,84.96604680320058L158.14285714285714,84.97438985407612L158.57142857142858,85.17976315438904L159,84.33805091631505L159.42857142857144,84.46113384873922L159.85714285714283,84.61534516520058L160.28571428571428,84.61190321270678L160.71428571428572,84.87988953962356L161.14285714285714,85.12369784578343L161.57142857142858,85.80374042072688L162,85.80715044903036L162.42857142857144,85.3056177459197L162.85714285714283,85.33934442532282L163.28571428571428,80.22692479331624L163.71428571428572,82.36275651478368L164.14285714285714,81.80553762926817L164.57142857142858,83.46867818363998L165,84.5206121988803L165.42857142857142,85.16345508025346L165.85714285714286,84.18705448583519L166.28571428571428,84.56072161362026L166.71428571428572,84.73796792605789L167.14285714285714,84.76797393190425L167.57142857142858,83.90032663361765L168.00000000000003,84.76597002039277L168.42857142857142,84.68081782156183L168.85714285714286,84.99760385211678L169.28571428571428,84.01454612169488L169.71428571428572,82.02681761594906L170.14285714285714,82.70386835582431L170.57142857142858,82.76227958588228L170.99999999999997,83.31694679968611L171.42857142857142,84.96966618009243L171.85714285714286,85.30035031382937L172.28571428571428,85.52557514038503L172.71428571428572,85.98666832641854L173.14285714285717,85.63855472204739L173.57142857142858,85.33190484403167L174,80.3936579821026L174.42857142857142,82.53229372724982L174.85714285714286,83.81066434517558L175.28571428571428,84.2252739580575L175.71428571428572,85.94089786482472L176.14285714285717,85.80674414797198L176.57142857142856,86.26827313520653L177,87.01789098988856L177.42857142857142,86.7581781364136L177.85714285714286,84.85866760114747L178.28571428571428,85.62421259224367L178.71428571428572,85.8061920603511L179.14285714285717,85.70687426331027L179.57142857142856,85.28313403369418L180,86.12938489104168L180.42857142857142,86.29760018816508L180.85714285714286,86.72943428892442L181.2857142857143,87.05299035393327L181.71428571428572,86.58164067079504L182.14285714285714,85.46524351960346L182.57142857142856,86.05926131561951L183,85.39904567334385L183.42857142857142,86.21533011396727L183.85714285714286,86.81933505415915L184.2857142857143,85.72715649056435L184.71428571428572,86.22148474364282L185.14285714285714,86.38531027977945L185.57142857142856,85.86290339198875L186,85.86335143308145L186.42857142857144,86.34039481675804L186.85714285714286,86.78888532755482L187.2857142857143,86.37765980981415L187.7142857142857,86.88002186550274L188.14285714285714,86.87584789713367L188.57142857142856,86.82719079089252L189,86.80815800328307L189.42857142857144,83.99678822695765L189.85714285714286,84.93805069648953L190.28571428571428,85.56762705638249L190.7142857142857,86.07142202850721L191.14285714285714,85.83769387719954L191.57142857142858,85.71347837160782L192,85.67383691615315L192.42857142857144,85.99808175174267L192.85714285714286,85.89967054610176L193.28571428571428,85.62595287850334L193.7142857142857,85.62567411357661L194.14285714285714,86.35358867224754L194.57142857142858,86.64927180991592L195,87.20548101655257L195.42857142857144,86.98996059174304L195.85714285714283,86.92034064337591L196.28571428571428,87.65381155613055L196.71428571428572,87.10556578041904L197.14285714285714,86.80479069353218L197.57142857142858,86.11319286704705L198,86.50433494019892L198.42857142857144,86.83303336005442L198.85714285714283,86.72194514573236L199.28571428571428,87.31344216525926L199.71428571428572,86.71485237038358L200.14285714285714,87.01180460307731L200.57142857142858,86.36924237640937L201,86.9411075748935L201.42857142857142,87.05202015864457L201.85714285714283,86.99398862259154L202.28571428571428,86.96563393435814L202.71428571428572,86.8522381792184L203.14285714285714,85.64416662274101L203.57142857142858,86.7873954738277L204.00000000000003,87.51649104863989L204.42857142857142,87.73307463711849L204.85714285714286,87.71424896470519L205.28571428571428,86.15430793137438L205.71428571428572,86.45404399496964L206.14285714285714,87.51491073764952L206.57142857142858,87.92464449404234L206.99999999999997,87.95664899348351L207.42857142857142,87.15842493533572L207.85714285714286,87.18607047176052L208.28571428571428,87.09979364261443L208.71428571428572,87.40991257778057L209.14285714285714,87.29811315030604L209.57142857142858,87.60885503465384L210,87.20740122422248L210.42857142857142,87.35317768826883L210.85714285714286,88.06807991847279L211.28571428571428,87.97349813571503L211.71428571428572,87.73196841115313L212.14285714285717,87.33215132257078L212.57142857142856,86.79748659432371L213,87.859145891073L213.42857142857142,87.36298410141625L213.85714285714286,87.37247391727065L214.28571428571428,88.10073261848984L214.71428571428572,88.47997146959244L215.14285714285717,87.86925920316659L215.57142857142856,88.41066450398614L216,88.38744232726962L216.42857142857142,87.5087242846064L216.85714285714286,87.01955231215788L217.2857142857143,87.82468361965557L217.71428571428572,87.73199748105847L218.14285714285714,87.65740390245345L218.57142857142856,87.6709344984545L219,87.49172589072307L219.42857142857142,87.56749433570339L219.85714285714286,87.330763096173L220.2857142857143,87.78704958591427L220.71428571428572,86.17174772640209L221.14285714285714,86.85210045468891L221.57142857142856,85.5208968847518L222,86.62699827489405L222.42857142857144,86.96904991708487L222.85714285714286,87.95242318297798L223.2857142857143,87.31080697527752L223.7142857142857,87.93150085539357L224.14285714285714,88.28835752922734L224.57142857142856,88.57162592958474L225,88.20680745930115L225.42857142857144,85.99174480730676L225.85714285714286,86.99482200798025L226.2857142857143,87.83872229490656L226.7142857142857,88.58164865633236L227.14285714285714,87.86521916663878L227.57142857142856,87.39596495793003L228,87.58813820937716L228.42857142857144,87.62055805837778L228.85714285714286,87.75028218457498L229.28571428571428,87.49749692457556L229.7142857142857,87.51038871871017L230.14285714285714,88.13993789354912L230.57142857142858,88.25719172477693L231,88.49929096412642L231.42857142857144,88.615634606552L231.85714285714286,88.86160982505791L232.28571428571428,89.39366236720272L232.7142857142857,88.56778414364928L233.14285714285714,88.55486112187073L233.57142857142858,88.27330424636462L234,88.19635643392716L234.42857142857144,88.73625334399888L234.85714285714283,89.12792674242228L235.28571428571428,88.35859125816089L235.71428571428572,88.46166316248932L236.14285714285714,86.98786043869232L236.57142857142858,86.89397732583745L237,87.67324468712846L237.42857142857144,88.68574099791549L237.85714285714283,87.9769066348821L238.28571428571428,88.04271121115386L238.71428571428572,87.24193867737591L239.14285714285714,87.73283826288306L239.57142857142858,87.85162148342563L240,88.48870535770673L240.42857142857142,88.98053869771731L240.85714285714286,87.16950726251466L241.28571428571428,87.82229002798L241.71428571428572,88.7792439966464L242.14285714285714,89.11632941419266L242.57142857142858,89.57757268818845L243.00000000000003,89.60260058923144L243.42857142857142,89.45217335631595L243.85714285714286,90.08654773479788L244.28571428571428,89.91300524381451L244.71428571428572,89.22344393913538L245.14285714285714,88.71415940394753L245.57142857142858,88.71833546323033L245.99999999999997,89.10827920533688L246.42857142857142,89.72040649948997L246.85714285714286,89.95453630386879L247.28571428571428,89.2890050846284L247.71428571428572,89.70504211175117L248.14285714285717,89.26001386873526L248.57142857142858,89.78234466691379L249,90.21690847861507L249.42857142857142,90.20586886875473L249.85714285714286,89.87450055404092L250.28571428571428,89.86565639092674L250.71428571428572,90.58136315294593L251.14285714285717,89.86936282127195L251.57142857142856,89.66793378239329L252,89.27668705013666L252.42857142857142,88.44079246537252L252.85714285714286,89.1405234910033L253.28571428571428,89.33245883566033L253.71428571428572,89.55475180972749L254.14285714285717,90.07623283403595L254.57142857142856,89.409713699445L255,89.2191089356094L255.42857142857142,89.35870149875578L255.85714285714286,89.5297360703045L256.2857142857143,89.5191376665052L256.7142857142857,90.2207581698189L257.1428571428571,88.86243834610521L257.57142857142856,89.20996447632157L258,88.65530848163033L258.42857142857144,88.02517372880975L258.8571428571429,88.80505809852242L259.2857142857143,88.54327896159147L259.7142857142857,89.00484608484061L260.1428571428571,89.64164283080548L260.57142857142856,90.45058605553896L261,90.5689369909894L261.42857142857144,89.97000479179212L261.8571428571429,89.65187702821247L262.2857142857143,90.27951864627929L262.7142857142857,90.50332329409082L263.1428571428571,90.66405036530948L263.57142857142856,89.5102244238976L264,89.67046074991963L264.42857142857144,90.03010153845273L264.8571428571429,90.20595307395052L265.2857142857143,90.26874878910299L265.7142857142857,90.6467711621947L266.1428571428571,89.85584467973871L266.57142857142856,90.07057162717916L267,90.078690613484L267.42857142857144,90.89587746928669L267.8571428571429,90.79826008600317L268.2857142857143,90.69463354183628L268.7142857142857,91.29521808286545L269.14285714285717,91.20892049586796L269.57142857142856,91.09636660645022L270,90.6816906799651L270.42857142857144,91.0065400045977L270.85714285714283,90.908343806378L271.2857142857143,90.73368948847767L271.7142857142857,90.47125651687813L272.14285714285717,89.90821531683464L272.57142857142856,90.44506520313178L273,88.16397843767497L273.42857142857144,88.73938346153076L273.85714285714283,89.18270526078686L274.2857142857143,88.79442387668696L274.7142857142857,89.43701407103781L275.14285714285717,89.58654558175235L275.57142857142856,90.09230275340931L276,90.6194385444406L276.4285714285714,89.56460994215509L276.85714285714283,89.6230292709571L277.2857142857143,90.1778014988841L277.7142857142857,88.91826850003845L278.14285714285717,89.82523848192005L278.57142857142856,89.88973802552289L279,90.51833979025879L279.4285714285714,89.84181552729248L279.85714285714283,90.28375274182106L280.2857142857143,89.74672373676744L280.7142857142857,90.76619124737053L281.14285714285717,90.18586575702827L281.57142857142856,91.126660330987L282,91.30404017442228L282.42857142857144,91.3508538608179L282.85714285714283,91.27987022664699L283.2857142857143,91.27334938208195L283.7142857142857,91.08029354190788L284.14285714285717,91.09498221263861L284.5714285714286,91.11033603778824L285,91.43688142079918L285.42857142857144,91.74172962533717L285.85714285714283,91.00875954644255L286.2857142857143,91.09789710054616L286.7142857142857,90.83842959409844L287.14285714285717,91.53263960841828L287.57142857142856,91.28006992914399" style="fill: none;" fill="none"></path></g></g></g></g><g opacity="0.2"><g><g><g><path stroke="rgb(255, 112, 67)" stroke-width="2px" d="M21.428571428571427,139.00535018444063L21.857142857142858,142.16329498291017L22.285714285714285,-8.550612258911148L22.714285714285715,34.567751216888425L23.142857142857142,64.29966850280762L23.57142857142857,-69.34382457733153L24,26.844579505920407L24.42857142857143,-206.5673282623291L25.285714285714285,-94.28230400085448L25.714285714285715,1.9261310577392539L26.142857142857142,-18.003399276733408L26.57142857142857,5.005791664123535L27,65.52494459152221L27.428571428571427,22.32588005065918L27.857142857142858,-280.6181095123291L28.28571428571429,-18.169944953918442L28.71428571428571,21.32389841079711L29.142857142857142,-161.1047550201416L29.571428571428573,65.34932556152344L30,-40.08627643585206L30.428571428571427,-28.052837753295908L30.857142857142858,77.48433656692505L31.285714285714285,63.83653707504273L31.714285714285715,7.673187637329109L32.14285714285714,-144.74141731262208L33.42857142857143,-38.11762199401855L33.857142857142854,4.418374824523922L34.285714285714285,48.29738063812256L34.714285714285715,28.173414039611814L35.142857142857146,47.67131080627442L35.57142857142858,5.288754653930668L36,10.67214717864991L36.42857142857143,-88.01725997924805L36.85714285714286,32.96646995544434L37.285714285714285,40.168887233734125L37.714285714285715,45.75572147369385L38.14285714285714,23.688020324707022L38.57142857142857,27.796975994110117L39,19.800271129608145L39.42857142857142,38.19383306503296L39.85714285714286,44.27165536880493L40.285714285714285,40.28539791107178L40.71428571428571,62.7398157119751L41.142857142857146,17.42764453887939L41.57142857142857,-11.526841735839836L42.00000000000001,20.45944299697877L42.42857142857143,-3.6886192321777265L42.857142857142854,55.66917848587036L43.28571428571429,-69.57299251556395L43.714285714285715,24.10586986541747L44.14285714285714,59.21590032577515L44.57142857142857,44.9646677017212L45,-18.285513496398917L45.42857142857143,67.93708992004395L45.857142857142854,56.28272047042847L46.285714285714285,2.2743305206298907L46.714285714285715,65.27326726913452L47.14285714285714,55.59697360992432L47.57142857142857,72.73736038208008L48,60.618874931335455L48.42857142857142,68.16746311187744L48.85714285714286,77.63724250793457L49.285714285714285,73.68640422821045L49.71428571428571,81.2200795173645L50.142857142857146,71.63169298171997L50.57142857142857,73.55507402420044L51.00000000000001,70.39219999313354L51.42857142857143,74.28260583877564L51.857142857142854,75.5960521697998L52.285714285714285,72.43168430328369L52.714285714285715,79.08774824142456L53.14285714285714,67.63009824752808L53.57142857142857,74.63953914642335L54,81.25599098205566L54.42857142857143,78.52103290557861L54.857142857142854,77.56541109085083L55.285714285714285,79.47836923599243L55.714285714285715,78.60472164154052L56.14285714285714,79.37385168075562L56.57142857142858,81.41800422668457L57,81.97428817749024L57.42857142857142,74.31568241119385L57.85714285714286,14.791992568969734L58.285714285714285,81.85898275375366L58.71428571428571,72.991490650177L59.142857142857146,72.78394937515259L59.57142857142857,74.77317800521851L60,72.36648178100586L60.42857142857143,82.58783864974976L60.857142857142854,67.86855173110962L61.285714285714285,81.39311828613282L61.714285714285715,69.6658140182495L62.142857142857146,80.17491245269775L62.57142857142857,79.3225435256958L63,78.67279300689697L63.42857142857143,82.1037935256958L63.857142857142854,80.1594054222107L64.28571428571428,82.64778728485108L64.71428571428572,81.41894636154174L65.14285714285714,81.9588490486145L65.57142857142857,53.459643077850345L66,82.56121273040772L66.42857142857143,79.145006275177L66.85714285714286,79.7618839263916L67.28571428571429,75.8513367652893L67.71428571428571,72.7723551750183L68.14285714285714,75.37679786682129L68.57142857142857,81.90942516326905L69,80.74516716003419L69.42857142857143,51.677947235107425L69.85714285714285,80.34511632919312L70.28571428571429,81.78373079299926L70.71428571428571,79.81899766921997L71.14285714285715,80.50548295974731L71.57142857142857,77.99617891311645L72,80.50479545593262L72.42857142857143,78.12513256072998L72.85714285714286,80.43162298202515L73.28571428571428,82.01973133087158L73.71428571428572,75.99070482254028L74.14285714285714,79.62449350357056L74.57142857142857,81.27899265289307L75,82.44353923797607L75.42857142857143,81.35673151016235L75.85714285714285,81.02438707351685L76.28571428571428,84.40016660690307L76.71428571428572,82.49822549819946L77.14285714285714,74.88948497772216L77.57142857142857,73.88673095703125L78,74.2212142944336L78.42857142857143,80.72056980133057L78.85714285714285,78.78941402435302L79.28571428571429,81.50035190582275L79.71428571428572,81.76702699661254L80.14285714285714,81.11983127593994L80.57142857142857,79.75719871520997L81,79.63555297851562L81.42857142857142,82.79616928100586L81.85714285714286,78.23681373596192L82.28571428571429,80.64423990249634L82.71428571428571,80.71183595657348L83.14285714285714,83.16010494232178L83.57142857142857,80.62689952850342L84.00000000000001,82.04664583206177L84.42857142857143,81.72790718078613L84.85714285714286,79.66336717605591L85.28571428571429,83.64309759140015L85.71428571428571,81.53467617034912L86.14285714285714,81.91312580108642L86.57142857142858,83.0099744796753L87,78.22619562149048L87.42857142857143,82.9362587928772L87.85714285714286,73.11485090255738L88.28571428571428,58.94581317901611L88.71428571428571,82.4342282295227L89.14285714285714,82.4106409072876L89.57142857142858,81.20705938339233L90,81.42630519866944L90.42857142857143,81.93821544647217L90.85714285714286,84.03050174713135L91.28571428571428,82.35724477767944L91.71428571428571,77.2931510925293L92.14285714285715,82.92982511520385L92.57142857142857,82.77656269073486L93,81.11097011566162L93.42857142857143,82.84079761505127L93.85714285714285,83.9596209526062L94.28571428571428,79.44615840911865L94.71428571428572,84.03268308639527L95.14285714285714,81.78033571243286L95.57142857142857,82.27557611465454L96,81.9998106956482L96.42857142857143,83.2060658454895L96.85714285714285,79.43397855758667L97.28571428571429,83.13220586776734L97.71428571428572,79.89472494125366L98.14285714285714,80.63109245300294L98.57142857142857,82.73796911239624L99,82.99377994537353L99.42857142857142,84.20747032165528L99.85714285714286,82.61694297790527L100.28571428571429,84.66794509887696L100.71428571428571,84.38140878677368L101.14285714285714,81.44922199249268L101.57142857142857,83.84667510986328L102.00000000000001,81.26490306854248L102.42857142857143,82.89225854873658L102.85714285714286,83.18498239517211L103.28571428571429,85.25931720733642L103.71428571428571,82.09501724243164L104.14285714285714,74.11981172561646L104.57142857142857,80.94076623916627L105,81.00706367492675L105.42857142857143,82.86210174560547L105.85714285714286,78.03225164413452L106.28571428571428,80.66506872177123L106.71428571428571,76.91707801818848L107.14285714285714,82.14164018630981L107.57142857142858,79.25653467178344L108,81.24878492355347L108.42857142857143,81.34205627441406L108.85714285714286,79.19192628860473L109.28571428571428,81.21057329177856L109.71428571428571,79.81539888381958L110.14285714285715,82.12381601333618L110.57142857142857,83.24759616851807L111,82.88354167938232L111.42857142857143,81.32345123291016L111.85714285714285,83.13484554290771L112.28571428571428,83.90823640823365L112.71428571428572,84.05834140777588L113.14285714285715,83.52267408370972L113.57142857142857,85.86866626739501L114,82.89097690582275L114.42857142857143,81.29344720840454L114.85714285714285,82.3861623764038L115.28571428571429,84.45702571868897L115.71428571428572,85.00148630142212L116.14285714285714,82.86738109588623L116.57142857142857,84.5916576385498L117,83.91872720718384L117.42857142857142,85.91971130371094L117.85714285714286,84.39413185119629L118.28571428571429,84.58565683364868L118.71428571428572,84.79119501113891L119.14285714285714,82.51659288406373L119.57142857142857,79.8990876197815L120,81.39056348800659L120.42857142857143,85.44857597351074L120.85714285714286,84.8371304512024L121.28571428571429,84.27996377944946L121.71428571428571,86.70363540649414L122.14285714285714,86.26578884124756L122.57142857142857,84.14923620223999L122.99999999999999,82.24859371185303L123.42857142857143,82.53582601547241L123.85714285714286,84.3826904296875L124.28571428571429,85.11749620437622L124.71428571428571,82.192506980896L125.14285714285714,85.36419973373413L125.57142857142858,86.13060522079468L126,85.0105936050415L126.42857142857143,85.7709303855896L126.85714285714286,82.11278200149536L127.28571428571428,85.2087474822998L127.71428571428571,83.57230167388916L128.14285714285714,84.12749071121216L128.57142857142856,81.31449670791626L129,84.9580717086792L129.42857142857144,84.25664806365967L129.85714285714286,85.16317701339722L130.28571428571428,83.96933937072754L130.71428571428572,85.65707635879517L131.14285714285714,82.52793245315551L131.57142857142856,83.70281705856323L132,84.08120727539062L132.42857142857144,85.22290496826172L132.85714285714286,85.13099164962769L133.28571428571428,80.69619312286378L133.71428571428572,84.90690784454345L134.14285714285714,85.0872205734253L134.57142857142858,84.44510898590087L135,84.18476572036744L135.42857142857142,80.68477716445923L135.85714285714286,85.54318838119507L136.28571428571428,84.83443984985351L136.71428571428572,83.3741647720337L137.14285714285714,82.49398164749145L137.57142857142858,84.7439100265503L138,85.97921009063721L138.42857142857142,83.0472354888916L138.85714285714286,83.03283185958863L139.28571428571428,85.02436065673828L139.7142857142857,84.20317554473877L140.14285714285714,85.54861202239991L140.57142857142858,85.23043355941772L141,85.96009578704835L141.42857142857142,81.67070007324219L141.85714285714286,86.05405464172364L142.2857142857143,84.46575956344604L142.71428571428572,82.89380331039429L143.14285714285714,84.55023765563965L143.57142857142858,85.89500360488891L144,83.88363904953003L144.42857142857142,86.10238361358643L144.85714285714286,81.62850770950317L145.28571428571428,86.00888309478759L145.71428571428572,83.48040533065796L146.14285714285714,85.35365800857544L146.57142857142856,87.39417781829835L147,86.46395120620727L147.42857142857144,85.13059272766114L147.85714285714286,86.06823759078979L148.28571428571428,86.40357818603516L148.71428571428572,82.79032125473023L149.14285714285714,84.42446689605713L149.57142857142856,86.71674041748047L150,85.0319995880127L150.42857142857144,85.26310272216797L150.85714285714286,85.00252180099487L151.2857142857143,86.23800859451293L151.7142857142857,83.62890615463257L152.14285714285714,82.87872915267944L152.57142857142856,85.40851402282715L153,85.70493001937866L153.42857142857144,85.04360227584839L153.85714285714286,84.21179904937745L154.28571428571428,85.84696321487426L154.7142857142857,86.26292848587036L155.14285714285714,81.29926128387451L155.57142857142858,83.08214540481568L156,81.70889472961426L156.42857142857144,86.07331323623657L156.85714285714286,85.3847993850708L157.28571428571428,84.56712818145752L157.7142857142857,85.51059560775757L158.14285714285714,84.9869044303894L158.57142857142858,85.48782310485839L159,83.0754825592041L159.42857142857144,84.64575824737548L159.85714285714283,84.84666213989257L160.28571428571428,84.60674028396606L160.71428571428572,85.28186902999877L161.14285714285714,85.4894103050232L161.57142857142858,86.8238042831421L162,85.81226549148559L162.42857142857144,84.55331869125366L162.85714285714283,85.3899344444275L163.28571428571428,72.55829534530639L163.71428571428572,85.56650409698486L164.14285714285714,80.96970930099488L164.57142857142858,85.96338901519775L165,86.09851322174072L165.42857142857142,86.12771940231323L165.85714285714286,82.72245359420776L166.28571428571428,85.12122230529785L166.71428571428572,85.00383739471435L167.14285714285714,84.81298294067383L167.57142857142858,82.59885568618775L168.00000000000003,86.06443510055541L168.42857142857142,84.55308952331544L168.85714285714286,85.47278289794922L169.28571428571428,82.539959526062L169.71428571428572,79.04522485733033L170.14285714285714,83.71944446563721L170.57142857142858,82.84989643096924L170.99999999999997,84.14894762039185L171.42857142857142,87.4487452507019L171.85714285714286,85.79637651443481L172.28571428571428,85.8634123802185L172.71428571428572,86.67830810546874L173.14285714285717,85.11638431549072L173.57142857142858,84.87193002700806L174,72.98628768920898L174.42857142857142,85.7402473449707L174.85714285714286,85.7282202720642L175.28571428571428,84.84718837738038L175.71428571428572,88.51433372497559L176.14285714285717,85.60551357269287L176.57142857142856,86.96056661605834L177,88.14231777191162L177.42857142857142,86.36860885620118L177.85714285714286,82.00940179824829L178.28571428571428,86.77253007888794L178.71428571428572,86.0791612625122L179.14285714285717,85.55789756774902L179.57142857142856,84.64752368927002L180,87.398761177063L180.42857142857142,86.5499231338501L180.85714285714286,87.37718544006347L181.2857142857143,87.53832445144653L181.71428571428572,85.87461614608765L182.14285714285714,83.79064779281616L182.57142857142856,86.95028800964356L183,84.40872220993042L183.42857142857142,87.43975677490235L183.85714285714286,87.72534246444702L184.2857142857143,84.08888864517212L184.71428571428572,86.9629771232605L185.14285714285714,86.63104858398438L185.57142857142856,85.07929306030273L186,85.86402349472046L186.42857142857144,87.05595989227295L186.85714285714286,87.46162109375L187.2857142857143,85.76082153320313L187.7142857142857,87.63356494903564L188.14285714285714,86.86958694458008L188.57142857142856,86.75420513153077L189,86.77960882186889L189.42857142857144,79.77973356246949L189.85714285714286,86.34994440078735L190.28571428571428,86.51199159622192L190.7142857142857,86.82711448669434L191.14285714285714,85.48710165023803L191.57142857142858,85.52715511322022L192,85.61437473297119L192.42857142857144,86.48444900512695L192.85714285714286,85.75205373764038L193.28571428571428,85.21537637710571L193.7142857142857,85.62525596618653L194.14285714285714,87.44546051025391L194.57142857142858,87.09279651641846L195,88.03979482650757L195.42857142857144,86.6666799545288L195.85714285714283,86.8159107208252L196.28571428571428,88.75401792526245L196.71428571428572,86.28319711685181L197.14285714285714,86.35362806320191L197.57142857142858,85.07579612731934L198,87.09104804992675L198.42857142857144,87.32608098983765L198.85714285714283,86.55531282424927L199.28571428571428,88.20068769454956L199.71428571428572,85.81696767807007L200.14285714285714,87.45723295211792L200.57142857142858,85.40539903640747L201,87.79890537261963L201.42857142857142,87.21838903427124L201.85714285714283,86.90694131851197L202.28571428571428,86.92310190200806L202.71428571428572,86.6821445465088L203.14285714285714,83.83205928802491L203.57142857142858,88.50223875045776L204.00000000000003,88.61013441085815L204.42857142857142,88.05795001983643L204.85714285714286,87.6860104560852L205.28571428571428,83.81439638137817L205.71428571428572,86.90364809036255L206.14285714285714,89.10621085166932L206.57142857142858,88.53924512863159L206.99999999999997,88.00465574264527L207.42857142857142,85.96108884811402L207.85714285714286,87.22753877639771L208.28571428571428,86.97037839889526L208.71428571428572,87.87509098052979L209.14285714285714,87.13041400909424L209.57142857142858,88.07496786117554L210,86.60522050857544L210.42857142857142,87.57184238433838L210.85714285714286,89.14043326377869L211.28571428571428,87.83162546157837L211.71428571428572,87.3696738243103L212.14285714285717,86.73242568969727L212.57142857142856,85.99548950195313L213,89.4516348361969L213.42857142857142,86.61874141693116L213.85714285714286,87.38670864105225L214.28571428571428,89.1931206703186L214.71428571428572,89.04882974624634L215.14285714285717,86.95319080352783L215.57142857142856,89.22277245521545L216,88.35260906219483L216.42857142857142,86.19064722061157L216.85714285714286,86.2857943534851L217.2857142857143,89.0323805809021L217.71428571428572,87.59296827316284L218.14285714285714,87.5455135345459L218.57142857142856,87.69123039245605L219,87.22291297912598L219.42857142857142,87.68114700317383L219.85714285714286,86.97566623687744L220.2857142857143,88.47147932052613L220.71428571428572,83.7487949371338L221.14285714285714,87.87262954711915L221.57142857142856,83.52409152984619L222,88.28615036010743L222.42857142857144,87.4821273803711L222.85714285714286,89.42748308181763L223.2857142857143,86.34838266372681L223.7142857142857,88.86254167556763L224.14285714285714,88.82364253997802L224.57142857142856,88.99652853012086L225,87.65957975387573L225.42857142857144,82.66915082931519L225.85714285714286,88.49943780899048L226.2857142857143,89.10457272529602L226.7142857142857,89.69603819847107L227.14285714285714,86.7905749320984L227.57142857142856,86.69208364486694L228,87.87639808654785L228.42857142857144,87.66918783187866L228.85714285714286,87.94486837387085L229.28571428571428,87.11831903457642L229.7142857142857,87.52972640991212L230.14285714285714,89.0842616558075L230.57142857142858,88.43307247161866L231,88.86243982315064L231.42857142857144,88.79015007019044L231.85714285714286,89.23057265281678L232.28571428571428,90.19174118041992L232.7142857142857,87.3289668083191L233.14285714285714,88.53547658920289L233.57142857142858,87.85096893310546L234,88.080934715271L234.42857142857144,89.54609870910645L234.85714285714283,89.71543684005738L235.28571428571428,87.2045880317688L235.71428571428572,88.61627101898193L236.14285714285714,84.77715635299683L236.57142857142858,86.75315265655517L237,88.84214572906494L237.42857142857144,90.20448546409607L237.85714285714283,86.91365509033203L238.28571428571428,88.14141807556152L238.71428571428572,86.04077987670898L239.14285714285714,88.4691876411438L239.57142857142858,88.0297963142395L240,89.44433116912842L240.42857142857142,89.71828870773315L240.85714285714286,84.45296010971069L241.28571428571428,88.80146417617797L241.71428571428572,90.214674949646L242.14285714285714,89.62195754051208L242.57142857142858,90.26943759918213L243.00000000000003,89.6401424407959L243.42857142857142,89.22653250694275L243.85714285714286,91.03810930252075L244.28571428571428,89.65269150733948L244.71428571428572,88.1891019821167L245.14285714285714,87.95023260116577L245.57142857142858,88.72459955215454L245.99999999999997,89.6931948184967L246.42857142857142,90.63859744071961L246.85714285714286,90.30573101043701L247.28571428571428,88.29070825576783L247.71428571428572,90.32909765243531L248.14285714285717,88.59247150421143L248.57142857142858,90.56584086418152L249,90.86875419616699L249.42857142857142,90.18930945396423L249.85714285714286,89.37744808197021L250.28571428571428,89.85239014625549L250.71428571428572,91.65492329597473L251.14285714285717,88.80136232376098L251.57142857142856,89.36579022407531L252,88.68981695175171L252.42857142857142,87.18695058822632L252.85714285714286,90.19012002944946L253.28571428571428,89.62036185264587L253.71428571428572,89.88819127082824L254.14285714285717,90.85845437049866L254.57142857142856,88.4099349975586L255,88.93320178985596L255.42857142857142,89.56809034347535L255.85714285714286,89.78628792762757L256.2857142857143,89.50324006080628L256.7142857142857,91.27318892478942L257.1428571428571,86.82495861053467L257.57142857142856,89.73125367164612L258,87.8233244895935L258.42857142857144,87.07997159957885L258.8571428571429,89.97488465309144L259.2857142857143,88.15061025619507L259.7142857142857,89.69719676971435L260.1428571428571,90.59683794975281L260.57142857142856,91.66400089263917L261,90.74646339416503L261.42857142857144,89.07160649299621L261.8571428571429,89.17468538284302L262.2857142857143,91.22098107337952L262.7142857142857,90.8390302658081L263.1428571428571,90.90514097213745L263.57142857142856,87.77948551177978L264,89.91081523895264L264.42857142857144,90.56956272125244L264.8571428571429,90.46973037719727L265.2857142857143,90.36294236183167L265.7142857142857,91.21380472183228L266.1428571428571,88.6694549560547L266.57142857142856,90.39266204833984L267,90.09086909294129L267.42857142857144,92.12165775299073L267.8571428571429,90.65183401107788L268.2857142857143,90.53919372558593L268.7142857142857,92.19609489440919L269.14285714285717,91.07947411537171L269.57142857142856,90.92753577232361L270,90.05967679023743L270.42857142857144,91.49381399154663L270.85714285714283,90.76104950904846L271.2857142857143,90.4717080116272L271.7142857142857,90.07760705947877L272.14285714285717,89.0636535167694L272.57142857142856,91.25034003257751L273,84.74234828948974L273.42857142857144,89.60249099731445L273.85714285714283,89.84768795967102L274.2857142857143,88.21200180053711L274.7142857142857,90.40089936256409L275.14285714285717,89.81084284782409L275.57142857142856,90.85093851089478L276,91.41014223098755L276.4285714285714,87.9823670387268L276.85714285714283,89.71065826416016L277.2857142857143,91.00995984077454L277.7142857142857,87.02896900177002L278.14285714285717,91.18569345474243L278.57142857142856,89.98648734092713L279,91.46124243736267L279.4285714285714,88.82702913284302L279.85714285714283,90.9466585636139L280.2857142857143,88.94118022918701L280.7142857142857,92.29539251327515L281.14285714285717,89.31537752151489L281.57142857142856,92.53785219192505L282,91.57010993957519L282.42857142857144,91.42107439041138L282.85714285714283,91.17339477539062L283.2857142857143,91.26356811523438L283.7142857142857,90.79070978164673L284.14285714285717,91.11701521873474L284.5714285714286,91.1333667755127L285,91.92669949531555L285.42857142857144,92.19900193214417L285.85714285714283,89.90930442810058L286.2857142857143,91.23160343170166L286.7142857142857,90.44922833442688L287.14285714285717,92.57395462989807L287.57142857142856,90.90121541023254" style="fill: none;" fill="none"></path></g></g></g></g></g></g><g transform="translate(30, 178)" clip-path="url(#clip_1)"><clipPath id="clip_1"><rect width="300" height="22"></rect></clipPath><g><g><line x1="0" y1="0" x2="0" y2="5" style="visibility: inherit;" fill="rgb(0, 0, 0)" stroke="rgb(204, 204, 204)" stroke-width="1px"></line><line x1="21.428571428571427" y1="0" x2="21.428571428571427" y2="5" style="visibility: inherit;" fill="rgb(0, 0, 0)" stroke="rgb(204, 204, 204)" stroke-width="1px"></line><line x1="42.857142857142854" y1="0" x2="42.857142857142854" y2="5" style="visibility: inherit;" fill="rgb(0, 0, 0)" stroke="rgb(204, 204, 204)" stroke-width="1px"></line><line x1="64.28571428571428" y1="0" x2="64.28571428571428" y2="5" style="visibility: inherit;" fill="rgb(0, 0, 0)" stroke="rgb(204, 204, 204)" stroke-width="1px"></line><line x1="85.71428571428571" y1="0" x2="85.71428571428571" y2="5" style="visibility: inherit;" fill="rgb(0, 0, 0)" stroke="rgb(204, 204, 204)" stroke-width="1px"></line><line x1="107.14285714285714" y1="0" x2="107.14285714285714" y2="5" style="visibility: inherit;" fill="rgb(0, 0, 0)" stroke="rgb(204, 204, 204)" stroke-width="1px"></line><line x1="128.57142857142856" y1="0" x2="128.57142857142856" y2="5" style="visibility: inherit;" fill="rgb(0, 0, 0)" stroke="rgb(204, 204, 204)" stroke-width="1px"></line><line x1="150" y1="0" x2="150" y2="5" style="visibility: inherit;" fill="rgb(0, 0, 0)" stroke="rgb(204, 204, 204)" stroke-width="1px"></line><line x1="171.42857142857142" y1="0" x2="171.42857142857142" y2="5" style="visibility: inherit;" fill="rgb(0, 0, 0)" stroke="rgb(204, 204, 204)" stroke-width="1px"></line><line x1="192.85714285714286" y1="0" x2="192.85714285714286" y2="5" style="visibility: inherit;" fill="rgb(0, 0, 0)" stroke="rgb(204, 204, 204)" stroke-width="1px"></line><line x1="214.28571428571428" y1="0" x2="214.28571428571428" y2="5" style="visibility: inherit;" fill="rgb(0, 0, 0)" stroke="rgb(204, 204, 204)" stroke-width="1px"></line><line x1="235.71428571428572" y1="0" x2="235.71428571428572" y2="5" style="visibility: inherit;" fill="rgb(0, 0, 0)" stroke="rgb(204, 204, 204)" stroke-width="1px"></line><line x1="257.1428571428571" y1="0" x2="257.1428571428571" y2="5" style="visibility: inherit;" fill="rgb(0, 0, 0)" stroke="rgb(204, 204, 204)" stroke-width="1px"></line><line x1="278.57142857142856" y1="0" x2="278.57142857142856" y2="5" style="visibility: inherit;" fill="rgb(0, 0, 0)" stroke="rgb(204, 204, 204)" stroke-width="1px"></line><line x1="300" y1="0" x2="300" y2="5" style="visibility: inherit;" fill="rgb(0, 0, 0)" stroke="rgb(204, 204, 204)" stroke-width="1px"></line></g><g transform="translate(0, 8)"><text x="0" y="0" dx="0em" dy="0.95em" style="text-anchor: middle; visibility: hidden; font-family: Roboto, sans-serif; font-size: 12px; font-weight: 200;" fill="rgb(50, 49, 63)" stroke="none" stroke-width="1px">-50</text><text x="21.428571428571427" y="0" dx="0em" dy="0.95em" style="text-anchor: middle; visibility: inherit; font-family: Roboto, sans-serif; font-size: 12px; font-weight: 200;" fill="rgb(50, 49, 63)" stroke="none" stroke-width="1px">0</text><text x="42.857142857142854" y="0" dx="0em" dy="0.95em" style="text-anchor: middle; visibility: hidden; font-family: Roboto, sans-serif; font-size: 12px; font-weight: 200;" fill="rgb(50, 49, 63)" stroke="none" stroke-width="1px">50</text><text x="64.28571428571428" y="0" dx="0em" dy="0.95em" style="text-anchor: middle; visibility: inherit; font-family: Roboto, sans-serif; font-size: 12px; font-weight: 200;" fill="rgb(50, 49, 63)" stroke="none" stroke-width="1px">100</text><text x="85.71428571428571" y="0" dx="0em" dy="0.95em" style="text-anchor: middle; visibility: hidden; font-family: Roboto, sans-serif; font-size: 12px; font-weight: 200;" fill="rgb(50, 49, 63)" stroke="none" stroke-width="1px">150</text><text x="107.14285714285714" y="0" dx="0em" dy="0.95em" style="text-anchor: middle; visibility: inherit; font-family: Roboto, sans-serif; font-size: 12px; font-weight: 200;" fill="rgb(50, 49, 63)" stroke="none" stroke-width="1px">200</text><text x="128.57142857142856" y="0" dx="0em" dy="0.95em" style="text-anchor: middle; visibility: hidden; font-family: Roboto, sans-serif; font-size: 12px; font-weight: 200;" fill="rgb(50, 49, 63)" stroke="none" stroke-width="1px">250</text><text x="150" y="0" dx="0em" dy="0.95em" style="text-anchor: middle; visibility: inherit; font-family: Roboto, sans-serif; font-size: 12px; font-weight: 200;" fill="rgb(50, 49, 63)" stroke="none" stroke-width="1px">300</text><text x="171.42857142857142" y="0" dx="0em" dy="0.95em" style="text-anchor: middle; visibility: hidden; font-family: Roboto, sans-serif; font-size: 12px; font-weight: 200;" fill="rgb(50, 49, 63)" stroke="none" stroke-width="1px">350</text><text x="192.85714285714286" y="0" dx="0em" dy="0.95em" style="text-anchor: middle; visibility: inherit; font-family: Roboto, sans-serif; font-size: 12px; font-weight: 200;" fill="rgb(50, 49, 63)" stroke="none" stroke-width="1px">400</text><text x="214.28571428571428" y="0" dx="0em" dy="0.95em" style="text-anchor: middle; visibility: hidden; font-family: Roboto, sans-serif; font-size: 12px; font-weight: 200;" fill="rgb(50, 49, 63)" stroke="none" stroke-width="1px">450</text><text x="235.71428571428572" y="0" dx="0em" dy="0.95em" style="text-anchor: middle; visibility: inherit; font-family: Roboto, sans-serif; font-size: 12px; font-weight: 200;" fill="rgb(50, 49, 63)" stroke="none" stroke-width="1px">500</text><text x="257.1428571428571" y="0" dx="0em" dy="0.95em" style="text-anchor: middle; visibility: hidden; font-family: Roboto, sans-serif; font-size: 12px; font-weight: 200;" fill="rgb(50, 49, 63)" stroke="none" stroke-width="1px">550</text><text x="278.57142857142856" y="0" dx="0em" dy="0.95em" style="text-anchor: middle; visibility: inherit; font-family: Roboto, sans-serif; font-size: 12px; font-weight: 200;" fill="rgb(50, 49, 63)" stroke="none" stroke-width="1px">600</text><text x="300" y="0" dx="0em" dy="0.95em" style="text-anchor: middle; visibility: hidden; font-family: Roboto, sans-serif; font-size: 12px; font-weight: 200;" fill="rgb(50, 49, 63)" stroke="none" stroke-width="1px">650</text></g><line x1="0" y1="0" x2="300" y2="0" fill="rgb(0, 0, 0)" stroke="rgb(204, 204, 204)" stroke-width="1px"></line></g></g></g></g></svg>